<svg width="1080" height="1080" viewBox="0 0 1080 1080" fill="none" xmlns="http://www.w3.org/2000/svg">
<g clip-path="url(#clip0_46_751)">
<rect width="1080" height="1080" fill="#FAFAFA"/>
<text fill="#212121" style="white-space: pre" xml:space="preserve" font-family="Poppins" font-size="70" font-weight="bold" letter-spacing="0em"><tspan x="147.48" y="343">Advogado, fa&#xe7;a 8h de&#10;</tspan><tspan x="103.73" y="434">trabalho caberem em 3!</tspan></text>
<path opacity="0.2" d="M500.6 181.64H487.82V194.6H482.72V181.64H470V177.02H482.72V164H487.82V177.02H500.6V181.64Z" fill="#212121"/>
<path d="M269.933 208.476C270.534 208.5 271.131 208.389 271.683 208.15C272.234 207.912 272.726 207.553 273.12 207.1C273.925 206.179 274.327 204.771 274.327 202.876V159.237H286.311L286.481 203.215C286.534 208.106 285.21 211.949 282.511 214.776C279.811 217.592 276.275 219 271.903 219C269.557 218.994 267.227 218.615 265 217.877L267.329 207.957C268.156 208.295 269.04 208.471 269.933 208.476ZM286.576 140V151.815H274.158V140H286.576Z" fill="#212121"/>
<path d="M420.551 161.8L411.88 187.813L403.21 161.8H396.127V173.964L406.629 199.828C405.464 203.322 403.379 205.079 400.393 205.079C399.498 205.086 398.606 204.983 397.736 204.772L395.756 213.824C398.339 214.428 400.442 214.731 402.066 214.735C405.141 214.8 408.123 213.682 410.398 211.612C412.706 209.537 414.798 206.065 416.676 201.194L431.815 161.8H420.551Z" fill="#02A378"/>
<path d="M302.188 159.239V185.198C302.188 188.184 302.844 190.407 304.178 191.836C305.502 193.276 307.601 193.996 310.478 193.996C313.357 193.996 315.457 193.276 316.777 191.836C318.1 190.396 318.76 188.184 318.757 185.198V171.71L330.741 159.726V186.225C330.741 192.037 328.973 196.462 325.437 199.501C321.9 202.55 316.942 204.074 310.562 204.074C304.242 204.074 299.382 202.578 295.984 199.585C292.585 196.6 290.888 192.143 290.892 186.214V159.218H302.188V159.239Z" fill="#212121"/>
<path d="M365.417 183.033C364.212 181.305 362.577 179.922 360.674 179.02C358.368 177.986 355.972 177.164 353.517 176.564C350.701 175.813 348.717 175.079 347.567 174.362C347.028 174.057 346.583 173.611 346.279 173.072C345.975 172.533 345.823 171.921 345.841 171.303C345.837 170.771 345.974 170.248 346.238 169.787C346.502 169.326 346.884 168.943 347.345 168.677C348.497 167.978 349.83 167.632 351.177 167.683C353.305 167.699 355.422 167.987 357.476 168.54C358.037 168.689 358.577 168.847 359.117 169.017V166.401L351.071 158.354C345.831 158.376 341.596 159.611 338.367 162.06C335.116 164.537 333.497 167.978 333.497 172.414C333.497 179.2 337.463 183.625 345.397 185.69C348.562 186.548 350.859 187.331 352.299 188.019C353.739 188.707 354.459 189.713 354.459 191.036C354.459 192.127 353.887 193.016 352.733 193.715C351.579 194.403 349.949 194.752 347.821 194.752C345.691 194.732 343.572 194.429 341.522 193.852C339.406 193.273 337.355 192.479 335.401 191.481L332.216 200.194C334.695 201.37 337.279 202.309 339.934 203C342.505 203.698 345.156 204.061 347.821 204.08C353.57 204.08 358.256 202.873 361.881 200.459C365.501 198.045 367.312 194.566 367.312 190.02C367.312 187.14 366.68 184.811 365.417 183.033Z" fill="#212121"/>
<path d="M383.468 158.912C383.468 156.891 383.902 155.397 384.781 154.444C385.202 153.975 385.72 153.603 386.3 153.354C386.879 153.106 387.506 152.986 388.136 153.004C388.501 153.007 388.865 153.032 389.227 153.078V150.485L382.97 144.228C380.133 144.767 377.814 145.837 376.036 147.467C373.389 149.902 372.062 153.714 372.055 158.901V161.856H365.745V170.96H371.97V202.773H383.362V170.97H392.71V161.866H383.447V158.912H383.468Z" fill="#02A378"/>
<mask id="mask0_46_751" style="mask-type:luminance" maskUnits="userSpaceOnUse" x="538" y="141" width="276" height="77">
<path d="M813.455 141H538V217.573H813.455V141Z" fill="white"/>
</mask>
<g mask="url(#mask0_46_751)">
<path d="M614.322 206.961C614.284 206.865 614.226 206.807 614.13 206.807H611.746C611.65 206.807 611.573 206.865 611.554 206.961L608.267 217.246C608.267 217.246 608.267 217.362 608.267 217.4C608.305 217.439 608.343 217.458 608.401 217.458H610.324C610.42 217.458 610.497 217.4 610.516 217.304L610.958 215.804C610.958 215.804 610.996 215.747 611.035 215.747H614.784C614.784 215.747 614.841 215.766 614.861 215.804L615.322 217.304C615.36 217.4 615.418 217.458 615.514 217.458H617.437C617.552 217.458 617.61 217.419 617.61 217.323C617.61 217.285 617.61 217.266 617.61 217.246L614.322 206.961ZM614.245 214.093H611.573C611.573 214.093 611.496 214.055 611.515 213.997L612.861 209.48C612.861 209.48 612.881 209.441 612.9 209.422C612.919 209.422 612.938 209.422 612.938 209.48L614.303 213.997C614.303 213.997 614.303 214.093 614.245 214.093Z" fill="#11567C"/>
<path d="M601.827 207.211C601.327 206.942 600.731 206.807 600.059 206.807H595.771C595.771 206.807 595.675 206.807 595.637 206.865C595.598 206.903 595.579 206.942 595.579 207V217.304C595.579 217.304 595.579 217.4 595.637 217.439C595.675 217.477 595.714 217.496 595.771 217.496H597.559C597.559 217.496 597.656 217.496 597.694 217.439C597.732 217.4 597.751 217.362 597.751 217.304V213.421C597.751 213.421 597.771 213.344 597.828 213.344H599.982C600.654 213.344 601.27 213.209 601.789 212.94C602.308 212.671 602.711 212.286 603 211.806C603.288 211.325 603.442 210.748 603.442 210.114C603.442 209.479 603.307 208.884 603.019 208.384C602.731 207.884 602.346 207.499 601.846 207.211M600.866 211.19C600.578 211.46 600.212 211.594 599.732 211.594H597.809C597.809 211.594 597.732 211.575 597.732 211.517V208.711C597.732 208.711 597.751 208.634 597.809 208.634H599.732C600.193 208.634 600.578 208.768 600.866 209.037C601.154 209.307 601.289 209.672 601.289 210.114C601.289 210.556 601.154 210.902 600.866 211.171" fill="#11567C"/>
<path d="M606.708 206.807H604.92C604.92 206.807 604.824 206.807 604.785 206.865C604.747 206.903 604.728 206.942 604.728 207V217.285C604.728 217.285 604.728 217.381 604.785 217.419C604.824 217.458 604.862 217.477 604.92 217.477H606.708C606.708 217.477 606.804 217.477 606.842 217.419C606.881 217.381 606.9 217.342 606.9 217.285V207C606.9 207 606.9 206.903 606.842 206.865C606.804 206.826 606.765 206.807 606.708 206.807Z" fill="#11567C"/>
<path d="M626.353 206.807H624.565C624.565 206.807 624.469 206.807 624.43 206.865C624.392 206.903 624.373 206.942 624.373 207V213.959C624.373 214.497 624.2 214.939 623.873 215.266C623.546 215.593 623.104 215.766 622.566 215.766C622.027 215.766 621.585 215.593 621.258 215.266C620.931 214.939 620.758 214.497 620.758 213.959V207C620.758 207 620.758 206.903 620.701 206.865C620.662 206.826 620.624 206.807 620.566 206.807H618.778C618.778 206.807 618.682 206.807 618.644 206.865C618.605 206.903 618.586 206.942 618.586 207V213.94C618.586 214.651 618.759 215.305 619.086 215.843C619.413 216.4 619.874 216.823 620.47 217.131C621.066 217.439 621.758 217.592 622.527 217.592C623.296 217.592 623.988 217.439 624.584 217.131C625.18 216.823 625.642 216.4 625.968 215.843C626.295 215.285 626.468 214.651 626.468 213.94V207C626.468 207 626.468 206.903 626.41 206.865C626.372 206.826 626.334 206.807 626.276 206.807" fill="#11567C"/>
<path d="M630.992 203.98H629.454C629.338 203.98 629.261 204.019 629.223 204.115L628.415 205.653C628.415 205.653 628.377 205.768 628.415 205.806C628.435 205.845 628.473 205.864 628.55 205.864H629.819C629.819 205.864 629.973 205.826 630.031 205.749L631.107 204.211C631.107 204.211 631.145 204.095 631.126 204.057C631.107 204.019 631.049 203.98 630.972 203.98" fill="#11567C"/>
<path d="M630.279 206.807H628.491C628.491 206.807 628.395 206.807 628.356 206.865C628.318 206.903 628.299 206.942 628.299 207V217.285C628.299 217.285 628.299 217.381 628.356 217.419C628.395 217.458 628.433 217.477 628.491 217.477H630.279C630.279 217.477 630.375 217.477 630.414 217.419C630.452 217.381 630.471 217.342 630.471 217.285V207C630.471 207 630.471 206.903 630.414 206.865C630.375 206.826 630.337 206.807 630.279 206.807Z" fill="#11567C"/>
<path d="M594.902 172.972C594.729 174.471 594.421 175.933 594.018 177.355C594.421 175.933 594.71 174.471 594.902 172.972Z" fill="#11567C"/>
<path d="M580.642 167.414C580.777 167.414 580.892 167.414 580.988 167.394C581.123 167.356 581.238 167.279 581.354 167.164C581.45 167.068 581.527 166.952 581.604 166.798C581.681 166.625 581.738 166.452 581.757 166.318C581.757 166.183 581.757 166.049 581.719 165.933C581.681 165.818 581.623 165.703 581.527 165.626C581.45 165.568 581.334 165.491 581.181 165.414L580.489 165.068L579.585 166.952L580.296 167.298C580.431 167.375 580.565 167.414 580.661 167.433M580.7 165.549L580.873 165.626C581.027 165.703 581.123 165.76 581.181 165.799C581.238 165.856 581.296 165.914 581.315 165.972C581.334 166.029 581.354 166.125 581.315 166.202C581.315 166.299 581.257 166.414 581.2 166.549C581.123 166.702 581.065 166.798 580.988 166.875C580.911 166.952 580.854 166.991 580.796 167.01C580.738 167.01 580.681 167.01 580.604 167.01C580.546 167.01 580.469 166.971 580.354 166.914L580.065 166.779L580.661 165.529L580.7 165.549Z" fill="#11567C"/>
<path d="M577.213 165.147C577.137 165.378 577.156 165.57 577.213 165.743C577.29 165.916 577.463 166.051 577.694 166.166C577.867 166.243 578.002 166.282 578.136 166.282C578.271 166.282 578.386 166.243 578.482 166.185C578.578 166.109 578.655 166.032 578.713 165.916C578.771 165.801 578.79 165.686 578.771 165.57C578.771 165.455 578.713 165.359 578.636 165.282C578.559 165.205 578.444 165.09 578.271 164.955C578.098 164.821 578.002 164.744 577.963 164.667C577.944 164.609 577.944 164.571 577.963 164.532C577.982 164.475 578.021 164.455 578.078 164.436C578.155 164.436 578.252 164.436 578.367 164.475C578.482 164.532 578.54 164.59 578.578 164.647C578.617 164.724 578.617 164.801 578.578 164.917L578.982 165.071C579.059 164.897 579.059 164.724 578.982 164.571C578.905 164.417 578.751 164.282 578.501 164.167C578.348 164.109 578.213 164.071 578.098 164.071C577.982 164.071 577.867 164.09 577.771 164.167C577.675 164.225 577.617 164.302 577.559 164.398C577.483 164.552 577.502 164.705 577.559 164.859C577.617 164.974 577.733 165.109 577.905 165.243C578.04 165.359 578.136 165.436 578.175 165.455C578.232 165.513 578.271 165.551 578.271 165.609C578.271 165.647 578.271 165.705 578.271 165.743C578.232 165.82 578.175 165.859 578.098 165.897C578.002 165.916 577.905 165.897 577.771 165.859C577.656 165.801 577.579 165.743 577.521 165.647C577.483 165.551 577.463 165.436 577.521 165.301L577.117 165.167L577.213 165.147Z" fill="#11567C"/>
<path d="M581.731 167.761C581.808 168.011 581.981 168.223 582.25 168.357C582.519 168.511 582.788 168.53 583.038 168.453C583.288 168.377 583.5 168.184 583.654 167.877C583.807 167.569 583.846 167.3 583.788 167.031C583.711 166.781 583.538 166.569 583.269 166.435C583.115 166.358 582.981 166.3 582.827 166.3C582.731 166.3 582.615 166.3 582.5 166.339C582.385 166.377 582.289 166.435 582.192 166.492C582.077 166.589 581.962 166.742 581.866 166.916C581.712 167.204 581.673 167.492 581.75 167.742M582.25 167.127C582.366 166.916 582.5 166.781 582.654 166.723C582.808 166.666 582.962 166.685 583.115 166.762C583.269 166.839 583.365 166.954 583.404 167.108C583.442 167.262 583.404 167.454 583.288 167.665C583.173 167.877 583.038 168.011 582.885 168.069C582.731 168.127 582.577 168.107 582.423 168.031C582.269 167.954 582.173 167.838 582.135 167.665C582.096 167.511 582.135 167.319 582.231 167.108" fill="#11567C"/>
<path d="M585.229 170.009C585.325 170.047 585.422 170.086 585.518 170.066C585.614 170.066 585.691 170.028 585.787 169.97C585.864 169.913 585.941 169.855 585.979 169.759C586.037 169.663 586.075 169.547 586.056 169.432C586.056 169.317 585.998 169.22 585.902 169.124C585.998 169.124 586.094 169.124 586.191 169.067C586.287 169.028 586.344 168.951 586.402 168.874C586.441 168.798 586.479 168.721 586.479 168.624C586.479 168.548 586.479 168.471 586.441 168.394C586.402 168.317 586.364 168.259 586.287 168.202C586.229 168.144 586.114 168.086 585.979 167.99L585.249 167.567L584.172 169.374L584.787 169.74C585.018 169.874 585.172 169.951 585.229 169.99M585.441 168.105L585.652 168.221C585.825 168.317 585.921 168.394 585.96 168.413C586.017 168.452 586.056 168.509 586.056 168.567C586.056 168.624 586.056 168.682 586.017 168.721C585.979 168.778 585.941 168.817 585.883 168.836C585.825 168.836 585.768 168.836 585.691 168.817C585.652 168.817 585.556 168.74 585.422 168.663L585.191 168.528L585.441 168.105ZM584.999 168.836L585.287 169.009C585.46 169.105 585.556 169.182 585.595 169.22C585.633 169.259 585.652 169.317 585.652 169.374C585.652 169.432 585.652 169.49 585.614 169.528C585.575 169.586 585.537 169.624 585.479 169.644C585.422 169.644 585.364 169.644 585.306 169.644C585.268 169.644 585.191 169.586 585.056 169.509L584.71 169.317L584.999 168.836Z" fill="#11567C"/>
<path d="M569.162 162.896C569.296 163.031 569.47 163.127 569.681 163.184C569.854 163.223 570.027 163.242 570.2 163.223C570.373 163.223 570.527 163.165 570.623 163.107L570.854 162.3L569.969 162.05L569.873 162.396L570.335 162.531L570.258 162.781C570.258 162.781 570.104 162.838 570.008 162.838C569.912 162.838 569.816 162.838 569.739 162.819C569.566 162.761 569.45 162.665 569.373 162.531C569.296 162.377 569.296 162.185 569.373 161.935C569.431 161.704 569.527 161.55 569.681 161.473C569.816 161.396 569.969 161.377 570.161 161.416C570.277 161.454 570.373 161.512 570.431 161.589C570.488 161.666 570.527 161.762 570.527 161.877L570.95 161.915C570.95 161.723 570.911 161.55 570.796 161.396C570.681 161.243 570.508 161.146 570.258 161.07C570.066 161.012 569.892 161.012 569.739 161.031C569.546 161.07 569.373 161.166 569.239 161.3C569.104 161.435 569.008 161.608 568.95 161.819C568.893 162.012 568.893 162.204 568.912 162.396C568.95 162.588 569.027 162.742 569.162 162.877" fill="#11567C"/>
<path d="M566.775 162.108C566.91 162.339 567.121 162.492 567.429 162.569C567.737 162.646 567.987 162.627 568.217 162.473C568.448 162.339 568.602 162.108 568.679 161.781C568.775 161.454 568.756 161.166 568.621 160.935C568.486 160.705 568.275 160.551 567.987 160.474C567.814 160.435 567.66 160.416 567.525 160.435C567.41 160.435 567.314 160.493 567.218 160.551C567.121 160.608 567.025 160.685 566.949 160.781C566.852 160.916 566.775 161.07 566.718 161.281C566.641 161.608 566.66 161.877 566.795 162.108M567.141 161.377C567.198 161.147 567.295 160.974 567.429 160.897C567.564 160.801 567.717 160.781 567.891 160.839C568.064 160.878 568.179 160.974 568.256 161.128C568.333 161.262 568.333 161.454 568.256 161.685C568.198 161.916 568.102 162.089 567.967 162.166C567.833 162.262 567.679 162.281 567.525 162.243C567.371 162.204 567.237 162.108 567.16 161.954C567.083 161.8 567.083 161.627 567.141 161.397" fill="#11567C"/>
<path d="M571.122 163.608L571.43 163.205L572.237 163.454L572.276 163.954L572.718 164.089L572.564 161.84L572.142 161.705L570.719 163.454L571.142 163.589L571.122 163.608ZM572.18 162.262L572.218 163.089L571.68 162.916L572.199 162.262H572.18Z" fill="#11567C"/>
<path d="M575.777 165.319C576.066 165.435 576.335 165.435 576.566 165.319C576.796 165.204 576.989 164.992 577.104 164.666C577.219 164.339 577.238 164.07 577.123 163.82C577.008 163.57 576.816 163.397 576.527 163.281C576.373 163.224 576.22 163.205 576.066 163.205C575.95 163.205 575.854 163.243 575.739 163.281C575.624 163.339 575.527 163.397 575.45 163.474C575.335 163.589 575.239 163.743 575.162 163.935C575.047 164.243 575.028 164.531 575.143 164.762C575.239 165.012 575.45 165.185 575.739 165.3M575.624 164.089C575.7 163.858 575.816 163.724 575.97 163.647C576.104 163.57 576.258 163.57 576.431 163.647C576.585 163.704 576.7 163.82 576.758 163.954C576.816 164.108 576.796 164.281 576.719 164.512C576.642 164.742 576.508 164.896 576.373 164.973C576.22 165.05 576.085 165.05 575.912 164.992C575.739 164.935 575.643 164.819 575.585 164.666C575.527 164.512 575.547 164.32 575.624 164.108" fill="#11567C"/>
<path d="M574.047 164.57C574.182 164.57 574.297 164.57 574.393 164.513C574.509 164.455 574.624 164.359 574.72 164.243C574.797 164.147 574.874 164.013 574.932 163.84C574.989 163.648 575.028 163.494 575.028 163.34C575.028 163.205 575.008 163.071 574.951 162.955C574.893 162.84 574.816 162.744 574.72 162.667C574.643 162.609 574.528 162.552 574.355 162.494L573.624 162.225L572.913 164.205L573.663 164.474C573.817 164.532 573.932 164.551 574.028 164.551M573.913 162.725L574.086 162.782C574.24 162.84 574.355 162.878 574.413 162.917C574.489 162.955 574.528 163.013 574.566 163.071C574.605 163.128 574.605 163.205 574.605 163.302C574.605 163.398 574.566 163.513 574.528 163.667C574.47 163.821 574.413 163.936 574.355 164.013C574.297 164.09 574.239 164.147 574.182 164.167C574.124 164.186 574.067 164.205 573.99 164.186C573.932 164.186 573.855 164.167 573.74 164.109L573.432 163.993L573.913 162.686V162.725Z" fill="#11567C"/>
<path d="M587.963 171.758L588.366 171.451L589.058 171.912L588.943 172.412L589.328 172.662L589.789 170.451L589.424 170.201L587.578 171.489L587.943 171.739L587.963 171.758ZM589.347 170.759L589.154 171.566L588.674 171.239L589.347 170.759Z" fill="#11567C"/>
<path d="M586.345 170.701L586.806 169.951L586.883 169.989C586.883 169.989 587.018 170.086 587.056 170.124C587.095 170.163 587.114 170.201 587.114 170.259C587.114 170.316 587.133 170.451 587.133 170.643V171.201L587.576 171.47V170.989C587.576 170.797 587.576 170.662 587.556 170.566C587.556 170.489 587.499 170.393 587.46 170.297C587.633 170.374 587.787 170.393 587.921 170.355C588.056 170.316 588.152 170.22 588.248 170.086C588.306 169.989 588.344 169.874 588.344 169.759C588.344 169.644 588.306 169.547 588.248 169.451C588.171 169.374 588.056 169.259 587.864 169.144L587.114 168.682L585.999 170.47L586.364 170.701H586.345ZM587.268 169.22L587.556 169.394C587.71 169.49 587.787 169.547 587.826 169.567C587.883 169.605 587.902 169.663 587.921 169.72C587.921 169.778 587.921 169.836 587.883 169.893C587.845 169.951 587.806 169.989 587.768 170.009C587.71 170.009 587.672 170.028 587.614 170.009C587.556 170.009 587.441 169.932 587.268 169.836L586.999 169.663L587.287 169.201L587.268 169.22Z" fill="#11567C"/>
<path d="M565.587 162.051L566.759 160.148L566.317 160.052L565.491 161.474L565.279 159.84L564.837 159.744L565.144 161.955L565.587 162.051Z" fill="#11567C"/>
<path d="M589.708 172.799C589.747 172.992 589.881 173.145 590.093 173.299C590.246 173.415 590.381 173.472 590.516 173.511C590.65 173.549 590.765 173.53 590.881 173.492C590.996 173.453 591.092 173.376 591.169 173.28C591.246 173.165 591.285 173.068 591.304 172.953C591.304 172.838 591.304 172.742 591.246 172.646C591.189 172.549 591.112 172.415 590.958 172.261C590.823 172.107 590.746 171.992 590.727 171.915C590.727 171.857 590.727 171.819 590.746 171.781C590.785 171.742 590.823 171.723 590.881 171.723C590.958 171.723 591.054 171.761 591.169 171.838C591.265 171.915 591.323 171.973 591.342 172.05C591.361 172.127 591.342 172.203 591.304 172.3L591.65 172.53C591.765 172.376 591.785 172.203 591.746 172.03C591.708 171.857 591.573 171.704 591.361 171.55C591.227 171.454 591.112 171.396 590.977 171.357C590.862 171.338 590.746 171.338 590.631 171.357C590.535 171.396 590.439 171.454 590.381 171.55C590.285 171.684 590.246 171.838 590.285 172.011C590.304 172.126 590.4 172.28 590.554 172.453C590.669 172.588 590.746 172.684 590.765 172.722C590.804 172.78 590.842 172.838 590.842 172.896C590.842 172.934 590.842 172.972 590.804 173.03C590.765 173.088 590.689 173.126 590.593 173.126C590.496 173.126 590.4 173.107 590.285 173.011C590.189 172.934 590.112 172.857 590.093 172.761C590.073 172.665 590.093 172.549 590.15 172.415L589.785 172.203C589.67 172.415 589.631 172.607 589.67 172.78" fill="#11567C"/>
<path d="M592.332 172.318L591.076 173.995L591.415 174.249L592.67 172.571L592.332 172.318Z" fill="#11567C"/>
<path d="M592.924 175.412L593.136 175.124L592.29 174.49L593.328 173.106L592.982 172.856L591.732 174.528L592.924 175.412Z" fill="#11567C"/>
<path d="M547.628 158.147C547.628 158.147 547.436 157.993 547.321 157.955C547.224 157.935 547.09 157.916 546.917 157.916H546.148L546.109 160.012H546.917C547.071 160.012 547.205 160.012 547.301 159.992C547.436 159.954 547.532 159.896 547.609 159.819C547.705 159.723 547.782 159.608 547.84 159.454C547.878 159.339 547.917 159.185 547.917 159.012C547.917 158.82 547.917 158.647 547.859 158.512C547.82 158.378 547.743 158.262 547.667 158.166M547.397 159.358C547.397 159.358 547.321 159.512 547.282 159.569C547.244 159.608 547.186 159.646 547.109 159.646C547.051 159.646 546.975 159.646 546.859 159.646H546.552V158.243H546.744C546.917 158.243 547.032 158.243 547.09 158.262C547.167 158.262 547.224 158.32 547.282 158.358C547.34 158.416 547.378 158.474 547.397 158.57C547.417 158.647 547.436 158.781 547.436 158.935C547.436 159.089 547.436 159.223 547.378 159.32" fill="#11567C"/>
<path d="M550.67 158.436L550.997 160.109L551.42 160.128L551.9 158.494L551.824 160.147L552.227 160.167L552.323 158.071L551.689 158.033L551.247 159.436L550.939 157.994L550.305 157.956L550.189 160.071L550.593 160.09L550.67 158.436Z" fill="#11567C"/>
<path d="M566.55 141C555.169 141 545.345 147.671 540.75 157.322C560.109 155.476 576.893 159.091 594.907 172.933C595.041 171.818 595.118 170.703 595.118 169.549C595.118 153.785 582.333 141 566.55 141ZM576.316 160.936L575.336 160.436L574.374 160.956L574.547 159.86L573.759 159.091L574.855 158.918L575.336 157.918L575.835 158.898L576.931 159.052L576.143 159.821L576.335 160.898L576.316 160.936Z" fill="#11567C"/>
<path d="M539.173 161.494C538.423 164.051 538 166.761 538 169.568C538 185.333 550.785 198.117 566.549 198.117C579.622 198.117 590.618 189.331 594.021 177.354C578.334 164.512 559.397 158.745 539.173 161.494ZM542.864 164.205L543.364 163.224L543.844 164.224L544.94 164.377L544.152 165.147L544.344 166.242L543.364 165.723L542.383 166.223L542.576 165.147L541.787 164.377L542.883 164.224L542.864 164.205ZM543.594 180.277L542.787 179.873L541.999 180.296L542.133 179.411L541.48 178.796L542.364 178.662L542.749 177.854L543.152 178.662L544.037 178.777L543.402 179.411L543.556 180.296L543.594 180.277ZM546.651 177.989L545.728 177.508L544.806 178.008L544.979 176.989L544.229 176.278L545.267 176.124L545.709 175.182L546.171 176.105L547.209 176.239L546.478 176.97L546.67 177.989H546.651ZM567.203 192.754L566.78 192.542L566.357 192.773L566.414 192.292L566.068 191.965L566.53 191.888L566.722 191.446L566.953 191.869L567.433 191.927L567.106 192.273L567.203 192.734V192.754ZM567.587 184.141L566.664 183.66L565.742 184.16L565.914 183.122L565.165 182.391L566.203 182.237L566.664 181.295L567.126 182.237L568.164 182.372L567.414 183.103L567.606 184.141H567.587ZM581.544 192.523L580.872 192.196L580.218 192.561L580.333 191.831L579.795 191.312L580.525 191.196L580.833 190.523L581.179 191.196L581.929 191.292L581.41 191.831L581.544 192.561V192.523ZM587.004 185.698L586.254 185.294L585.486 185.679L585.639 184.833L585.043 184.237L585.889 184.121L586.274 183.352L586.639 184.121L587.485 184.256L586.87 184.852L587.004 185.698ZM590.369 179.392L590.676 178.739L591.003 179.373L591.734 179.469L591.214 179.988L591.349 180.699L590.695 180.373L590.061 180.719L590.176 180.007L589.638 179.507L590.349 179.392H590.369ZM588.831 182.007L588.235 182.584L588.369 183.41L587.639 183.006L586.889 183.391L587.043 182.584L586.466 181.988L587.293 181.891L587.677 181.161L588.023 181.911L588.85 182.045L588.831 182.007ZM586.043 178.911L586.485 177.97L586.966 178.892L588.004 179.027L587.273 179.757L587.466 180.776L586.543 180.296L585.62 180.796L585.774 179.757L585.024 179.046L586.043 178.873V178.911ZM583.313 185.41L583.601 184.775L583.928 185.39L584.62 185.467L584.121 185.967L584.255 186.659L583.621 186.352L583.005 186.698L583.102 186.006L582.583 185.525L583.275 185.41H583.313ZM580.487 185.41L580.814 184.737L581.141 185.41L581.871 185.525L581.333 186.044L581.448 186.774L580.795 186.428L580.141 186.774L580.276 186.044L579.756 185.525L580.487 185.429V185.41ZM580.525 188.043L580.929 187.236L581.314 188.043L582.198 188.178L581.544 188.793L581.679 189.677L580.891 189.255L580.083 189.658L580.256 188.774L579.622 188.14L580.506 188.024L580.525 188.043ZM577.142 186.044L577.469 185.371L577.795 186.044L578.526 186.14L578.007 186.659L578.142 187.39L577.488 187.044L576.834 187.39L576.95 186.659L576.411 186.14L577.142 186.025V186.044ZM574.854 187.986L575.239 188.735L576.084 188.831L575.488 189.427L575.642 190.254L574.873 189.87L574.124 190.273L574.258 189.427L573.643 188.851L574.489 188.716L574.854 187.947V187.986ZM572.932 167.319L573.278 166.627L573.624 167.319L574.393 167.434L573.835 167.973L573.97 168.741L573.278 168.376L572.585 168.741L572.72 167.973L572.163 167.434L572.932 167.319ZM572.201 185.313L572.528 184.641L572.855 185.313L573.585 185.429L573.047 185.948L573.162 186.678L572.509 186.332L571.855 186.678L571.99 185.948L571.471 185.429L572.201 185.333V185.313ZM569.394 175.624L569.798 176.432L570.702 176.547L570.048 177.181L570.221 178.085L569.413 177.662L568.606 178.104L568.76 177.2L568.106 176.566L569.01 176.432L569.413 175.605L569.394 175.624ZM566.414 174.009L566.799 173.202L567.203 174.009L568.106 174.125L567.472 174.759L567.645 175.643L566.837 175.24L566.049 175.663L566.184 174.778L565.53 174.163L566.414 174.028V174.009ZM564.723 178.527L564.972 178.046L565.203 178.546L565.742 178.623L565.338 178.988L565.415 179.527L564.934 179.258L564.453 179.507L564.55 178.969L564.165 178.585L564.703 178.508L564.723 178.527ZM562.512 176.835L562.858 176.143L563.204 176.835L563.973 176.951L563.415 177.489L563.55 178.258L562.858 177.893L562.166 178.258L562.3 177.489L561.743 176.951L562.512 176.835ZM555.052 170.203L555.437 169.376L555.86 170.183L556.763 170.28L556.129 170.933L556.302 171.818L555.475 171.414L554.687 171.856L554.822 170.952L554.149 170.337L555.052 170.183V170.203ZM554.168 184.756L554.61 183.852L555.072 184.756L556.071 184.891L555.36 185.602L555.533 186.602L554.63 186.14L553.745 186.621L553.899 185.621L553.168 184.929L554.168 184.775V184.756ZM551.073 178.892L551.438 178.104L551.823 178.873L552.688 178.988L552.073 179.604L552.226 180.45L551.457 180.065L550.688 180.488L550.823 179.642L550.189 179.046L551.034 178.911L551.073 178.892ZM550.131 181.93L550.458 181.257L550.785 181.93L551.534 182.045L550.996 182.564L551.131 183.314L550.458 182.968L549.785 183.314L549.919 182.564L549.381 182.045L550.131 181.93ZM549.15 174.605L548.747 174.99L548.843 175.547L548.343 175.278L547.843 175.528L547.939 174.97L547.536 174.586L548.093 174.509L548.343 174.009L548.593 174.509L549.15 174.586V174.605Z" fill="#11567C"/>
<path d="M554.627 160.282C554.761 160.244 554.858 160.205 554.934 160.129C555.031 160.032 555.127 159.917 555.184 159.782C555.242 159.667 555.261 159.513 555.28 159.34C555.28 159.148 555.28 158.975 555.242 158.84C555.204 158.706 555.146 158.591 555.069 158.494C554.992 158.398 554.877 158.321 554.761 158.283C554.665 158.244 554.531 158.225 554.358 158.225L553.589 158.168L553.454 160.263L554.242 160.321C554.396 160.321 554.531 160.321 554.627 160.302M553.896 159.936L553.992 158.552H554.185C554.358 158.571 554.473 158.591 554.531 158.61C554.608 158.629 554.665 158.667 554.723 158.725C554.781 158.783 554.8 158.84 554.838 158.937C554.858 159.033 554.877 159.148 554.838 159.302C554.838 159.456 554.8 159.59 554.761 159.686C554.723 159.782 554.685 159.84 554.646 159.879C554.588 159.917 554.531 159.936 554.473 159.956C554.415 159.956 554.338 159.956 554.223 159.956H553.916L553.896 159.936Z" fill="#11567C"/>
<path d="M542.553 157.995C542.38 157.995 542.226 158.033 542.111 158.091C542.014 158.129 541.918 158.206 541.841 158.283C541.765 158.379 541.707 158.475 541.649 158.571C541.591 158.725 541.572 158.898 541.572 159.11C541.572 159.437 541.688 159.706 541.88 159.879C542.072 160.052 542.322 160.148 542.63 160.129C542.937 160.129 543.187 160.013 543.36 159.821C543.533 159.629 543.61 159.36 543.61 159.014C543.61 158.668 543.495 158.398 543.302 158.225C543.11 158.033 542.86 157.956 542.553 157.976M543.053 159.61C542.956 159.744 542.822 159.802 542.649 159.802C542.476 159.802 542.341 159.744 542.226 159.629C542.111 159.514 542.053 159.34 542.034 159.091C542.034 158.86 542.072 158.668 542.168 158.552C542.264 158.437 542.399 158.36 542.591 158.36C542.764 158.36 542.899 158.398 543.014 158.514C543.129 158.629 543.187 158.802 543.187 159.052C543.187 159.302 543.149 159.475 543.053 159.61Z" fill="#11567C"/>
<path d="M545.38 159.263C545.38 159.263 545.245 159.148 545.149 159.09C545.341 159.052 545.476 158.994 545.553 158.879C545.649 158.783 545.687 158.648 545.687 158.475C545.687 158.36 545.649 158.244 545.591 158.148C545.533 158.052 545.437 157.994 545.341 157.956C545.245 157.918 545.072 157.898 544.841 157.918H543.957L543.995 160.032H544.418V159.148H544.495C544.591 159.148 544.668 159.148 544.707 159.148C544.745 159.148 544.803 159.186 544.841 159.225C544.88 159.263 544.957 159.359 545.072 159.532L545.38 159.975H545.88L545.61 159.552C545.495 159.398 545.418 159.283 545.36 159.225M544.707 158.821H544.399V158.302H544.726C544.899 158.302 544.995 158.302 545.034 158.302C545.111 158.302 545.149 158.341 545.187 158.379C545.226 158.417 545.245 158.475 545.245 158.552C545.245 158.61 545.245 158.667 545.207 158.706C545.168 158.744 545.13 158.783 545.091 158.802C545.034 158.802 544.918 158.821 544.707 158.84" fill="#11567C"/>
<path d="M549.822 158.303V157.957L548.264 157.938L548.245 160.033L549.841 160.052V159.706L548.668 159.687L548.687 159.11L549.725 159.13L549.745 158.764H548.687V158.284L549.822 158.303Z" fill="#11567C"/>
<path d="M556.472 160.552C556.779 160.571 557.029 160.494 557.241 160.321C557.433 160.148 557.548 159.898 557.587 159.552C557.606 159.206 557.548 158.937 557.375 158.726C557.202 158.514 556.971 158.399 556.664 158.38C556.491 158.38 556.337 158.38 556.202 158.418C556.106 158.456 556.01 158.514 555.914 158.591C555.818 158.668 555.76 158.764 555.703 158.86C555.626 158.995 555.587 159.168 555.568 159.379C555.549 159.706 555.606 159.975 555.779 160.187C555.952 160.398 556.183 160.513 556.491 160.533M555.972 159.418C555.991 159.168 556.068 158.995 556.183 158.899C556.299 158.783 556.452 158.745 556.625 158.764C556.798 158.764 556.933 158.841 557.029 158.975C557.125 159.11 557.164 159.283 557.144 159.533C557.125 159.783 557.048 159.956 556.933 160.071C556.818 160.187 556.664 160.225 556.51 160.225C556.337 160.225 556.202 160.129 556.106 160.014C556.01 159.879 555.972 159.706 555.991 159.456" fill="#11567C"/>
<path d="M558.934 160.416C558.934 160.416 558.761 160.473 558.626 160.454C558.492 160.454 558.396 160.396 558.338 160.319C558.261 160.243 558.242 160.127 558.223 159.993H557.8C557.8 160.204 557.857 160.396 557.973 160.55C558.107 160.685 558.3 160.781 558.55 160.819C558.723 160.838 558.896 160.819 559.011 160.819C559.146 160.781 559.242 160.723 559.319 160.627C559.396 160.531 559.453 160.416 559.453 160.3C559.453 160.166 559.453 160.05 559.415 159.954C559.376 159.858 559.299 159.781 559.222 159.704C559.126 159.647 558.992 159.57 558.78 159.493C558.588 159.416 558.453 159.358 558.415 159.301C558.377 159.262 558.357 159.224 558.377 159.166C558.377 159.108 558.415 159.07 558.453 159.051C558.53 159.012 558.626 158.993 558.742 159.012C558.857 159.012 558.953 159.07 558.992 159.127C559.049 159.185 559.069 159.262 559.069 159.377L559.492 159.416C559.511 159.224 559.472 159.07 559.357 158.935C559.242 158.801 559.049 158.724 558.78 158.685C558.626 158.666 558.473 158.685 558.357 158.685C558.242 158.724 558.146 158.781 558.069 158.858C557.992 158.935 557.954 159.031 557.934 159.147C557.915 159.32 557.954 159.454 558.069 159.589C558.146 159.685 558.3 159.781 558.511 159.858C558.684 159.935 558.8 159.973 558.838 159.993C558.915 160.031 558.953 160.069 558.973 160.108C558.992 160.146 559.011 160.185 558.992 160.243C558.992 160.319 558.934 160.377 558.857 160.435" fill="#11567C"/>
<path d="M563.697 161.61C563.832 161.61 563.928 161.552 564.024 161.494C564.139 161.417 564.236 161.321 564.313 161.167C564.389 161.052 564.428 160.918 564.466 160.744C564.505 160.552 564.505 160.379 564.485 160.245C564.466 160.11 564.428 159.975 564.351 159.879C564.274 159.764 564.197 159.687 564.082 159.629C564.005 159.591 563.87 159.553 563.697 159.514L562.928 159.38L562.544 161.437L563.332 161.59C563.486 161.629 563.62 161.629 563.717 161.61M563.274 159.802L563.467 159.841C563.64 159.879 563.755 159.899 563.813 159.918C563.89 159.956 563.947 159.995 563.986 160.052C564.024 160.11 564.063 160.187 564.063 160.283C564.063 160.379 564.063 160.495 564.044 160.648C564.005 160.802 563.967 160.937 563.928 161.014C563.89 161.091 563.832 161.167 563.774 161.187C563.717 161.225 563.659 161.244 563.582 161.244C563.524 161.244 563.448 161.244 563.332 161.225L563.024 161.167L563.294 159.802H563.274Z" fill="#11567C"/>
<path d="M560.934 160.666L561.761 160.801L561.876 161.301L562.338 161.378L561.819 159.167L561.377 159.109L560.242 161.051L560.684 161.128L560.934 160.686V160.666ZM561.511 159.609L561.684 160.416L561.127 160.32L561.53 159.59L561.511 159.609Z" fill="#11567C"/>
<path d="M665.822 165.472C665.822 165.472 669.417 161.608 669.417 156.032C669.417 145.766 658.69 141.114 658.69 141.114H638.312V198.231H665.284C665.284 198.231 678.914 193.905 678.914 181.755C678.914 169.605 665.803 165.472 665.803 165.472" fill="#11567C"/>
<path d="M588.351 198.231H636.72L612.536 141.114L588.351 198.231Z" fill="#11567C"/>
<path d="M692.949 172.451H692.026V197.155H692.949V172.451Z" fill="#E4051F"/>
<path d="M724.829 194.254C724.156 194.753 723.445 195.196 722.676 195.561C721.907 195.926 721.08 196.195 720.215 196.407C719.331 196.618 718.351 196.714 717.274 196.714C715.563 196.714 713.986 196.407 712.545 195.772C711.103 195.138 709.853 194.273 708.796 193.196C707.738 192.12 706.912 190.812 706.316 189.332C705.72 187.852 705.412 186.256 705.412 184.545C705.412 182.834 705.72 181.277 706.316 179.796C706.912 178.316 707.738 177.009 708.796 175.894C709.853 174.779 711.122 173.894 712.583 173.26C714.044 172.626 715.64 172.299 717.37 172.299C718.447 172.299 719.427 172.395 720.292 172.568C721.157 172.741 721.965 173.01 722.695 173.337C723.445 173.664 724.118 174.048 724.752 174.51C725.387 174.971 725.983 175.49 726.579 176.048L724.752 178.009C723.733 177.067 722.657 176.278 721.503 175.682C720.35 175.067 718.946 174.779 717.332 174.779C716.024 174.779 714.813 175.029 713.698 175.529C712.583 176.028 711.622 176.72 710.795 177.586C709.968 178.47 709.334 179.489 708.873 180.681C708.411 181.873 708.181 183.142 708.181 184.506C708.181 185.871 708.411 187.16 708.873 188.352C709.334 189.544 709.968 190.581 710.795 191.466C711.622 192.35 712.583 193.042 713.698 193.542C714.813 194.042 716.024 194.292 717.332 194.292C718.946 194.292 720.35 194.004 721.523 193.408C722.695 192.812 723.849 191.966 724.964 190.889L726.713 192.619C726.098 193.254 725.464 193.811 724.81 194.33L724.829 194.254Z" fill="#00577F"/>
<path d="M753.613 196.291H750.75L747.98 190.043H735.119L732.312 196.291H729.582L740.348 172.49H742.847L753.613 196.291ZM741.559 175.624L736.157 187.678H746.923L741.559 175.624Z" fill="#00577F"/>
<path d="M781.182 196.291H778.319L775.549 190.043H762.687L759.882 196.291H757.15L767.917 172.49H770.417L781.182 196.291ZM769.128 175.624L763.725 187.678H774.492L769.128 175.624Z" fill="#00577F"/>
<path d="M803.419 184.505C802.919 185.543 802.247 186.409 801.381 187.101C800.517 187.793 799.498 188.312 798.343 188.677C797.191 189.042 795.94 189.196 794.615 189.196H790.673V196.29H785.483V172.663H795.134C796.557 172.663 797.824 172.855 798.939 173.259C800.056 173.662 800.998 174.201 801.766 174.931C802.536 175.643 803.131 176.508 803.555 177.507C803.976 178.507 804.169 179.622 804.169 180.833V180.91C804.169 182.275 803.918 183.486 803.419 184.524V184.505ZM798.901 180.929C798.901 179.757 798.518 178.872 797.767 178.257C797.018 177.642 795.98 177.354 794.672 177.354H790.654V184.582H794.768C796.076 184.582 797.095 184.236 797.805 183.544C798.537 182.852 798.882 182.006 798.882 180.987V180.91L798.901 180.929Z" fill="#00577F"/>
<path d="M808.264 196.29V172.663H813.456V196.29H808.264Z" fill="#00577F"/>
</g>
<line x1="538" y1="781" x2="538" y2="650" stroke="url(#paint0_linear_46_751)" stroke-width="4"/>
<rect x="171" y="501" width="493" height="120" rx="13.3263" fill="#E7E8EC"/>
<rect x="677" y="501" width="228" height="120" rx="13.3263" fill="#E7E8EC"/>
<text fill="#212121" style="white-space: pre" xml:space="preserve" font-family="Poppins" font-size="30" letter-spacing="0em"><tspan x="191" y="552">&#xa0;IA jur&#xed;dica completa treinada </tspan><tspan x="191" y="591">em 350 milh&#xf5;es de processos</tspan></text>
<text fill="#212121" style="white-space: pre" xml:space="preserve" font-family="Poppins" font-size="30" letter-spacing="0em"><tspan x="697" y="552">&#xa0;20 solu&#xe7;&#xf5;es </tspan><tspan x="697" y="591">integradas</tspan></text>
<rect x="173" y="649" width="730" height="130" rx="11.3263" stroke="url(#paint1_linear_46_751)" stroke-width="4"/>
<text fill="#01A379" style="white-space: pre" xml:space="preserve" font-family="Poppins" font-size="30" font-weight="bold" letter-spacing="0em"><tspan x="234.965" y="753">no primeiro m&#xea;s</tspan></text>
<text fill="#212121" style="white-space: pre" xml:space="preserve" font-family="Poppins" font-size="30" letter-spacing="0em"><tspan x="207.577" y="714">Apenas </tspan></text>
<text fill="#01A379" style="white-space: pre" xml:space="preserve" font-family="Poppins" font-size="50" font-weight="bold" letter-spacing="0em"><tspan x="329.804" y="714">R$9,90 &#10;</tspan></text>
<text fill="#01A379" style="white-space: pre" xml:space="preserve" font-family="Poppins" font-size="50" font-weight="bold" letter-spacing="0em"><tspan x="627.925" y="717.5">30% OFF&#10;</tspan></text>
<text fill="#212121" style="white-space: pre" xml:space="preserve" font-family="Poppins" font-size="30" letter-spacing="0em"><tspan x="619.927" y="717.5"> </tspan><tspan x="572.197" y="747.5">em todos os planos</tspan></text>
<text fill="#212121" style="white-space: pre" xml:space="preserve" font-family="Poppins" font-size="30" font-weight="bold" letter-spacing="0em"><tspan x="601.089" y="717.5">+</tspan></text>
<rect x="359" y="856" width="361" height="84" rx="42" fill="#01A379"/>
<text fill="#FAFAFA" style="white-space: pre" xml:space="preserve" font-family="Poppins" font-size="30" font-weight="bold" letter-spacing="0em"><tspan x="393.191" y="909">Acessar benef&#xed;cios</tspan></text>
<path d="M902.806 783.314L913.105 779.452L916.85 768.831C917.24 767.723 918.76 767.723 919.15 768.831L922.895 779.452L933.194 783.314C934.269 783.717 934.269 785.283 933.194 785.686L922.895 789.548L919.15 800.169C918.76 801.277 917.24 801.277 916.85 800.169L913.105 789.548L902.806 785.686C901.731 785.283 901.731 783.717 902.806 783.314Z" fill="url(#paint2_linear_46_751)"/>
<path d="M457.806 806.314L468.105 802.452L471.85 791.831C472.24 790.723 473.76 790.723 474.15 791.831L477.895 802.452L488.194 806.314C489.269 806.717 489.269 808.283 488.194 808.686L477.895 812.548L474.15 823.169C473.76 824.277 472.24 824.277 471.85 823.169L468.105 812.548L457.806 808.686C456.731 808.283 456.731 806.717 457.806 806.314Z" fill="url(#paint3_linear_46_751)"/>
<path d="M106.806 680.314L117.105 676.452L120.85 665.831C121.24 664.723 122.76 664.723 123.15 665.831L126.895 676.452L137.194 680.314C138.269 680.717 138.269 682.283 137.194 682.686L126.895 686.548L123.15 697.169C122.76 698.277 121.24 698.277 120.85 697.169L117.105 686.548L106.806 682.686C105.731 682.283 105.731 680.717 106.806 680.314Z" fill="url(#paint4_linear_46_751)"/>
<path d="M924.503 755.281L930.94 752.94L933.281 746.503C933.525 745.832 934.475 745.832 934.719 746.503L937.06 752.94L943.496 755.281C944.168 755.525 944.168 756.475 943.496 756.719L937.06 759.06L934.719 765.496C934.475 766.168 933.525 766.168 933.281 765.496L930.94 759.06L924.503 756.719C923.832 756.475 923.832 755.525 924.503 755.281Z" fill="url(#paint5_linear_46_751)"/>
<path d="M137.503 656.281L143.94 653.94L146.281 647.503C146.525 646.832 147.475 646.832 147.719 647.503L150.06 653.94L156.496 656.281C157.168 656.525 157.168 657.475 156.496 657.719L150.06 660.06L147.719 666.496C147.475 667.168 146.525 667.168 146.281 666.496L143.94 660.06L137.503 657.719C136.832 657.475 136.832 656.525 137.503 656.281Z" fill="url(#paint6_linear_46_751)"/>
<path d="M181.503 797.281L187.94 794.94L190.281 788.503C190.525 787.832 191.475 787.832 191.719 788.503L194.06 794.94L200.496 797.281C201.168 797.525 201.168 798.475 200.496 798.719L194.06 801.06L191.719 807.496C191.475 808.168 190.525 808.168 190.281 807.496L187.94 801.06L181.503 798.719C180.832 798.475 180.832 797.525 181.503 797.281Z" fill="url(#paint7_linear_46_751)"/>
<path d="M496.503 823.281L502.94 820.94L505.281 814.503C505.525 813.832 506.475 813.832 506.719 814.503L509.06 820.94L515.496 823.281C516.168 823.525 516.168 824.475 515.496 824.719L509.06 827.06L506.719 833.496C506.475 834.168 505.525 834.168 505.281 833.496L502.94 827.06L496.503 824.719C495.832 824.475 495.832 823.525 496.503 823.281Z" fill="url(#paint8_linear_46_751)"/>
<path d="M914.503 646.281L920.94 643.94L923.281 637.503C923.525 636.832 924.475 636.832 924.719 637.503L927.06 643.94L933.496 646.281C934.168 646.525 934.168 647.475 933.496 647.719L927.06 650.06L924.719 656.496C924.475 657.168 923.525 657.168 923.281 656.496L920.94 650.06L914.503 647.719C913.832 647.475 913.832 646.525 914.503 646.281Z" fill="url(#paint9_linear_46_751)"/>
<circle cx="9" cy="1082" r="267" fill="#01A077"/>
<circle cx="1080" r="203" stroke="url(#paint10_linear_46_751)" stroke-width="50"/>
</g>
<defs>
<linearGradient id="paint0_linear_46_751" x1="540.5" y1="781" x2="540.5" y2="650" gradientUnits="userSpaceOnUse">
<stop stop-color="#12A67A"/>
<stop offset="1" stop-color="#73D8B4"/>
</linearGradient>
<linearGradient id="paint1_linear_46_751" x1="171" y1="714" x2="905" y2="714" gradientUnits="userSpaceOnUse">
<stop stop-color="#12A67A"/>
<stop offset="1" stop-color="#75D9B5"/>
</linearGradient>
<linearGradient id="paint2_linear_46_751" x1="918" y1="768" x2="918" y2="801" gradientUnits="userSpaceOnUse">
<stop stop-color="#01AB7D"/>
<stop offset="1" stop-color="#008F69"/>
</linearGradient>
<linearGradient id="paint3_linear_46_751" x1="473" y1="791" x2="473" y2="824" gradientUnits="userSpaceOnUse">
<stop stop-color="#01AB7D"/>
<stop offset="1" stop-color="#008F69"/>
</linearGradient>
<linearGradient id="paint4_linear_46_751" x1="122" y1="665" x2="122" y2="698" gradientUnits="userSpaceOnUse">
<stop stop-color="#01AB7D"/>
<stop offset="1" stop-color="#008F69"/>
</linearGradient>
<linearGradient id="paint5_linear_46_751" x1="934" y1="746" x2="934" y2="766" gradientUnits="userSpaceOnUse">
<stop stop-color="#01AB7D"/>
<stop offset="1" stop-color="#008F69"/>
</linearGradient>
<linearGradient id="paint6_linear_46_751" x1="147" y1="647" x2="147" y2="667" gradientUnits="userSpaceOnUse">
<stop stop-color="#01AB7D"/>
<stop offset="1" stop-color="#008F69"/>
</linearGradient>
<linearGradient id="paint7_linear_46_751" x1="191" y1="788" x2="191" y2="808" gradientUnits="userSpaceOnUse">
<stop stop-color="#01AB7D"/>
<stop offset="1" stop-color="#008F69"/>
</linearGradient>
<linearGradient id="paint8_linear_46_751" x1="506" y1="814" x2="506" y2="834" gradientUnits="userSpaceOnUse">
<stop stop-color="#01AB7D"/>
<stop offset="1" stop-color="#008F69"/>
</linearGradient>
<linearGradient id="paint9_linear_46_751" x1="924" y1="637" x2="924" y2="657" gradientUnits="userSpaceOnUse">
<stop stop-color="#01AB7D"/>
<stop offset="1" stop-color="#008F69"/>
</linearGradient>
<linearGradient id="paint10_linear_46_751" x1="852" y1="0" x2="1308" y2="0" gradientUnits="userSpaceOnUse">
<stop stop-color="#12A67A"/>
<stop offset="1" stop-color="#75D9B5"/>
</linearGradient>
<clipPath id="clip0_46_751">
<rect width="1080" height="1080" fill="white"/>
</clipPath>
</defs>
</svg>
