<svg width="1080" height="1920" viewBox="0 0 1080 1920" fill="none" xmlns="http://www.w3.org/2000/svg">
<g clip-path="url(#clip0_69_6)">
<rect width="1080" height="1920" fill="#FAFAFA"/>
<text fill="#212121" style="white-space: pre" xml:space="preserve" font-family="Poppins" font-size="70" font-weight="bold" letter-spacing="0em"><tspan x="147.48" y="607">Advogado, fa&#xe7;a 8h de&#10;</tspan><tspan x="103.73" y="698">trabalho caberem em 3!</tspan></text>
<path opacity="0.2" d="M500.6 445.64H487.82V458.6H482.72V445.64H470V441.02H482.72V428H487.82V441.02H500.6V445.64Z" fill="#212121"/>
<path d="M269.933 472.476C270.534 472.5 271.131 472.389 271.683 472.15C272.234 471.912 272.726 471.553 273.12 471.1C273.925 470.179 274.327 468.771 274.327 466.876V423.237H286.311L286.481 467.215C286.534 472.106 285.21 475.949 282.511 478.776C279.811 481.592 276.275 483 271.903 483C269.557 482.994 267.227 482.615 265 481.877L267.329 471.957C268.156 472.295 269.04 472.471 269.933 472.476ZM286.576 404V415.815H274.158V404H286.576Z" fill="#212121"/>
<path d="M420.551 425.8L411.88 451.813L403.21 425.8H396.127V437.964L406.629 463.828C405.464 467.322 403.379 469.079 400.393 469.079C399.498 469.086 398.606 468.983 397.736 468.772L395.756 477.824C398.339 478.428 400.442 478.731 402.066 478.735C405.141 478.8 408.123 477.682 410.398 475.611C412.706 473.537 414.798 470.065 416.676 465.194L431.815 425.8H420.551Z" fill="#02A378"/>
<path d="M302.188 423.239V449.198C302.188 452.184 302.844 454.407 304.178 455.836C305.502 457.276 307.601 457.996 310.478 457.996C313.357 457.996 315.457 457.276 316.777 455.836C318.1 454.396 318.76 452.184 318.757 449.198V435.71L330.741 423.726V450.225C330.741 456.037 328.973 460.462 325.437 463.501C321.9 466.55 316.942 468.075 310.562 468.075C304.242 468.075 299.382 466.578 295.984 463.586C292.585 460.6 290.888 456.143 290.892 450.214V423.218H302.188V423.239Z" fill="#212121"/>
<path d="M365.417 447.033C364.212 445.305 362.577 443.922 360.674 443.02C358.368 441.986 355.972 441.164 353.517 440.564C350.701 439.813 348.717 439.079 347.567 438.362C347.028 438.057 346.583 437.611 346.279 437.072C345.975 436.533 345.823 435.921 345.841 435.303C345.837 434.771 345.974 434.248 346.238 433.787C346.502 433.326 346.884 432.943 347.345 432.677C348.497 431.978 349.83 431.632 351.177 431.683C353.305 431.698 355.422 431.987 357.476 432.54C358.037 432.689 358.577 432.847 359.117 433.017V430.401L351.071 422.354C345.831 422.376 341.596 423.611 338.367 426.06C335.116 428.537 333.497 431.978 333.497 436.414C333.497 443.2 337.463 447.625 345.397 449.69C348.562 450.548 350.859 451.331 352.299 452.019C353.739 452.707 354.459 453.713 354.459 455.036C354.459 456.127 353.887 457.016 352.733 457.715C351.579 458.403 349.949 458.752 347.821 458.752C345.691 458.732 343.572 458.429 341.522 457.852C339.406 457.273 337.355 456.479 335.401 455.481L332.216 464.194C334.695 465.37 337.279 466.309 339.934 467C342.505 467.698 345.156 468.061 347.821 468.08C353.57 468.08 358.256 466.873 361.881 464.459C365.501 462.045 367.312 458.566 367.312 454.02C367.312 451.14 366.68 448.811 365.417 447.033Z" fill="#212121"/>
<path d="M383.468 422.912C383.468 420.891 383.902 419.397 384.781 418.444C385.202 417.975 385.72 417.603 386.3 417.354C386.879 417.106 387.506 416.986 388.136 417.004C388.501 417.007 388.865 417.032 389.227 417.078V414.485L382.97 408.228C380.133 408.767 377.814 409.837 376.036 411.467C373.389 413.902 372.062 417.714 372.055 422.901V425.856H365.745V434.96H371.97V466.773H383.362V434.97H392.71V425.866H383.447V422.912H383.468Z" fill="#02A378"/>
<mask id="mask0_69_6" style="mask-type:luminance" maskUnits="userSpaceOnUse" x="538" y="405" width="276" height="77">
<path d="M813.455 405H538V481.573H813.455V405Z" fill="white"/>
</mask>
<g mask="url(#mask0_69_6)">
<path d="M614.322 470.961C614.284 470.865 614.226 470.807 614.13 470.807H611.746C611.65 470.807 611.573 470.865 611.554 470.961L608.267 481.246C608.267 481.246 608.267 481.362 608.267 481.4C608.305 481.439 608.343 481.458 608.401 481.458H610.324C610.42 481.458 610.497 481.4 610.516 481.304L610.958 479.804C610.958 479.804 610.996 479.747 611.035 479.747H614.784C614.784 479.747 614.841 479.766 614.861 479.804L615.322 481.304C615.36 481.4 615.418 481.458 615.514 481.458H617.437C617.552 481.458 617.61 481.419 617.61 481.323C617.61 481.285 617.61 481.266 617.61 481.246L614.322 470.961ZM614.245 478.093H611.573C611.573 478.093 611.496 478.055 611.515 477.997L612.861 473.48C612.861 473.48 612.881 473.441 612.9 473.422C612.919 473.422 612.938 473.422 612.938 473.48L614.303 477.997C614.303 477.997 614.303 478.093 614.245 478.093Z" fill="#11567C"/>
<path d="M601.827 471.211C601.327 470.942 600.731 470.807 600.059 470.807H595.771C595.771 470.807 595.675 470.807 595.637 470.865C595.598 470.903 595.579 470.942 595.579 471V481.304C595.579 481.304 595.579 481.4 595.637 481.439C595.675 481.477 595.714 481.496 595.771 481.496H597.559C597.559 481.496 597.656 481.496 597.694 481.439C597.732 481.4 597.751 481.362 597.751 481.304V477.421C597.751 477.421 597.771 477.344 597.828 477.344H599.982C600.654 477.344 601.27 477.209 601.789 476.94C602.308 476.671 602.711 476.286 603 475.806C603.288 475.325 603.442 474.748 603.442 474.114C603.442 473.479 603.307 472.884 603.019 472.384C602.731 471.884 602.346 471.499 601.846 471.211M600.866 475.19C600.578 475.46 600.212 475.594 599.732 475.594H597.809C597.809 475.594 597.732 475.575 597.732 475.517V472.711C597.732 472.711 597.751 472.634 597.809 472.634H599.732C600.193 472.634 600.578 472.768 600.866 473.037C601.154 473.307 601.289 473.672 601.289 474.114C601.289 474.556 601.154 474.902 600.866 475.171" fill="#11567C"/>
<path d="M606.708 470.807H604.92C604.92 470.807 604.824 470.807 604.785 470.865C604.747 470.903 604.728 470.942 604.728 471V481.285C604.728 481.285 604.728 481.381 604.785 481.419C604.824 481.458 604.862 481.477 604.92 481.477H606.708C606.708 481.477 606.804 481.477 606.842 481.419C606.881 481.381 606.9 481.342 606.9 481.285V471C606.9 471 606.9 470.903 606.842 470.865C606.804 470.826 606.765 470.807 606.708 470.807Z" fill="#11567C"/>
<path d="M626.353 470.807H624.565C624.565 470.807 624.469 470.807 624.43 470.865C624.392 470.903 624.373 470.942 624.373 471V477.959C624.373 478.497 624.2 478.939 623.873 479.266C623.546 479.593 623.104 479.766 622.566 479.766C622.027 479.766 621.585 479.593 621.258 479.266C620.931 478.939 620.758 478.497 620.758 477.959V471C620.758 471 620.758 470.903 620.701 470.865C620.662 470.826 620.624 470.807 620.566 470.807H618.778C618.778 470.807 618.682 470.807 618.644 470.865C618.605 470.903 618.586 470.942 618.586 471V477.94C618.586 478.651 618.759 479.305 619.086 479.843C619.413 480.4 619.874 480.823 620.47 481.131C621.066 481.439 621.758 481.592 622.527 481.592C623.296 481.592 623.988 481.439 624.584 481.131C625.18 480.823 625.642 480.4 625.968 479.843C626.295 479.285 626.468 478.651 626.468 477.94V471C626.468 471 626.468 470.903 626.41 470.865C626.372 470.826 626.334 470.807 626.276 470.807" fill="#11567C"/>
<path d="M630.992 467.98H629.454C629.338 467.98 629.261 468.019 629.223 468.115L628.415 469.653C628.415 469.653 628.377 469.768 628.415 469.806C628.435 469.845 628.473 469.864 628.55 469.864H629.819C629.819 469.864 629.973 469.826 630.031 469.749L631.107 468.211C631.107 468.211 631.145 468.095 631.126 468.057C631.107 468.019 631.049 467.98 630.972 467.98" fill="#11567C"/>
<path d="M630.279 470.807H628.491C628.491 470.807 628.395 470.807 628.356 470.865C628.318 470.903 628.299 470.942 628.299 471V481.285C628.299 481.285 628.299 481.381 628.356 481.419C628.395 481.458 628.433 481.477 628.491 481.477H630.279C630.279 481.477 630.375 481.477 630.414 481.419C630.452 481.381 630.471 481.342 630.471 481.285V471C630.471 471 630.471 470.903 630.414 470.865C630.375 470.826 630.337 470.807 630.279 470.807Z" fill="#11567C"/>
<path d="M594.902 436.972C594.729 438.472 594.421 439.933 594.018 441.355C594.421 439.933 594.71 438.472 594.902 436.972Z" fill="#11567C"/>
<path d="M580.642 431.414C580.777 431.414 580.892 431.414 580.988 431.394C581.123 431.356 581.238 431.279 581.354 431.164C581.45 431.068 581.527 430.952 581.604 430.798C581.681 430.625 581.738 430.452 581.757 430.318C581.757 430.183 581.757 430.049 581.719 429.933C581.681 429.818 581.623 429.703 581.527 429.626C581.45 429.568 581.334 429.491 581.181 429.414L580.489 429.068L579.585 430.952L580.296 431.298C580.431 431.375 580.565 431.414 580.661 431.433M580.7 429.549L580.873 429.626C581.027 429.703 581.123 429.76 581.181 429.799C581.238 429.856 581.296 429.914 581.315 429.972C581.334 430.029 581.354 430.125 581.315 430.202C581.315 430.299 581.257 430.414 581.2 430.549C581.123 430.702 581.065 430.798 580.988 430.875C580.911 430.952 580.854 430.991 580.796 431.01C580.738 431.01 580.681 431.01 580.604 431.01C580.546 431.01 580.469 430.971 580.354 430.914L580.065 430.779L580.661 429.529L580.7 429.549Z" fill="#11567C"/>
<path d="M577.213 429.147C577.137 429.378 577.156 429.57 577.213 429.743C577.29 429.916 577.463 430.051 577.694 430.166C577.867 430.243 578.002 430.282 578.136 430.282C578.271 430.282 578.386 430.243 578.482 430.185C578.578 430.109 578.655 430.032 578.713 429.916C578.771 429.801 578.79 429.686 578.771 429.57C578.771 429.455 578.713 429.359 578.636 429.282C578.559 429.205 578.444 429.09 578.271 428.955C578.098 428.821 578.002 428.744 577.963 428.667C577.944 428.609 577.944 428.571 577.963 428.532C577.982 428.475 578.021 428.455 578.078 428.436C578.155 428.436 578.252 428.436 578.367 428.475C578.482 428.532 578.54 428.59 578.578 428.647C578.617 428.724 578.617 428.801 578.578 428.917L578.982 429.071C579.059 428.897 579.059 428.724 578.982 428.571C578.905 428.417 578.751 428.282 578.501 428.167C578.348 428.109 578.213 428.071 578.098 428.071C577.982 428.071 577.867 428.09 577.771 428.167C577.675 428.225 577.617 428.302 577.559 428.398C577.483 428.552 577.502 428.705 577.559 428.859C577.617 428.974 577.733 429.109 577.905 429.243C578.04 429.359 578.136 429.436 578.175 429.455C578.232 429.513 578.271 429.551 578.271 429.609C578.271 429.647 578.271 429.705 578.271 429.743C578.232 429.82 578.175 429.859 578.098 429.897C578.002 429.916 577.905 429.897 577.771 429.859C577.656 429.801 577.579 429.743 577.521 429.647C577.483 429.551 577.463 429.436 577.521 429.301L577.117 429.167L577.213 429.147Z" fill="#11567C"/>
<path d="M581.731 431.761C581.808 432.011 581.981 432.223 582.25 432.357C582.519 432.511 582.788 432.53 583.038 432.453C583.288 432.377 583.5 432.184 583.654 431.877C583.807 431.569 583.846 431.3 583.788 431.031C583.711 430.781 583.538 430.569 583.269 430.435C583.115 430.358 582.981 430.3 582.827 430.3C582.731 430.3 582.615 430.3 582.5 430.339C582.385 430.377 582.289 430.435 582.192 430.492C582.077 430.589 581.962 430.742 581.866 430.916C581.712 431.204 581.673 431.492 581.75 431.742M582.25 431.127C582.366 430.916 582.5 430.781 582.654 430.723C582.808 430.666 582.962 430.685 583.115 430.762C583.269 430.839 583.365 430.954 583.404 431.108C583.442 431.262 583.404 431.454 583.288 431.665C583.173 431.877 583.038 432.011 582.885 432.069C582.731 432.127 582.577 432.107 582.423 432.031C582.269 431.954 582.173 431.838 582.135 431.665C582.096 431.511 582.135 431.319 582.231 431.108" fill="#11567C"/>
<path d="M585.229 434.009C585.325 434.047 585.422 434.086 585.518 434.066C585.614 434.066 585.691 434.028 585.787 433.97C585.864 433.913 585.941 433.855 585.979 433.759C586.037 433.663 586.075 433.547 586.056 433.432C586.056 433.317 585.998 433.22 585.902 433.124C585.998 433.124 586.094 433.124 586.191 433.067C586.287 433.028 586.344 432.951 586.402 432.874C586.441 432.798 586.479 432.721 586.479 432.624C586.479 432.548 586.479 432.471 586.441 432.394C586.402 432.317 586.364 432.259 586.287 432.202C586.229 432.144 586.114 432.086 585.979 431.99L585.249 431.567L584.172 433.374L584.787 433.74C585.018 433.874 585.172 433.951 585.229 433.99M585.441 432.105L585.652 432.221C585.825 432.317 585.921 432.394 585.96 432.413C586.017 432.452 586.056 432.509 586.056 432.567C586.056 432.624 586.056 432.682 586.017 432.721C585.979 432.778 585.941 432.817 585.883 432.836C585.825 432.836 585.768 432.836 585.691 432.817C585.652 432.817 585.556 432.74 585.422 432.663L585.191 432.528L585.441 432.105ZM584.999 432.836L585.287 433.009C585.46 433.105 585.556 433.182 585.595 433.22C585.633 433.259 585.652 433.317 585.652 433.374C585.652 433.432 585.652 433.49 585.614 433.528C585.575 433.586 585.537 433.624 585.479 433.644C585.422 433.644 585.364 433.644 585.306 433.644C585.268 433.644 585.191 433.586 585.056 433.509L584.71 433.317L584.999 432.836Z" fill="#11567C"/>
<path d="M569.162 426.896C569.296 427.031 569.47 427.127 569.681 427.184C569.854 427.223 570.027 427.242 570.2 427.223C570.373 427.223 570.527 427.165 570.623 427.107L570.854 426.3L569.969 426.05L569.873 426.396L570.335 426.531L570.258 426.781C570.258 426.781 570.104 426.838 570.008 426.838C569.912 426.838 569.816 426.838 569.739 426.819C569.566 426.762 569.45 426.665 569.373 426.531C569.296 426.377 569.296 426.185 569.373 425.935C569.431 425.704 569.527 425.55 569.681 425.473C569.816 425.396 569.969 425.377 570.161 425.416C570.277 425.454 570.373 425.512 570.431 425.589C570.488 425.666 570.527 425.762 570.527 425.877L570.95 425.916C570.95 425.723 570.911 425.55 570.796 425.396C570.681 425.243 570.508 425.147 570.258 425.07C570.066 425.012 569.892 425.012 569.739 425.031C569.546 425.07 569.373 425.166 569.239 425.3C569.104 425.435 569.008 425.608 568.95 425.819C568.893 426.012 568.893 426.204 568.912 426.396C568.95 426.588 569.027 426.742 569.162 426.877" fill="#11567C"/>
<path d="M566.775 426.108C566.91 426.339 567.121 426.492 567.429 426.569C567.737 426.646 567.987 426.627 568.217 426.473C568.448 426.339 568.602 426.108 568.679 425.781C568.775 425.454 568.756 425.166 568.621 424.935C568.486 424.705 568.275 424.551 567.987 424.474C567.814 424.435 567.66 424.416 567.525 424.435C567.41 424.435 567.314 424.493 567.218 424.551C567.121 424.608 567.025 424.685 566.949 424.782C566.852 424.916 566.775 425.07 566.718 425.281C566.641 425.608 566.66 425.877 566.795 426.108M567.141 425.377C567.198 425.147 567.295 424.974 567.429 424.897C567.564 424.801 567.717 424.782 567.891 424.839C568.064 424.878 568.179 424.974 568.256 425.128C568.333 425.262 568.333 425.454 568.256 425.685C568.198 425.916 568.102 426.089 567.967 426.166C567.833 426.262 567.679 426.281 567.525 426.243C567.371 426.204 567.237 426.108 567.16 425.954C567.083 425.8 567.083 425.627 567.141 425.397" fill="#11567C"/>
<path d="M571.122 427.608L571.43 427.205L572.237 427.454L572.276 427.954L572.718 428.089L572.564 425.84L572.142 425.705L570.719 427.454L571.142 427.589L571.122 427.608ZM572.18 426.262L572.218 427.089L571.68 426.916L572.199 426.262H572.18Z" fill="#11567C"/>
<path d="M575.777 429.319C576.066 429.435 576.335 429.435 576.566 429.319C576.796 429.204 576.989 428.992 577.104 428.666C577.219 428.339 577.238 428.07 577.123 427.82C577.008 427.57 576.816 427.397 576.527 427.281C576.373 427.224 576.22 427.205 576.066 427.205C575.95 427.205 575.854 427.243 575.739 427.281C575.624 427.339 575.527 427.397 575.45 427.474C575.335 427.589 575.239 427.743 575.162 427.935C575.047 428.243 575.028 428.531 575.143 428.762C575.239 429.012 575.45 429.185 575.739 429.3M575.624 428.089C575.7 427.858 575.816 427.724 575.97 427.647C576.104 427.57 576.258 427.57 576.431 427.647C576.585 427.705 576.7 427.82 576.758 427.954C576.816 428.108 576.796 428.281 576.719 428.512C576.642 428.742 576.508 428.896 576.373 428.973C576.22 429.05 576.085 429.05 575.912 428.992C575.739 428.935 575.643 428.819 575.585 428.666C575.527 428.512 575.547 428.32 575.624 428.108" fill="#11567C"/>
<path d="M574.047 428.57C574.182 428.57 574.297 428.57 574.393 428.513C574.509 428.455 574.624 428.359 574.72 428.243C574.797 428.147 574.874 428.013 574.932 427.84C574.989 427.648 575.028 427.494 575.028 427.34C575.028 427.205 575.008 427.071 574.951 426.955C574.893 426.84 574.816 426.744 574.72 426.667C574.643 426.609 574.528 426.552 574.355 426.494L573.624 426.225L572.913 428.205L573.663 428.474C573.817 428.532 573.932 428.551 574.028 428.551M573.913 426.725L574.086 426.782C574.24 426.84 574.355 426.878 574.413 426.917C574.489 426.955 574.528 427.013 574.566 427.071C574.605 427.128 574.605 427.205 574.605 427.301C574.605 427.398 574.566 427.513 574.528 427.667C574.47 427.82 574.413 427.936 574.355 428.013C574.297 428.09 574.239 428.147 574.182 428.167C574.124 428.186 574.067 428.205 573.99 428.186C573.932 428.186 573.855 428.167 573.74 428.109L573.432 427.993L573.913 426.686V426.725Z" fill="#11567C"/>
<path d="M587.963 435.758L588.366 435.451L589.058 435.912L588.943 436.412L589.328 436.662L589.789 434.451L589.424 434.201L587.578 435.489L587.943 435.739L587.963 435.758ZM589.347 434.759L589.154 435.566L588.674 435.239L589.347 434.759Z" fill="#11567C"/>
<path d="M586.345 434.701L586.806 433.951L586.883 433.989C586.883 433.989 587.018 434.086 587.056 434.124C587.095 434.163 587.114 434.201 587.114 434.259C587.114 434.316 587.133 434.451 587.133 434.643V435.201L587.576 435.47V434.989C587.576 434.797 587.576 434.662 587.556 434.566C587.556 434.489 587.499 434.393 587.46 434.297C587.633 434.374 587.787 434.393 587.921 434.355C588.056 434.316 588.152 434.22 588.248 434.086C588.306 433.989 588.344 433.874 588.344 433.759C588.344 433.644 588.306 433.547 588.248 433.451C588.171 433.374 588.056 433.259 587.864 433.144L587.114 432.682L585.999 434.47L586.364 434.701H586.345ZM587.268 433.22L587.556 433.394C587.71 433.49 587.787 433.547 587.826 433.567C587.883 433.605 587.902 433.663 587.921 433.72C587.921 433.778 587.921 433.836 587.883 433.893C587.845 433.951 587.806 433.989 587.768 434.009C587.71 434.009 587.672 434.028 587.614 434.009C587.556 434.009 587.441 433.932 587.268 433.836L586.999 433.663L587.287 433.201L587.268 433.22Z" fill="#11567C"/>
<path d="M565.587 426.051L566.759 424.148L566.317 424.052L565.491 425.474L565.279 423.84L564.837 423.744L565.144 425.955L565.587 426.051Z" fill="#11567C"/>
<path d="M589.708 436.799C589.747 436.992 589.881 437.146 590.093 437.299C590.246 437.415 590.381 437.472 590.516 437.511C590.65 437.549 590.765 437.53 590.881 437.492C590.996 437.453 591.092 437.376 591.169 437.28C591.246 437.165 591.285 437.069 591.304 436.953C591.304 436.838 591.304 436.742 591.246 436.646C591.189 436.55 591.112 436.415 590.958 436.261C590.823 436.107 590.746 435.992 590.727 435.915C590.727 435.857 590.727 435.819 590.746 435.781C590.785 435.742 590.823 435.723 590.881 435.723C590.958 435.723 591.054 435.761 591.169 435.838C591.265 435.915 591.323 435.973 591.342 436.05C591.361 436.127 591.342 436.203 591.304 436.3L591.65 436.53C591.765 436.376 591.785 436.203 591.746 436.031C591.708 435.857 591.573 435.704 591.361 435.55C591.227 435.454 591.112 435.396 590.977 435.358C590.862 435.338 590.746 435.338 590.631 435.358C590.535 435.396 590.439 435.454 590.381 435.55C590.285 435.684 590.246 435.838 590.285 436.011C590.304 436.126 590.4 436.28 590.554 436.453C590.669 436.588 590.746 436.684 590.765 436.722C590.804 436.78 590.842 436.838 590.842 436.896C590.842 436.934 590.842 436.972 590.804 437.03C590.765 437.088 590.689 437.126 590.593 437.126C590.496 437.126 590.4 437.107 590.285 437.011C590.189 436.934 590.112 436.857 590.093 436.761C590.073 436.665 590.093 436.55 590.15 436.415L589.785 436.203C589.67 436.415 589.631 436.607 589.67 436.78" fill="#11567C"/>
<path d="M592.332 436.318L591.076 437.995L591.415 438.249L592.67 436.571L592.332 436.318Z" fill="#11567C"/>
<path d="M592.924 439.413L593.136 439.124L592.29 438.49L593.328 437.106L592.982 436.856L591.732 438.528L592.924 439.413Z" fill="#11567C"/>
<path d="M547.628 422.147C547.628 422.147 547.436 421.993 547.321 421.955C547.224 421.935 547.09 421.916 546.917 421.916H546.148L546.109 424.012H546.917C547.071 424.012 547.205 424.012 547.301 423.992C547.436 423.954 547.532 423.896 547.609 423.819C547.705 423.723 547.782 423.608 547.84 423.454C547.878 423.339 547.917 423.185 547.917 423.012C547.917 422.82 547.917 422.647 547.859 422.512C547.82 422.378 547.743 422.262 547.667 422.166M547.397 423.358C547.397 423.358 547.321 423.512 547.282 423.569C547.244 423.608 547.186 423.646 547.109 423.646C547.051 423.646 546.975 423.646 546.859 423.646H546.552V422.243H546.744C546.917 422.243 547.032 422.243 547.09 422.262C547.167 422.262 547.224 422.32 547.282 422.358C547.34 422.416 547.378 422.474 547.397 422.57C547.417 422.647 547.436 422.781 547.436 422.935C547.436 423.089 547.436 423.223 547.378 423.32" fill="#11567C"/>
<path d="M550.67 422.436L550.997 424.109L551.42 424.128L551.9 422.494L551.824 424.147L552.227 424.167L552.323 422.071L551.689 422.033L551.247 423.436L550.939 421.994L550.305 421.956L550.189 424.071L550.593 424.09L550.67 422.436Z" fill="#11567C"/>
<path d="M566.55 405C555.169 405 545.345 411.671 540.75 421.322C560.109 419.477 576.893 423.091 594.907 436.933C595.041 435.818 595.118 434.703 595.118 433.549C595.118 417.785 582.333 405 566.55 405ZM576.316 424.936L575.336 424.437L574.374 424.956L574.547 423.86L573.759 423.091L574.855 422.918L575.336 421.918L575.835 422.899L576.931 423.052L576.143 423.821L576.335 424.898L576.316 424.936Z" fill="#11567C"/>
<path d="M539.173 425.494C538.423 428.051 538 430.761 538 433.568C538 449.333 550.785 462.117 566.549 462.117C579.622 462.117 590.618 453.331 594.021 441.354C578.334 428.512 559.397 422.745 539.173 425.494ZM542.864 428.205L543.364 427.224L543.844 428.224L544.94 428.377L544.152 429.147L544.344 430.242L543.364 429.723L542.383 430.223L542.576 429.147L541.787 428.377L542.883 428.224L542.864 428.205ZM543.594 444.277L542.787 443.873L541.999 444.296L542.133 443.411L541.48 442.796L542.364 442.662L542.749 441.854L543.152 442.662L544.037 442.777L543.402 443.411L543.556 444.296L543.594 444.277ZM546.651 441.989L545.728 441.508L544.806 442.008L544.979 440.989L544.229 440.278L545.267 440.124L545.709 439.182L546.171 440.105L547.209 440.239L546.478 440.97L546.67 441.989H546.651ZM567.203 456.754L566.78 456.542L566.357 456.773L566.414 456.292L566.068 455.965L566.53 455.888L566.722 455.446L566.953 455.869L567.433 455.927L567.106 456.273L567.203 456.734V456.754ZM567.587 448.141L566.664 447.66L565.742 448.16L565.914 447.122L565.165 446.391L566.203 446.237L566.664 445.295L567.126 446.237L568.164 446.372L567.414 447.103L567.606 448.141H567.587ZM581.544 456.523L580.872 456.196L580.218 456.561L580.333 455.831L579.795 455.312L580.525 455.196L580.833 454.523L581.179 455.196L581.929 455.292L581.41 455.831L581.544 456.561V456.523ZM587.004 449.698L586.254 449.294L585.486 449.679L585.639 448.833L585.043 448.237L585.889 448.121L586.274 447.352L586.639 448.121L587.485 448.256L586.87 448.852L587.004 449.698ZM590.369 443.392L590.676 442.739L591.003 443.373L591.734 443.469L591.214 443.988L591.349 444.699L590.695 444.373L590.061 444.719L590.176 444.007L589.638 443.507L590.349 443.392H590.369ZM588.831 446.007L588.235 446.584L588.369 447.41L587.639 447.006L586.889 447.391L587.043 446.584L586.466 445.988L587.293 445.891L587.677 445.161L588.023 445.911L588.85 446.045L588.831 446.007ZM586.043 442.911L586.485 441.97L586.966 442.892L588.004 443.027L587.273 443.757L587.466 444.776L586.543 444.296L585.62 444.796L585.774 443.757L585.024 443.046L586.043 442.873V442.911ZM583.313 449.41L583.601 448.775L583.928 449.39L584.62 449.467L584.121 449.967L584.255 450.659L583.621 450.352L583.005 450.698L583.102 450.006L582.583 449.525L583.275 449.41H583.313ZM580.487 449.41L580.814 448.737L581.141 449.41L581.871 449.525L581.333 450.044L581.448 450.774L580.795 450.428L580.141 450.774L580.276 450.044L579.756 449.525L580.487 449.429V449.41ZM580.525 452.043L580.929 451.236L581.314 452.043L582.198 452.178L581.544 452.793L581.679 453.677L580.891 453.255L580.083 453.658L580.256 452.774L579.622 452.14L580.506 452.024L580.525 452.043ZM577.142 450.044L577.469 449.371L577.795 450.044L578.526 450.14L578.007 450.659L578.142 451.39L577.488 451.044L576.834 451.39L576.95 450.659L576.411 450.14L577.142 450.025V450.044ZM574.854 451.986L575.239 452.735L576.084 452.831L575.488 453.427L575.642 454.254L574.873 453.87L574.124 454.273L574.258 453.427L573.643 452.851L574.489 452.716L574.854 451.947V451.986ZM572.932 431.319L573.278 430.627L573.624 431.319L574.393 431.434L573.835 431.973L573.97 432.741L573.278 432.376L572.585 432.741L572.72 431.973L572.163 431.434L572.932 431.319ZM572.201 449.313L572.528 448.641L572.855 449.313L573.585 449.429L573.047 449.948L573.162 450.678L572.509 450.332L571.855 450.678L571.99 449.948L571.471 449.429L572.201 449.333V449.313ZM569.394 439.624L569.798 440.432L570.702 440.547L570.048 441.181L570.221 442.085L569.413 441.662L568.606 442.104L568.76 441.2L568.106 440.566L569.01 440.432L569.413 439.605L569.394 439.624ZM566.414 438.009L566.799 437.202L567.203 438.009L568.106 438.125L567.472 438.759L567.645 439.643L566.837 439.24L566.049 439.663L566.184 438.778L565.53 438.163L566.414 438.028V438.009ZM564.723 442.527L564.972 442.046L565.203 442.546L565.742 442.623L565.338 442.988L565.415 443.527L564.934 443.258L564.453 443.507L564.55 442.969L564.165 442.585L564.703 442.508L564.723 442.527ZM562.512 440.835L562.858 440.143L563.204 440.835L563.973 440.951L563.415 441.489L563.55 442.258L562.858 441.893L562.166 442.258L562.3 441.489L561.743 440.951L562.512 440.835ZM555.052 434.203L555.437 433.376L555.86 434.183L556.763 434.28L556.129 434.933L556.302 435.818L555.475 435.414L554.687 435.856L554.822 434.952L554.149 434.337L555.052 434.183V434.203ZM554.168 448.756L554.61 447.852L555.072 448.756L556.071 448.891L555.36 449.602L555.533 450.602L554.63 450.14L553.745 450.621L553.899 449.621L553.168 448.929L554.168 448.775V448.756ZM551.073 442.892L551.438 442.104L551.823 442.873L552.688 442.988L552.073 443.604L552.226 444.45L551.457 444.065L550.688 444.488L550.823 443.642L550.189 443.046L551.034 442.911L551.073 442.892ZM550.131 445.93L550.458 445.257L550.785 445.93L551.534 446.045L550.996 446.564L551.131 447.314L550.458 446.968L549.785 447.314L549.919 446.564L549.381 446.045L550.131 445.93ZM549.15 438.605L548.747 438.99L548.843 439.547L548.343 439.278L547.843 439.528L547.939 438.97L547.536 438.586L548.093 438.509L548.343 438.009L548.593 438.509L549.15 438.586V438.605Z" fill="#11567C"/>
<path d="M554.627 424.282C554.761 424.244 554.858 424.206 554.934 424.129C555.031 424.032 555.127 423.917 555.184 423.783C555.242 423.667 555.261 423.513 555.28 423.34C555.28 423.148 555.28 422.975 555.242 422.841C555.204 422.706 555.146 422.591 555.069 422.494C554.992 422.398 554.877 422.321 554.761 422.283C554.665 422.245 554.531 422.225 554.358 422.225L553.589 422.168L553.454 424.263L554.242 424.321C554.396 424.321 554.531 424.321 554.627 424.302M553.896 423.936L553.992 422.552H554.185C554.358 422.571 554.473 422.591 554.531 422.61C554.608 422.629 554.665 422.668 554.723 422.725C554.781 422.783 554.8 422.841 554.838 422.937C554.858 423.033 554.877 423.148 554.838 423.302C554.838 423.456 554.8 423.59 554.761 423.686C554.723 423.783 554.685 423.84 554.646 423.879C554.588 423.917 554.531 423.936 554.473 423.956C554.415 423.956 554.338 423.956 554.223 423.956H553.916L553.896 423.936Z" fill="#11567C"/>
<path d="M542.553 421.995C542.38 421.995 542.226 422.033 542.111 422.091C542.014 422.129 541.918 422.206 541.841 422.283C541.765 422.379 541.707 422.475 541.649 422.571C541.591 422.725 541.572 422.898 541.572 423.11C541.572 423.437 541.688 423.706 541.88 423.879C542.072 424.052 542.322 424.148 542.63 424.129C542.937 424.129 543.187 424.013 543.36 423.821C543.533 423.629 543.61 423.36 543.61 423.014C543.61 422.668 543.495 422.398 543.302 422.225C543.11 422.033 542.86 421.956 542.553 421.975M543.053 423.61C542.956 423.744 542.822 423.802 542.649 423.802C542.476 423.802 542.341 423.744 542.226 423.629C542.111 423.513 542.053 423.34 542.034 423.09C542.034 422.86 542.072 422.668 542.168 422.552C542.264 422.437 542.399 422.36 542.591 422.36C542.764 422.36 542.899 422.398 543.014 422.514C543.129 422.629 543.187 422.802 543.187 423.052C543.187 423.302 543.149 423.475 543.053 423.61Z" fill="#11567C"/>
<path d="M545.38 423.263C545.38 423.263 545.245 423.148 545.149 423.09C545.341 423.052 545.476 422.994 545.553 422.879C545.649 422.783 545.687 422.648 545.687 422.475C545.687 422.36 545.649 422.244 545.591 422.148C545.533 422.052 545.437 421.995 545.341 421.956C545.245 421.918 545.072 421.898 544.841 421.918H543.957L543.995 424.032H544.418V423.148H544.495C544.591 423.148 544.668 423.148 544.707 423.148C544.745 423.148 544.803 423.186 544.841 423.225C544.88 423.263 544.957 423.36 545.072 423.533L545.38 423.975H545.88L545.61 423.552C545.495 423.398 545.418 423.283 545.36 423.225M544.707 422.821H544.399V422.302H544.726C544.899 422.302 544.995 422.302 545.034 422.302C545.111 422.302 545.149 422.341 545.187 422.379C545.226 422.417 545.245 422.475 545.245 422.552C545.245 422.61 545.245 422.667 545.207 422.706C545.168 422.744 545.13 422.783 545.091 422.802C545.034 422.802 544.918 422.821 544.707 422.84" fill="#11567C"/>
<path d="M549.822 422.303V421.957L548.264 421.938L548.245 424.033L549.841 424.052V423.706L548.668 423.687L548.687 423.11L549.725 423.13L549.745 422.764H548.687V422.284L549.822 422.303Z" fill="#11567C"/>
<path d="M556.472 424.552C556.779 424.571 557.029 424.494 557.241 424.321C557.433 424.148 557.548 423.898 557.587 423.552C557.606 423.206 557.548 422.937 557.375 422.726C557.202 422.514 556.971 422.399 556.664 422.379C556.491 422.379 556.337 422.379 556.202 422.418C556.106 422.456 556.01 422.514 555.914 422.591C555.818 422.668 555.76 422.764 555.703 422.86C555.626 422.995 555.587 423.168 555.568 423.379C555.549 423.706 555.606 423.975 555.779 424.187C555.952 424.398 556.183 424.513 556.491 424.533M555.972 423.418C555.991 423.168 556.068 422.995 556.183 422.899C556.299 422.783 556.452 422.745 556.625 422.764C556.798 422.764 556.933 422.841 557.029 422.975C557.125 423.11 557.164 423.283 557.144 423.533C557.125 423.783 557.048 423.956 556.933 424.071C556.818 424.187 556.664 424.225 556.51 424.225C556.337 424.225 556.202 424.129 556.106 424.014C556.01 423.879 555.972 423.706 555.991 423.456" fill="#11567C"/>
<path d="M558.934 424.416C558.934 424.416 558.761 424.473 558.626 424.454C558.492 424.454 558.396 424.396 558.338 424.319C558.261 424.243 558.242 424.127 558.223 423.993H557.8C557.8 424.204 557.857 424.396 557.973 424.55C558.107 424.685 558.3 424.781 558.55 424.819C558.723 424.838 558.896 424.819 559.011 424.819C559.146 424.781 559.242 424.723 559.319 424.627C559.396 424.531 559.453 424.416 559.453 424.3C559.453 424.166 559.453 424.05 559.415 423.954C559.376 423.858 559.299 423.781 559.222 423.704C559.126 423.647 558.992 423.57 558.78 423.493C558.588 423.416 558.453 423.358 558.415 423.301C558.377 423.262 558.357 423.224 558.377 423.166C558.377 423.108 558.415 423.07 558.453 423.051C558.53 423.012 558.626 422.993 558.742 423.012C558.857 423.012 558.953 423.07 558.992 423.127C559.049 423.185 559.069 423.262 559.069 423.377L559.492 423.416C559.511 423.224 559.472 423.07 559.357 422.935C559.242 422.801 559.049 422.724 558.78 422.685C558.626 422.666 558.473 422.685 558.357 422.685C558.242 422.724 558.146 422.781 558.069 422.858C557.992 422.935 557.954 423.031 557.934 423.147C557.915 423.32 557.954 423.454 558.069 423.589C558.146 423.685 558.3 423.781 558.511 423.858C558.684 423.935 558.8 423.973 558.838 423.993C558.915 424.031 558.953 424.069 558.973 424.108C558.992 424.146 559.011 424.185 558.992 424.243C558.992 424.319 558.934 424.377 558.857 424.435" fill="#11567C"/>
<path d="M563.697 425.61C563.832 425.61 563.928 425.552 564.024 425.494C564.139 425.417 564.236 425.321 564.313 425.167C564.389 425.052 564.428 424.918 564.466 424.744C564.505 424.552 564.505 424.379 564.485 424.245C564.466 424.11 564.428 423.975 564.351 423.879C564.274 423.764 564.197 423.687 564.082 423.629C564.005 423.591 563.87 423.553 563.697 423.514L562.928 423.38L562.544 425.437L563.332 425.59C563.486 425.629 563.62 425.629 563.717 425.61M563.274 423.802L563.467 423.841C563.64 423.879 563.755 423.899 563.813 423.918C563.89 423.956 563.947 423.995 563.986 424.052C564.024 424.11 564.063 424.187 564.063 424.283C564.063 424.379 564.063 424.495 564.044 424.648C564.005 424.802 563.967 424.937 563.928 425.014C563.89 425.091 563.832 425.167 563.774 425.187C563.717 425.225 563.659 425.244 563.582 425.244C563.524 425.244 563.448 425.244 563.332 425.225L563.024 425.167L563.294 423.802H563.274Z" fill="#11567C"/>
<path d="M560.934 424.666L561.761 424.801L561.876 425.301L562.338 425.378L561.819 423.167L561.377 423.109L560.242 425.051L560.684 425.128L560.934 424.686V424.666ZM561.511 423.609L561.684 424.416L561.127 424.32L561.53 423.59L561.511 423.609Z" fill="#11567C"/>
<path d="M665.822 429.472C665.822 429.472 669.417 425.608 669.417 420.032C669.417 409.766 658.69 405.114 658.69 405.114H638.312V462.231H665.284C665.284 462.231 678.914 457.905 678.914 445.755C678.914 433.605 665.803 429.472 665.803 429.472" fill="#11567C"/>
<path d="M588.351 462.231H636.72L612.536 405.114L588.351 462.231Z" fill="#11567C"/>
<path d="M692.949 436.451H692.026V461.155H692.949V436.451Z" fill="#E4051F"/>
<path d="M724.829 458.254C724.156 458.753 723.445 459.196 722.676 459.561C721.907 459.926 721.08 460.195 720.215 460.407C719.331 460.618 718.351 460.714 717.274 460.714C715.563 460.714 713.986 460.407 712.545 459.772C711.103 459.138 709.853 458.273 708.796 457.196C707.738 456.12 706.912 454.812 706.316 453.332C705.72 451.852 705.412 450.256 705.412 448.545C705.412 446.834 705.72 445.277 706.316 443.796C706.912 442.316 707.738 441.009 708.796 439.894C709.853 438.779 711.122 437.894 712.583 437.26C714.044 436.626 715.64 436.299 717.37 436.299C718.447 436.299 719.427 436.395 720.292 436.568C721.157 436.741 721.965 437.01 722.695 437.337C723.445 437.664 724.118 438.048 724.752 438.51C725.387 438.971 725.983 439.49 726.579 440.048L724.752 442.009C723.733 441.067 722.657 440.278 721.503 439.682C720.35 439.067 718.946 438.779 717.332 438.779C716.024 438.779 714.813 439.029 713.698 439.529C712.583 440.028 711.622 440.72 710.795 441.586C709.968 442.47 709.334 443.489 708.873 444.681C708.411 445.873 708.181 447.142 708.181 448.506C708.181 449.871 708.411 451.16 708.873 452.352C709.334 453.544 709.968 454.581 710.795 455.466C711.622 456.35 712.583 457.042 713.698 457.542C714.813 458.042 716.024 458.292 717.332 458.292C718.946 458.292 720.35 458.004 721.523 457.408C722.695 456.812 723.849 455.966 724.964 454.889L726.713 456.619C726.098 457.254 725.464 457.811 724.81 458.33L724.829 458.254Z" fill="#00577F"/>
<path d="M753.613 460.291H750.75L747.98 454.043H735.119L732.312 460.291H729.582L740.348 436.49H742.847L753.613 460.291ZM741.559 439.624L736.157 451.678H746.923L741.559 439.624Z" fill="#00577F"/>
<path d="M781.182 460.291H778.319L775.549 454.043H762.687L759.882 460.291H757.15L767.917 436.49H770.417L781.182 460.291ZM769.128 439.624L763.725 451.678H774.492L769.128 439.624Z" fill="#00577F"/>
<path d="M803.419 448.505C802.919 449.544 802.247 450.409 801.381 451.101C800.517 451.793 799.498 452.312 798.343 452.677C797.191 453.042 795.94 453.196 794.615 453.196H790.673V460.29H785.483V436.663H795.134C796.557 436.663 797.824 436.855 798.939 437.259C800.056 437.662 800.998 438.201 801.766 438.931C802.536 439.643 803.131 440.508 803.555 441.507C803.976 442.507 804.169 443.622 804.169 444.833V444.91C804.169 446.275 803.918 447.486 803.419 448.524V448.505ZM798.901 444.929C798.901 443.757 798.518 442.872 797.767 442.257C797.018 441.642 795.98 441.354 794.672 441.354H790.654V448.582H794.768C796.076 448.582 797.095 448.236 797.805 447.544C798.537 446.852 798.882 446.006 798.882 444.987V444.91L798.901 444.929Z" fill="#00577F"/>
<path d="M808.264 460.29V436.663H813.456V460.29H808.264Z" fill="#00577F"/>
</g>
<line x1="538" y1="1045" x2="538" y2="914" stroke="url(#paint0_linear_69_6)" stroke-width="4"/>
<rect x="171" y="764" width="493" height="120" rx="13.3263" fill="#E7E8EC"/>
<rect x="677" y="764" width="228" height="120" rx="13.3263" fill="#E7E8EC"/>
<text fill="#212121" style="white-space: pre" xml:space="preserve" font-family="Poppins" font-size="30" letter-spacing="0em"><tspan x="191" y="815">&#xa0;IA jur&#xed;dica completa treinada </tspan><tspan x="191" y="854">em 350 milh&#xf5;es de processos</tspan></text>
<text fill="#212121" style="white-space: pre" xml:space="preserve" font-family="Poppins" font-size="30" letter-spacing="0em"><tspan x="697" y="815">&#xa0;20 solu&#xe7;&#xf5;es </tspan><tspan x="697" y="854">integradas</tspan></text>
<rect x="173" y="913" width="730" height="130" rx="11.3263" stroke="url(#paint1_linear_69_6)" stroke-width="4"/>
<text fill="#01A379" style="white-space: pre" xml:space="preserve" font-family="Poppins" font-size="30" font-weight="bold" letter-spacing="0em"><tspan x="234.965" y="1017">no primeiro m&#xea;s</tspan></text>
<text fill="#212121" style="white-space: pre" xml:space="preserve" font-family="Poppins" font-size="30" letter-spacing="0em"><tspan x="207.577" y="978">Apenas </tspan></text>
<text fill="#01A379" style="white-space: pre" xml:space="preserve" font-family="Poppins" font-size="50" font-weight="bold" letter-spacing="0em"><tspan x="329.804" y="978">R$9,90 &#10;</tspan></text>
<text fill="#01A379" style="white-space: pre" xml:space="preserve" font-family="Poppins" font-size="50" font-weight="bold" letter-spacing="0em"><tspan x="627.925" y="981.5">30% OFF&#10;</tspan></text>
<text fill="#212121" style="white-space: pre" xml:space="preserve" font-family="Poppins" font-size="30" letter-spacing="0em"><tspan x="619.927" y="981.5"> </tspan><tspan x="572.197" y="1011.5">em todos os planos</tspan></text>
<text fill="#212121" style="white-space: pre" xml:space="preserve" font-family="Poppins" font-size="30" font-weight="bold" letter-spacing="0em"><tspan x="601.089" y="981.5">+</tspan></text>
<rect x="359" y="1120" width="361" height="84" rx="42" fill="#01A379"/>
<text fill="#FAFAFA" style="white-space: pre" xml:space="preserve" font-family="Poppins" font-size="30" font-weight="bold" letter-spacing="0em"><tspan x="393.191" y="1173">Acessar benef&#xed;cios</tspan></text>
<path d="M902.806 1047.31L913.105 1043.45L916.85 1032.83C917.24 1031.72 918.76 1031.72 919.15 1032.83L922.895 1043.45L933.194 1047.31C934.269 1047.72 934.269 1049.28 933.194 1049.69L922.895 1053.55L919.15 1064.17C918.76 1065.28 917.24 1065.28 916.85 1064.17L913.105 1053.55L902.806 1049.69C901.731 1049.28 901.731 1047.72 902.806 1047.31Z" fill="url(#paint2_linear_69_6)"/>
<path d="M457.806 1070.31L468.105 1066.45L471.85 1055.83C472.24 1054.72 473.76 1054.72 474.15 1055.83L477.895 1066.45L488.194 1070.31C489.269 1070.72 489.269 1072.28 488.194 1072.69L477.895 1076.55L474.15 1087.17C473.76 1088.28 472.24 1088.28 471.85 1087.17L468.105 1076.55L457.806 1072.69C456.731 1072.28 456.731 1070.72 457.806 1070.31Z" fill="url(#paint3_linear_69_6)"/>
<path d="M106.806 944.314L117.105 940.452L120.85 929.831C121.24 928.723 122.76 928.723 123.15 929.831L126.895 940.452L137.194 944.314C138.269 944.717 138.269 946.283 137.194 946.686L126.895 950.548L123.15 961.169C122.76 962.277 121.24 962.277 120.85 961.169L117.105 950.548L106.806 946.686C105.731 946.283 105.731 944.717 106.806 944.314Z" fill="url(#paint4_linear_69_6)"/>
<path d="M924.503 1019.28L930.94 1016.94L933.281 1010.5C933.525 1009.83 934.475 1009.83 934.719 1010.5L937.06 1016.94L943.496 1019.28C944.168 1019.53 944.168 1020.47 943.496 1020.72L937.06 1023.06L934.719 1029.5C934.475 1030.17 933.525 1030.17 933.281 1029.5L930.94 1023.06L924.503 1020.72C923.832 1020.47 923.832 1019.53 924.503 1019.28Z" fill="url(#paint5_linear_69_6)"/>
<path d="M137.503 920.281L143.94 917.94L146.281 911.503C146.525 910.832 147.475 910.832 147.719 911.503L150.06 917.94L156.496 920.281C157.168 920.525 157.168 921.475 156.496 921.719L150.06 924.06L147.719 930.496C147.475 931.168 146.525 931.168 146.281 930.496L143.94 924.06L137.503 921.719C136.832 921.475 136.832 920.525 137.503 920.281Z" fill="url(#paint6_linear_69_6)"/>
<path d="M181.503 1054.28L187.94 1051.94L190.281 1045.5C190.525 1044.83 191.475 1044.83 191.719 1045.5L194.06 1051.94L200.496 1054.28C201.168 1054.53 201.168 1055.47 200.496 1055.72L194.06 1058.06L191.719 1064.5C191.475 1065.17 190.525 1065.17 190.281 1064.5L187.94 1058.06L181.503 1055.72C180.832 1055.47 180.832 1054.53 181.503 1054.28Z" fill="url(#paint7_linear_69_6)"/>
<path d="M496.503 1087.28L502.94 1084.94L505.281 1078.5C505.525 1077.83 506.475 1077.83 506.719 1078.5L509.06 1084.94L515.496 1087.28C516.168 1087.53 516.168 1088.47 515.496 1088.72L509.06 1091.06L506.719 1097.5C506.475 1098.17 505.525 1098.17 505.281 1097.5L502.94 1091.06L496.503 1088.72C495.832 1088.47 495.832 1087.53 496.503 1087.28Z" fill="url(#paint8_linear_69_6)"/>
<path d="M914.503 910.281L920.94 907.94L923.281 901.503C923.525 900.832 924.475 900.832 924.719 901.503L927.06 907.94L933.496 910.281C934.168 910.525 934.168 911.475 933.496 911.719L927.06 914.06L924.719 920.496C924.475 921.168 923.525 921.168 923.281 920.496L920.94 914.06L914.503 911.719C913.832 911.475 913.832 910.525 914.503 910.281Z" fill="url(#paint9_linear_69_6)"/>
<circle cx="14.5" cy="1639.5" r="352.5" fill="#01A077"/>
<circle cx="1096" cy="123" r="251" stroke="url(#paint10_linear_69_6)" stroke-width="50"/>
</g>
<defs>
<linearGradient id="paint0_linear_69_6" x1="540.5" y1="1045" x2="540.5" y2="914" gradientUnits="userSpaceOnUse">
<stop stop-color="#12A67A"/>
<stop offset="1" stop-color="#73D8B4"/>
</linearGradient>
<linearGradient id="paint1_linear_69_6" x1="171" y1="978" x2="905" y2="978" gradientUnits="userSpaceOnUse">
<stop stop-color="#12A67A"/>
<stop offset="1" stop-color="#75D9B5"/>
</linearGradient>
<linearGradient id="paint2_linear_69_6" x1="918" y1="1032" x2="918" y2="1065" gradientUnits="userSpaceOnUse">
<stop stop-color="#01AB7D"/>
<stop offset="1" stop-color="#008F69"/>
</linearGradient>
<linearGradient id="paint3_linear_69_6" x1="473" y1="1055" x2="473" y2="1088" gradientUnits="userSpaceOnUse">
<stop stop-color="#01AB7D"/>
<stop offset="1" stop-color="#008F69"/>
</linearGradient>
<linearGradient id="paint4_linear_69_6" x1="122" y1="929" x2="122" y2="962" gradientUnits="userSpaceOnUse">
<stop stop-color="#01AB7D"/>
<stop offset="1" stop-color="#008F69"/>
</linearGradient>
<linearGradient id="paint5_linear_69_6" x1="934" y1="1010" x2="934" y2="1030" gradientUnits="userSpaceOnUse">
<stop stop-color="#01AB7D"/>
<stop offset="1" stop-color="#008F69"/>
</linearGradient>
<linearGradient id="paint6_linear_69_6" x1="147" y1="911" x2="147" y2="931" gradientUnits="userSpaceOnUse">
<stop stop-color="#01AB7D"/>
<stop offset="1" stop-color="#008F69"/>
</linearGradient>
<linearGradient id="paint7_linear_69_6" x1="191" y1="1045" x2="191" y2="1065" gradientUnits="userSpaceOnUse">
<stop stop-color="#01AB7D"/>
<stop offset="1" stop-color="#008F69"/>
</linearGradient>
<linearGradient id="paint8_linear_69_6" x1="506" y1="1078" x2="506" y2="1098" gradientUnits="userSpaceOnUse">
<stop stop-color="#01AB7D"/>
<stop offset="1" stop-color="#008F69"/>
</linearGradient>
<linearGradient id="paint9_linear_69_6" x1="924" y1="901" x2="924" y2="921" gradientUnits="userSpaceOnUse">
<stop stop-color="#01AB7D"/>
<stop offset="1" stop-color="#008F69"/>
</linearGradient>
<linearGradient id="paint10_linear_69_6" x1="820" y1="123" x2="1372" y2="123" gradientUnits="userSpaceOnUse">
<stop stop-color="#12A67A"/>
<stop offset="1" stop-color="#75D9B5"/>
</linearGradient>
<clipPath id="clip0_69_6">
<rect width="1080" height="1920" fill="white"/>
</clipPath>
</defs>
</svg>
