<svg width="415" height="242" viewBox="0 0 415 242" fill="none" xmlns="http://www.w3.org/2000/svg">
<rect x="0.502267" y="0.502267" width="413.995" height="240.995" rx="9.54308" fill="#E7E8EC" fill-opacity="0.3" stroke="#02A378" stroke-width="1.00453"/>
<path d="M377.784 51.2317C375.492 51.2317 373.337 50.7966 371.32 49.9266C369.302 49.0566 367.548 47.8758 366.056 46.3844C364.564 44.893 363.382 43.1391 362.512 41.1228C361.641 39.1065 361.206 36.9522 361.206 34.6599C361.206 32.3673 361.641 30.2125 362.511 28.1953C363.381 26.1781 364.562 24.4235 366.054 22.9315C367.545 21.4394 369.299 20.2581 371.315 19.3875C373.332 18.5172 375.486 18.082 377.778 18.082C380.071 18.082 382.225 18.517 384.243 19.3871C386.26 20.2571 388.014 21.4379 389.506 22.9293C390.999 24.4207 392.18 26.1746 393.05 28.1909C393.921 30.2072 394.356 32.3615 394.356 34.6538C394.356 36.9464 393.921 39.1012 393.051 41.1184C392.181 43.1356 391 44.8902 389.509 46.3822C388.017 47.8742 386.263 49.0556 384.247 49.9262C382.231 50.7965 380.076 51.2317 377.784 51.2317ZM377.781 48.6146C381.678 48.6146 384.978 47.2624 387.682 44.5581C390.387 41.8538 391.739 38.5534 391.739 34.6568C391.739 30.7603 390.387 27.4599 387.682 24.7556C384.978 22.0513 381.678 20.6991 377.781 20.6991C373.885 20.6991 370.584 22.0513 367.88 24.7556C365.176 27.4599 363.823 30.7603 363.823 34.6568C363.823 38.5534 365.176 41.8538 367.88 44.5581C370.584 47.2624 373.885 48.6146 377.781 48.6146Z" fill="#02A378"/>
<text fill="#02A378" style="white-space: pre" xml:space="preserve" font-family="Poppins" font-size="19.2536" font-weight="600" letter-spacing="0em"><tspan x="371.252" y="41.3432">$</tspan></text>
<text fill="#008F69" style="white-space: pre" xml:space="preserve" font-family="Poppins" font-size="32.2653" letter-spacing="0em"><tspan x="294.761" y="56.7928">&#x2028;</tspan><tspan x="181.234" y="206.793">Degusta&#xe7;&#xe3;o</tspan></text>
<text fill="#008F69" style="white-space: pre" xml:space="preserve" font-family="Poppins" font-size="53.7755" font-weight="bold" letter-spacing="0em"><tspan x="311.01" y="167.793">&#x2028;</tspan></text>
<text fill="#008F69" style="white-space: pre" xml:space="preserve" font-family="Poppins" font-size="32.2653" letter-spacing="0em"><tspan x="100.382" y="56.7928">Primeiro m&#xea;s</tspan><tspan x="113.001" y="95.7928">por apenas&#x2028;</tspan><tspan x="33.0468" y="206.793">no Plano </tspan></text>
<text fill="#008F69" style="white-space: pre" xml:space="preserve" font-family="Poppins" font-size="60" font-weight="bold" letter-spacing="0em"><tspan x="79.623" y="167.793">R$19,90</tspan></text>
<text fill="#008F69" style="white-space: pre" xml:space="preserve" font-family="Poppins" font-size="40" font-weight="bold" letter-spacing="0em"><tspan x="311.01" y="167.793">*</tspan></text>
</svg>
