<svg preserveAspectRatio="none" width="100%" height="100%" overflow="visible" style="display: block;" viewBox="0 0 120 56.6931" fill="none" xmlns="http://www.w3.org/2000/svg">
<g id="logo">
<path id="Path 303" d="M3.54868 49.141C3.9805 49.1579 4.41062 49.078 4.80736 48.907C5.20409 48.7361 5.55732 48.4785 5.84101 48.1533C6.41985 47.4923 6.70926 46.4818 6.70926 45.1218V13.8049H15.3302L15.452 45.3651C15.49 48.8751 14.538 51.633 12.5962 53.6616C10.6542 55.6826 8.11058 56.6931 4.96538 56.6931C3.27789 56.6891 1.6018 56.4172 0 55.8875L1.67535 48.7686C2.27027 49.0108 2.90614 49.1372 3.54868 49.141ZM15.5205 0V8.47886H6.58744V0H15.5205Z" fill="var(--fill-0, #212121)"/>
<path id="Path 304" d="M111.897 15.6448L105.66 34.3128L99.4225 15.6448H94.3275V24.3743L101.882 42.9353C101.044 45.4425 99.5441 46.7037 97.3965 46.7037C96.7526 46.7083 96.1107 46.6344 95.4849 46.4834L94.0608 52.9792C95.9189 53.4122 97.4319 53.6301 98.5998 53.6327C100.812 53.6793 102.957 52.877 104.593 51.3914C106.253 49.9028 107.759 47.4109 109.109 43.9154L120 15.6448H111.897Z" fill="var(--fill-0, #02A378)"/>
<path id="Path 305" d="M26.7542 13.8038V32.4331C26.7542 34.5757 27.2262 36.1711 28.1859 37.1968C29.1379 38.23 30.6483 38.7466 32.7172 38.7466C34.7888 38.7466 36.2992 38.23 37.2486 37.1968C38.2006 36.1636 38.6753 34.5757 38.6727 32.4331V22.7536L47.2936 14.1532V33.17C47.2936 37.3411 46.0218 40.5168 43.4782 42.6973C40.9339 44.8854 37.3673 45.9795 32.7781 45.9795C28.2316 45.9795 24.736 44.9057 22.2913 42.7581C19.8466 40.6157 18.6256 37.4171 18.6282 33.1624V13.7886H26.7542V13.8038Z" fill="var(--fill-0, #212121)"/>
<path id="Path 306" d="M72.2339 30.8847C71.3675 29.6448 70.1913 28.6522 68.822 28.0053C67.1632 27.263 65.44 26.6731 63.6739 26.2428C61.648 25.7034 60.2213 25.1767 59.3938 24.6626C59.0063 24.4438 58.686 24.1237 58.4673 23.7368C58.2485 23.3499 58.1397 22.9109 58.1524 22.4669C58.1496 22.0854 58.2481 21.7101 58.4381 21.379C58.6281 21.048 58.9027 20.7732 59.2339 20.5826C60.0631 20.0809 61.0216 19.8328 61.9907 19.869C63.5213 19.8804 65.0441 20.0872 66.5221 20.4845C66.9256 20.5909 67.3142 20.7048 67.7025 20.8263V18.949L61.9145 13.1748C58.1448 13.1901 55.0985 14.0765 52.7757 15.8339C50.4376 17.6116 49.2724 20.081 49.2724 23.2642C49.2724 28.1343 52.1258 31.3101 57.8326 32.7916C60.1097 33.4071 61.7623 33.9692 62.798 34.463C63.8338 34.9567 64.3515 35.6786 64.3515 36.6283C64.3515 37.4109 63.9404 38.049 63.1102 38.5506C62.2796 39.0443 61.1072 39.2952 59.5765 39.2952C58.0441 39.2805 56.5204 39.0633 55.0452 38.6493C53.523 38.2338 52.0477 37.6636 50.6423 36.9476L48.3511 43.2003C50.1342 44.0442 51.993 44.7183 53.903 45.2137C55.7529 45.7151 57.6599 45.9756 59.5768 45.9888C63.7121 45.9888 67.0833 45.1227 69.6903 43.3904C72.2948 41.6582 73.597 39.1612 73.597 35.8993C73.597 33.8326 73.1426 32.161 72.2339 30.8847Z" fill="var(--fill-0, #212121)"/>
<path id="Path 307" d="M85.2189 13.5752C85.2189 12.125 85.5311 11.0528 86.1633 10.3689C86.4665 10.0323 86.8394 9.76546 87.2562 9.58695C87.673 9.40845 88.1238 9.32254 88.5773 9.33519C88.8396 9.33803 89.1015 9.35578 89.3618 9.38836V7.52755L84.8608 3.03733C82.8198 3.42473 81.152 4.19217 79.8726 5.3622C77.9688 7.10961 77.0143 9.84474 77.0092 13.5676V15.6883H72.4702V22.2212H76.9483V45.0518H85.1428V22.2288H91.8675V15.695H85.2039V13.5752H85.2189Z" fill="var(--fill-0, #02A378)"/>
</g>
</svg>
