<svg width="1080" height="1080" viewBox="0 0 1080 1080" fill="none" xmlns="http://www.w3.org/2000/svg">
<g id="modelo-5-feed">
<g id="protected-background" clip-path="url(#clip0_596_12)">
<rect width="1080" height="1080" fill="#FAFAFA"/>
<rect id="protected-decoration-stars" x="100" y="839" width="361" height="84" rx="42" fill="#01A379"/>
<circle id="protected-decoration-stars_2" cx="1056.5" cy="0.5" r="174.5" stroke="url(#paint0_linear_596_12)" stroke-width="50"/>
<circle id="protected-decoration-stars_9" cx="909" cy="1048" r="322" fill="#01A077"/>
<g id="protected-decoration-stars_10" filter="url(#filter0_d_596_12)">
<rect x="660.608" y="735" width="823.957" height="268.583" rx="30.3483" transform="rotate(9.7769 660.608 735)" fill="#F4F5F9"/>
</g>
<g id="protected-image">
<g id="Frame 1000002475">
<text id="title" transform="translate(684.476 761.093) rotate(9.7769)" fill="#131313" style="white-space: pre" xml:space="preserve" font-family="Noto Sans" font-size="19.2163" font-weight="600" letter-spacing="0em"><tspan x="0" y="20.9559">Como a IA da Jusfy pode te ajudar hoje?</tspan></text>
</g>
<g id="chat">
<g clip-path="url(#clip1_596_12)">
<path d="M675.844 811.183C676.575 806.941 676.941 804.82 678.046 803.341C679.017 802.041 680.376 801.082 681.926 800.602C683.689 800.055 685.81 800.421 690.052 801.152L1423.3 927.502C1427.54 928.233 1429.67 928.598 1431.14 929.703C1432.44 930.675 1433.4 932.033 1433.88 933.584C1434.43 935.346 1434.07 937.467 1433.33 941.71L1405.84 1101.26C1405.11 1105.51 1404.74 1107.63 1403.64 1109.11C1402.67 1110.41 1401.31 1111.37 1399.76 1111.85C1398 1112.39 1395.87 1112.03 1391.63 1111.3L658.382 984.946C654.14 984.215 652.018 983.85 650.54 982.745C649.24 981.773 648.281 980.415 647.8 978.864C647.254 977.102 647.619 974.98 648.351 970.738L675.844 811.183Z" fill="#FAFFFE"/>
<g id="Frame 1000002479">
<g id="Card">
<path d="M704.235 827.483L918.857 864.465C922.779 865.141 925.41 868.868 924.734 872.79L919.187 904.984C918.511 908.906 914.784 911.537 910.862 910.861L696.24 873.879C692.318 873.203 689.686 869.476 690.362 865.554L695.909 833.36C696.585 829.438 700.312 826.807 704.235 827.483Z" fill="#FAFBFF"/>
<path d="M704.235 827.483L918.857 864.465C922.779 865.141 925.41 868.868 924.734 872.79L919.187 904.984C918.511 908.906 914.784 911.537 910.862 910.861L696.24 873.879C692.318 873.203 689.686 869.476 690.362 865.554L695.909 833.36C696.585 829.438 700.312 826.807 704.235 827.483Z" stroke="#E7E8EC" stroke-width="0.960817"/>
<text id="Resumir casos" transform="translate(709.28 843.464) rotate(9.7769)" fill="#383839" style="white-space: pre" xml:space="preserve" font-family="Noto Sans" font-size="12.4906" letter-spacing="0em"><tspan x="0" y="13.3464">Resumir casos</tspan></text>
<g id="chevron-forward-outline 1">
<path id="Vector (Stroke)" fill-rule="evenodd" clip-rule="evenodd" d="M896.725 879.021C897.091 878.762 897.597 878.849 897.855 879.215L901.822 884.835C902.08 885.2 901.993 885.706 901.628 885.965L896.008 889.932C895.642 890.19 895.136 890.103 894.878 889.737C894.62 889.372 894.707 888.866 895.073 888.608L900.03 885.108L896.53 880.15C896.272 879.785 896.359 879.279 896.725 879.021Z" fill="#01AB7D"/>
</g>
</g>
<g id="Card_2">
<path d="M945.368 869.034L1159.99 906.016C1163.91 906.692 1166.54 910.419 1165.87 914.341L1160.32 946.535C1159.64 950.457 1155.92 953.088 1152 952.412L937.374 915.43C933.452 914.754 930.82 911.027 931.496 907.105L937.043 874.911C937.719 870.989 941.446 868.358 945.368 869.034Z" fill="#FAFBFF"/>
<path d="M945.368 869.034L1159.99 906.016C1163.91 906.692 1166.54 910.419 1165.87 914.341L1160.32 946.535C1159.64 950.457 1155.92 953.088 1152 952.412L937.374 915.43C933.452 914.754 930.82 911.027 931.496 907.105L937.043 874.911C937.719 870.989 941.446 868.358 945.368 869.034Z" stroke="#E7E8EC" stroke-width="0.960817"/>
<g id="Content">
<text id="Gerar documentos" transform="translate(950.414 885.015) rotate(9.7769)" fill="#383839" style="white-space: pre" xml:space="preserve" font-family="Noto Sans" font-size="12.4906" letter-spacing="0em"><tspan x="0" y="13.3464">Gerar documentos</tspan></text>
</g>
</g>
</g>
<g id="Group">
<path d="M694.096 913.483L1381.9 1032C1384.03 1032.37 1385.59 1032.64 1386.82 1032.95C1388.03 1033.27 1388.86 1033.61 1389.53 1034.11C1390.75 1035.03 1391.65 1036.3 1392.1 1037.75C1392.35 1038.55 1392.4 1039.45 1392.29 1040.7C1392.17 1041.96 1391.9 1043.53 1391.54 1045.66L1386.56 1074.54C1386.19 1076.67 1385.92 1078.24 1385.61 1079.46C1385.29 1080.68 1384.95 1081.51 1384.45 1082.18C1383.53 1083.4 1382.26 1084.3 1380.81 1084.75C1380.01 1084.99 1379.11 1085.04 1377.86 1084.93C1376.6 1084.82 1375.03 1084.55 1372.9 1084.18L685.105 965.664C682.976 965.298 681.407 965.027 680.185 964.712C678.969 964.398 678.137 964.05 677.469 963.551C676.25 962.64 675.351 961.366 674.9 959.913C674.653 959.116 674.605 958.215 674.716 956.964C674.829 955.708 675.098 954.14 675.465 952.011L680.443 923.123C680.809 920.994 681.081 919.426 681.395 918.204C681.709 916.987 682.056 916.155 682.555 915.487C683.466 914.268 684.74 913.369 686.194 912.918C686.99 912.671 687.891 912.623 689.142 912.735C690.398 912.847 691.967 913.116 694.096 913.483Z" stroke="#E7E8EC" stroke-width="0.960817"/>
<g id="Text">
<text id="Como posso te ajudar?" transform="translate(690.455 930.081) rotate(9.7769)" fill="#5E5E60" style="white-space: pre" xml:space="preserve" font-family="Noto Sans" font-size="13.4514" letter-spacing="0em"><tspan x="0" y="14.7192">Como posso te ajudar?</tspan></text>
</g>
</g>
</g>
<path d="M690.012 801.388L1423.26 927.738C1425.39 928.105 1426.97 928.376 1428.2 928.694C1429.43 929.011 1430.3 929.369 1431 929.895C1432.26 930.837 1433.19 932.153 1433.65 933.654C1433.91 934.493 1433.96 935.429 1433.85 936.696C1433.74 937.964 1433.46 939.544 1433.1 941.669L1405.6 1101.22C1405.24 1103.35 1404.97 1104.93 1404.65 1106.16C1404.33 1107.39 1403.97 1108.26 1403.45 1108.96C1402.51 1110.22 1401.19 1111.15 1399.69 1111.62C1398.85 1111.88 1397.91 1111.92 1396.65 1111.81C1395.38 1111.7 1393.8 1111.43 1391.67 1111.06L658.423 984.709C656.298 984.343 654.718 984.071 653.484 983.753C652.254 983.436 651.387 983.078 650.684 982.552C649.425 981.611 648.495 980.295 648.03 978.793C647.77 977.954 647.722 977.018 647.835 975.752C647.949 974.483 648.221 972.904 648.587 970.779L676.081 811.224C676.447 809.099 676.719 807.519 677.037 806.286C677.354 805.055 677.712 804.188 678.238 803.485C679.179 802.226 680.495 801.296 681.997 800.831C682.836 800.571 683.772 800.523 685.038 800.636C686.307 800.75 687.887 801.022 690.012 801.388Z" stroke="#CECED2" stroke-width="0.480408"/>
</g>
</g>
<rect id="protected-decoration-stars_11" x="102" y="603" width="511" height="158" rx="11.3263" stroke="url(#paint7_linear_596_12)" stroke-width="4"/>
</g>
<g id="studio-logo-jusfy">
<path id="Path 303" d="M112.933 238.476C113.534 238.5 114.131 238.389 114.683 238.15C115.234 237.912 115.726 237.553 116.12 237.1C116.925 236.179 117.327 234.771 117.327 232.876V189.237H129.311L129.481 233.215C129.534 238.106 128.21 241.949 125.511 244.776C122.811 247.592 119.275 249 114.903 249C112.557 248.994 110.227 248.615 108 247.877L110.329 237.957C111.156 238.295 112.04 238.471 112.933 238.476ZM129.576 170V181.815H117.158V170H129.576Z" fill="#212121"/>
<path id="Path 304" d="M263.551 191.8L254.88 217.813L246.21 191.8H239.127V203.964L249.629 229.828C248.464 233.322 246.379 235.079 243.393 235.079C242.498 235.086 241.606 234.983 240.736 234.772L238.756 243.824C241.339 244.428 243.442 244.731 245.066 244.735C248.141 244.8 251.123 243.682 253.398 241.612C255.706 239.537 257.798 236.065 259.676 231.194L274.815 191.8H263.551Z" fill="#02A378"/>
<path id="Path 305" d="M145.188 189.239V215.198C145.188 218.184 145.844 220.407 147.178 221.836C148.502 223.276 150.601 223.996 153.478 223.996C156.357 223.996 158.457 223.276 159.777 221.836C161.1 220.396 161.76 218.184 161.757 215.198V201.71L173.741 189.726V216.225C173.741 222.037 171.973 226.462 168.437 229.501C164.9 232.55 159.942 234.074 153.562 234.074C147.242 234.074 142.382 232.578 138.984 229.585C135.585 226.6 133.888 222.143 133.892 216.214V189.218H145.188V189.239Z" fill="#212121"/>
<path id="Path 306" d="M208.417 213.033C207.212 211.305 205.577 209.922 203.674 209.02C201.368 207.986 198.972 207.164 196.517 206.564C193.701 205.813 191.717 205.079 190.567 204.362C190.028 204.057 189.583 203.611 189.279 203.072C188.975 202.533 188.823 201.921 188.841 201.303C188.837 200.771 188.974 200.248 189.238 199.787C189.502 199.326 189.884 198.943 190.345 198.677C191.497 197.978 192.83 197.632 194.177 197.683C196.305 197.699 198.422 197.987 200.476 198.54C201.037 198.689 201.577 198.847 202.117 199.017V196.401L194.071 188.354C188.831 188.376 184.596 189.611 181.367 192.06C178.116 194.537 176.497 197.978 176.497 202.414C176.497 209.2 180.463 213.625 188.397 215.69C191.562 216.548 193.859 217.331 195.299 218.019C196.739 218.707 197.459 219.713 197.459 221.036C197.459 222.127 196.887 223.016 195.733 223.715C194.579 224.403 192.949 224.752 190.821 224.752C188.691 224.732 186.572 224.429 184.522 223.852C182.406 223.273 180.355 222.479 178.401 221.481L175.216 230.194C177.695 231.37 180.279 232.309 182.934 233C185.505 233.698 188.156 234.061 190.821 234.08C196.57 234.08 201.256 232.873 204.881 230.459C208.501 228.045 210.312 224.566 210.312 220.02C210.312 217.14 209.68 214.811 208.417 213.033Z" fill="#212121"/>
<path id="Path 307" d="M226.468 188.912C226.468 186.891 226.902 185.397 227.781 184.444C228.202 183.975 228.72 183.603 229.3 183.354C229.879 183.106 230.506 182.986 231.136 183.004C231.501 183.007 231.865 183.032 232.227 183.078V180.485L225.97 174.228C223.133 174.767 220.814 175.837 219.036 177.467C216.389 179.902 215.062 183.714 215.055 188.901V191.856H208.745V200.96H214.97V232.773H226.362V200.97H235.71V191.866H226.447V188.912H226.468Z" fill="#02A378"/>
</g>
<g id="studio-logo-regional">
<mask id="mask0_596_12" style="mask-type:luminance" maskUnits="userSpaceOnUse" x="381" y="171" width="276" height="77">
<g id="clip0_41_420">
<path id="Vector" d="M656.455 171H381V247.573H656.455V171Z" fill="white"/>
</g>
</mask>
<g mask="url(#mask0_596_12)">
<g id="Group_2">
<path id="Vector_2" d="M457.322 236.961C457.284 236.865 457.226 236.807 457.13 236.807H454.746C454.65 236.807 454.573 236.865 454.554 236.961L451.267 247.246C451.267 247.246 451.267 247.362 451.267 247.4C451.305 247.439 451.343 247.458 451.401 247.458H453.324C453.42 247.458 453.497 247.4 453.516 247.304L453.958 245.804C453.958 245.804 453.996 245.747 454.035 245.747H457.784C457.784 245.747 457.841 245.766 457.861 245.804L458.322 247.304C458.36 247.4 458.418 247.458 458.514 247.458H460.437C460.552 247.458 460.61 247.419 460.61 247.323C460.61 247.285 460.61 247.266 460.61 247.246L457.322 236.961ZM457.245 244.093H454.573C454.573 244.093 454.496 244.055 454.515 243.997L455.861 239.48C455.861 239.48 455.881 239.441 455.9 239.422C455.919 239.422 455.938 239.422 455.938 239.48L457.303 243.997C457.303 243.997 457.303 244.093 457.245 244.093Z" fill="#11567C"/>
<path id="Vector_3" d="M444.827 237.211C444.327 236.942 443.731 236.807 443.059 236.807H438.771C438.771 236.807 438.675 236.807 438.637 236.865C438.598 236.903 438.579 236.942 438.579 237V247.304C438.579 247.304 438.579 247.4 438.637 247.439C438.675 247.477 438.714 247.496 438.771 247.496H440.559C440.559 247.496 440.656 247.496 440.694 247.439C440.732 247.4 440.751 247.362 440.751 247.304V243.421C440.751 243.421 440.771 243.344 440.828 243.344H442.982C443.654 243.344 444.27 243.209 444.789 242.94C445.308 242.671 445.711 242.286 446 241.806C446.288 241.325 446.442 240.748 446.442 240.114C446.442 239.479 446.307 238.884 446.019 238.384C445.731 237.884 445.346 237.499 444.846 237.211M443.866 241.19C443.578 241.46 443.212 241.594 442.732 241.594H440.809C440.809 241.594 440.732 241.575 440.732 241.517V238.711C440.732 238.711 440.751 238.634 440.809 238.634H442.732C443.193 238.634 443.578 238.768 443.866 239.037C444.154 239.307 444.289 239.672 444.289 240.114C444.289 240.556 444.154 240.902 443.866 241.171" fill="#11567C"/>
<path id="Vector_4" d="M449.708 236.807H447.92C447.92 236.807 447.824 236.807 447.785 236.865C447.747 236.903 447.728 236.942 447.728 237V247.285C447.728 247.285 447.728 247.381 447.785 247.419C447.824 247.458 447.862 247.477 447.92 247.477H449.708C449.708 247.477 449.804 247.477 449.842 247.419C449.881 247.381 449.9 247.342 449.9 247.285V237C449.9 237 449.9 236.903 449.842 236.865C449.804 236.826 449.765 236.807 449.708 236.807Z" fill="#11567C"/>
<path id="Vector_5" d="M469.353 236.807H467.565C467.565 236.807 467.469 236.807 467.43 236.865C467.392 236.903 467.373 236.942 467.373 237V243.959C467.373 244.497 467.2 244.939 466.873 245.266C466.546 245.593 466.104 245.766 465.566 245.766C465.027 245.766 464.585 245.593 464.258 245.266C463.931 244.939 463.758 244.497 463.758 243.959V237C463.758 237 463.758 236.903 463.701 236.865C463.662 236.826 463.624 236.807 463.566 236.807H461.778C461.778 236.807 461.682 236.807 461.644 236.865C461.605 236.903 461.586 236.942 461.586 237V243.94C461.586 244.651 461.759 245.305 462.086 245.843C462.413 246.4 462.874 246.823 463.47 247.131C464.066 247.439 464.758 247.592 465.527 247.592C466.296 247.592 466.988 247.439 467.584 247.131C468.18 246.823 468.642 246.4 468.968 245.843C469.295 245.285 469.468 244.651 469.468 243.94V237C469.468 237 469.468 236.903 469.41 236.865C469.372 236.826 469.334 236.807 469.276 236.807" fill="#11567C"/>
<path id="Vector_6" d="M473.992 233.98H472.454C472.338 233.98 472.261 234.019 472.223 234.115L471.415 235.653C471.415 235.653 471.377 235.768 471.415 235.806C471.435 235.845 471.473 235.864 471.55 235.864H472.819C472.819 235.864 472.973 235.826 473.031 235.749L474.107 234.211C474.107 234.211 474.145 234.095 474.126 234.057C474.107 234.019 474.049 233.98 473.972 233.98" fill="#11567C"/>
<path id="Vector_7" d="M473.279 236.807H471.491C471.491 236.807 471.395 236.807 471.356 236.865C471.318 236.903 471.299 236.942 471.299 237V247.285C471.299 247.285 471.299 247.381 471.356 247.419C471.395 247.458 471.433 247.477 471.491 247.477H473.279C473.279 247.477 473.375 247.477 473.414 247.419C473.452 247.381 473.471 247.342 473.471 247.285V237C473.471 237 473.471 236.903 473.414 236.865C473.375 236.826 473.337 236.807 473.279 236.807Z" fill="#11567C"/>
<path id="Vector_8" d="M437.902 202.972C437.729 204.471 437.421 205.933 437.018 207.355C437.421 205.933 437.71 204.471 437.902 202.972Z" fill="#11567C"/>
<path id="Vector_9" d="M423.642 197.414C423.777 197.414 423.892 197.414 423.988 197.394C424.123 197.356 424.238 197.279 424.354 197.164C424.45 197.068 424.527 196.952 424.604 196.798C424.681 196.625 424.738 196.452 424.757 196.318C424.757 196.183 424.757 196.049 424.719 195.933C424.681 195.818 424.623 195.703 424.527 195.626C424.45 195.568 424.334 195.491 424.181 195.414L423.489 195.068L422.585 196.952L423.296 197.298C423.431 197.375 423.565 197.414 423.661 197.433M423.7 195.549L423.873 195.626C424.027 195.703 424.123 195.76 424.181 195.799C424.238 195.856 424.296 195.914 424.315 195.972C424.334 196.029 424.354 196.125 424.315 196.202C424.315 196.299 424.257 196.414 424.2 196.549C424.123 196.702 424.065 196.798 423.988 196.875C423.911 196.952 423.854 196.991 423.796 197.01C423.738 197.01 423.681 197.01 423.604 197.01C423.546 197.01 423.469 196.971 423.354 196.914L423.065 196.779L423.661 195.529L423.7 195.549Z" fill="#11567C"/>
<path id="Vector_10" d="M420.213 195.147C420.137 195.378 420.156 195.57 420.213 195.743C420.29 195.916 420.463 196.051 420.694 196.166C420.867 196.243 421.002 196.282 421.136 196.282C421.271 196.282 421.386 196.243 421.482 196.185C421.578 196.109 421.655 196.032 421.713 195.916C421.771 195.801 421.79 195.686 421.771 195.57C421.771 195.455 421.713 195.359 421.636 195.282C421.559 195.205 421.444 195.09 421.271 194.955C421.098 194.821 421.002 194.744 420.963 194.667C420.944 194.609 420.944 194.571 420.963 194.532C420.982 194.475 421.021 194.455 421.078 194.436C421.155 194.436 421.252 194.436 421.367 194.475C421.482 194.532 421.54 194.59 421.578 194.647C421.617 194.724 421.617 194.801 421.578 194.917L421.982 195.071C422.059 194.897 422.059 194.724 421.982 194.571C421.905 194.417 421.751 194.282 421.501 194.167C421.348 194.109 421.213 194.071 421.098 194.071C420.982 194.071 420.867 194.09 420.771 194.167C420.675 194.225 420.617 194.302 420.559 194.398C420.483 194.552 420.502 194.705 420.559 194.859C420.617 194.974 420.733 195.109 420.905 195.243C421.04 195.359 421.136 195.436 421.175 195.455C421.232 195.513 421.271 195.551 421.271 195.609C421.271 195.647 421.271 195.705 421.271 195.743C421.232 195.82 421.175 195.859 421.098 195.897C421.002 195.916 420.905 195.897 420.771 195.859C420.656 195.801 420.579 195.743 420.521 195.647C420.483 195.551 420.463 195.436 420.521 195.301L420.117 195.167L420.213 195.147Z" fill="#11567C"/>
<path id="Vector_11" d="M424.731 197.761C424.808 198.011 424.981 198.223 425.25 198.357C425.519 198.511 425.788 198.53 426.038 198.453C426.288 198.377 426.5 198.184 426.654 197.877C426.807 197.569 426.846 197.3 426.788 197.031C426.711 196.781 426.538 196.569 426.269 196.435C426.115 196.358 425.981 196.3 425.827 196.3C425.731 196.3 425.615 196.3 425.5 196.339C425.385 196.377 425.289 196.435 425.192 196.492C425.077 196.589 424.962 196.742 424.866 196.916C424.712 197.204 424.673 197.492 424.75 197.742M425.25 197.127C425.366 196.916 425.5 196.781 425.654 196.723C425.808 196.666 425.962 196.685 426.115 196.762C426.269 196.839 426.365 196.954 426.404 197.108C426.442 197.262 426.404 197.454 426.288 197.665C426.173 197.877 426.038 198.011 425.885 198.069C425.731 198.127 425.577 198.107 425.423 198.031C425.269 197.954 425.173 197.838 425.135 197.665C425.096 197.511 425.135 197.319 425.231 197.108" fill="#11567C"/>
<path id="Vector_12" d="M428.229 200.009C428.325 200.047 428.422 200.086 428.518 200.066C428.614 200.066 428.691 200.028 428.787 199.97C428.864 199.913 428.941 199.855 428.979 199.759C429.037 199.663 429.075 199.547 429.056 199.432C429.056 199.317 428.998 199.22 428.902 199.124C428.998 199.124 429.094 199.124 429.191 199.067C429.287 199.028 429.344 198.951 429.402 198.874C429.441 198.798 429.479 198.721 429.479 198.624C429.479 198.548 429.479 198.471 429.441 198.394C429.402 198.317 429.364 198.259 429.287 198.202C429.229 198.144 429.114 198.086 428.979 197.99L428.249 197.567L427.172 199.374L427.787 199.74C428.018 199.874 428.172 199.951 428.229 199.99M428.441 198.105L428.652 198.221C428.825 198.317 428.921 198.394 428.96 198.413C429.017 198.452 429.056 198.509 429.056 198.567C429.056 198.624 429.056 198.682 429.017 198.721C428.979 198.778 428.941 198.817 428.883 198.836C428.825 198.836 428.768 198.836 428.691 198.817C428.652 198.817 428.556 198.74 428.422 198.663L428.191 198.528L428.441 198.105ZM427.999 198.836L428.287 199.009C428.46 199.105 428.556 199.182 428.595 199.22C428.633 199.259 428.652 199.317 428.652 199.374C428.652 199.432 428.652 199.49 428.614 199.528C428.575 199.586 428.537 199.624 428.479 199.644C428.422 199.644 428.364 199.644 428.306 199.644C428.268 199.644 428.191 199.586 428.056 199.509L427.71 199.317L427.999 198.836Z" fill="#11567C"/>
<path id="Vector_13" d="M412.162 192.896C412.296 193.031 412.47 193.127 412.681 193.184C412.854 193.223 413.027 193.242 413.2 193.223C413.373 193.223 413.527 193.165 413.623 193.107L413.854 192.3L412.969 192.05L412.873 192.396L413.335 192.531L413.258 192.781C413.258 192.781 413.104 192.838 413.008 192.838C412.912 192.838 412.816 192.838 412.739 192.819C412.566 192.761 412.45 192.665 412.373 192.531C412.296 192.377 412.296 192.185 412.373 191.935C412.431 191.704 412.527 191.55 412.681 191.473C412.816 191.396 412.969 191.377 413.161 191.416C413.277 191.454 413.373 191.512 413.431 191.589C413.488 191.666 413.527 191.762 413.527 191.877L413.95 191.915C413.95 191.723 413.911 191.55 413.796 191.396C413.681 191.243 413.508 191.146 413.258 191.07C413.066 191.012 412.892 191.012 412.739 191.031C412.546 191.07 412.373 191.166 412.239 191.3C412.104 191.435 412.008 191.608 411.95 191.819C411.893 192.012 411.893 192.204 411.912 192.396C411.95 192.588 412.027 192.742 412.162 192.877" fill="#11567C"/>
<path id="Vector_14" d="M409.775 192.108C409.91 192.339 410.121 192.492 410.429 192.569C410.737 192.646 410.987 192.627 411.217 192.473C411.448 192.339 411.602 192.108 411.679 191.781C411.775 191.454 411.756 191.166 411.621 190.935C411.486 190.705 411.275 190.551 410.987 190.474C410.814 190.435 410.66 190.416 410.525 190.435C410.41 190.435 410.314 190.493 410.218 190.551C410.121 190.608 410.025 190.685 409.949 190.781C409.852 190.916 409.775 191.07 409.718 191.281C409.641 191.608 409.66 191.877 409.795 192.108M410.141 191.377C410.198 191.147 410.295 190.974 410.429 190.897C410.564 190.801 410.717 190.781 410.891 190.839C411.064 190.878 411.179 190.974 411.256 191.128C411.333 191.262 411.333 191.454 411.256 191.685C411.198 191.916 411.102 192.089 410.967 192.166C410.833 192.262 410.679 192.281 410.525 192.243C410.371 192.204 410.237 192.108 410.16 191.954C410.083 191.8 410.083 191.627 410.141 191.397" fill="#11567C"/>
<path id="Vector_15" d="M414.122 193.608L414.43 193.205L415.237 193.454L415.276 193.954L415.718 194.089L415.564 191.84L415.142 191.705L413.719 193.454L414.142 193.589L414.122 193.608ZM415.18 192.262L415.218 193.089L414.68 192.916L415.199 192.262H415.18Z" fill="#11567C"/>
<path id="Vector_16" d="M418.777 195.319C419.066 195.435 419.335 195.435 419.566 195.319C419.796 195.204 419.989 194.992 420.104 194.666C420.219 194.339 420.238 194.07 420.123 193.82C420.008 193.57 419.816 193.397 419.527 193.281C419.373 193.224 419.22 193.205 419.066 193.205C418.95 193.205 418.854 193.243 418.739 193.281C418.624 193.339 418.527 193.397 418.45 193.474C418.335 193.589 418.239 193.743 418.162 193.935C418.047 194.243 418.028 194.531 418.143 194.762C418.239 195.012 418.45 195.185 418.739 195.3M418.624 194.089C418.7 193.858 418.816 193.724 418.97 193.647C419.104 193.57 419.258 193.57 419.431 193.647C419.585 193.704 419.7 193.82 419.758 193.954C419.816 194.108 419.796 194.281 419.719 194.512C419.642 194.742 419.508 194.896 419.373 194.973C419.22 195.05 419.085 195.05 418.912 194.992C418.739 194.935 418.643 194.819 418.585 194.666C418.527 194.512 418.547 194.32 418.624 194.108" fill="#11567C"/>
<path id="Vector_17" d="M417.047 194.57C417.182 194.57 417.297 194.57 417.393 194.513C417.509 194.455 417.624 194.359 417.72 194.243C417.797 194.147 417.874 194.013 417.932 193.84C417.989 193.648 418.028 193.494 418.028 193.34C418.028 193.205 418.008 193.071 417.951 192.955C417.893 192.84 417.816 192.744 417.72 192.667C417.643 192.609 417.528 192.552 417.355 192.494L416.624 192.225L415.913 194.205L416.663 194.474C416.817 194.532 416.932 194.551 417.028 194.551M416.913 192.725L417.086 192.782C417.24 192.84 417.355 192.878 417.413 192.917C417.489 192.955 417.528 193.013 417.566 193.071C417.605 193.128 417.605 193.205 417.605 193.302C417.605 193.398 417.566 193.513 417.528 193.667C417.47 193.821 417.413 193.936 417.355 194.013C417.297 194.09 417.239 194.147 417.182 194.167C417.124 194.186 417.067 194.205 416.99 194.186C416.932 194.186 416.855 194.167 416.74 194.109L416.432 193.993L416.913 192.686V192.725Z" fill="#11567C"/>
<path id="Vector_18" d="M430.963 201.758L431.366 201.451L432.058 201.912L431.943 202.412L432.328 202.662L432.789 200.451L432.424 200.201L430.578 201.489L430.943 201.739L430.963 201.758ZM432.347 200.759L432.154 201.566L431.674 201.239L432.347 200.759Z" fill="#11567C"/>
<path id="Vector_19" d="M429.345 200.701L429.806 199.951L429.883 199.989C429.883 199.989 430.018 200.086 430.056 200.124C430.095 200.163 430.114 200.201 430.114 200.259C430.114 200.316 430.133 200.451 430.133 200.643V201.201L430.576 201.47V200.989C430.576 200.797 430.576 200.662 430.556 200.566C430.556 200.489 430.499 200.393 430.46 200.297C430.633 200.374 430.787 200.393 430.921 200.355C431.056 200.316 431.152 200.22 431.248 200.086C431.306 199.989 431.344 199.874 431.344 199.759C431.344 199.644 431.306 199.547 431.248 199.451C431.171 199.374 431.056 199.259 430.864 199.144L430.114 198.682L428.999 200.47L429.364 200.701H429.345ZM430.268 199.22L430.556 199.394C430.71 199.49 430.787 199.547 430.826 199.567C430.883 199.605 430.902 199.663 430.921 199.72C430.921 199.778 430.921 199.836 430.883 199.893C430.845 199.951 430.806 199.989 430.768 200.009C430.71 200.009 430.672 200.028 430.614 200.009C430.556 200.009 430.441 199.932 430.268 199.836L429.999 199.663L430.287 199.201L430.268 199.22Z" fill="#11567C"/>
<path id="Vector_20" d="M408.587 192.051L409.759 190.148L409.317 190.052L408.491 191.474L408.279 189.84L407.837 189.744L408.144 191.955L408.587 192.051Z" fill="#11567C"/>
<path id="Vector_21" d="M432.708 202.799C432.747 202.992 432.881 203.145 433.093 203.299C433.246 203.415 433.381 203.472 433.516 203.511C433.65 203.549 433.765 203.53 433.881 203.492C433.996 203.453 434.092 203.376 434.169 203.28C434.246 203.165 434.285 203.068 434.304 202.953C434.304 202.838 434.304 202.742 434.246 202.646C434.189 202.549 434.112 202.415 433.958 202.261C433.823 202.107 433.746 201.992 433.727 201.915C433.727 201.857 433.727 201.819 433.746 201.781C433.785 201.742 433.823 201.723 433.881 201.723C433.958 201.723 434.054 201.761 434.169 201.838C434.265 201.915 434.323 201.973 434.342 202.05C434.361 202.127 434.342 202.203 434.304 202.3L434.65 202.53C434.765 202.376 434.785 202.203 434.746 202.03C434.708 201.857 434.573 201.704 434.361 201.55C434.227 201.454 434.112 201.396 433.977 201.357C433.862 201.338 433.746 201.338 433.631 201.357C433.535 201.396 433.439 201.454 433.381 201.55C433.285 201.684 433.246 201.838 433.285 202.011C433.304 202.126 433.4 202.28 433.554 202.453C433.669 202.588 433.746 202.684 433.765 202.722C433.804 202.78 433.842 202.838 433.842 202.896C433.842 202.934 433.842 202.972 433.804 203.03C433.765 203.088 433.689 203.126 433.593 203.126C433.496 203.126 433.4 203.107 433.285 203.011C433.189 202.934 433.112 202.857 433.093 202.761C433.073 202.665 433.093 202.549 433.15 202.415L432.785 202.203C432.67 202.415 432.631 202.607 432.67 202.78" fill="#11567C"/>
<path id="Vector_22" d="M435.332 202.318L434.076 203.995L434.415 204.249L435.67 202.571L435.332 202.318Z" fill="#11567C"/>
<path id="Vector_23" d="M435.924 205.412L436.136 205.124L435.29 204.49L436.328 203.106L435.982 202.856L434.732 204.528L435.924 205.412Z" fill="#11567C"/>
<path id="Vector_24" d="M390.628 188.147C390.628 188.147 390.436 187.993 390.321 187.955C390.224 187.935 390.09 187.916 389.917 187.916H389.148L389.109 190.012H389.917C390.071 190.012 390.205 190.012 390.301 189.992C390.436 189.954 390.532 189.896 390.609 189.819C390.705 189.723 390.782 189.608 390.84 189.454C390.878 189.339 390.917 189.185 390.917 189.012C390.917 188.82 390.917 188.647 390.859 188.512C390.82 188.378 390.743 188.262 390.667 188.166M390.397 189.358C390.397 189.358 390.321 189.512 390.282 189.569C390.244 189.608 390.186 189.646 390.109 189.646C390.051 189.646 389.975 189.646 389.859 189.646H389.552V188.243H389.744C389.917 188.243 390.032 188.243 390.09 188.262C390.167 188.262 390.224 188.32 390.282 188.358C390.34 188.416 390.378 188.474 390.397 188.57C390.417 188.647 390.436 188.781 390.436 188.935C390.436 189.089 390.436 189.223 390.378 189.32" fill="#11567C"/>
<path id="Vector_25" d="M393.67 188.436L393.997 190.109L394.42 190.128L394.9 188.494L394.824 190.147L395.227 190.167L395.323 188.071L394.689 188.033L394.247 189.436L393.939 187.994L393.305 187.956L393.189 190.071L393.593 190.09L393.67 188.436Z" fill="#11567C"/>
<path id="Vector_26" d="M409.55 171C398.169 171 388.345 177.671 383.75 187.322C403.109 185.476 419.893 189.091 437.907 202.933C438.041 201.818 438.118 200.703 438.118 199.549C438.118 183.785 425.333 171 409.55 171ZM419.316 190.936L418.336 190.436L417.374 190.956L417.547 189.86L416.759 189.091L417.855 188.918L418.336 187.918L418.835 188.898L419.931 189.052L419.143 189.821L419.335 190.898L419.316 190.936Z" fill="#11567C"/>
<path id="Vector_27" d="M382.173 191.494C381.423 194.051 381 196.761 381 199.568C381 215.333 393.785 228.117 409.549 228.117C422.622 228.117 433.618 219.331 437.021 207.354C421.334 194.512 402.397 188.745 382.173 191.494ZM385.864 194.205L386.364 193.224L386.844 194.224L387.94 194.377L387.152 195.147L387.344 196.242L386.364 195.723L385.383 196.223L385.576 195.147L384.787 194.377L385.883 194.224L385.864 194.205ZM386.594 210.277L385.787 209.873L384.999 210.296L385.133 209.411L384.48 208.796L385.364 208.662L385.749 207.854L386.152 208.662L387.037 208.777L386.402 209.411L386.556 210.296L386.594 210.277ZM389.651 207.989L388.728 207.508L387.806 208.008L387.979 206.989L387.229 206.278L388.267 206.124L388.709 205.182L389.171 206.105L390.209 206.239L389.478 206.97L389.67 207.989H389.651ZM410.203 222.754L409.78 222.542L409.357 222.773L409.414 222.292L409.068 221.965L409.53 221.888L409.722 221.446L409.953 221.869L410.433 221.927L410.106 222.273L410.203 222.734V222.754ZM410.587 214.141L409.664 213.66L408.742 214.16L408.914 213.122L408.165 212.391L409.203 212.237L409.664 211.295L410.126 212.237L411.164 212.372L410.414 213.103L410.606 214.141H410.587ZM424.544 222.523L423.872 222.196L423.218 222.561L423.333 221.831L422.795 221.312L423.525 221.196L423.833 220.523L424.179 221.196L424.929 221.292L424.41 221.831L424.544 222.561V222.523ZM430.004 215.698L429.254 215.294L428.486 215.679L428.639 214.833L428.043 214.237L428.889 214.121L429.274 213.352L429.639 214.121L430.485 214.256L429.87 214.852L430.004 215.698ZM433.369 209.392L433.676 208.739L434.003 209.373L434.734 209.469L434.214 209.988L434.349 210.699L433.695 210.373L433.061 210.719L433.176 210.007L432.638 209.507L433.349 209.392H433.369ZM431.831 212.007L431.235 212.584L431.369 213.41L430.639 213.006L429.889 213.391L430.043 212.584L429.466 211.988L430.293 211.891L430.677 211.161L431.023 211.911L431.85 212.045L431.831 212.007ZM429.043 208.911L429.485 207.97L429.966 208.892L431.004 209.027L430.273 209.757L430.466 210.776L429.543 210.296L428.62 210.796L428.774 209.757L428.024 209.046L429.043 208.873V208.911ZM426.313 215.41L426.601 214.775L426.928 215.39L427.62 215.467L427.121 215.967L427.255 216.659L426.621 216.352L426.005 216.698L426.102 216.006L425.583 215.525L426.275 215.41H426.313ZM423.487 215.41L423.814 214.737L424.141 215.41L424.871 215.525L424.333 216.044L424.448 216.774L423.795 216.428L423.141 216.774L423.276 216.044L422.756 215.525L423.487 215.429V215.41ZM423.525 218.043L423.929 217.236L424.314 218.043L425.198 218.178L424.544 218.793L424.679 219.677L423.891 219.255L423.083 219.658L423.256 218.774L422.622 218.14L423.506 218.024L423.525 218.043ZM420.142 216.044L420.469 215.371L420.795 216.044L421.526 216.14L421.007 216.659L421.142 217.39L420.488 217.044L419.834 217.39L419.95 216.659L419.411 216.14L420.142 216.025V216.044ZM417.854 217.986L418.239 218.735L419.084 218.831L418.488 219.427L418.642 220.254L417.873 219.87L417.124 220.273L417.258 219.427L416.643 218.851L417.489 218.716L417.854 217.947V217.986ZM415.932 197.319L416.278 196.627L416.624 197.319L417.393 197.434L416.835 197.973L416.97 198.741L416.278 198.376L415.585 198.741L415.72 197.973L415.163 197.434L415.932 197.319ZM415.201 215.313L415.528 214.641L415.855 215.313L416.585 215.429L416.047 215.948L416.162 216.678L415.509 216.332L414.855 216.678L414.99 215.948L414.471 215.429L415.201 215.333V215.313ZM412.394 205.624L412.798 206.432L413.702 206.547L413.048 207.181L413.221 208.085L412.413 207.662L411.606 208.104L411.76 207.2L411.106 206.566L412.01 206.432L412.413 205.605L412.394 205.624ZM409.414 204.009L409.799 203.202L410.203 204.009L411.106 204.125L410.472 204.759L410.645 205.643L409.837 205.24L409.049 205.663L409.184 204.778L408.53 204.163L409.414 204.028V204.009ZM407.723 208.527L407.972 208.046L408.203 208.546L408.742 208.623L408.338 208.988L408.415 209.527L407.934 209.258L407.453 209.507L407.55 208.969L407.165 208.585L407.703 208.508L407.723 208.527ZM405.512 206.835L405.858 206.143L406.204 206.835L406.973 206.951L406.415 207.489L406.55 208.258L405.858 207.893L405.166 208.258L405.3 207.489L404.743 206.951L405.512 206.835ZM398.052 200.203L398.437 199.376L398.86 200.183L399.763 200.28L399.129 200.933L399.302 201.818L398.475 201.414L397.687 201.856L397.822 200.952L397.149 200.337L398.052 200.183V200.203ZM397.168 214.756L397.61 213.852L398.072 214.756L399.071 214.891L398.36 215.602L398.533 216.602L397.63 216.14L396.745 216.621L396.899 215.621L396.168 214.929L397.168 214.775V214.756ZM394.073 208.892L394.438 208.104L394.823 208.873L395.688 208.988L395.073 209.604L395.226 210.45L394.457 210.065L393.688 210.488L393.823 209.642L393.189 209.046L394.034 208.911L394.073 208.892ZM393.131 211.93L393.458 211.257L393.785 211.93L394.534 212.045L393.996 212.564L394.131 213.314L393.458 212.968L392.785 213.314L392.919 212.564L392.381 212.045L393.131 211.93ZM392.15 204.605L391.747 204.99L391.843 205.547L391.343 205.278L390.843 205.528L390.939 204.97L390.536 204.586L391.093 204.509L391.343 204.009L391.593 204.509L392.15 204.586V204.605Z" fill="#11567C"/>
<path id="Vector_28" d="M397.627 190.282C397.761 190.244 397.858 190.205 397.934 190.129C398.031 190.032 398.127 189.917 398.184 189.782C398.242 189.667 398.261 189.513 398.28 189.34C398.28 189.148 398.28 188.975 398.242 188.84C398.204 188.706 398.146 188.591 398.069 188.494C397.992 188.398 397.877 188.321 397.761 188.283C397.665 188.244 397.531 188.225 397.358 188.225L396.589 188.168L396.454 190.263L397.242 190.321C397.396 190.321 397.531 190.321 397.627 190.302M396.896 189.936L396.992 188.552H397.185C397.358 188.571 397.473 188.591 397.531 188.61C397.608 188.629 397.665 188.667 397.723 188.725C397.781 188.783 397.8 188.84 397.838 188.937C397.858 189.033 397.877 189.148 397.838 189.302C397.838 189.456 397.8 189.59 397.761 189.686C397.723 189.782 397.685 189.84 397.646 189.879C397.588 189.917 397.531 189.936 397.473 189.956C397.415 189.956 397.338 189.956 397.223 189.956H396.916L396.896 189.936Z" fill="#11567C"/>
<path id="Vector_29" d="M385.553 187.995C385.38 187.995 385.226 188.033 385.111 188.091C385.014 188.129 384.918 188.206 384.841 188.283C384.765 188.379 384.707 188.475 384.649 188.571C384.591 188.725 384.572 188.898 384.572 189.11C384.572 189.437 384.688 189.706 384.88 189.879C385.072 190.052 385.322 190.148 385.63 190.129C385.937 190.129 386.187 190.013 386.36 189.821C386.533 189.629 386.61 189.36 386.61 189.014C386.61 188.668 386.495 188.398 386.302 188.225C386.11 188.033 385.86 187.956 385.553 187.976M386.053 189.61C385.956 189.744 385.822 189.802 385.649 189.802C385.476 189.802 385.341 189.744 385.226 189.629C385.111 189.514 385.053 189.34 385.034 189.091C385.034 188.86 385.072 188.668 385.168 188.552C385.264 188.437 385.399 188.36 385.591 188.36C385.764 188.36 385.899 188.398 386.014 188.514C386.129 188.629 386.187 188.802 386.187 189.052C386.187 189.302 386.149 189.475 386.053 189.61Z" fill="#11567C"/>
<path id="Vector_30" d="M388.38 189.263C388.38 189.263 388.245 189.148 388.149 189.09C388.341 189.052 388.476 188.994 388.553 188.879C388.649 188.783 388.687 188.648 388.687 188.475C388.687 188.36 388.649 188.244 388.591 188.148C388.533 188.052 388.437 187.994 388.341 187.956C388.245 187.918 388.072 187.898 387.841 187.918H386.957L386.995 190.032H387.418V189.148H387.495C387.591 189.148 387.668 189.148 387.707 189.148C387.745 189.148 387.803 189.186 387.841 189.225C387.88 189.263 387.957 189.359 388.072 189.532L388.38 189.975H388.88L388.61 189.552C388.495 189.398 388.418 189.283 388.36 189.225M387.707 188.821H387.399V188.302H387.726C387.899 188.302 387.995 188.302 388.034 188.302C388.111 188.302 388.149 188.341 388.187 188.379C388.226 188.417 388.245 188.475 388.245 188.552C388.245 188.61 388.245 188.667 388.207 188.706C388.168 188.744 388.13 188.783 388.091 188.802C388.034 188.802 387.918 188.821 387.707 188.84" fill="#11567C"/>
<path id="Vector_31" d="M392.822 188.303V187.957L391.264 187.938L391.245 190.033L392.841 190.052V189.706L391.668 189.687L391.687 189.11L392.725 189.13L392.745 188.764H391.687V188.284L392.822 188.303Z" fill="#11567C"/>
<path id="Vector_32" d="M399.472 190.552C399.779 190.571 400.029 190.494 400.241 190.321C400.433 190.148 400.548 189.898 400.587 189.552C400.606 189.206 400.548 188.937 400.375 188.726C400.202 188.514 399.971 188.399 399.664 188.38C399.491 188.38 399.337 188.38 399.202 188.418C399.106 188.456 399.01 188.514 398.914 188.591C398.818 188.668 398.76 188.764 398.703 188.86C398.626 188.995 398.587 189.168 398.568 189.379C398.549 189.706 398.606 189.975 398.779 190.187C398.952 190.398 399.183 190.513 399.491 190.533M398.972 189.418C398.991 189.168 399.068 188.995 399.183 188.899C399.299 188.783 399.452 188.745 399.625 188.764C399.798 188.764 399.933 188.841 400.029 188.975C400.125 189.11 400.164 189.283 400.144 189.533C400.125 189.783 400.048 189.956 399.933 190.071C399.818 190.187 399.664 190.225 399.51 190.225C399.337 190.225 399.202 190.129 399.106 190.014C399.01 189.879 398.972 189.706 398.991 189.456" fill="#11567C"/>
<path id="Vector_33" d="M401.934 190.416C401.934 190.416 401.761 190.473 401.626 190.454C401.492 190.454 401.396 190.396 401.338 190.319C401.261 190.243 401.242 190.127 401.223 189.993H400.8C400.8 190.204 400.857 190.396 400.973 190.55C401.107 190.685 401.3 190.781 401.55 190.819C401.723 190.838 401.896 190.819 402.011 190.819C402.146 190.781 402.242 190.723 402.319 190.627C402.396 190.531 402.453 190.416 402.453 190.3C402.453 190.166 402.453 190.05 402.415 189.954C402.376 189.858 402.299 189.781 402.222 189.704C402.126 189.647 401.992 189.57 401.78 189.493C401.588 189.416 401.453 189.358 401.415 189.301C401.377 189.262 401.357 189.224 401.377 189.166C401.377 189.108 401.415 189.07 401.453 189.051C401.53 189.012 401.626 188.993 401.742 189.012C401.857 189.012 401.953 189.07 401.992 189.127C402.049 189.185 402.069 189.262 402.069 189.377L402.492 189.416C402.511 189.224 402.472 189.07 402.357 188.935C402.242 188.801 402.049 188.724 401.78 188.685C401.626 188.666 401.473 188.685 401.357 188.685C401.242 188.724 401.146 188.781 401.069 188.858C400.992 188.935 400.954 189.031 400.934 189.147C400.915 189.32 400.954 189.454 401.069 189.589C401.146 189.685 401.3 189.781 401.511 189.858C401.684 189.935 401.8 189.973 401.838 189.993C401.915 190.031 401.953 190.069 401.973 190.108C401.992 190.146 402.011 190.185 401.992 190.243C401.992 190.319 401.934 190.377 401.857 190.435" fill="#11567C"/>
<path id="Vector_34" d="M406.697 191.61C406.832 191.61 406.928 191.552 407.024 191.494C407.139 191.417 407.236 191.321 407.313 191.167C407.389 191.052 407.428 190.918 407.466 190.744C407.505 190.552 407.505 190.379 407.485 190.245C407.466 190.11 407.428 189.975 407.351 189.879C407.274 189.764 407.197 189.687 407.082 189.629C407.005 189.591 406.87 189.553 406.697 189.514L405.928 189.38L405.544 191.437L406.332 191.59C406.486 191.629 406.62 191.629 406.717 191.61M406.274 189.802L406.467 189.841C406.64 189.879 406.755 189.899 406.813 189.918C406.89 189.956 406.947 189.995 406.986 190.052C407.024 190.11 407.063 190.187 407.063 190.283C407.063 190.379 407.063 190.495 407.044 190.648C407.005 190.802 406.967 190.937 406.928 191.014C406.89 191.091 406.832 191.167 406.774 191.187C406.717 191.225 406.659 191.244 406.582 191.244C406.524 191.244 406.448 191.244 406.332 191.225L406.024 191.167L406.294 189.802H406.274Z" fill="#11567C"/>
<path id="Vector_35" d="M403.934 190.666L404.761 190.801L404.876 191.301L405.338 191.378L404.819 189.167L404.377 189.109L403.242 191.051L403.684 191.128L403.934 190.686V190.666ZM404.511 189.609L404.684 190.416L404.127 190.32L404.53 189.59L404.511 189.609Z" fill="#11567C"/>
<path id="Vector_36" d="M508.822 195.472C508.822 195.472 512.417 191.608 512.417 186.032C512.417 175.766 501.69 171.114 501.69 171.114H481.312V228.231H508.284C508.284 228.231 521.914 223.905 521.914 211.755C521.914 199.605 508.803 195.472 508.803 195.472" fill="#11567C"/>
<path id="Vector_37" d="M431.351 228.231H479.72L455.536 171.114L431.351 228.231Z" fill="#11567C"/>
<path id="Vector_38" d="M535.949 202.451H535.026V227.155H535.949V202.451Z" fill="#E4051F"/>
<path id="Vector_39" d="M567.829 224.254C567.156 224.753 566.445 225.196 565.676 225.561C564.907 225.926 564.08 226.195 563.215 226.407C562.331 226.618 561.351 226.714 560.274 226.714C558.563 226.714 556.986 226.407 555.545 225.772C554.103 225.138 552.853 224.273 551.796 223.196C550.738 222.12 549.912 220.812 549.316 219.332C548.72 217.852 548.412 216.256 548.412 214.545C548.412 212.834 548.72 211.277 549.316 209.796C549.912 208.316 550.738 207.009 551.796 205.894C552.853 204.779 554.122 203.894 555.583 203.26C557.044 202.626 558.64 202.299 560.37 202.299C561.447 202.299 562.427 202.395 563.292 202.568C564.157 202.741 564.965 203.01 565.695 203.337C566.445 203.664 567.118 204.048 567.752 204.51C568.387 204.971 568.983 205.49 569.579 206.048L567.752 208.009C566.733 207.067 565.657 206.278 564.503 205.682C563.35 205.067 561.946 204.779 560.332 204.779C559.024 204.779 557.813 205.029 556.698 205.529C555.583 206.028 554.622 206.72 553.795 207.586C552.968 208.47 552.334 209.489 551.873 210.681C551.411 211.873 551.181 213.142 551.181 214.506C551.181 215.871 551.411 217.16 551.873 218.352C552.334 219.544 552.968 220.581 553.795 221.466C554.622 222.35 555.583 223.042 556.698 223.542C557.813 224.042 559.024 224.292 560.332 224.292C561.946 224.292 563.35 224.004 564.523 223.408C565.695 222.812 566.849 221.966 567.964 220.889L569.713 222.619C569.098 223.254 568.464 223.811 567.81 224.33L567.829 224.254Z" fill="#00577F"/>
<path id="Vector_40" d="M596.613 226.291H593.75L590.98 220.043H578.119L575.312 226.291H572.582L583.348 202.49H585.847L596.613 226.291ZM584.559 205.624L579.157 217.678H589.923L584.559 205.624Z" fill="#00577F"/>
<path id="Vector_41" d="M624.182 226.291H621.319L618.549 220.043H605.687L602.882 226.291H600.15L610.917 202.49H613.417L624.182 226.291ZM612.128 205.624L606.725 217.678H617.492L612.128 205.624Z" fill="#00577F"/>
<path id="Vector_42" d="M646.419 214.505C645.919 215.543 645.247 216.409 644.381 217.101C643.517 217.793 642.498 218.312 641.343 218.677C640.191 219.042 638.94 219.196 637.615 219.196H633.673V226.29H628.483V202.663H638.134C639.557 202.663 640.824 202.855 641.939 203.259C643.056 203.662 643.998 204.201 644.766 204.931C645.536 205.643 646.131 206.508 646.555 207.507C646.976 208.507 647.169 209.622 647.169 210.833V210.91C647.169 212.275 646.918 213.486 646.419 214.524V214.505ZM641.901 210.929C641.901 209.757 641.518 208.872 640.767 208.257C640.018 207.642 638.98 207.354 637.672 207.354H633.654V214.582H637.768C639.076 214.582 640.095 214.236 640.805 213.544C641.537 212.852 641.882 212.006 641.882 210.987V210.91L641.901 210.929Z" fill="#00577F"/>
<path id="Vector_43" d="M651.264 226.29V202.663H656.456V226.29H651.264Z" fill="#00577F"/>
</g>
</g>
</g>
<text id="studio-cta" fill="#FAFAFA" style="white-space: pre" xml:space="preserve" font-family="Poppins" font-size="30" font-weight="bold" letter-spacing="0em"><tspan x="173.349" y="892">&#xa0;Liberar acesso</tspan></text>
<path id="protected-decoration-stars_12" opacity="0.2" d="M343.6 211.64H330.82V224.6H325.72V211.64H313V207.02H325.72V194H330.82V207.02H343.6V211.64Z" fill="#212121"/>
<text id="studio-support" opacity="0.9" fill="#212121" style="white-space: pre" xml:space="preserve" font-family="Poppins" font-size="23.8273" letter-spacing="0em"><tspan x="139" y="697.243">para advogados da OAB/PI e depois</tspan></text>
<g id="protected-commercial">
<text fill="#02A378" style="white-space: pre" xml:space="preserve" font-family="Poppins" font-size="25" font-weight="bold" letter-spacing="0em"><tspan x="359.512" y="659">no primeiro m&#xea;s </tspan></text>
<text fill="#02A378" style="white-space: pre" xml:space="preserve" font-family="Poppins" font-size="50" font-weight="bold" letter-spacing="0em"><tspan x="139" y="659">R$19,90</tspan><tspan x="348.916" y="659"> </tspan></text>
<text fill="#02A378" style="white-space: pre" xml:space="preserve" font-family="Poppins" font-size="32" font-weight="bold" letter-spacing="0em"><tspan x="331.822" y="659">*</tspan></text>
</g>
<g id="protected-commercial_2">
<text fill="#02A378" style="white-space: pre" xml:space="preserve" font-family="Poppins" font-size="30" font-weight="bold" letter-spacing="0em"><tspan x="349.986" y="749.895"> </tspan></text>
<text fill="#02A378" style="white-space: pre" xml:space="preserve" font-family="Poppins" font-size="25" font-weight="bold" letter-spacing="0em"><tspan x="356.344" y="749.895">cont&#xed;nuo</tspan></text>
<text fill="#02A378" style="white-space: pre" xml:space="preserve" font-family="Poppins" font-size="50" font-weight="bold" letter-spacing="0em"><tspan x="139" y="749.895">30% OFF</tspan></text>
</g>
<text id="studio-headline" fill="#212121" style="white-space: pre" xml:space="preserve" font-family="Poppins" font-size="60" font-weight="bold" letter-spacing="0em"><tspan x="108" y="370">Sua nova estagi&#xe1;ria &#xe9; </tspan><tspan x="108" y="448">uma IA treinada por mais </tspan><tspan x="108" y="526">de 50 mil advogados!</tspan></text>
<text id="protected-commercial_3" fill="#212121" style="white-space: pre" xml:space="preserve" font-family="Poppins" font-size="13" letter-spacing="0em"><tspan x="136" y="785.05">*Válido no primeiro mês para assinantes no plano degustação.</tspan></text>
</g>
<defs>
<filter id="filter0_d_596_12" x="601.499" y="721.499" width="893.705" height="440.707" filterUnits="userSpaceOnUse" color-interpolation-filters="sRGB">
<feFlood flood-opacity="0" result="BackgroundImageFix"/>
<feColorMatrix in="SourceAlpha" type="matrix" values="0 0 0 0 0 0 0 0 0 0 0 0 0 0 0 0 0 0 127 0" result="hardAlpha"/>
<feOffset dx="4.55225" dy="4.55225"/>
<feGaussianBlur stdDeviation="11.3806"/>
<feComposite in2="hardAlpha" operator="out"/>
<feColorMatrix type="matrix" values="0 0 0 0 0 0 0 0 0 0 0 0 0 0 0 0 0 0 0.25 0"/>
<feBlend mode="normal" in2="BackgroundImageFix" result="effect1_dropShadow_596_12"/>
<feBlend mode="normal" in="SourceGraphic" in2="effect1_dropShadow_596_12" result="shape"/>
</filter>
<linearGradient id="paint0_linear_596_12" x1="857" y1="0.5" x2="1256" y2="0.5" gradientUnits="userSpaceOnUse">
<stop stop-color="#12A67A"/>
<stop offset="1" stop-color="#75D9B5"/>
</linearGradient>
<linearGradient id="paint1_linear_596_12" x1="631" y1="577" x2="631" y2="610" gradientUnits="userSpaceOnUse">
<stop stop-color="#01AB7D"/>
<stop offset="1" stop-color="#008F69"/>
</linearGradient>
<linearGradient id="paint2_linear_596_12" x1="89" y1="568" x2="89" y2="601" gradientUnits="userSpaceOnUse">
<stop stop-color="#01AB7D"/>
<stop offset="1" stop-color="#008F69"/>
</linearGradient>
<linearGradient id="paint3_linear_596_12" x1="493" y1="568" x2="493" y2="588" gradientUnits="userSpaceOnUse">
<stop stop-color="#01AB7D"/>
<stop offset="1" stop-color="#008F69"/>
</linearGradient>
<linearGradient id="paint4_linear_596_12" x1="73" y1="601" x2="73" y2="621" gradientUnits="userSpaceOnUse">
<stop stop-color="#01AB7D"/>
<stop offset="1" stop-color="#008F69"/>
</linearGradient>
<linearGradient id="paint5_linear_596_12" x1="261" y1="799" x2="261" y2="819" gradientUnits="userSpaceOnUse">
<stop stop-color="#01AB7D"/>
<stop offset="1" stop-color="#008F69"/>
</linearGradient>
<linearGradient id="paint6_linear_596_12" x1="84" y1="685" x2="84" y2="705" gradientUnits="userSpaceOnUse">
<stop stop-color="#01AB7D"/>
<stop offset="1" stop-color="#008F69"/>
</linearGradient>
<linearGradient id="paint7_linear_596_12" x1="100" y1="682" x2="615" y2="682" gradientUnits="userSpaceOnUse">
<stop stop-color="#12A67A"/>
<stop offset="1" stop-color="#75D9B5"/>
</linearGradient>
<clipPath id="clip0_596_12">
<rect width="1080" height="1080" fill="white"/>
</clipPath>
<clipPath id="clip1_596_12">
<path d="M675.844 811.183C676.575 806.941 676.941 804.82 678.046 803.341C679.017 802.041 680.376 801.082 681.926 800.602C683.689 800.055 685.81 800.421 690.052 801.152L1423.3 927.502C1427.54 928.233 1429.67 928.598 1431.14 929.703C1432.44 930.675 1433.4 932.033 1433.88 933.584C1434.43 935.346 1434.07 937.467 1433.33 941.71L1405.84 1101.26C1405.11 1105.51 1404.74 1107.63 1403.64 1109.11C1402.67 1110.41 1401.31 1111.37 1399.76 1111.85C1398 1112.39 1395.87 1112.03 1391.63 1111.3L658.382 984.946C654.14 984.215 652.018 983.85 650.54 982.745C649.24 981.773 648.281 980.415 647.8 978.864C647.254 977.102 647.619 974.98 648.351 970.738L675.844 811.183Z" fill="white"/>
</clipPath>
</defs>
</svg>
