<svg width="1080" height="1920" viewBox="0 0 1080 1920" fill="none" xmlns="http://www.w3.org/2000/svg">
<g id="modelo-5-storie">
<g id="protected-background" clip-path="url(#clip0_597_13)">
<rect width="1080" height="1920" fill="#FAFAFA"/>
<rect id="protected-decoration-stars" x="102" y="827" width="504" height="177" rx="11.3263" stroke="url(#paint0_linear_597_13)" stroke-width="4"/>
<rect id="protected-decoration-stars_2" x="100" y="1077" width="361" height="84" rx="42" fill="#01A379"/>
<circle id="protected-decoration-stars_3" cx="995" cy="139" r="230" stroke="url(#paint1_linear_597_13)" stroke-width="50"/>
<path id="protected-decoration-stars_9" d="M74.5035 924.281L80.9404 921.94L83.2812 915.503C83.5253 914.832 84.4747 914.832 84.7188 915.503L87.0596 921.94L93.4965 924.281C94.1678 924.525 94.1678 925.475 93.4965 925.719L87.0596 928.06L84.7188 934.496C84.4747 935.168 83.5253 935.168 83.2812 934.496L80.9404 928.06L74.5035 925.719C73.8322 925.475 73.8322 924.525 74.5035 924.281Z" fill="url(#paint7_linear_597_13)"/>
<circle id="protected-decoration-stars_10" cx="864" cy="1701" r="470" fill="#01A077"/>
<g id="protected-decoration-stars_11" filter="url(#filter0_d_597_13)">
<rect x="501.44" y="1244.14" width="1202.67" height="392.03" rx="44.2972" transform="rotate(9.7769 501.44 1244.14)" fill="#F4F5F9"/>
</g>
<g id="protected-image">
<g id="Frame 1000002475">
<text id="title" transform="translate(536.337 1282.22) rotate(9.7769)" fill="#131313" style="white-space: pre" xml:space="preserve" font-family="Noto Sans" font-size="28.0487" font-weight="600" letter-spacing="0em"><tspan x="0" y="30.3829">Como a IA da Jusfy pode te ajudar hoje?</tspan></text>
</g>
<g id="chat">
<g clip-path="url(#clip1_597_13)">
<path d="M523.808 1354.93C524.875 1348.74 525.409 1345.64 527.021 1343.49C528.44 1341.59 530.423 1340.19 532.686 1339.49C535.259 1338.69 538.355 1339.22 544.547 1340.29L1614.82 1524.71C1621.01 1525.78 1624.11 1526.31 1626.26 1527.93C1628.16 1529.34 1629.56 1531.33 1630.26 1533.59C1631.06 1536.16 1630.53 1539.26 1629.46 1545.45L1589.2 1779.09C1588.14 1785.28 1587.6 1788.38 1585.99 1790.53C1584.57 1792.43 1582.59 1793.83 1580.32 1794.53C1577.75 1795.33 1574.66 1794.8 1568.46 1793.73L498.191 1609.31C491.999 1608.24 488.903 1607.71 486.745 1606.09C484.848 1604.67 483.448 1602.69 482.746 1600.43C481.949 1597.86 482.482 1594.76 483.549 1588.57L523.808 1354.93Z" fill="#FAFFFE"/>
<g id="Frame 1000002479">
<g id="Card">
<path d="M565.248 1378.72L878.516 1432.7C884.241 1433.69 888.082 1439.13 887.096 1444.86L878.87 1492.59C877.884 1498.31 872.443 1502.16 866.718 1501.17L553.45 1447.19C547.726 1446.2 543.884 1440.76 544.871 1435.04L553.096 1387.3C554.083 1381.58 559.524 1377.74 565.248 1378.72Z" fill="#FAFBFF"/>
<path d="M565.248 1378.72L878.516 1432.7C884.241 1433.69 888.082 1439.13 887.096 1444.86L878.87 1492.59C877.884 1498.31 872.443 1502.16 866.718 1501.17L553.45 1447.19C547.726 1446.2 543.884 1440.76 544.871 1435.04L553.096 1387.3C554.083 1381.58 559.524 1377.74 565.248 1378.72Z" stroke="#E7E8EC" stroke-width="1.40243"/>
<text id="Resumir casos" transform="translate(572.613 1402.05) rotate(9.7769)" fill="#383839" style="white-space: pre" xml:space="preserve" font-family="Noto Sans" font-size="18.2316" letter-spacing="0em"><tspan x="0" y="20.0739">Resumir casos</tspan></text>
<g id="chevron-forward-outline 1">
<path id="Vector (Stroke)" fill-rule="evenodd" clip-rule="evenodd" d="M846.212 1453.95C846.746 1453.57 847.485 1453.7 847.862 1454.23L853.653 1462.44C854.03 1462.97 853.902 1463.71 853.368 1464.08L845.166 1469.88C844.632 1470.25 843.894 1470.13 843.517 1469.59C843.14 1469.06 843.267 1468.32 843.801 1467.94L851.037 1462.83L845.928 1455.6C845.551 1455.06 845.679 1454.33 846.212 1453.95Z" fill="#01AB7D"/>
</g>
</g>
<g id="Card_2">
<path d="M917.214 1439.37L1230.48 1493.35C1236.21 1494.34 1240.05 1499.78 1239.06 1505.5L1230.84 1553.24C1229.85 1558.96 1224.41 1562.81 1218.68 1561.82L905.416 1507.84C899.692 1506.85 895.85 1501.41 896.837 1495.69L905.062 1447.95C906.049 1442.23 911.489 1438.38 917.214 1439.37Z" fill="#FAFBFF"/>
<path d="M917.214 1439.37L1230.48 1493.35C1236.21 1494.34 1240.05 1499.78 1239.06 1505.5L1230.84 1553.24C1229.85 1558.96 1224.41 1562.81 1218.68 1561.82L905.416 1507.84C899.692 1506.85 895.85 1501.41 896.837 1495.69L905.062 1447.95C906.049 1442.23 911.489 1438.38 917.214 1439.37Z" stroke="#E7E8EC" stroke-width="1.40243"/>
<g id="Content">
<text id="Gerar documentos" transform="translate(924.579 1462.7) rotate(9.7769)" fill="#383839" style="white-space: pre" xml:space="preserve" font-family="Noto Sans" font-size="18.2316" letter-spacing="0em"><tspan x="0" y="20.0739">Gerar documentos</tspan></text>
</g>
</g>
</g>
<g id="Group">
<path d="M550.319 1505L1554.25 1677.99C1557.36 1678.52 1559.65 1678.92 1561.43 1679.38C1563.21 1679.84 1564.42 1680.34 1565.4 1681.07C1567.18 1682.4 1568.49 1684.26 1569.15 1686.38C1569.51 1687.55 1569.58 1688.86 1569.42 1690.69C1569.25 1692.52 1568.86 1694.81 1568.32 1697.92L1561.06 1740.08C1560.52 1743.19 1560.13 1745.48 1559.67 1747.26C1559.24 1748.93 1558.76 1750.1 1558.11 1751.04L1557.97 1751.23C1556.64 1753.01 1554.78 1754.32 1552.66 1754.98C1551.5 1755.34 1550.19 1755.41 1548.36 1755.25C1546.52 1755.08 1544.24 1754.69 1541.13 1754.15L537.195 1581.16C534.088 1580.63 531.799 1580.23 530.015 1579.77C528.24 1579.31 527.025 1578.81 526.05 1578.08C524.271 1576.75 522.958 1574.89 522.301 1572.77C521.94 1571.6 521.868 1570.29 522.032 1568.46C522.195 1566.63 522.589 1564.34 523.125 1561.23L530.391 1519.07C530.926 1515.96 531.321 1513.67 531.78 1511.89C532.238 1510.11 532.746 1508.9 533.475 1507.92C534.804 1506.14 536.663 1504.83 538.785 1504.17C539.948 1503.81 541.262 1503.74 543.089 1503.9C544.923 1504.07 547.212 1504.46 550.319 1505Z" stroke="#E7E8EC" stroke-width="1.40243"/>
<g id="Text">
<text id="Como posso te ajudar?" transform="translate(544.944 1529.58) rotate(9.7769)" fill="#5E5E60" style="white-space: pre" xml:space="preserve" font-family="Noto Sans" font-size="19.6341" letter-spacing="0em"><tspan x="0" y="21.118">Como posso te ajudar?</tspan></text>
</g>
</g>
</g>
<path d="M544.487 1340.63L1614.76 1525.06C1617.86 1525.59 1620.17 1525.99 1621.97 1526.45C1623.76 1526.92 1625.03 1527.44 1626.05 1528.21C1627.89 1529.58 1629.25 1531.5 1629.93 1533.69C1630.31 1534.92 1630.38 1536.28 1630.21 1538.13C1630.05 1539.98 1629.65 1542.29 1629.12 1545.39L1588.86 1779.03C1588.32 1782.13 1587.92 1784.44 1587.46 1786.24C1587 1788.03 1586.48 1789.3 1585.71 1790.32C1584.33 1792.16 1582.41 1793.52 1580.22 1794.2C1579 1794.58 1577.63 1794.65 1575.78 1794.48C1573.93 1794.32 1571.62 1793.92 1568.52 1793.38L498.251 1608.96C495.149 1608.43 492.843 1608.03 491.042 1607.56C489.246 1607.1 487.982 1606.58 486.955 1605.81C485.117 1604.44 483.761 1602.52 483.081 1600.32C482.701 1599.1 482.632 1597.73 482.797 1595.89C482.963 1594.03 483.36 1591.73 483.895 1588.63L524.154 1354.99C524.688 1351.89 525.085 1349.58 525.549 1347.78C526.012 1345.99 526.535 1344.72 527.302 1343.7C528.676 1341.86 530.597 1340.5 532.79 1339.82C534.014 1339.44 535.38 1339.37 537.227 1339.54C539.08 1339.7 541.386 1340.1 544.487 1340.63Z" stroke="#CECED2" stroke-width="0.701217"/>
</g>
</g>
</g>
<text id="protected-commercial" fill="#212121" style="white-space: pre" xml:space="preserve" font-family="Poppins" font-size="13" letter-spacing="0em"><tspan x="131" y="1026.05">*Válido no primeiro mês para assinantes no plano degustação.</tspan></text>
<text id="studio-headline" fill="#212121" style="white-space: pre" xml:space="preserve" font-family="Poppins" font-size="60" font-weight="bold" letter-spacing="0em"><tspan x="100" y="600">Sua nova estagi&#xe1;ria &#xe9; </tspan><tspan x="100" y="678">uma IA treinada por mais </tspan><tspan x="100" y="756">de 50 mil advogados!</tspan></text>
<text id="studio-cta" fill="#FAFAFA" style="white-space: pre" xml:space="preserve" font-family="Poppins" font-size="30" font-weight="bold" letter-spacing="0em"><tspan x="165.349" y="1130">&#xa0;Liberar acesso</tspan></text>
<path id="+" opacity="0.2" d="M335.6 441.64H322.82V454.6H317.72V441.64H305V437.02H317.72V424H322.82V437.02H335.6V441.64Z" fill="#212121"/>
<g id="studio-logo-jusfy">
<path id="Path 303" d="M104.933 468.476C105.534 468.5 106.131 468.389 106.683 468.15C107.234 467.912 107.726 467.553 108.12 467.1C108.925 466.179 109.327 464.771 109.327 462.876V419.237H121.311L121.481 463.215C121.534 468.106 120.21 471.949 117.511 474.776C114.811 477.592 111.275 479 106.903 479C104.557 478.994 102.227 478.615 100 477.877L102.329 467.957C103.156 468.295 104.04 468.471 104.933 468.476ZM121.576 400V411.815H109.158V400H121.576Z" fill="#212121"/>
<path id="Path 304" d="M255.551 421.8L246.88 447.813L238.21 421.8H231.127V433.964L241.629 459.828C240.464 463.322 238.379 465.079 235.393 465.079C234.498 465.086 233.606 464.983 232.736 464.772L230.756 473.824C233.339 474.428 235.442 474.731 237.066 474.735C240.141 474.8 243.123 473.682 245.398 471.611C247.706 469.537 249.798 466.065 251.676 461.194L266.815 421.8H255.551Z" fill="#02A378"/>
<path id="Path 305" d="M137.188 419.239V445.198C137.188 448.184 137.844 450.407 139.178 451.836C140.502 453.276 142.601 453.996 145.478 453.996C148.357 453.996 150.457 453.276 151.777 451.836C153.1 450.396 153.76 448.184 153.757 445.198V431.71L165.741 419.726V446.225C165.741 452.037 163.973 456.462 160.437 459.501C156.9 462.55 151.942 464.075 145.562 464.075C139.242 464.075 134.382 462.578 130.984 459.586C127.585 456.6 125.888 452.143 125.892 446.214V419.218H137.188V419.239Z" fill="#212121"/>
<path id="Path 306" d="M200.417 443.033C199.212 441.305 197.577 439.922 195.674 439.02C193.368 437.986 190.972 437.164 188.517 436.564C185.701 435.813 183.717 435.079 182.567 434.362C182.028 434.057 181.583 433.611 181.279 433.072C180.975 432.533 180.823 431.921 180.841 431.303C180.837 430.771 180.974 430.248 181.238 429.787C181.502 429.326 181.884 428.943 182.345 428.677C183.497 427.978 184.83 427.632 186.177 427.683C188.305 427.698 190.422 427.987 192.476 428.54C193.037 428.689 193.577 428.847 194.117 429.017V426.401L186.071 418.354C180.831 418.376 176.596 419.611 173.367 422.06C170.116 424.537 168.497 427.978 168.497 432.414C168.497 439.2 172.463 443.625 180.397 445.69C183.562 446.548 185.859 447.331 187.299 448.019C188.739 448.707 189.459 449.713 189.459 451.036C189.459 452.127 188.887 453.016 187.733 453.715C186.579 454.403 184.949 454.752 182.821 454.752C180.691 454.732 178.572 454.429 176.522 453.852C174.406 453.273 172.355 452.479 170.401 451.481L167.216 460.194C169.695 461.37 172.279 462.309 174.934 463C177.505 463.698 180.156 464.061 182.821 464.08C188.57 464.08 193.256 462.873 196.881 460.459C200.501 458.045 202.312 454.566 202.312 450.02C202.312 447.14 201.68 444.811 200.417 443.033Z" fill="#212121"/>
<path id="Path 307" d="M218.468 418.912C218.468 416.891 218.902 415.397 219.781 414.444C220.202 413.975 220.72 413.603 221.3 413.354C221.879 413.106 222.506 412.986 223.136 413.004C223.501 413.007 223.865 413.032 224.227 413.078V410.485L217.97 404.228C215.133 404.767 212.814 405.837 211.036 407.467C208.389 409.902 207.062 413.714 207.055 418.901V421.856H200.745V430.96H206.97V462.773H218.362V430.97H227.71V421.866H218.447V418.912H218.468Z" fill="#02A378"/>
</g>
<g id="studio-logo-regional">
<mask id="mask0_597_13" style="mask-type:luminance" maskUnits="userSpaceOnUse" x="373" y="401" width="276" height="77">
<g id="clip0_41_420">
<path id="Vector" d="M648.455 401H373V477.573H648.455V401Z" fill="white"/>
</g>
</mask>
<g mask="url(#mask0_597_13)">
<g id="Group_2">
<path id="Vector_2" d="M449.322 466.961C449.284 466.865 449.226 466.807 449.13 466.807H446.746C446.65 466.807 446.573 466.865 446.554 466.961L443.267 477.246C443.267 477.246 443.267 477.362 443.267 477.4C443.305 477.439 443.343 477.458 443.401 477.458H445.324C445.42 477.458 445.497 477.4 445.516 477.304L445.958 475.804C445.958 475.804 445.996 475.747 446.035 475.747H449.784C449.784 475.747 449.841 475.766 449.861 475.804L450.322 477.304C450.36 477.4 450.418 477.458 450.514 477.458H452.437C452.552 477.458 452.61 477.419 452.61 477.323C452.61 477.285 452.61 477.266 452.61 477.246L449.322 466.961ZM449.245 474.093H446.573C446.573 474.093 446.496 474.055 446.515 473.997L447.861 469.48C447.861 469.48 447.881 469.441 447.9 469.422C447.919 469.422 447.938 469.422 447.938 469.48L449.303 473.997C449.303 473.997 449.303 474.093 449.245 474.093Z" fill="#11567C"/>
<path id="Vector_3" d="M436.827 467.211C436.327 466.942 435.731 466.807 435.059 466.807H430.771C430.771 466.807 430.675 466.807 430.637 466.865C430.598 466.903 430.579 466.942 430.579 467V477.304C430.579 477.304 430.579 477.4 430.637 477.439C430.675 477.477 430.714 477.496 430.771 477.496H432.559C432.559 477.496 432.656 477.496 432.694 477.439C432.732 477.4 432.751 477.362 432.751 477.304V473.421C432.751 473.421 432.771 473.344 432.828 473.344H434.982C435.654 473.344 436.27 473.209 436.789 472.94C437.308 472.671 437.711 472.286 438 471.806C438.288 471.325 438.442 470.748 438.442 470.114C438.442 469.479 438.307 468.884 438.019 468.384C437.731 467.884 437.346 467.499 436.846 467.211M435.866 471.19C435.578 471.46 435.212 471.594 434.732 471.594H432.809C432.809 471.594 432.732 471.575 432.732 471.517V468.711C432.732 468.711 432.751 468.634 432.809 468.634H434.732C435.193 468.634 435.578 468.768 435.866 469.037C436.154 469.307 436.289 469.672 436.289 470.114C436.289 470.556 436.154 470.902 435.866 471.171" fill="#11567C"/>
<path id="Vector_4" d="M441.708 466.807H439.92C439.92 466.807 439.824 466.807 439.785 466.865C439.747 466.903 439.728 466.942 439.728 467V477.285C439.728 477.285 439.728 477.381 439.785 477.419C439.824 477.458 439.862 477.477 439.92 477.477H441.708C441.708 477.477 441.804 477.477 441.842 477.419C441.881 477.381 441.9 477.342 441.9 477.285V467C441.9 467 441.9 466.903 441.842 466.865C441.804 466.826 441.765 466.807 441.708 466.807Z" fill="#11567C"/>
<path id="Vector_5" d="M461.353 466.807H459.565C459.565 466.807 459.469 466.807 459.43 466.865C459.392 466.903 459.373 466.942 459.373 467V473.959C459.373 474.497 459.2 474.939 458.873 475.266C458.546 475.593 458.104 475.766 457.566 475.766C457.027 475.766 456.585 475.593 456.258 475.266C455.931 474.939 455.758 474.497 455.758 473.959V467C455.758 467 455.758 466.903 455.701 466.865C455.662 466.826 455.624 466.807 455.566 466.807H453.778C453.778 466.807 453.682 466.807 453.644 466.865C453.605 466.903 453.586 466.942 453.586 467V473.94C453.586 474.651 453.759 475.305 454.086 475.843C454.413 476.4 454.874 476.823 455.47 477.131C456.066 477.439 456.758 477.592 457.527 477.592C458.296 477.592 458.988 477.439 459.584 477.131C460.18 476.823 460.642 476.4 460.968 475.843C461.295 475.285 461.468 474.651 461.468 473.94V467C461.468 467 461.468 466.903 461.41 466.865C461.372 466.826 461.334 466.807 461.276 466.807" fill="#11567C"/>
<path id="Vector_6" d="M465.992 463.98H464.454C464.338 463.98 464.261 464.019 464.223 464.115L463.415 465.653C463.415 465.653 463.377 465.768 463.415 465.806C463.435 465.845 463.473 465.864 463.55 465.864H464.819C464.819 465.864 464.973 465.826 465.031 465.749L466.107 464.211C466.107 464.211 466.145 464.095 466.126 464.057C466.107 464.019 466.049 463.98 465.972 463.98" fill="#11567C"/>
<path id="Vector_7" d="M465.279 466.807H463.491C463.491 466.807 463.395 466.807 463.356 466.865C463.318 466.903 463.299 466.942 463.299 467V477.285C463.299 477.285 463.299 477.381 463.356 477.419C463.395 477.458 463.433 477.477 463.491 477.477H465.279C465.279 477.477 465.375 477.477 465.414 477.419C465.452 477.381 465.471 477.342 465.471 477.285V467C465.471 467 465.471 466.903 465.414 466.865C465.375 466.826 465.337 466.807 465.279 466.807Z" fill="#11567C"/>
<path id="Vector_8" d="M429.902 432.972C429.729 434.472 429.421 435.933 429.018 437.355C429.421 435.933 429.71 434.472 429.902 432.972Z" fill="#11567C"/>
<path id="Vector_9" d="M415.642 427.414C415.777 427.414 415.892 427.414 415.988 427.394C416.123 427.356 416.238 427.279 416.354 427.164C416.45 427.068 416.527 426.952 416.604 426.798C416.681 426.625 416.738 426.452 416.757 426.318C416.757 426.183 416.757 426.049 416.719 425.933C416.681 425.818 416.623 425.703 416.527 425.626C416.45 425.568 416.334 425.491 416.181 425.414L415.489 425.068L414.585 426.952L415.296 427.298C415.431 427.375 415.565 427.414 415.661 427.433M415.7 425.549L415.873 425.626C416.027 425.703 416.123 425.76 416.181 425.799C416.238 425.856 416.296 425.914 416.315 425.972C416.334 426.029 416.354 426.125 416.315 426.202C416.315 426.299 416.257 426.414 416.2 426.549C416.123 426.702 416.065 426.798 415.988 426.875C415.911 426.952 415.854 426.991 415.796 427.01C415.738 427.01 415.681 427.01 415.604 427.01C415.546 427.01 415.469 426.971 415.354 426.914L415.065 426.779L415.661 425.529L415.7 425.549Z" fill="#11567C"/>
<path id="Vector_10" d="M412.213 425.147C412.137 425.378 412.156 425.57 412.213 425.743C412.29 425.916 412.463 426.051 412.694 426.166C412.867 426.243 413.002 426.282 413.136 426.282C413.271 426.282 413.386 426.243 413.482 426.185C413.578 426.109 413.655 426.032 413.713 425.916C413.771 425.801 413.79 425.686 413.771 425.57C413.771 425.455 413.713 425.359 413.636 425.282C413.559 425.205 413.444 425.09 413.271 424.955C413.098 424.821 413.002 424.744 412.963 424.667C412.944 424.609 412.944 424.571 412.963 424.532C412.982 424.475 413.021 424.455 413.078 424.436C413.155 424.436 413.252 424.436 413.367 424.475C413.482 424.532 413.54 424.59 413.578 424.647C413.617 424.724 413.617 424.801 413.578 424.917L413.982 425.071C414.059 424.897 414.059 424.724 413.982 424.571C413.905 424.417 413.751 424.282 413.501 424.167C413.348 424.109 413.213 424.071 413.098 424.071C412.982 424.071 412.867 424.09 412.771 424.167C412.675 424.225 412.617 424.302 412.559 424.398C412.483 424.552 412.502 424.705 412.559 424.859C412.617 424.974 412.733 425.109 412.905 425.243C413.04 425.359 413.136 425.436 413.175 425.455C413.232 425.513 413.271 425.551 413.271 425.609C413.271 425.647 413.271 425.705 413.271 425.743C413.232 425.82 413.175 425.859 413.098 425.897C413.002 425.916 412.905 425.897 412.771 425.859C412.656 425.801 412.579 425.743 412.521 425.647C412.483 425.551 412.463 425.436 412.521 425.301L412.117 425.167L412.213 425.147Z" fill="#11567C"/>
<path id="Vector_11" d="M416.731 427.761C416.808 428.011 416.981 428.223 417.25 428.357C417.519 428.511 417.788 428.53 418.038 428.453C418.288 428.377 418.5 428.184 418.654 427.877C418.807 427.569 418.846 427.3 418.788 427.031C418.711 426.781 418.538 426.569 418.269 426.435C418.115 426.358 417.981 426.3 417.827 426.3C417.731 426.3 417.615 426.3 417.5 426.339C417.385 426.377 417.289 426.435 417.192 426.492C417.077 426.589 416.962 426.742 416.866 426.916C416.712 427.204 416.673 427.492 416.75 427.742M417.25 427.127C417.366 426.916 417.5 426.781 417.654 426.723C417.808 426.666 417.962 426.685 418.115 426.762C418.269 426.839 418.365 426.954 418.404 427.108C418.442 427.262 418.404 427.454 418.288 427.665C418.173 427.877 418.038 428.011 417.885 428.069C417.731 428.127 417.577 428.107 417.423 428.031C417.269 427.954 417.173 427.838 417.135 427.665C417.096 427.511 417.135 427.319 417.231 427.108" fill="#11567C"/>
<path id="Vector_12" d="M420.229 430.009C420.325 430.047 420.422 430.086 420.518 430.066C420.614 430.066 420.691 430.028 420.787 429.97C420.864 429.913 420.941 429.855 420.979 429.759C421.037 429.663 421.075 429.547 421.056 429.432C421.056 429.317 420.998 429.22 420.902 429.124C420.998 429.124 421.094 429.124 421.191 429.067C421.287 429.028 421.344 428.951 421.402 428.874C421.441 428.798 421.479 428.721 421.479 428.624C421.479 428.548 421.479 428.471 421.441 428.394C421.402 428.317 421.364 428.259 421.287 428.202C421.229 428.144 421.114 428.086 420.979 427.99L420.249 427.567L419.172 429.374L419.787 429.74C420.018 429.874 420.172 429.951 420.229 429.99M420.441 428.105L420.652 428.221C420.825 428.317 420.921 428.394 420.96 428.413C421.017 428.452 421.056 428.509 421.056 428.567C421.056 428.624 421.056 428.682 421.017 428.721C420.979 428.778 420.941 428.817 420.883 428.836C420.825 428.836 420.768 428.836 420.691 428.817C420.652 428.817 420.556 428.74 420.422 428.663L420.191 428.528L420.441 428.105ZM419.999 428.836L420.287 429.009C420.46 429.105 420.556 429.182 420.595 429.22C420.633 429.259 420.652 429.317 420.652 429.374C420.652 429.432 420.652 429.49 420.614 429.528C420.575 429.586 420.537 429.624 420.479 429.644C420.422 429.644 420.364 429.644 420.306 429.644C420.268 429.644 420.191 429.586 420.056 429.509L419.71 429.317L419.999 428.836Z" fill="#11567C"/>
<path id="Vector_13" d="M404.162 422.896C404.296 423.031 404.47 423.127 404.681 423.184C404.854 423.223 405.027 423.242 405.2 423.223C405.373 423.223 405.527 423.165 405.623 423.107L405.854 422.3L404.969 422.05L404.873 422.396L405.335 422.531L405.258 422.781C405.258 422.781 405.104 422.838 405.008 422.838C404.912 422.838 404.816 422.838 404.739 422.819C404.566 422.762 404.45 422.665 404.373 422.531C404.296 422.377 404.296 422.185 404.373 421.935C404.431 421.704 404.527 421.55 404.681 421.473C404.816 421.396 404.969 421.377 405.161 421.416C405.277 421.454 405.373 421.512 405.431 421.589C405.488 421.666 405.527 421.762 405.527 421.877L405.95 421.916C405.95 421.723 405.911 421.55 405.796 421.396C405.681 421.243 405.508 421.147 405.258 421.07C405.066 421.012 404.892 421.012 404.739 421.031C404.546 421.07 404.373 421.166 404.239 421.3C404.104 421.435 404.008 421.608 403.95 421.819C403.893 422.012 403.893 422.204 403.912 422.396C403.95 422.588 404.027 422.742 404.162 422.877" fill="#11567C"/>
<path id="Vector_14" d="M401.775 422.108C401.91 422.339 402.121 422.492 402.429 422.569C402.737 422.646 402.987 422.627 403.217 422.473C403.448 422.339 403.602 422.108 403.679 421.781C403.775 421.454 403.756 421.166 403.621 420.935C403.486 420.705 403.275 420.551 402.987 420.474C402.814 420.435 402.66 420.416 402.525 420.435C402.41 420.435 402.314 420.493 402.218 420.551C402.121 420.608 402.025 420.685 401.949 420.782C401.852 420.916 401.775 421.07 401.718 421.281C401.641 421.608 401.66 421.877 401.795 422.108M402.141 421.377C402.198 421.147 402.295 420.974 402.429 420.897C402.564 420.801 402.717 420.782 402.891 420.839C403.064 420.878 403.179 420.974 403.256 421.128C403.333 421.262 403.333 421.454 403.256 421.685C403.198 421.916 403.102 422.089 402.967 422.166C402.833 422.262 402.679 422.281 402.525 422.243C402.371 422.204 402.237 422.108 402.16 421.954C402.083 421.8 402.083 421.627 402.141 421.397" fill="#11567C"/>
<path id="Vector_15" d="M406.122 423.608L406.43 423.205L407.237 423.454L407.276 423.954L407.718 424.089L407.564 421.84L407.142 421.705L405.719 423.454L406.142 423.589L406.122 423.608ZM407.18 422.262L407.218 423.089L406.68 422.916L407.199 422.262H407.18Z" fill="#11567C"/>
<path id="Vector_16" d="M410.777 425.319C411.066 425.435 411.335 425.435 411.566 425.319C411.796 425.204 411.989 424.992 412.104 424.666C412.219 424.339 412.238 424.07 412.123 423.82C412.008 423.57 411.816 423.397 411.527 423.281C411.373 423.224 411.22 423.205 411.066 423.205C410.95 423.205 410.854 423.243 410.739 423.281C410.624 423.339 410.527 423.397 410.45 423.474C410.335 423.589 410.239 423.743 410.162 423.935C410.047 424.243 410.028 424.531 410.143 424.762C410.239 425.012 410.45 425.185 410.739 425.3M410.624 424.089C410.7 423.858 410.816 423.724 410.97 423.647C411.104 423.57 411.258 423.57 411.431 423.647C411.585 423.705 411.7 423.82 411.758 423.954C411.816 424.108 411.796 424.281 411.719 424.512C411.642 424.742 411.508 424.896 411.373 424.973C411.22 425.05 411.085 425.05 410.912 424.992C410.739 424.935 410.643 424.819 410.585 424.666C410.527 424.512 410.547 424.32 410.624 424.108" fill="#11567C"/>
<path id="Vector_17" d="M409.047 424.57C409.182 424.57 409.297 424.57 409.393 424.513C409.509 424.455 409.624 424.359 409.72 424.243C409.797 424.147 409.874 424.013 409.932 423.84C409.989 423.648 410.028 423.494 410.028 423.34C410.028 423.205 410.008 423.071 409.951 422.955C409.893 422.84 409.816 422.744 409.72 422.667C409.643 422.609 409.528 422.552 409.355 422.494L408.624 422.225L407.913 424.205L408.663 424.474C408.817 424.532 408.932 424.551 409.028 424.551M408.913 422.725L409.086 422.782C409.24 422.84 409.355 422.878 409.413 422.917C409.489 422.955 409.528 423.013 409.566 423.071C409.605 423.128 409.605 423.205 409.605 423.301C409.605 423.398 409.566 423.513 409.528 423.667C409.47 423.82 409.413 423.936 409.355 424.013C409.297 424.09 409.239 424.147 409.182 424.167C409.124 424.186 409.067 424.205 408.99 424.186C408.932 424.186 408.855 424.167 408.74 424.109L408.432 423.993L408.913 422.686V422.725Z" fill="#11567C"/>
<path id="Vector_18" d="M422.963 431.758L423.366 431.451L424.058 431.912L423.943 432.412L424.328 432.662L424.789 430.451L424.424 430.201L422.578 431.489L422.943 431.739L422.963 431.758ZM424.347 430.759L424.154 431.566L423.674 431.239L424.347 430.759Z" fill="#11567C"/>
<path id="Vector_19" d="M421.345 430.701L421.806 429.951L421.883 429.989C421.883 429.989 422.018 430.086 422.056 430.124C422.095 430.163 422.114 430.201 422.114 430.259C422.114 430.316 422.133 430.451 422.133 430.643V431.201L422.576 431.47V430.989C422.576 430.797 422.576 430.662 422.556 430.566C422.556 430.489 422.499 430.393 422.46 430.297C422.633 430.374 422.787 430.393 422.921 430.355C423.056 430.316 423.152 430.22 423.248 430.086C423.306 429.989 423.344 429.874 423.344 429.759C423.344 429.644 423.306 429.547 423.248 429.451C423.171 429.374 423.056 429.259 422.864 429.144L422.114 428.682L420.999 430.47L421.364 430.701H421.345ZM422.268 429.22L422.556 429.394C422.71 429.49 422.787 429.547 422.826 429.567C422.883 429.605 422.902 429.663 422.921 429.72C422.921 429.778 422.921 429.836 422.883 429.893C422.845 429.951 422.806 429.989 422.768 430.009C422.71 430.009 422.672 430.028 422.614 430.009C422.556 430.009 422.441 429.932 422.268 429.836L421.999 429.663L422.287 429.201L422.268 429.22Z" fill="#11567C"/>
<path id="Vector_20" d="M400.587 422.051L401.759 420.148L401.317 420.052L400.491 421.474L400.279 419.84L399.837 419.744L400.144 421.955L400.587 422.051Z" fill="#11567C"/>
<path id="Vector_21" d="M424.708 432.799C424.747 432.992 424.881 433.146 425.093 433.299C425.246 433.415 425.381 433.472 425.516 433.511C425.65 433.549 425.765 433.53 425.881 433.492C425.996 433.453 426.092 433.376 426.169 433.28C426.246 433.165 426.285 433.069 426.304 432.953C426.304 432.838 426.304 432.742 426.246 432.646C426.189 432.55 426.112 432.415 425.958 432.261C425.823 432.107 425.746 431.992 425.727 431.915C425.727 431.857 425.727 431.819 425.746 431.781C425.785 431.742 425.823 431.723 425.881 431.723C425.958 431.723 426.054 431.761 426.169 431.838C426.265 431.915 426.323 431.973 426.342 432.05C426.361 432.127 426.342 432.203 426.304 432.3L426.65 432.53C426.765 432.376 426.785 432.203 426.746 432.031C426.708 431.857 426.573 431.704 426.361 431.55C426.227 431.454 426.112 431.396 425.977 431.358C425.862 431.338 425.746 431.338 425.631 431.358C425.535 431.396 425.439 431.454 425.381 431.55C425.285 431.684 425.246 431.838 425.285 432.011C425.304 432.126 425.4 432.28 425.554 432.453C425.669 432.588 425.746 432.684 425.765 432.722C425.804 432.78 425.842 432.838 425.842 432.896C425.842 432.934 425.842 432.972 425.804 433.03C425.765 433.088 425.689 433.126 425.593 433.126C425.496 433.126 425.4 433.107 425.285 433.011C425.189 432.934 425.112 432.857 425.093 432.761C425.073 432.665 425.093 432.55 425.15 432.415L424.785 432.203C424.67 432.415 424.631 432.607 424.67 432.78" fill="#11567C"/>
<path id="Vector_22" d="M427.332 432.318L426.076 433.995L426.415 434.249L427.67 432.571L427.332 432.318Z" fill="#11567C"/>
<path id="Vector_23" d="M427.924 435.413L428.136 435.124L427.29 434.49L428.328 433.106L427.982 432.856L426.732 434.528L427.924 435.413Z" fill="#11567C"/>
<path id="Vector_24" d="M382.628 418.147C382.628 418.147 382.436 417.993 382.321 417.955C382.224 417.935 382.09 417.916 381.917 417.916H381.148L381.109 420.012H381.917C382.071 420.012 382.205 420.012 382.301 419.992C382.436 419.954 382.532 419.896 382.609 419.819C382.705 419.723 382.782 419.608 382.84 419.454C382.878 419.339 382.917 419.185 382.917 419.012C382.917 418.82 382.917 418.647 382.859 418.512C382.82 418.378 382.743 418.262 382.667 418.166M382.397 419.358C382.397 419.358 382.321 419.512 382.282 419.569C382.244 419.608 382.186 419.646 382.109 419.646C382.051 419.646 381.975 419.646 381.859 419.646H381.552V418.243H381.744C381.917 418.243 382.032 418.243 382.09 418.262C382.167 418.262 382.224 418.32 382.282 418.358C382.34 418.416 382.378 418.474 382.397 418.57C382.417 418.647 382.436 418.781 382.436 418.935C382.436 419.089 382.436 419.223 382.378 419.32" fill="#11567C"/>
<path id="Vector_25" d="M385.67 418.436L385.997 420.109L386.42 420.128L386.9 418.494L386.824 420.147L387.227 420.167L387.323 418.071L386.689 418.033L386.247 419.436L385.939 417.994L385.305 417.956L385.189 420.071L385.593 420.09L385.67 418.436Z" fill="#11567C"/>
<path id="Vector_26" d="M401.55 401C390.169 401 380.345 407.671 375.75 417.322C395.109 415.477 411.893 419.091 429.907 432.933C430.041 431.818 430.118 430.703 430.118 429.549C430.118 413.785 417.333 401 401.55 401ZM411.316 420.936L410.336 420.437L409.374 420.956L409.547 419.86L408.759 419.091L409.855 418.918L410.336 417.918L410.835 418.899L411.931 419.052L411.143 419.821L411.335 420.898L411.316 420.936Z" fill="#11567C"/>
<path id="Vector_27" d="M374.173 421.494C373.423 424.051 373 426.761 373 429.568C373 445.333 385.785 458.117 401.549 458.117C414.622 458.117 425.618 449.331 429.021 437.354C413.334 424.512 394.397 418.745 374.173 421.494ZM377.864 424.205L378.364 423.224L378.844 424.224L379.94 424.377L379.152 425.147L379.344 426.242L378.364 425.723L377.383 426.223L377.576 425.147L376.787 424.377L377.883 424.224L377.864 424.205ZM378.594 440.277L377.787 439.873L376.999 440.296L377.133 439.411L376.48 438.796L377.364 438.662L377.749 437.854L378.152 438.662L379.037 438.777L378.402 439.411L378.556 440.296L378.594 440.277ZM381.651 437.989L380.728 437.508L379.806 438.008L379.979 436.989L379.229 436.278L380.267 436.124L380.709 435.182L381.171 436.105L382.209 436.239L381.478 436.97L381.67 437.989H381.651ZM402.203 452.754L401.78 452.542L401.357 452.773L401.414 452.292L401.068 451.965L401.53 451.888L401.722 451.446L401.953 451.869L402.433 451.927L402.106 452.273L402.203 452.734V452.754ZM402.587 444.141L401.664 443.66L400.742 444.16L400.914 443.122L400.165 442.391L401.203 442.237L401.664 441.295L402.126 442.237L403.164 442.372L402.414 443.103L402.606 444.141H402.587ZM416.544 452.523L415.872 452.196L415.218 452.561L415.333 451.831L414.795 451.312L415.525 451.196L415.833 450.523L416.179 451.196L416.929 451.292L416.41 451.831L416.544 452.561V452.523ZM422.004 445.698L421.254 445.294L420.486 445.679L420.639 444.833L420.043 444.237L420.889 444.121L421.274 443.352L421.639 444.121L422.485 444.256L421.87 444.852L422.004 445.698ZM425.369 439.392L425.676 438.739L426.003 439.373L426.734 439.469L426.214 439.988L426.349 440.699L425.695 440.373L425.061 440.719L425.176 440.007L424.638 439.507L425.349 439.392H425.369ZM423.831 442.007L423.235 442.584L423.369 443.41L422.639 443.006L421.889 443.391L422.043 442.584L421.466 441.988L422.293 441.891L422.677 441.161L423.023 441.911L423.85 442.045L423.831 442.007ZM421.043 438.911L421.485 437.97L421.966 438.892L423.004 439.027L422.273 439.757L422.466 440.776L421.543 440.296L420.62 440.796L420.774 439.757L420.024 439.046L421.043 438.873V438.911ZM418.313 445.41L418.601 444.775L418.928 445.39L419.62 445.467L419.121 445.967L419.255 446.659L418.621 446.352L418.005 446.698L418.102 446.006L417.583 445.525L418.275 445.41H418.313ZM415.487 445.41L415.814 444.737L416.141 445.41L416.871 445.525L416.333 446.044L416.448 446.774L415.795 446.428L415.141 446.774L415.276 446.044L414.756 445.525L415.487 445.429V445.41ZM415.525 448.043L415.929 447.236L416.314 448.043L417.198 448.178L416.544 448.793L416.679 449.677L415.891 449.255L415.083 449.658L415.256 448.774L414.622 448.14L415.506 448.024L415.525 448.043ZM412.142 446.044L412.469 445.371L412.795 446.044L413.526 446.14L413.007 446.659L413.142 447.39L412.488 447.044L411.834 447.39L411.95 446.659L411.411 446.14L412.142 446.025V446.044ZM409.854 447.986L410.239 448.735L411.084 448.831L410.488 449.427L410.642 450.254L409.873 449.87L409.124 450.273L409.258 449.427L408.643 448.851L409.489 448.716L409.854 447.947V447.986ZM407.932 427.319L408.278 426.627L408.624 427.319L409.393 427.434L408.835 427.973L408.97 428.741L408.278 428.376L407.585 428.741L407.72 427.973L407.163 427.434L407.932 427.319ZM407.201 445.313L407.528 444.641L407.855 445.313L408.585 445.429L408.047 445.948L408.162 446.678L407.509 446.332L406.855 446.678L406.99 445.948L406.471 445.429L407.201 445.333V445.313ZM404.394 435.624L404.798 436.432L405.702 436.547L405.048 437.181L405.221 438.085L404.413 437.662L403.606 438.104L403.76 437.2L403.106 436.566L404.01 436.432L404.413 435.605L404.394 435.624ZM401.414 434.009L401.799 433.202L402.203 434.009L403.106 434.125L402.472 434.759L402.645 435.643L401.837 435.24L401.049 435.663L401.184 434.778L400.53 434.163L401.414 434.028V434.009ZM399.723 438.527L399.972 438.046L400.203 438.546L400.742 438.623L400.338 438.988L400.415 439.527L399.934 439.258L399.453 439.507L399.55 438.969L399.165 438.585L399.703 438.508L399.723 438.527ZM397.512 436.835L397.858 436.143L398.204 436.835L398.973 436.951L398.415 437.489L398.55 438.258L397.858 437.893L397.166 438.258L397.3 437.489L396.743 436.951L397.512 436.835ZM390.052 430.203L390.437 429.376L390.86 430.183L391.763 430.28L391.129 430.933L391.302 431.818L390.475 431.414L389.687 431.856L389.822 430.952L389.149 430.337L390.052 430.183V430.203ZM389.168 444.756L389.61 443.852L390.072 444.756L391.071 444.891L390.36 445.602L390.533 446.602L389.63 446.14L388.745 446.621L388.899 445.621L388.168 444.929L389.168 444.775V444.756ZM386.073 438.892L386.438 438.104L386.823 438.873L387.688 438.988L387.073 439.604L387.226 440.45L386.457 440.065L385.688 440.488L385.823 439.642L385.189 439.046L386.034 438.911L386.073 438.892ZM385.131 441.93L385.458 441.257L385.785 441.93L386.534 442.045L385.996 442.564L386.131 443.314L385.458 442.968L384.785 443.314L384.919 442.564L384.381 442.045L385.131 441.93ZM384.15 434.605L383.747 434.99L383.843 435.547L383.343 435.278L382.843 435.528L382.939 434.97L382.536 434.586L383.093 434.509L383.343 434.009L383.593 434.509L384.15 434.586V434.605Z" fill="#11567C"/>
<path id="Vector_28" d="M389.627 420.282C389.761 420.244 389.858 420.206 389.934 420.129C390.031 420.032 390.127 419.917 390.184 419.783C390.242 419.667 390.261 419.513 390.28 419.34C390.28 419.148 390.28 418.975 390.242 418.841C390.204 418.706 390.146 418.591 390.069 418.494C389.992 418.398 389.877 418.321 389.761 418.283C389.665 418.245 389.531 418.225 389.358 418.225L388.589 418.168L388.454 420.263L389.242 420.321C389.396 420.321 389.531 420.321 389.627 420.302M388.896 419.936L388.992 418.552H389.185C389.358 418.571 389.473 418.591 389.531 418.61C389.608 418.629 389.665 418.668 389.723 418.725C389.781 418.783 389.8 418.841 389.838 418.937C389.858 419.033 389.877 419.148 389.838 419.302C389.838 419.456 389.8 419.59 389.761 419.686C389.723 419.783 389.685 419.84 389.646 419.879C389.588 419.917 389.531 419.936 389.473 419.956C389.415 419.956 389.338 419.956 389.223 419.956H388.916L388.896 419.936Z" fill="#11567C"/>
<path id="Vector_29" d="M377.553 417.995C377.38 417.995 377.226 418.033 377.111 418.091C377.014 418.129 376.918 418.206 376.841 418.283C376.765 418.379 376.707 418.475 376.649 418.571C376.591 418.725 376.572 418.898 376.572 419.11C376.572 419.437 376.688 419.706 376.88 419.879C377.072 420.052 377.322 420.148 377.63 420.129C377.937 420.129 378.187 420.013 378.36 419.821C378.533 419.629 378.61 419.36 378.61 419.014C378.61 418.668 378.495 418.398 378.302 418.225C378.11 418.033 377.86 417.956 377.553 417.975M378.053 419.61C377.956 419.744 377.822 419.802 377.649 419.802C377.476 419.802 377.341 419.744 377.226 419.629C377.111 419.513 377.053 419.34 377.034 419.09C377.034 418.86 377.072 418.668 377.168 418.552C377.264 418.437 377.399 418.36 377.591 418.36C377.764 418.36 377.899 418.398 378.014 418.514C378.129 418.629 378.187 418.802 378.187 419.052C378.187 419.302 378.149 419.475 378.053 419.61Z" fill="#11567C"/>
<path id="Vector_30" d="M380.38 419.263C380.38 419.263 380.245 419.148 380.149 419.09C380.341 419.052 380.476 418.994 380.553 418.879C380.649 418.783 380.687 418.648 380.687 418.475C380.687 418.36 380.649 418.244 380.591 418.148C380.533 418.052 380.437 417.995 380.341 417.956C380.245 417.918 380.072 417.898 379.841 417.918H378.957L378.995 420.032H379.418V419.148H379.495C379.591 419.148 379.668 419.148 379.707 419.148C379.745 419.148 379.803 419.186 379.841 419.225C379.88 419.263 379.957 419.36 380.072 419.533L380.38 419.975H380.88L380.61 419.552C380.495 419.398 380.418 419.283 380.36 419.225M379.707 418.821H379.399V418.302H379.726C379.899 418.302 379.995 418.302 380.034 418.302C380.111 418.302 380.149 418.341 380.187 418.379C380.226 418.417 380.245 418.475 380.245 418.552C380.245 418.61 380.245 418.667 380.207 418.706C380.168 418.744 380.13 418.783 380.091 418.802C380.034 418.802 379.918 418.821 379.707 418.84" fill="#11567C"/>
<path id="Vector_31" d="M384.822 418.303V417.957L383.264 417.938L383.245 420.033L384.841 420.052V419.706L383.668 419.687L383.687 419.11L384.725 419.13L384.745 418.764H383.687V418.284L384.822 418.303Z" fill="#11567C"/>
<path id="Vector_32" d="M391.472 420.552C391.779 420.571 392.029 420.494 392.241 420.321C392.433 420.148 392.548 419.898 392.587 419.552C392.606 419.206 392.548 418.937 392.375 418.726C392.202 418.514 391.971 418.399 391.664 418.379C391.491 418.379 391.337 418.379 391.202 418.418C391.106 418.456 391.01 418.514 390.914 418.591C390.818 418.668 390.76 418.764 390.703 418.86C390.626 418.995 390.587 419.168 390.568 419.379C390.549 419.706 390.606 419.975 390.779 420.187C390.952 420.398 391.183 420.513 391.491 420.533M390.972 419.418C390.991 419.168 391.068 418.995 391.183 418.899C391.299 418.783 391.452 418.745 391.625 418.764C391.798 418.764 391.933 418.841 392.029 418.975C392.125 419.11 392.164 419.283 392.144 419.533C392.125 419.783 392.048 419.956 391.933 420.071C391.818 420.187 391.664 420.225 391.51 420.225C391.337 420.225 391.202 420.129 391.106 420.014C391.01 419.879 390.972 419.706 390.991 419.456" fill="#11567C"/>
<path id="Vector_33" d="M393.934 420.416C393.934 420.416 393.761 420.473 393.626 420.454C393.492 420.454 393.396 420.396 393.338 420.319C393.261 420.243 393.242 420.127 393.223 419.993H392.8C392.8 420.204 392.857 420.396 392.973 420.55C393.107 420.685 393.3 420.781 393.55 420.819C393.723 420.838 393.896 420.819 394.011 420.819C394.146 420.781 394.242 420.723 394.319 420.627C394.396 420.531 394.453 420.416 394.453 420.3C394.453 420.166 394.453 420.05 394.415 419.954C394.376 419.858 394.299 419.781 394.222 419.704C394.126 419.647 393.992 419.57 393.78 419.493C393.588 419.416 393.453 419.358 393.415 419.301C393.377 419.262 393.357 419.224 393.377 419.166C393.377 419.108 393.415 419.07 393.453 419.051C393.53 419.012 393.626 418.993 393.742 419.012C393.857 419.012 393.953 419.07 393.992 419.127C394.049 419.185 394.069 419.262 394.069 419.377L394.492 419.416C394.511 419.224 394.472 419.07 394.357 418.935C394.242 418.801 394.049 418.724 393.78 418.685C393.626 418.666 393.473 418.685 393.357 418.685C393.242 418.724 393.146 418.781 393.069 418.858C392.992 418.935 392.954 419.031 392.934 419.147C392.915 419.32 392.954 419.454 393.069 419.589C393.146 419.685 393.3 419.781 393.511 419.858C393.684 419.935 393.8 419.973 393.838 419.993C393.915 420.031 393.953 420.069 393.973 420.108C393.992 420.146 394.011 420.185 393.992 420.243C393.992 420.319 393.934 420.377 393.857 420.435" fill="#11567C"/>
<path id="Vector_34" d="M398.697 421.61C398.832 421.61 398.928 421.552 399.024 421.494C399.139 421.417 399.236 421.321 399.313 421.167C399.389 421.052 399.428 420.918 399.466 420.744C399.505 420.552 399.505 420.379 399.485 420.245C399.466 420.11 399.428 419.975 399.351 419.879C399.274 419.764 399.197 419.687 399.082 419.629C399.005 419.591 398.87 419.553 398.697 419.514L397.928 419.38L397.544 421.437L398.332 421.59C398.486 421.629 398.62 421.629 398.717 421.61M398.274 419.802L398.467 419.841C398.64 419.879 398.755 419.899 398.813 419.918C398.89 419.956 398.947 419.995 398.986 420.052C399.024 420.11 399.063 420.187 399.063 420.283C399.063 420.379 399.063 420.495 399.044 420.648C399.005 420.802 398.967 420.937 398.928 421.014C398.89 421.091 398.832 421.167 398.774 421.187C398.717 421.225 398.659 421.244 398.582 421.244C398.524 421.244 398.448 421.244 398.332 421.225L398.024 421.167L398.294 419.802H398.274Z" fill="#11567C"/>
<path id="Vector_35" d="M395.934 420.666L396.761 420.801L396.876 421.301L397.338 421.378L396.819 419.167L396.377 419.109L395.242 421.051L395.684 421.128L395.934 420.686V420.666ZM396.511 419.609L396.684 420.416L396.127 420.32L396.53 419.59L396.511 419.609Z" fill="#11567C"/>
<path id="Vector_36" d="M500.822 425.472C500.822 425.472 504.417 421.608 504.417 416.032C504.417 405.766 493.69 401.114 493.69 401.114H473.312V458.231H500.284C500.284 458.231 513.914 453.905 513.914 441.755C513.914 429.605 500.803 425.472 500.803 425.472" fill="#11567C"/>
<path id="Vector_37" d="M423.351 458.231H471.72L447.536 401.114L423.351 458.231Z" fill="#11567C"/>
<path id="Vector_38" d="M527.949 432.451H527.026V457.155H527.949V432.451Z" fill="#E4051F"/>
<path id="Vector_39" d="M559.829 454.254C559.156 454.753 558.445 455.196 557.676 455.561C556.907 455.926 556.08 456.195 555.215 456.407C554.331 456.618 553.351 456.714 552.274 456.714C550.563 456.714 548.986 456.407 547.545 455.772C546.103 455.138 544.853 454.273 543.796 453.196C542.738 452.12 541.912 450.812 541.316 449.332C540.72 447.852 540.412 446.256 540.412 444.545C540.412 442.834 540.72 441.277 541.316 439.796C541.912 438.316 542.738 437.009 543.796 435.894C544.853 434.779 546.122 433.894 547.583 433.26C549.044 432.626 550.64 432.299 552.37 432.299C553.447 432.299 554.427 432.395 555.292 432.568C556.157 432.741 556.965 433.01 557.695 433.337C558.445 433.664 559.118 434.048 559.752 434.51C560.387 434.971 560.983 435.49 561.579 436.048L559.752 438.009C558.733 437.067 557.657 436.278 556.503 435.682C555.35 435.067 553.946 434.779 552.332 434.779C551.024 434.779 549.813 435.029 548.698 435.529C547.583 436.028 546.622 436.72 545.795 437.586C544.968 438.47 544.334 439.489 543.873 440.681C543.411 441.873 543.181 443.142 543.181 444.506C543.181 445.871 543.411 447.16 543.873 448.352C544.334 449.544 544.968 450.581 545.795 451.466C546.622 452.35 547.583 453.042 548.698 453.542C549.813 454.042 551.024 454.292 552.332 454.292C553.946 454.292 555.35 454.004 556.523 453.408C557.695 452.812 558.849 451.966 559.964 450.889L561.713 452.619C561.098 453.254 560.464 453.811 559.81 454.33L559.829 454.254Z" fill="#00577F"/>
<path id="Vector_40" d="M588.613 456.291H585.75L582.98 450.043H570.119L567.312 456.291H564.582L575.348 432.49H577.847L588.613 456.291ZM576.559 435.624L571.157 447.678H581.923L576.559 435.624Z" fill="#00577F"/>
<path id="Vector_41" d="M616.182 456.291H613.319L610.549 450.043H597.687L594.882 456.291H592.15L602.917 432.49H605.417L616.182 456.291ZM604.128 435.624L598.725 447.678H609.492L604.128 435.624Z" fill="#00577F"/>
<path id="Vector_42" d="M638.419 444.505C637.919 445.544 637.247 446.409 636.381 447.101C635.517 447.793 634.498 448.312 633.343 448.677C632.191 449.042 630.94 449.196 629.615 449.196H625.673V456.29H620.483V432.663H630.134C631.557 432.663 632.824 432.855 633.939 433.259C635.056 433.662 635.998 434.201 636.766 434.931C637.536 435.643 638.131 436.508 638.555 437.507C638.976 438.507 639.169 439.622 639.169 440.833V440.91C639.169 442.275 638.918 443.486 638.419 444.524V444.505ZM633.901 440.929C633.901 439.757 633.518 438.872 632.767 438.257C632.018 437.642 630.98 437.354 629.672 437.354H625.654V444.582H629.768C631.076 444.582 632.095 444.236 632.805 443.544C633.537 442.852 633.882 442.006 633.882 440.987V440.91L633.901 440.929Z" fill="#00577F"/>
<path id="Vector_43" d="M643.264 456.29V432.663H648.456V456.29H643.264Z" fill="#00577F"/>
</g>
</g>
</g>
<text id="studio-support" opacity="0.9" fill="#212121" style="white-space: pre" xml:space="preserve" font-family="Poppins" font-size="23.8273" letter-spacing="0em"><tspan x="131" y="925.243">para advogados da OAB/PI e depois</tspan></text>
<g id="protected-commercial_2">
<text fill="#02A378" style="white-space: pre" xml:space="preserve" font-family="Poppins" font-size="25" font-weight="bold" letter-spacing="0em"><tspan x="351.512" y="887">no primeiro m&#xea;s </tspan></text>
<text fill="#02A378" style="white-space: pre" xml:space="preserve" font-family="Poppins" font-size="50" font-weight="bold" letter-spacing="0em"><tspan x="131" y="887">R$19,90</tspan><tspan x="340.916" y="887"> </tspan></text>
<text fill="#02A378" style="white-space: pre" xml:space="preserve" font-family="Poppins" font-size="32" font-weight="bold" letter-spacing="0em"><tspan x="323.822" y="887">*</tspan></text>
</g>
<g id="protected-commercial_3">
<text fill="#02A378" style="white-space: pre" xml:space="preserve" font-family="Poppins" font-size="30" font-weight="bold" letter-spacing="0em"><tspan x="341.986" y="977.895"> </tspan></text>
<text fill="#02A378" style="white-space: pre" xml:space="preserve" font-family="Poppins" font-size="25" font-weight="bold" letter-spacing="0em"><tspan x="348.344" y="977.895">cont&#xed;nuo</tspan></text>
<text fill="#02A378" style="white-space: pre" xml:space="preserve" font-family="Poppins" font-size="50" font-weight="bold" letter-spacing="0em"><tspan x="131" y="977.895">30% OFF</tspan></text>
</g>
</g>
<defs>
<filter id="filter0_d_597_13" x="415.162" y="1224.43" width="1304.48" height="643.267" filterUnits="userSpaceOnUse" color-interpolation-filters="sRGB">
<feFlood flood-opacity="0" result="BackgroundImageFix"/>
<feColorMatrix in="SourceAlpha" type="matrix" values="0 0 0 0 0 0 0 0 0 0 0 0 0 0 0 0 0 0 127 0" result="hardAlpha"/>
<feOffset dx="6.64458" dy="6.64458"/>
<feGaussianBlur stdDeviation="16.6115"/>
<feComposite in2="hardAlpha" operator="out"/>
<feColorMatrix type="matrix" values="0 0 0 0 0 0 0 0 0 0 0 0 0 0 0 0 0 0 0.25 0"/>
<feBlend mode="normal" in2="BackgroundImageFix" result="effect1_dropShadow_597_13"/>
<feBlend mode="normal" in="SourceGraphic" in2="effect1_dropShadow_597_13" result="shape"/>
</filter>
<linearGradient id="paint0_linear_597_13" x1="100" y1="915.5" x2="608" y2="915.5" gradientUnits="userSpaceOnUse">
<stop stop-color="#12A67A"/>
<stop offset="1" stop-color="#75D9B5"/>
</linearGradient>
<linearGradient id="paint1_linear_597_13" x1="740" y1="139" x2="1250" y2="139" gradientUnits="userSpaceOnUse">
<stop stop-color="#12A67A"/>
<stop offset="1" stop-color="#75D9B5"/>
</linearGradient>
<linearGradient id="paint2_linear_597_13" x1="631" y1="807" x2="631" y2="840" gradientUnits="userSpaceOnUse">
<stop stop-color="#01AB7D"/>
<stop offset="1" stop-color="#008F69"/>
</linearGradient>
<linearGradient id="paint3_linear_597_13" x1="89" y1="798" x2="89" y2="831" gradientUnits="userSpaceOnUse">
<stop stop-color="#01AB7D"/>
<stop offset="1" stop-color="#008F69"/>
</linearGradient>
<linearGradient id="paint4_linear_597_13" x1="493" y1="798" x2="493" y2="818" gradientUnits="userSpaceOnUse">
<stop stop-color="#01AB7D"/>
<stop offset="1" stop-color="#008F69"/>
</linearGradient>
<linearGradient id="paint5_linear_597_13" x1="73" y1="831" x2="73" y2="851" gradientUnits="userSpaceOnUse">
<stop stop-color="#01AB7D"/>
<stop offset="1" stop-color="#008F69"/>
</linearGradient>
<linearGradient id="paint6_linear_597_13" x1="263" y1="1044" x2="263" y2="1064" gradientUnits="userSpaceOnUse">
<stop stop-color="#01AB7D"/>
<stop offset="1" stop-color="#008F69"/>
</linearGradient>
<linearGradient id="paint7_linear_597_13" x1="84" y1="915" x2="84" y2="935" gradientUnits="userSpaceOnUse">
<stop stop-color="#01AB7D"/>
<stop offset="1" stop-color="#008F69"/>
</linearGradient>
<clipPath id="clip0_597_13">
<rect width="1080" height="1920" fill="white"/>
</clipPath>
<clipPath id="clip1_597_13">
<path d="M523.808 1354.93C524.875 1348.74 525.409 1345.64 527.021 1343.49C528.44 1341.59 530.423 1340.19 532.686 1339.49C535.259 1338.69 538.355 1339.22 544.547 1340.29L1614.82 1524.71C1621.01 1525.78 1624.11 1526.31 1626.26 1527.93C1628.16 1529.34 1629.56 1531.33 1630.26 1533.59C1631.06 1536.16 1630.53 1539.26 1629.46 1545.45L1589.2 1779.09C1588.14 1785.28 1587.6 1788.38 1585.99 1790.53C1584.57 1792.43 1582.59 1793.83 1580.32 1794.53C1577.75 1795.33 1574.66 1794.8 1568.46 1793.73L498.191 1609.31C491.999 1608.24 488.903 1607.71 486.745 1606.09C484.848 1604.67 483.448 1602.69 482.746 1600.43C481.949 1597.86 482.482 1594.76 483.549 1588.57L523.808 1354.93Z" fill="white"/>
</clipPath>
</defs>
</svg>
