<svg width="584" height="104" viewBox="0 0 584 104" fill="none" xmlns="http://www.w3.org/2000/svg">
<mask id="mask0_41_501" style="mask-type:luminance" maskUnits="userSpaceOnUse" x="0" y="0" width="60" height="60">
<path d="M0 29.739C0 46.1736 13.3043 59.4779 29.739 59.4779C46.1737 59.4779 59.478 46.1736 59.478 29.739C59.478 13.3043 46.1737 0 29.739 0C13.3043 0 0 13.3043 0 29.739Z" fill="white"/>
</mask>
<g mask="url(#mask0_41_501)">
<path d="M18.797 -27.6176L-27.6377 40.7089L40.689 87.1435L87.1237 18.817L18.797 -27.6176Z" fill="url(#paint0_radial_41_501)"/>
</g>
<path d="M11.0191 34.9042L10.7687 34.3721L10.5182 34.9042L9.95474 34.9668L10.3617 35.3738L10.2678 35.9373L10.8 35.6868L11.3008 35.9686L11.2069 35.4051L11.6139 34.9981L11.0504 34.9042H11.0191ZM14.3999 39.4433L13.993 38.6294L13.6173 39.4433L12.7408 39.5999L13.3982 40.2259L13.273 41.1025L14.0556 40.6642L14.8695 41.0711L14.713 40.1946L15.3391 39.5685L14.4312 39.4433H14.3999ZM13.3043 42.6051L12.9599 41.8851L12.6156 42.6051L11.833 42.7303L12.3965 43.2624L12.2713 44.045L12.9599 43.6694L13.6486 44.045L13.5234 43.2624L14.0869 42.699L13.3043 42.5738V42.6051ZM26.2329 37.3146L25.8886 36.5947L25.5442 37.3146L24.7616 37.4399L25.3251 38.0033L25.1999 38.7859L25.9199 38.4103L26.6399 38.7859L26.5147 38.0033L27.0782 37.4399L26.2955 37.3146H26.2329ZM18.5947 30.3964L18.1565 29.5512L17.7495 30.4277L16.8104 30.5843L17.4991 31.2103L17.3738 32.1495L18.1878 31.6799L19.033 32.0869L18.8451 31.1477L19.5025 30.459L18.5634 30.3651L18.5947 30.3964ZM17.7495 45.5476L17.2799 44.6085L16.8104 45.5476L15.7773 45.7042L16.5286 46.4242L16.3721 47.4572L17.3112 46.9563L18.2504 47.4259L18.0625 46.3928L18.8138 45.6416L17.7808 45.5163L17.7495 45.5476ZM29.1755 36.0938L29.9894 35.6555L30.8347 36.0938L30.6468 35.1547L31.3042 34.4973L30.3651 34.3721L29.9268 33.5268L29.5199 34.3721L28.5808 34.5286L29.2694 35.186L29.1129 36.1251L29.1755 36.0938ZM35.9999 28.8938L36.7199 28.5182L37.4398 28.8938L37.3146 28.0799L37.9094 27.5164L37.0955 27.3912L36.7512 26.6712L36.4068 27.3912L35.5929 27.5164L36.1564 28.0799L36.0312 28.8625L35.9999 28.8938ZM8.48345 36.5634L7.98258 35.5929L7.51302 36.5634L6.44867 36.7199L7.23128 37.4712L7.07476 38.5355L8.04519 38.0347L9.01562 38.5355L8.82779 37.4712L9.6104 36.7199L8.54605 36.5634H8.48345ZM43.8572 47.645L44.5459 47.3007L45.2346 47.6763L45.1094 46.925L45.6729 46.3928L44.9216 46.2676L44.5772 45.5789L44.2329 46.2676L43.4816 46.3615L44.045 46.8937L43.9198 47.645H43.8572ZM28.4555 39.5685L28.8625 39.1929L28.299 39.099L28.0486 38.5981L27.7981 39.099L27.2347 39.1616L27.6416 39.5685L27.5477 40.132L28.0486 39.8816L28.5494 40.1633L28.4555 39.5999V39.5685ZM5.38433 39.1929L4.97738 38.3477L4.57042 39.1929L3.6626 39.3494L4.35129 40.0068L4.19477 40.9146L5.00868 40.4764L5.85389 40.9146L5.69737 40.0068L6.35476 39.3494L5.41563 39.2242L5.38433 39.1929ZM4.53912 26.2643L5.57215 25.7321L6.57389 26.2643L6.38606 25.1373L7.19997 24.3547L6.07302 24.1982L5.57215 23.1652L5.07129 24.1982L3.94434 24.3547L4.75825 25.1686L4.57042 26.2956L4.53912 26.2643ZM44.6711 48.1459L44.2329 48.9911L43.2937 49.1163L43.9511 49.7737L43.7946 50.6815L44.6398 50.2433L45.4537 50.6815L45.2972 49.7737L45.9859 49.1163L45.0781 48.9598L44.6711 48.1146V48.1459ZM49.5546 41.4781L50.4937 40.9459L51.4641 41.4468L51.2763 40.3825L52.0276 39.5999L50.9633 39.4746L50.4624 38.5042L49.9928 39.4746L48.9285 39.6312L49.7111 40.3825L49.5546 41.4468V41.4781ZM47.8015 46.2363L47.4572 45.5789L47.1442 46.2363L46.4242 46.3615L46.9563 46.8624L46.8624 47.5824L47.4885 47.2381L48.1459 47.5511L48.0207 46.8311L48.5215 46.2989L47.8015 46.205V46.2363ZM50.6189 44.9216L50.2433 44.1076L49.8363 44.8903L48.9598 45.0155L49.5859 45.6416L49.4294 46.5181L50.212 46.1111L50.9946 46.5494L50.8381 45.6729L51.4954 45.0468L50.6189 44.9216ZM30.146 52.9667L29.9268 52.5285L29.7077 52.9667L29.2068 53.0606L29.5825 53.405L29.5199 53.9058L29.9581 53.6554L30.3964 53.8745L30.3025 53.3737L30.6468 53.0293L30.146 52.9667ZM44.9529 52.2154L44.6085 51.5267L44.2642 52.2467L43.4816 52.372L44.045 52.9041L43.9198 53.6867L44.6085 53.3111L45.2972 53.6554L45.1407 52.9041L45.6729 52.3406L44.8903 52.2467L44.9529 52.2154ZM55.9406 40.0694L55.1893 39.9755L54.845 39.3181L54.5319 40.0068L53.7807 40.132L54.3441 40.6329L54.2189 41.3842L54.8763 41.0085L55.565 41.3529L55.4085 40.6016L55.9406 40.0694ZM52.0589 42.5738L51.6833 41.7912L51.2763 42.5738L50.4311 42.6677L51.0259 43.2937L50.8694 44.139L51.652 43.7633L52.4033 44.1703L52.278 43.325L52.9041 42.7303L52.0589 42.6051V42.5738ZM41.4155 46.8937L41.0711 46.205L40.7268 46.8937L39.9755 47.0189L40.539 47.5511L40.4137 48.3024L41.1024 47.9268L41.7911 48.2711L41.6659 47.5198L42.2294 46.9876L41.4468 46.8937H41.4155ZM33.0886 36.9077L32.6503 36.0625L32.2433 36.9077L31.3042 37.0642L31.9929 37.7216L31.8364 38.6607L32.6816 38.2225L33.5268 38.6607L33.3703 37.7216L34.059 37.0642L33.1199 36.939L33.0886 36.9077ZM30.3025 42.9494L29.8016 41.979L29.3321 42.9494L28.2677 43.1059L29.0503 43.8572L28.8625 44.9216L29.8329 44.3894L30.8034 44.8903L30.6155 43.8259L31.3981 43.0433L30.3338 42.8868L30.3025 42.9494ZM36.2816 46.1424L35.9372 45.4537L35.5929 46.1424L34.8416 46.2363L35.4051 46.7685L35.2799 47.5198L35.9685 47.1754L36.6572 47.5511L36.532 46.7998L37.0955 46.2676L36.3442 46.1424H36.2816ZM38.7546 49.7111L38.3477 48.9285L37.972 49.7424L37.0955 49.8989L37.7529 50.4937L37.6277 51.3702L38.4103 50.9319L39.1929 51.3389L39.0364 50.4624L39.6624 49.8363L38.7859 49.7424L38.7546 49.7111ZM40.4764 18.8452L39.3494 18.6887L38.8485 17.6556L38.3477 18.6887L37.2207 18.8765L38.0346 19.6591L37.8468 20.7861L38.8485 20.2539L39.8816 20.7861L39.6624 19.6591L40.4764 18.8452Z" fill="white"/>
<path fill-rule="evenodd" clip-rule="evenodd" d="M2.84858 16.9994C2.19119 18.3768 1.62771 19.8481 1.18945 21.3507C22.2572 18.502 41.9788 24.4811 58.3196 37.8793C58.7579 36.3767 59.0396 34.8428 59.2275 33.2775C40.4762 18.8463 23.0085 15.0898 2.84858 17.0307" fill="white"/>
<path d="M21.3186 18.7836C21.4125 18.7523 21.5065 18.721 21.6317 18.7523C21.7569 18.7523 21.8508 18.8149 21.9134 18.8775C21.976 18.9401 22.0073 19.034 22.0073 19.128H22.4456C22.4456 18.9714 22.4456 18.8149 22.2891 18.6584C22.1638 18.5332 21.976 18.4393 21.6943 18.408C21.5378 18.408 21.3812 18.408 21.256 18.408C21.1308 18.4393 21.0369 18.5019 20.943 18.5958C20.8804 18.6897 20.8178 18.7836 20.8178 18.8775C20.8178 19.034 20.8178 19.1906 20.943 19.3471C21.0369 19.441 21.1934 19.5349 21.4125 19.6288C21.6004 19.6914 21.6943 19.754 21.7569 19.7853L21.9134 19.9106V20.0358L21.8195 20.2236C21.7256 20.2862 21.6317 20.2862 21.4752 20.2549C21.3499 20.2549 21.256 20.1923 21.1621 20.0984C21.0995 20.0045 21.0682 19.9106 21.0369 19.754H20.5986C20.5986 19.9732 20.6612 20.1923 20.7865 20.3175C20.9117 20.474 21.1308 20.5679 21.3812 20.5993C21.5691 20.5993 21.7256 20.5993 21.8508 20.5993C21.976 20.5679 22.1012 20.5053 22.1638 20.4114C22.2578 20.3175 22.2891 20.1923 22.3204 20.0671C22.3204 19.9419 22.3204 19.8167 22.2891 19.7227C22.2578 19.6288 22.1638 19.5349 22.0699 19.4723C21.976 19.4097 21.8195 19.3158 21.6317 19.2532C21.4125 19.1593 21.2873 19.0966 21.256 19.0653V18.9401C21.2247 18.9401 21.2873 18.8149 21.2873 18.8149L21.3186 18.7836ZM19.4091 18.0949C19.2212 18.0949 19.0647 18.0949 18.9395 18.1262C18.8456 18.1575 18.7204 18.2201 18.6265 18.2827C18.5326 18.3766 18.4699 18.4706 18.4073 18.5645C18.3134 18.721 18.2821 18.8775 18.2508 19.128C18.2508 19.4723 18.2821 19.754 18.4699 19.9732C18.6578 20.1923 18.9082 20.3175 19.2212 20.3488C19.5343 20.3488 19.816 20.2862 20.0039 20.1297C20.223 19.9419 20.3169 19.6914 20.3482 19.3158C20.3482 18.9714 20.3169 18.6897 20.1291 18.4706C19.9412 18.2514 19.6908 18.1262 19.3778 18.0949M19.6908 19.8166C19.5656 19.9419 19.4091 19.9732 19.2526 19.9732C19.0647 19.9732 18.9395 19.8793 18.8456 19.754C18.7517 19.6288 18.6891 19.4097 18.7204 19.1906C18.7204 18.9401 18.8143 18.7523 18.9395 18.6271C19.0647 18.5019 19.2212 18.4706 19.4091 18.4706C19.5969 18.4706 19.7221 18.5645 19.816 18.6897C19.9099 18.8149 19.9412 19.0027 19.9412 19.2532C19.9412 19.5036 19.8473 19.6914 19.7221 19.8166M13.7743 19.1906L13.4613 17.688H12.8039C12.8039 17.6567 12.71 19.8479 12.71 19.8479H13.1169L13.2108 18.1575L13.5552 19.9106H13.9934L14.5256 18.2201L14.4317 19.9419H14.8387L14.9326 17.7819H14.2752C14.2752 17.7506 13.8056 19.2219 13.8056 19.2219L13.7743 19.1906ZM4.72739 17.688C4.53957 17.688 4.38305 17.7193 4.25783 17.7819C4.16392 17.8132 4.07001 17.9071 3.97609 18.001C3.88218 18.0949 3.81957 18.1888 3.78827 18.3141C3.72566 18.4706 3.69436 18.6584 3.72566 18.8775C3.72566 19.2219 3.85088 19.5036 4.0387 19.6914C4.22653 19.8792 4.50827 19.9732 4.82131 19.9732C5.13435 19.9732 5.38478 19.848 5.57261 19.6601C5.76043 19.441 5.85435 19.1593 5.82304 18.8149C5.82304 18.4706 5.69783 18.1888 5.51 18.001C5.32218 17.8132 5.04044 17.7193 4.72739 17.7193M5.25957 19.3471C5.16565 19.4723 5.00913 19.5349 4.82131 19.5662C4.63348 19.5662 4.50826 19.5036 4.38305 19.3784C4.25783 19.2532 4.19522 19.0653 4.19522 18.8149C4.19522 18.5645 4.22653 18.3767 4.35174 18.2514C4.44566 18.1262 4.60218 18.0636 4.79 18.0323C4.97783 18.0323 5.13435 18.0949 5.22826 18.1888C5.35348 18.314 5.41609 18.5019 5.41609 18.7523C5.41609 19.0027 5.38478 19.1906 5.25957 19.3158M7.66999 19.0027C7.60738 18.9401 7.51347 18.8775 7.41956 18.8149C7.60738 18.7836 7.7639 18.721 7.85782 18.5958C7.95173 18.5019 7.98303 18.3453 7.98303 18.1888C7.98303 18.0636 7.95173 17.9384 7.88912 17.8445C7.82651 17.7506 7.7326 17.688 7.63869 17.6254C7.54477 17.5941 7.35695 17.5627 7.13782 17.5627H6.19869L6.23 19.754H6.66826V18.8462H6.76217C6.85608 18.8462 6.94999 18.8462 6.9813 18.8462L7.10652 18.9401C7.13782 18.9714 7.23173 19.0967 7.35695 19.2532L7.7013 19.7227H8.23347L7.95173 19.2845C7.85782 19.128 7.7639 19.0027 7.7013 18.9401M6.9813 18.5332H6.66826V18.001H7.0126C7.20043 18.001 7.29434 18.001 7.32564 18.001L7.48217 18.0949L7.54477 18.2827V18.4393C7.51347 18.4393 7.38825 18.5332 7.38825 18.5332C7.32565 18.5332 7.20043 18.5332 6.9813 18.5645M10.0178 17.8445C9.92389 17.7506 9.82998 17.688 9.70476 17.6254C9.61085 17.6254 9.48564 17.594 9.29781 17.594H8.4839V19.754H9.32911C9.48564 19.754 9.61085 19.754 9.70476 19.754C9.82998 19.7227 9.9552 19.6601 10.0178 19.5975C10.1117 19.5036 10.2056 19.3784 10.2682 19.2219C10.2995 19.0966 10.3308 18.9401 10.3308 18.7523C10.3308 18.5332 10.3308 18.3766 10.2682 18.2201C10.2369 18.0949 10.143 17.9697 10.0491 17.8758M9.79868 19.0967C9.76737 19.1906 9.73607 19.2532 9.67346 19.3158L9.48564 19.4097C9.42303 19.4097 9.32911 19.4097 9.2039 19.4097H8.85955V17.9697H9.04738C9.2352 17.9697 9.36042 17.9697 9.42303 17.9697C9.51694 17.9697 9.57955 18.0323 9.61085 18.0636C9.67346 18.1262 9.70477 18.1888 9.73607 18.2827C9.73607 18.3766 9.76737 18.5019 9.76737 18.6584C9.76737 18.8149 9.76737 18.9714 9.70476 19.0653M11.1135 18.8462H12.2091V18.5019H11.1135V18.001H12.303V17.6567H10.6752V19.8166H12.3343V19.4723H11.1135V18.8462ZM17.7499 18.1888C17.656 18.0949 17.5621 18.001 17.4369 17.9697C17.343 17.9384 17.2178 17.9071 17.03 17.9071L16.216 17.8445L16.0595 20.0358L16.8734 20.0984C17.03 20.0984 17.1552 20.0984 17.2804 20.0984C17.4056 20.0671 17.5308 20.0045 17.5934 19.9419C17.6873 19.8479 17.7813 19.7227 17.8439 19.5662C17.9065 19.441 17.9378 19.2845 17.9378 19.0967C17.9378 18.8775 17.9378 18.721 17.9065 18.5645C17.8752 18.408 17.8126 18.314 17.7186 18.1888M17.5308 19.034C17.5308 19.1906 17.4995 19.3471 17.4682 19.441C17.4369 19.5349 17.3743 19.5975 17.343 19.6288L17.1552 19.6914C17.0926 19.6914 16.9986 19.6914 16.8734 19.6914H16.5291L16.623 18.2201H16.8108C16.9986 18.2201 17.1239 18.2514 17.1865 18.2827L17.3743 18.408C17.4369 18.4706 17.4682 18.5332 17.4995 18.6271C17.4995 18.721 17.4995 18.8462 17.4995 19.034M24.3238 18.8149L23.1343 20.8497L23.6038 20.9123L23.8543 20.4427L24.7308 20.5679L24.856 21.1001L25.3256 21.1627L24.7934 18.8775L24.3238 18.8149ZM24.0421 20.1297L24.4491 19.3784L24.6369 20.2236L24.0421 20.1297ZM50.0559 29.6148C50.0559 29.4896 49.9933 29.3957 49.8994 29.3018C49.9933 29.3018 50.0872 29.3018 50.1811 29.2392C50.275 29.2079 50.3376 29.114 50.4003 29.0514C50.4629 28.9575 50.4629 28.8949 50.4629 28.8009C50.4629 28.707 50.4629 28.6444 50.4003 28.5505L50.2437 28.3627C50.1811 28.3001 50.0559 28.2375 49.9307 28.1435L49.1794 27.7053L48.0524 29.5835L48.6785 29.9592C48.929 30.1157 49.0855 30.1783 49.1481 30.2096C49.242 30.2722 49.3672 30.2722 49.4611 30.2722C49.555 30.2722 49.6489 30.2409 49.7429 30.1783C49.8368 30.1157 49.8994 30.0531 49.962 29.9592C50.0246 29.8653 50.0559 29.7401 50.0246 29.6148M49.5863 29.7087L49.4298 29.834H49.242C49.2107 29.834 49.1168 29.7714 48.9603 29.6775L48.6159 29.4583L48.929 28.9575L49.242 29.1453C49.4298 29.2392 49.5237 29.3331 49.555 29.3644L49.6176 29.5209V29.6775L49.5863 29.7087ZM49.8368 28.9888H49.6489C49.6176 28.9575 49.5237 28.8949 49.3672 28.8009L49.1168 28.6444L49.3672 28.2062L49.5863 28.3314C49.7742 28.4253 49.8681 28.5192 49.8994 28.5192L49.9933 28.6757V28.8322C49.962 28.8322 49.8055 28.9575 49.8055 28.9575L49.8368 28.9888ZM53.5307 30.3974L51.6211 31.7435L51.9968 31.9939L52.435 31.6809L53.155 32.1818L53.0298 32.714L53.4368 32.9957L53.9376 30.6792L53.562 30.4287L53.5307 30.3974ZM53.2489 31.8061L52.7481 31.4618L53.4368 30.9609L53.2489 31.8061ZM45.4855 25.921C45.4542 25.7957 45.3603 25.6705 45.2664 25.6079C45.2038 25.5453 45.0785 25.4827 44.922 25.3888L44.202 25.0444L43.2629 27.0166L44.0142 27.3923C44.1707 27.4549 44.2959 27.5175 44.3898 27.5175C44.5151 27.5175 44.6403 27.5175 44.7342 27.5175C44.8594 27.4862 44.9846 27.3922 45.1098 27.267C45.2038 27.1731 45.2977 27.0479 45.3603 26.8914C45.4542 26.7036 45.5168 26.547 45.5168 26.3905C45.5168 26.234 45.5168 26.1088 45.4855 25.9836M45.1098 26.234C45.1098 26.3279 45.0472 26.4531 44.9846 26.6097C44.922 26.7662 44.8281 26.8914 44.7655 26.954L44.5777 27.0792H44.3898C44.3272 27.0792 44.2646 27.0479 44.1394 26.9853L43.8577 26.8288L44.4838 25.514L44.6716 25.6079C44.8281 25.7018 44.9533 25.7331 44.9846 25.7957L45.1098 25.9836C45.1098 26.0462 45.1411 26.1401 45.1098 26.234ZM47.1133 26.4531C46.9568 26.3592 46.8003 26.3279 46.6437 26.2966C46.5185 26.2966 46.4246 26.2966 46.2994 26.3279C46.1742 26.3592 46.0803 26.4218 45.9864 26.4844C45.8611 26.5783 45.7359 26.7349 45.642 26.9227C45.4855 27.2357 45.4229 27.5175 45.5168 27.7679C45.6107 28.0183 45.7672 28.2375 46.0803 28.394C46.362 28.5505 46.6437 28.5818 46.8942 28.4879C47.1446 28.394 47.3637 28.2062 47.5203 27.8931C47.6768 27.5801 47.7394 27.2983 47.6455 27.0166C47.5829 26.7349 47.395 26.547 47.1133 26.3905M47.1446 27.7366C47.0194 27.9557 46.8942 28.1122 46.7377 28.1749C46.5811 28.2375 46.4246 28.2375 46.2681 28.1435C46.1116 28.0496 46.0177 27.9244 45.9864 27.7679C45.9551 27.6114 45.9864 27.4235 46.1116 27.2044C46.2368 26.9853 46.362 26.8288 46.5185 26.7975C46.675 26.7349 46.8316 26.7662 46.9881 26.8288C47.1446 26.9227 47.2385 27.0479 47.3011 27.2044C47.3324 27.3609 47.3011 27.5488 47.1759 27.7679M51.6211 31.2113C51.6211 31.0235 51.6211 30.867 51.6211 30.7731C51.6211 30.6792 51.5585 30.5853 51.5272 30.4914C51.715 30.5853 51.8715 30.5853 51.9968 30.554C52.122 30.5227 52.2472 30.4287 52.3411 30.2722C52.4037 30.147 52.435 30.0531 52.435 29.9279C52.435 29.8027 52.4037 29.7088 52.3411 29.6148C52.2785 29.5209 52.1533 29.427 51.9342 29.3018L51.1516 28.8009L49.9933 30.6479L50.3689 30.867L50.8385 30.0844H50.9011C50.995 30.1783 51.0576 30.2409 51.0889 30.2722L51.1516 30.4287C51.1516 30.4913 51.1516 30.6166 51.1516 30.8357V31.3992L51.6211 31.6809V31.18V31.2113ZM50.995 29.834L51.2768 29.3644L51.5585 29.5522C51.715 29.6461 51.8089 29.7088 51.8402 29.7401L51.9342 29.8966V30.0844C51.9029 30.0844 51.7776 30.2096 51.7776 30.2096H51.6211C51.5585 30.2096 51.4646 30.147 51.2768 30.0218L50.995 29.834ZM55.4715 33.2461C55.4715 33.1209 55.4715 33.027 55.4089 32.9331C55.3463 32.8392 55.2524 32.6826 55.1272 32.5261C54.9707 32.3696 54.9081 32.2444 54.8768 32.1818V32.0253L55.0333 31.9627C55.1272 31.9627 55.2211 31.994 55.315 32.0879C55.4089 32.1505 55.4715 32.2444 55.5028 32.307C55.5028 32.3696 55.5028 32.4635 55.4715 32.5887L55.8472 32.8392C55.9724 32.6826 56.0037 32.4948 55.9411 32.307C55.9098 32.1192 55.7533 31.9627 55.5341 31.8061C55.4089 31.7122 55.2524 31.6496 55.1272 31.6183C55.002 31.6183 54.8768 31.6183 54.7828 31.6183C54.6889 31.6496 54.595 31.7122 54.5324 31.8061C54.4385 31.9627 54.4072 32.1192 54.4385 32.2757C54.4385 32.4009 54.5637 32.5574 54.7202 32.7453C54.8455 32.9018 54.9081 32.9957 54.9394 33.027L55.002 33.1835V33.3087C54.9081 33.3713 54.8455 33.4026 54.7515 33.4026C54.6576 33.4026 54.5637 33.3713 54.4385 33.2774C54.3446 33.2148 54.2507 33.1209 54.2507 32.9957C54.2507 32.9018 54.2507 32.7766 54.3133 32.6513L53.9376 32.4322C53.8124 32.6513 53.7811 32.8392 53.8124 33.027C53.8437 33.2148 54.0002 33.4026 54.2194 33.5592C54.3759 33.6844 54.5324 33.747 54.6576 33.7783C54.7828 33.8096 54.9081 33.7783 55.0333 33.7783C55.1585 33.7157 55.2524 33.6531 55.315 33.5592C55.4089 33.4339 55.4402 33.34 55.4402 33.2148M57.6002 33.4026L57.2559 33.1522L55.9724 34.8739L57.1933 35.7818L57.4124 35.5L56.5359 34.8426L57.6002 33.4026ZM56.5672 32.5887L55.2524 34.3418L55.5967 34.5922L56.9115 32.8392L56.5672 32.5887ZM38.2229 22.5714C38.129 22.5088 38.0038 22.4462 37.8473 22.3836L37.096 22.1018L36.3447 24.1679L37.1273 24.4497C37.2838 24.5123 37.409 24.5436 37.5029 24.5436C37.6281 24.5436 37.7533 24.5436 37.8473 24.481C37.9725 24.4183 38.0977 24.3244 38.1916 24.1992C38.2855 24.1053 38.3481 23.9488 38.4107 23.7923C38.4733 23.6045 38.5047 23.4166 38.5047 23.2914C38.5047 23.1349 38.5047 23.0097 38.442 22.8844C38.3794 22.7592 38.3168 22.6653 38.1916 22.5714M38.0038 23.6044C37.9412 23.761 37.8786 23.8862 37.816 23.9801C37.7533 24.074 37.6907 24.1053 37.6281 24.1366H37.4403C37.3777 24.1366 37.2838 24.1366 37.1899 24.1053L36.8768 23.9801L37.3777 22.6027L37.5655 22.6653C37.722 22.7279 37.8473 22.7592 37.9099 22.8218L38.0664 22.9784C38.0977 23.041 38.129 23.1349 38.0977 23.2288C38.0977 23.3227 38.0664 23.4479 38.0038 23.6044ZM42.2299 24.1053C42.0733 24.0427 41.9481 24.0114 41.7916 24.0114C41.6664 24.0114 41.5412 24.0114 41.4472 24.1053C41.3533 24.1679 41.2907 24.2618 41.2281 24.3557C41.1655 24.5123 41.1655 24.6688 41.2281 24.8253C41.2907 24.9505 41.4159 25.0757 41.6038 25.2323C41.7603 25.3575 41.8542 25.4201 41.8855 25.4514L41.9794 25.6079V25.7331C41.9481 25.7957 41.8855 25.8583 41.7916 25.8896C41.6977 25.8896 41.6038 25.8896 41.4472 25.8583C41.322 25.7957 41.2281 25.7331 41.1968 25.6392C41.1655 25.5453 41.1342 25.4201 41.1968 25.2949L40.7899 25.1696C40.7272 25.4201 40.7272 25.6079 40.7899 25.7957C40.8838 25.9836 41.0403 26.1088 41.2907 26.234C41.4785 26.2966 41.6351 26.3592 41.7603 26.3592C41.8855 26.3592 42.0107 26.3279 42.1359 26.2653C42.2298 26.2027 42.3238 26.1088 42.3864 25.9836C42.449 25.8584 42.449 25.7331 42.449 25.6392C42.449 25.514 42.3864 25.4201 42.3238 25.3262C42.2612 25.2323 42.1359 25.1384 41.9481 24.9818C41.7603 24.8566 41.6664 24.7627 41.6351 24.7001V24.5436L41.7603 24.4497C41.8542 24.4497 41.9481 24.4497 42.0733 24.5123C42.1985 24.5749 42.2612 24.6375 42.2925 24.7001C42.3238 24.7627 42.3238 24.8566 42.2925 24.9818L42.6994 25.1384C42.762 24.9505 42.762 24.7627 42.6994 24.6062C42.6368 24.4497 42.449 24.2931 42.1985 24.1992M29.4577 19.8166L28.6125 21.2879L28.3934 19.5975L27.9238 19.5036L28.2369 21.8201L28.7064 21.914L29.9273 19.9419L29.4577 19.8479V19.8166ZM33.2768 21.914L33.1829 22.2584L33.6838 22.3836L33.6212 22.6653C33.5273 22.6966 33.4647 22.7279 33.3395 22.7279C33.2455 22.7279 33.1516 22.7279 33.0577 22.7279C32.8699 22.6653 32.7447 22.5714 32.6821 22.4149C32.6195 22.2584 32.6195 22.0705 32.6821 21.8201C32.7447 21.601 32.8386 21.4445 32.9951 21.3505C33.1516 21.2566 33.3081 21.2566 33.496 21.2879C33.6212 21.3192 33.7151 21.3819 33.7777 21.4758C33.8403 21.5697 33.8716 21.6636 33.8716 21.7575H34.3099C34.3099 21.601 34.2786 21.4132 34.1534 21.2566C34.0281 21.1001 33.8403 21.0062 33.5899 20.9123C33.4021 20.8497 33.2142 20.8497 33.0577 20.881C32.8699 20.9123 32.6821 21.0062 32.5568 21.1627C32.4316 21.3192 32.3064 21.4758 32.2438 21.6949C32.1812 21.8827 32.1812 22.1018 32.2125 22.2897C32.2438 22.4775 32.3377 22.6653 32.4629 22.7905C32.5882 22.9158 32.776 23.041 32.9951 23.1036C33.1829 23.1662 33.3395 23.1662 33.5273 23.1349C33.7151 23.1349 33.8716 23.0723 33.9655 23.0097L34.216 22.1645L33.3081 21.914H33.2768ZM31.2108 20.2549C31.0542 20.2236 30.8664 20.1923 30.7412 20.2236C30.616 20.2236 30.5221 20.2862 30.4282 20.3488C30.3342 20.4114 30.2403 20.5053 30.1464 20.5993C30.0525 20.7245 29.9586 20.9123 29.896 21.1001C29.8021 21.4445 29.8334 21.7262 29.9586 21.9766C30.0838 22.2271 30.3029 22.3836 30.6473 22.4775C30.9603 22.5714 31.2421 22.5401 31.4612 22.3836C31.7116 22.2271 31.8682 22.0079 31.9621 21.6636C32.056 21.3192 32.0247 21.0375 31.8995 20.7871C31.7742 20.5366 31.5551 20.3801 31.2421 20.2862M31.4925 21.5071C31.4299 21.7575 31.336 21.914 31.1795 22.0079C31.0229 22.1018 30.8664 22.1332 30.7099 22.0705C30.5534 22.0079 30.4282 21.914 30.3342 21.7888C30.2716 21.6323 30.2403 21.4445 30.3342 21.194C30.3969 20.9436 30.4908 20.7871 30.6473 20.6932C30.8038 20.5992 30.929 20.5679 31.1169 20.6305C31.3047 20.6619 31.4299 20.7871 31.4925 20.9123C31.5551 21.0688 31.5864 21.2566 31.4925 21.5071ZM40.7272 23.761C40.602 23.5105 40.4142 23.3227 40.1012 23.1975C39.9446 23.1349 39.7881 23.1036 39.6316 23.1036C39.5064 23.1036 39.4125 23.1349 39.2873 23.1975C39.162 23.2601 39.0681 23.3227 39.0055 23.4166C38.8803 23.5418 38.7864 23.6984 38.7238 23.9175C38.5986 24.2305 38.5986 24.5436 38.7238 24.794C38.8177 25.0444 39.0368 25.2323 39.3499 25.3575C39.6629 25.4827 39.9133 25.4827 40.1638 25.3575C40.4142 25.2323 40.602 25.0131 40.7272 24.7001C40.8525 24.3557 40.8525 24.074 40.7272 23.8236M40.289 24.4497C40.1951 24.7001 40.0699 24.8566 39.9133 24.9192C39.7568 24.9818 39.6003 25.0131 39.4438 24.9192C39.2873 24.8566 39.162 24.7314 39.0994 24.5749C39.0368 24.4184 39.0368 24.2305 39.1307 23.9801C39.2246 23.7297 39.3499 23.5731 39.4751 23.5105C39.6316 23.4479 39.7881 23.4166 39.9446 23.5105C40.1012 23.6044 40.2264 23.6984 40.289 23.8236C40.3516 23.9801 40.3203 24.1679 40.2577 24.4184M27.423 19.6288C27.3603 19.5036 27.2664 19.441 27.1412 19.3784C27.0473 19.3471 26.9221 19.2845 26.7343 19.2532L25.9517 19.0967L25.5447 21.2566L26.3586 21.4132C26.5151 21.4132 26.6404 21.4445 26.7656 21.4132C26.8908 21.4132 27.016 21.3506 27.1099 21.2879C27.2351 21.2253 27.329 21.1001 27.423 20.9436C27.4856 20.8184 27.5482 20.6619 27.5795 20.5053C27.6108 20.3175 27.6108 20.1297 27.5795 19.9732C27.5795 19.8166 27.5169 19.6914 27.4543 19.5975M27.0786 20.4427C27.0473 20.5993 27.016 20.7245 26.9534 20.8184C26.9221 20.9123 26.8595 20.9749 26.7969 21.0062L26.609 21.0688C26.5464 21.0688 26.4525 21.0688 26.3273 21.0688L26.0143 21.0062L26.296 19.5975H26.4838C26.6717 19.6601 26.7656 19.6914 26.8282 19.7227L27.016 19.8479C27.0473 19.9106 27.0786 19.9732 27.1099 20.0671C27.1099 20.161 27.1099 20.2862 27.1099 20.4427M35.5307 21.5697L34.0595 23.3853L34.4977 23.5418L34.8108 23.1349L35.656 23.4166V23.9488L36.1568 24.1053L36.0003 21.7575L35.562 21.601L35.5307 21.5697ZM35.0612 22.7905L35.5934 22.1018V22.9784C35.6247 22.9784 35.0612 22.7905 35.0612 22.7905Z" fill="#221E20"/>
<mask id="mask1_41_501" style="mask-type:luminance" maskUnits="userSpaceOnUse" x="104" y="0" width="43" height="60">
<path d="M104.431 0.0953369V59.5732H132.511C132.511 59.5732 146.723 55.0654 146.723 42.4186C146.723 29.7717 133.075 25.4517 133.075 25.4517C133.075 25.4517 136.831 21.4448 136.831 15.6222C136.831 4.94747 125.687 0.0953369 125.687 0.0953369H104.462H104.431Z" fill="white"/>
</mask>
<g mask="url(#mask1_41_501)">
<path d="M146.723 0.0953369H104.431V59.5732H146.723V0.0953369Z" fill="url(#paint1_linear_41_501)"/>
</g>
<mask id="mask2_41_501" style="mask-type:luminance" maskUnits="userSpaceOnUse" x="105" y="29" width="41" height="30">
<path d="M105.965 34.433V58.0364H132.261C133.043 57.7546 135.861 56.659 138.678 54.5303C142.998 51.2433 145.19 47.1738 145.19 42.4156C145.19 37.6574 143.123 33.8382 139.023 30.5826C138.459 30.113 137.864 29.7061 137.301 29.3304C137.301 29.3304 124.059 33.6504 105.965 34.433Z" fill="white"/>
</mask>
<g mask="url(#mask2_41_501)">
<path d="M145.19 29.3304H105.965V58.0364H145.19V29.3304Z" fill="url(#paint2_linear_41_501)"/>
</g>
<mask id="mask3_41_501" style="mask-type:luminance" maskUnits="userSpaceOnUse" x="52" y="0" width="51" height="60">
<path d="M52.4038 59.5732H102.772L77.5724 0.0953369L52.4038 59.5732Z" fill="white"/>
</mask>
<g mask="url(#mask3_41_501)">
<path d="M102.772 0.0953369H52.4038V59.5732H102.772V0.0953369Z" fill="url(#paint3_linear_41_501)"/>
</g>
<mask id="mask4_41_501" style="mask-type:luminance" maskUnits="userSpaceOnUse" x="54" y="34" width="47" height="25">
<path d="M54.9385 58.0376H100.236L90.5627 34.4343C90.5627 34.4343 85.3036 34.6534 77.7279 34.6534C70.1523 34.6534 64.7054 34.2465 64.7054 34.2465L54.9385 58.0689V58.0376Z" fill="white"/>
</mask>
<g mask="url(#mask4_41_501)">
<path d="M100.236 34.214H54.9385V58.0364H100.236V34.214Z" fill="url(#paint4_linear_41_501)"/>
</g>
<path d="M33.8097 76.6953L33.7471 76.5701V66.7406L33.8097 66.6153L33.9349 66.5527H35.6879C35.7818 66.5527 35.8758 66.584 35.9071 66.678L37.6288 69.7144H37.7227L39.4757 66.678C39.5383 66.6154 39.601 66.5527 39.6949 66.5527H41.4479L41.5731 66.6153L41.6357 66.7406V76.5701L41.5731 76.6953L41.4479 76.7579H39.6636L39.5384 76.6953L39.4757 76.5701V70.2153L39.3818 70.2466L38.161 72.4066C38.0984 72.5005 38.0357 72.5318 37.9418 72.5318H37.441C37.3157 72.5318 37.2531 72.5005 37.2218 72.4066L36.001 70.2466H35.9384V76.5388L35.8758 76.664L35.7505 76.7266H33.9662L33.841 76.664L33.8097 76.6953Z" fill="#275B94"/>
<path d="M42.8253 76.6953L42.7627 76.5701V66.7406L42.8253 66.6153L42.9505 66.5527H44.7036L44.8288 66.6153L44.8914 66.7406V76.5701L44.8288 76.6953L44.7036 76.7266H42.9505L42.8253 76.6953Z" fill="#275B94"/>
<path d="M46.0812 76.6953L46.0186 76.5701V66.7406L46.0812 66.6153L46.2064 66.5527H47.9907C48.0846 66.5527 48.1472 66.584 48.2098 66.678L51.1211 72.4692H51.1838V66.7406L51.2151 66.6153L51.3403 66.5527H53.0933L53.2185 66.6153L53.2811 66.7406V76.5701L53.2185 76.6953L53.0933 76.7579H51.2777C51.1838 76.7579 51.1211 76.7266 51.0585 76.6327L48.1472 70.7788H48.0846V76.5388V76.664L47.9594 76.7266H46.2064L46.0812 76.664V76.6953Z" fill="#275B94"/>
<path d="M59.9488 76.6011L59.6045 75.1924L59.5419 75.1298H56.6932L56.6306 75.1924L56.2862 76.6011C56.2862 76.695 56.1923 76.7576 56.0671 76.7576H54.2202C54.0949 76.7576 54.0323 76.695 54.0636 76.5698L56.7871 66.7403C56.7871 66.6463 56.881 66.5837 57.0062 66.5837H59.1975C59.3227 66.5837 59.3854 66.6463 59.4167 66.7403L62.1714 76.5698V76.6324C62.1714 76.7263 62.1401 76.7576 62.0149 76.7576H60.1367C60.0427 76.7576 59.9801 76.695 59.9488 76.6011ZM57.0375 73.502H57.1001H59.1036H59.1662V73.4081L58.1645 69.2759V69.2133C58.1332 69.2133 58.0706 69.2759 58.0706 69.2759L57.0375 73.4081V73.4707V73.502Z" fill="#275B94"/>
<path d="M63.768 76.5085C63.2358 76.258 62.8602 75.945 62.5471 75.5067C62.2654 75.0685 62.1089 74.5676 62.1089 74.0041V73.5972L62.1715 73.472L62.2967 73.4094H64.0497L64.175 73.472L64.2376 73.5972V73.8789C64.2376 74.2233 64.3628 74.505 64.6445 74.7241C64.895 74.9433 65.2393 75.0685 65.6776 75.0685C66.1158 75.0685 66.3663 74.9746 66.5854 74.7867C66.8045 74.5989 66.8984 74.3485 66.8984 74.0354C66.8984 73.7224 66.8358 73.6285 66.7106 73.472C66.5854 73.3154 66.3976 73.1589 66.1471 73.0337C65.8967 72.9085 65.5524 72.6894 65.0515 72.4702C64.4567 72.1885 63.9558 71.9068 63.5802 71.6563C63.2045 71.4059 62.8602 71.0929 62.6098 70.6859C62.328 70.2789 62.2028 69.8094 62.2028 69.2459C62.2028 68.4007 62.5158 67.712 63.1106 67.2111C63.7054 66.7103 64.5193 66.4598 65.521 66.4598C66.5228 66.4598 66.8045 66.5851 67.3367 66.8355C67.8689 67.0859 68.2758 67.4303 68.5576 67.8685C68.8393 68.3068 68.9958 68.8389 68.9958 69.4024V69.6842L68.9332 69.8094L68.808 69.872H67.055L66.9297 69.8094L66.8671 69.6842V69.4337C66.8671 69.0894 66.7419 68.8077 66.4915 68.5572C66.241 68.3381 65.8967 68.2129 65.4897 68.2129C65.0828 68.2129 64.8324 68.3068 64.6445 68.4946C64.4254 68.6824 64.3315 68.9329 64.3315 69.2459C64.3315 69.5589 64.3941 69.6529 64.5193 69.8407C64.6445 69.9972 64.8324 70.1537 65.0828 70.3102C65.3332 70.4668 65.7089 70.6546 66.2097 70.905L66.5541 71.0928C67.1489 71.4059 67.5871 71.6876 67.9315 71.9067C68.2445 72.1259 68.5262 72.4076 68.7454 72.752C68.9645 73.0963 69.0897 73.5033 69.0897 74.0041C69.0897 74.8806 68.7767 75.5693 68.1506 76.1015C67.5245 76.6337 66.7106 76.8841 65.6776 76.8841C64.6445 76.8841 64.3941 76.7589 63.8619 76.5398" fill="#275B94"/>
<path d="M73.8793 76.4462C73.3472 76.1957 72.9402 75.8201 72.6585 75.3192C72.3767 74.8497 72.2202 74.2862 72.2202 73.6601V69.5906C72.2202 68.9645 72.3767 68.401 72.6585 67.9314C72.9402 67.4619 73.3472 67.0862 73.8793 66.8358C74.4115 66.5854 75.0063 66.4288 75.695 66.4288C76.3837 66.4288 76.9785 66.5541 77.5106 66.8045C78.0428 67.0549 78.4497 67.4306 78.7315 67.8688C79.0132 68.3384 79.1698 68.8393 79.1698 69.434V69.7471L79.1071 69.8723L78.9819 69.9349H77.1976L77.0724 69.8723L77.0098 69.7471V69.434C77.0098 69.0584 76.8845 68.7453 76.6341 68.5262C76.3837 68.2758 76.0706 68.1506 75.6637 68.1506C75.2567 68.1506 74.9437 68.2758 74.6932 68.5262C74.4428 68.7766 74.3176 69.121 74.3176 69.528V73.6914C74.3176 74.0984 74.4428 74.4427 74.6932 74.6931C74.9437 74.9436 75.288 75.0688 75.695 75.0688C76.1019 75.0688 76.415 74.9436 76.6341 74.7244C76.8845 74.5053 76.9785 74.1923 76.9785 73.8166V72.9088L76.9158 72.8462H75.7263L75.6011 72.7836L75.5385 72.6584V71.3436L75.6011 71.2184L75.7263 71.1558H78.9193L79.0445 71.2184L79.1071 71.3436V73.6601C79.1071 74.6305 78.7941 75.4131 78.168 75.9766C77.5419 76.5401 76.6967 76.8218 75.6324 76.8218C74.568 76.8218 74.3489 76.6966 73.8167 76.4149" fill="#275B94"/>
<path d="M86.4633 68.2745L86.338 68.3371H82.2685L82.1746 68.3997V70.6536L82.2685 70.7475H84.8041L84.9294 70.7788L84.992 70.904V72.3127L84.9294 72.4379L84.8041 72.5005H82.2685L82.1746 72.5631V74.9109L82.2685 74.9736H86.338L86.4633 75.0362L86.5259 75.1614V76.5701L86.4633 76.6953L86.338 76.7266H80.2337L80.1085 76.6953L80.0459 76.5701V66.7406L80.1085 66.6153L80.2337 66.5527H86.338L86.4633 66.6153L86.5259 66.7406V68.1492L86.4633 68.2745Z" fill="#275B94"/>
<path d="M92.1299 76.6014L90.596 72.5944L90.5334 72.5318H89.5629L89.5003 72.5944V76.5701L89.4377 76.6953L89.3125 76.7579H87.5282L87.4029 76.6953L87.3403 76.5701V66.7406L87.4029 66.6153L87.5282 66.5527H91.2221C91.8168 66.5527 92.349 66.678 92.8186 66.9284C93.2881 67.1788 93.6325 67.5545 93.8829 68.024C94.1334 68.4936 94.2586 69.0258 94.2586 69.6205C94.2586 70.2153 94.102 70.7788 93.8203 71.2484C93.5386 71.7179 93.1316 72.0623 92.5994 72.2814V72.3753L94.2899 76.5388V76.6014C94.2899 76.6953 94.2586 76.7266 94.1334 76.7266H92.2864C92.1612 76.7266 92.0986 76.664 92.0673 76.5701M89.5003 68.3997V70.8727L89.5629 70.9353H90.8777C91.2534 70.9353 91.5664 70.8101 91.7855 70.591C92.0047 70.3405 92.1299 70.0275 92.1299 69.6519C92.1299 69.2762 92.0047 68.9318 91.7855 68.6814C91.5664 68.431 91.2534 68.3371 90.8777 68.3371H89.5629L89.5003 68.3997Z" fill="#275B94"/>
<path d="M100.738 76.6011L100.394 75.1924L100.331 75.1298H97.4828L97.4201 75.1924L97.0758 76.6011C97.0758 76.695 96.9819 76.7576 96.8567 76.7576H95.0097C94.8845 76.7576 94.8219 76.695 94.8532 76.5698L97.5767 66.7403C97.5767 66.6463 97.6706 66.5837 97.7958 66.5837H99.9871C100.112 66.5837 100.175 66.6463 100.206 66.7403L102.961 76.5698V76.6324C102.961 76.7263 102.93 76.7576 102.804 76.7576H100.926C100.832 76.7576 100.77 76.695 100.738 76.6011ZM97.8584 73.502H97.921H99.9245H99.9871V73.4081L98.9854 69.2759V69.2133C98.954 69.2133 98.8914 69.2759 98.8914 69.2759L97.8584 73.4081V73.4707V73.502Z" fill="#275B94"/>
<path d="M103.775 76.6953L103.712 76.5701V66.7406L103.775 66.6153L103.9 66.5527H105.653L105.81 66.6153L105.841 66.7406V76.5701L105.81 76.6953L105.653 76.7266H103.9L103.775 76.6953Z" fill="#275B94"/>
<path d="M108.345 76.5085C107.813 76.258 107.437 75.945 107.124 75.5067C106.843 75.0685 106.686 74.5676 106.686 74.0041V73.5972L106.749 73.472L106.874 73.4094H108.627L108.752 73.472L108.815 73.5972V73.8789C108.815 74.2233 108.94 74.505 109.222 74.7241C109.472 74.9433 109.816 75.0685 110.255 75.0685C110.693 75.0685 110.943 74.9746 111.163 74.7867C111.382 74.5989 111.476 74.3485 111.476 74.0354C111.476 73.7224 111.413 73.6285 111.288 73.472C111.163 73.3154 110.975 73.1589 110.724 73.0337C110.474 72.9085 110.129 72.6894 109.629 72.4702C109.034 72.1885 108.533 71.9068 108.157 71.6563C107.782 71.4059 107.437 71.0929 107.187 70.6859C106.905 70.2789 106.78 69.8094 106.78 69.2459C106.78 68.4007 107.093 67.712 107.688 67.2111C108.283 66.7103 109.096 66.4598 110.098 66.4598C111.1 66.4598 111.382 66.5851 111.914 66.8355C112.446 67.0859 112.853 67.4303 113.135 67.8685C113.416 68.3068 113.573 68.8389 113.573 69.4024V69.6842L113.51 69.8094L113.385 69.872H111.632L111.507 69.8094L111.444 69.6842V69.4337C111.444 69.0894 111.319 68.8077 111.069 68.5572C110.818 68.3381 110.474 68.2129 110.067 68.2129C109.66 68.2129 109.41 68.3068 109.222 68.4946C109.003 68.6824 108.909 68.9329 108.909 69.2459C108.909 69.5589 108.971 69.6529 109.096 69.8407C109.222 69.9972 109.41 70.1537 109.66 70.3102C109.91 70.4668 110.286 70.6546 110.787 70.905L111.131 71.0928C111.726 71.4059 112.164 71.6876 112.509 71.9067C112.853 72.1259 113.103 72.4076 113.323 72.752C113.542 73.0963 113.667 73.5033 113.667 74.0041C113.667 74.8806 113.354 75.5693 112.728 76.1015C112.102 76.6337 111.288 76.8841 110.255 76.8841C109.222 76.8841 108.971 76.7589 108.439 76.5398" fill="#275B94"/>
<path d="M161.154 33.0604H160.059V59.575H161.154V33.0604Z" fill="#B02A2D"/>
<path d="M187.669 61.4512C180.031 61.4512 174.428 55.4408 174.428 47.8339C174.428 40.227 180 34.1227 187.795 34.1227C195.589 34.1227 195.464 35.8131 198.094 38.3174L196.059 40.5087C193.836 38.38 191.332 36.8774 187.763 36.8774C181.909 36.8774 177.527 41.6044 177.527 47.74C177.527 53.8756 181.941 58.6964 187.763 58.6964C193.586 58.6964 193.774 57.2877 196.309 54.8773L198.282 56.8182C195.527 59.6043 192.49 61.4512 187.701 61.4512" fill="#275B94"/>
<path d="M228.051 61.0154H224.827L221.728 54.0346H207.328L204.197 61.0154H201.129L213.182 34.4069H215.968L228.02 61.0154H228.051ZM214.59 37.8503L208.548 51.3424H220.601L214.59 37.8503Z" fill="#275B94"/>
<path d="M257.697 61.0154H254.472L251.373 54.0346H236.973L233.843 61.0154H230.775L242.827 34.4069H245.613L257.665 61.0154H257.697ZM244.204 37.8503L238.163 51.3424H250.215L244.204 37.8503Z" fill="#275B94"/>
<path d="M282.99 61.0153V43.7667L275.571 55.0362H275.414L268.058 43.8606V61.0153H262.329V34.5946H268.621L275.571 45.7702L282.489 34.5946H288.781V61.0153H282.99Z" fill="#275B94"/>
<path d="M307.846 61.4512C299.613 61.4512 293.947 55.6599 293.947 47.8652V47.8026C293.947 40.2896 299.801 34.1227 307.815 34.1227C315.828 34.1227 315.453 35.4061 318.208 37.754L314.545 42.1678C312.51 40.4774 310.695 39.4757 307.627 39.4757C304.559 39.4757 300.051 43.2009 300.051 47.7087V47.7713C300.051 52.5921 303.369 56.1608 308.065 56.1608C312.761 56.1608 312.072 55.6286 313.543 54.5643V50.7765H307.689V45.7678H319.178V57.2564C316.455 59.5729 312.729 61.4512 307.877 61.4512" fill="#275B94"/>
<text opacity="0.2" fill="#212121" style="white-space: pre" xml:space="preserve" font-family="Poppins" font-size="69.5238" letter-spacing="0em"><tspan x="355.73" y="76.3352">+</tspan></text>
<path d="M433.322 78.5337C433.88 78.5556 434.437 78.4519 434.95 78.2302C435.464 78.0085 435.921 77.6744 436.288 77.2526C437.037 76.3953 437.411 75.0847 437.411 73.3206V32.7021H448.566L448.724 73.6362C448.773 78.1888 447.541 81.7658 445.029 84.397C442.516 87.0183 439.225 88.3289 435.155 88.3289C432.971 88.3237 430.803 87.971 428.73 87.284L430.898 78.0506C431.668 78.3647 432.49 78.5287 433.322 78.5337ZM448.813 14.7969V25.7941H437.254V14.7969H448.813Z" fill="#212121"/>
<path d="M573.515 35.0913L565.444 59.304L557.374 35.0913H550.781V46.4137L560.556 70.4876C559.472 73.7394 557.531 75.3752 554.752 75.3752C553.919 75.3813 553.088 75.2853 552.279 75.0895L550.436 83.5147C552.84 84.0764 554.798 84.3589 556.309 84.3623C559.171 84.4228 561.947 83.3822 564.064 81.4552C566.213 79.5246 568.16 76.2925 569.908 71.7588L584 35.0913H573.515Z" fill="#02A378"/>
<path d="M463.344 32.7059V56.8684C463.344 59.6474 463.955 61.7166 465.197 63.047C466.428 64.3871 468.383 65.0572 471.06 65.0572C473.74 65.0572 475.695 64.3871 476.923 63.047C478.155 61.7069 478.769 59.6474 478.766 56.8684V44.3139L489.921 33.1591V57.8241C489.921 63.2341 488.275 67.3531 484.984 70.1812C481.692 73.0193 477.077 74.4383 471.139 74.4383C465.256 74.4383 460.733 73.0456 457.569 70.2601C454.406 67.4813 452.826 63.3327 452.83 57.8142V32.6862H463.344V32.7059Z" fill="#212121"/>
<path d="M522.196 54.8527C521.075 53.2445 519.553 51.9571 517.781 51.1181C515.635 50.1553 513.405 49.3901 511.12 48.8321C508.498 48.1325 506.652 47.4493 505.581 46.7825C505.08 46.4987 504.666 46.0836 504.383 45.5818C504.1 45.0799 503.959 44.5105 503.975 43.9346C503.972 43.4399 504.099 42.953 504.345 42.5237C504.591 42.0943 504.946 41.7379 505.375 41.4906C506.448 40.8399 507.688 40.5181 508.942 40.5651C510.922 40.5799 512.893 40.8482 514.805 41.3634C515.327 41.5014 515.83 41.6492 516.332 41.8068V39.3718L508.843 31.8826C503.965 31.9025 500.024 33.0521 497.018 35.3315C493.993 37.6372 492.485 40.8401 492.485 44.9688C492.485 51.2854 496.177 55.4044 503.561 57.3259C506.508 58.1243 508.646 58.8533 509.986 59.4937C511.327 60.1341 511.996 61.0704 511.996 62.3022C511.996 63.3173 511.464 64.1449 510.39 64.7955C509.315 65.4359 507.799 65.7613 505.818 65.7613C503.835 65.7422 501.863 65.4605 499.955 64.9235C497.985 64.3846 496.076 63.645 494.258 62.7163L491.293 70.8262C493.6 71.9207 496.005 72.7951 498.477 73.4377C500.87 74.0879 503.338 74.4258 505.818 74.4429C511.169 74.4429 515.531 73.3196 518.904 71.0728C522.275 68.8261 523.96 65.5874 523.96 61.3567C523.96 58.6761 523.372 56.5081 522.196 54.8527Z" fill="#212121"/>
<path d="M538.997 32.404C538.997 30.5231 539.401 29.1325 540.219 28.2454C540.611 27.8088 541.094 27.4627 541.633 27.2312C542.172 26.9997 542.756 26.8882 543.342 26.9046C543.682 26.9083 544.021 26.9313 544.358 26.9736V24.5601L538.534 18.7362C535.893 19.2387 533.735 20.2341 532.079 21.7516C529.616 24.018 528.381 27.5655 528.374 32.3942V35.1447H522.501V43.618H528.295V73.2298H538.898V43.6278H547.6V35.1534H538.978V32.404H538.997Z" fill="#02A378"/>
<defs>
<radialGradient id="paint0_radial_41_501" cx="0" cy="0" r="1" gradientTransform="matrix(32.8869 22.3499 22.3499 -32.8868 35.2906 -5.58387)" gradientUnits="userSpaceOnUse">
<stop stop-color="#66C0E2"/>
<stop offset="0.1" stop-color="#5EB4D5"/>
<stop offset="0.3" stop-color="#4994B4"/>
<stop offset="0.6" stop-color="#28627F"/>
<stop offset="0.8" stop-color="#0B3651"/>
<stop offset="1" stop-color="#0B3651"/>
</radialGradient>
<linearGradient id="paint1_linear_41_501" x1="123.943" y1="60.3433" x2="123.943" y2="0.336377" gradientUnits="userSpaceOnUse">
<stop stop-color="#8F1915"/>
<stop offset="0.6" stop-color="#BF191E"/>
<stop offset="1" stop-color="#D61923"/>
</linearGradient>
<linearGradient id="paint2_linear_41_501" x1="132.718" y1="57.2005" x2="132.718" y2="28.2411" gradientUnits="userSpaceOnUse">
<stop stop-color="#E44125"/>
<stop offset="0.6" stop-color="#CA2F26"/>
<stop offset="1" stop-color="#B62127"/>
</linearGradient>
<linearGradient id="paint3_linear_41_501" x1="76.1888" y1="60.3433" x2="76.1888" y2="0.336377" gradientUnits="userSpaceOnUse">
<stop stop-color="#8F1915"/>
<stop offset="0.6" stop-color="#BF191E"/>
<stop offset="1" stop-color="#D61923"/>
</linearGradient>
<linearGradient id="paint4_linear_41_501" x1="101.331" y1="30.8331" x2="101.331" y2="54.0608" gradientUnits="userSpaceOnUse">
<stop stop-color="#B62127"/>
<stop offset="0.5" stop-color="#CC3026"/>
<stop offset="1" stop-color="#E44125"/>
</linearGradient>
</defs>
</svg>
