<svg width="555" height="99" viewBox="0 0 555 99" fill="none" xmlns="http://www.w3.org/2000/svg">
<mask id="mask0_41_567" style="mask-type:luminance" maskUnits="userSpaceOnUse" x="0" y="11" width="276" height="77">
<path d="M275.455 11H0V87.5726H275.455V11Z" fill="white"/>
</mask>
<g mask="url(#mask0_41_567)">
<path d="M76.3223 76.961C76.284 76.8649 76.2263 76.8073 76.1302 76.8073H73.7462C73.6501 76.8073 73.5733 76.8649 73.5539 76.961L70.2666 87.2463C70.2666 87.2463 70.2666 87.3616 70.2666 87.4001C70.3049 87.4386 70.3434 87.4577 70.401 87.4577H72.3237C72.4198 87.4577 72.4966 87.4001 72.5157 87.3039L72.9579 85.8044C72.9579 85.8044 72.9964 85.7467 73.0349 85.7467H76.7838C76.7838 85.7467 76.8415 85.7661 76.8606 85.8044L77.322 87.3039C77.3605 87.4001 77.4181 87.4577 77.5142 87.4577H79.4369C79.5522 87.4577 79.6098 87.4194 79.6098 87.3233C79.6098 87.2848 79.6098 87.2656 79.6098 87.2463L76.3223 76.961ZM76.2455 84.0934H73.5733C73.5733 84.0934 73.4963 84.0549 73.5154 83.9973L74.8612 79.4794C74.8612 79.4794 74.8806 79.4409 74.8997 79.4218C74.9188 79.4218 74.9382 79.4218 74.9382 79.4794L76.3031 83.9973C76.3031 83.9973 76.3031 84.0934 76.2455 84.0934Z" fill="#11567C"/>
<path d="M63.8273 77.211C63.3274 76.9417 62.7314 76.8073 62.0586 76.8073H57.7714C57.7714 76.8073 57.6752 76.8073 57.6367 76.8649C57.5982 76.9034 57.5791 76.9417 57.5791 76.9995V87.3039C57.5791 87.3039 57.5791 87.4001 57.6367 87.4386C57.6752 87.4771 57.7137 87.4962 57.7714 87.4962H59.5594C59.5594 87.4962 59.6555 87.4962 59.6938 87.4386C59.7323 87.4001 59.7514 87.3616 59.7514 87.3039V83.4206C59.7514 83.4206 59.7708 83.3436 59.8284 83.3436H61.9816C62.6544 83.3436 63.2698 83.2092 63.7888 82.9399C64.3077 82.6708 64.7115 82.2863 64.9999 81.8058C65.2883 81.3251 65.4421 80.7482 65.4421 80.1139C65.4421 79.4794 65.3074 78.8834 65.0192 78.3836C64.7308 77.8837 64.3462 77.4994 63.8464 77.211M62.866 81.1904C62.5776 81.4597 62.2124 81.5941 61.7317 81.5941H59.8093C59.8093 81.5941 59.7323 81.575 59.7323 81.5173V78.7105C59.7323 78.7105 59.7514 78.6335 59.8093 78.6335H61.7317C62.1931 78.6335 62.5776 78.7682 62.866 79.0372C63.1543 79.3065 63.2889 79.6717 63.2889 80.1139C63.2889 80.5561 63.1543 80.9022 62.866 81.1713" fill="#11567C"/>
<path d="M68.7076 76.8073H66.9198C66.9198 76.8073 66.8237 76.8073 66.7852 76.8649C66.7467 76.9034 66.7275 76.9417 66.7275 76.9995V87.2848C66.7275 87.2848 66.7275 87.3809 66.7852 87.4194C66.8237 87.4577 66.8622 87.4771 66.9198 87.4771H68.7076C68.7076 87.4771 68.8037 87.4771 68.8422 87.4194C68.8807 87.3809 68.8999 87.3424 68.8999 87.2848V76.9995C68.8999 76.9995 68.8999 76.9034 68.8422 76.8649C68.8037 76.8264 68.7654 76.8073 68.7076 76.8073Z" fill="#11567C"/>
<path d="M88.3528 76.8073H86.565C86.565 76.8073 86.4689 76.8073 86.4304 76.8649C86.3919 76.9034 86.3727 76.9417 86.3727 76.9995V83.959C86.3727 84.4971 86.1996 84.9393 85.8729 85.2662C85.546 85.5929 85.1038 85.7661 84.5656 85.7661C84.0273 85.7661 83.5851 85.5929 83.2583 85.2662C82.9314 84.9393 82.7585 84.4971 82.7585 83.959V76.9995C82.7585 76.9995 82.7585 76.9034 82.7006 76.8649C82.6623 76.8264 82.6238 76.8073 82.5662 76.8073H80.7782C80.7782 76.8073 80.6821 76.8073 80.6436 76.8649C80.6053 76.9034 80.5859 76.9417 80.5859 76.9995V83.9396C80.5859 84.6509 80.7591 85.3045 81.0858 85.8429C81.4127 86.4004 81.8741 86.8234 82.4701 87.131C83.0661 87.4386 83.7582 87.5924 84.5271 87.5924C85.296 87.5924 85.9882 87.4386 86.5842 87.131C87.1802 86.8234 87.6415 86.4004 87.9684 85.8429C88.2951 85.2854 88.4683 84.6509 88.4683 83.9396V76.9995C88.4683 76.9995 88.4683 76.9034 88.4104 76.8649C88.3721 76.8264 88.3336 76.8073 88.276 76.8073" fill="#11567C"/>
<path d="M92.9922 73.9801H91.4541C91.3389 73.9801 91.2619 74.0186 91.2234 74.1145L90.4159 75.6526C90.4159 75.6526 90.3777 75.7679 90.4159 75.8064C90.4353 75.8449 90.4736 75.864 90.5506 75.864H91.8194C91.8194 75.864 91.9731 75.8257 92.031 75.7487L93.1075 74.2107C93.1075 74.2107 93.146 74.0954 93.1266 74.0569C93.1075 74.0186 93.0498 73.9801 92.9728 73.9801" fill="#11567C"/>
<path d="M92.2791 76.8073H90.4911C90.4911 76.8073 90.395 76.8073 90.3565 76.8649C90.3182 76.9034 90.2988 76.9417 90.2988 76.9995V87.2848C90.2988 87.2848 90.2988 87.3809 90.3565 87.4194C90.395 87.4577 90.4335 87.4771 90.4911 87.4771H92.2791C92.2791 87.4771 92.3752 87.4771 92.4135 87.4194C92.452 87.3809 92.4714 87.3424 92.4714 87.2848V76.9995C92.4714 76.9995 92.4714 76.9034 92.4135 76.8649C92.3752 76.8264 92.3367 76.8073 92.2791 76.8073Z" fill="#11567C"/>
<path d="M56.9015 42.9719C56.7286 44.4715 56.4208 45.9325 56.0171 47.3551C56.4208 45.9325 56.7092 44.4715 56.9015 42.9719Z" fill="#11567C"/>
<path d="M42.6423 37.4136C42.7769 37.4136 42.8922 37.4136 42.9884 37.3944C43.123 37.3559 43.2383 37.2789 43.3536 37.1637C43.4497 37.0675 43.5267 36.9522 43.6035 36.7985C43.6805 36.6253 43.7382 36.4524 43.7573 36.3177C43.7573 36.1831 43.7573 36.0487 43.7188 35.9332C43.6805 35.8179 43.6227 35.7026 43.5267 35.6256C43.4497 35.568 43.3344 35.4912 43.1807 35.4142L42.4885 35.0681L41.585 36.9522L42.2962 37.2983C42.4309 37.3751 42.5653 37.4136 42.6614 37.4327M42.7 35.5488L42.8731 35.6256C43.0269 35.7026 43.123 35.7603 43.1807 35.7988C43.2383 35.8564 43.2959 35.914 43.3151 35.9717C43.3344 36.0293 43.3536 36.1255 43.3151 36.2025C43.3151 36.2986 43.2574 36.4139 43.1998 36.5485C43.123 36.7023 43.0652 36.7985 42.9884 36.8752C42.9114 36.9522 42.8537 36.9907 42.7961 37.0099C42.7384 37.0099 42.6808 37.0099 42.6038 37.0099C42.5462 37.0099 42.4692 36.9714 42.3539 36.9137L42.0655 36.7791L42.6614 35.5295L42.7 35.5488Z" fill="#11567C"/>
<path d="M39.2133 35.1473C39.1365 35.3781 39.1557 35.5704 39.2133 35.7433C39.2903 35.9164 39.4633 36.0509 39.694 36.1664C39.867 36.2431 40.0016 36.2816 40.1362 36.2816C40.2707 36.2816 40.3862 36.2431 40.4821 36.1855C40.5782 36.1087 40.6552 36.0317 40.7129 35.9164C40.7705 35.8009 40.7899 35.6856 40.7705 35.5704C40.7705 35.4551 40.7129 35.3589 40.6361 35.2819C40.5591 35.2051 40.4438 35.0896 40.2707 34.9552C40.0977 34.8206 40.0016 34.7436 39.9631 34.6668C39.944 34.6092 39.944 34.5707 39.9631 34.5322C39.9825 34.4745 40.0208 34.4554 40.0784 34.436C40.1554 34.436 40.2515 34.436 40.3668 34.4745C40.4821 34.5322 40.54 34.5898 40.5782 34.6474C40.6167 34.7244 40.6167 34.8012 40.5782 34.9167L40.982 35.0705C41.059 34.8974 41.059 34.7244 40.982 34.5707C40.9052 34.4169 40.7514 34.2822 40.5015 34.1669C40.3477 34.1093 40.213 34.0708 40.0977 34.0708C39.9825 34.0708 39.867 34.0899 39.7708 34.1669C39.6747 34.2246 39.617 34.3016 39.5594 34.3975C39.4826 34.5515 39.5018 34.7053 39.5594 34.8591C39.617 34.9744 39.7325 35.109 39.9055 35.2434C40.0401 35.3589 40.1362 35.4357 40.1745 35.4551C40.2324 35.5127 40.2707 35.551 40.2707 35.6089C40.2707 35.6471 40.2707 35.705 40.2707 35.7433C40.2324 35.8203 40.1745 35.8588 40.0977 35.8971C40.0016 35.9164 39.9055 35.8971 39.7708 35.8588C39.6555 35.8009 39.5785 35.7433 39.5209 35.6471C39.4826 35.551 39.4633 35.4357 39.5209 35.3011L39.1172 35.1666L39.2133 35.1473Z" fill="#11567C"/>
<path d="M43.7311 37.7612C43.8081 38.0112 43.981 38.2228 44.2503 38.3572C44.5193 38.511 44.7884 38.5304 45.0383 38.4534C45.2883 38.3766 45.4997 38.1843 45.6537 37.8767C45.8075 37.5692 45.8458 37.2999 45.7881 37.0308C45.7113 36.7809 45.5382 36.5695 45.2691 36.4348C45.1153 36.3578 44.9807 36.3002 44.8269 36.3002C44.7308 36.3002 44.6155 36.3002 44.5002 36.3387C44.3847 36.3772 44.2886 36.4348 44.1924 36.4925C44.0771 36.5886 43.9618 36.7424 43.8657 36.9155C43.7119 37.2037 43.6734 37.4922 43.7504 37.7421M44.2503 37.1269C44.3656 36.9155 44.5002 36.7809 44.654 36.7232C44.8078 36.6656 44.9616 36.6847 45.1153 36.7617C45.2691 36.8385 45.3653 36.9538 45.4038 37.1076C45.4421 37.2616 45.4038 37.4537 45.2883 37.6653C45.173 37.8767 45.0383 38.0112 44.8846 38.069C44.7308 38.1267 44.577 38.1073 44.4232 38.0305C44.2694 37.9535 44.1733 37.8382 44.1348 37.6653C44.0963 37.5113 44.1348 37.3192 44.2309 37.1076" fill="#11567C"/>
<path d="M47.2287 40.0088C47.3249 40.0473 47.421 40.0855 47.5172 40.0664C47.6133 40.0664 47.6903 40.0279 47.7864 39.9703C47.8632 39.9126 47.9402 39.855 47.9785 39.7588C48.0364 39.6627 48.0747 39.5474 48.0555 39.4319C48.0555 39.3166 47.9979 39.2205 47.9017 39.1243C47.9979 39.1243 48.094 39.1243 48.1901 39.0667C48.2863 39.0282 48.3439 38.9514 48.4016 38.8744C48.4401 38.7976 48.4784 38.7206 48.4784 38.6245C48.4784 38.5477 48.4784 38.4707 48.4401 38.3939C48.4016 38.3169 48.3631 38.2593 48.2863 38.2016C48.2284 38.144 48.1132 38.0863 47.9785 37.9902L47.2481 37.5671L46.1714 39.3743L46.7867 39.7397C47.0173 39.8741 47.1711 39.9511 47.2287 39.9896M47.4404 38.1055L47.6518 38.2208C47.8247 38.3169 47.9209 38.3939 47.9594 38.4131C48.017 38.4516 48.0555 38.5092 48.0555 38.5668C48.0555 38.6245 48.0555 38.6821 48.017 38.7206C47.9785 38.7783 47.9402 38.8168 47.8824 38.8361C47.8247 38.8361 47.7671 38.8361 47.6903 38.8168C47.6518 38.8168 47.5557 38.74 47.421 38.663L47.1904 38.5283L47.4404 38.1055ZM46.9982 38.8361L47.2866 39.0091C47.4595 39.1052 47.5557 39.182 47.5942 39.2205C47.6324 39.259 47.6518 39.3166 47.6518 39.3743C47.6518 39.4319 47.6518 39.4898 47.6133 39.528C47.5748 39.5859 47.5365 39.6242 47.4787 39.6435C47.421 39.6435 47.3634 39.6435 47.3057 39.6435C47.2672 39.6435 47.1904 39.5859 47.0558 39.5089L46.7097 39.3166L46.9982 38.8361Z" fill="#11567C"/>
<path d="M31.1613 32.8959C31.2959 33.0306 31.469 33.1267 31.6805 33.1843C31.8534 33.2228 32.0265 33.242 32.1995 33.2228C32.3726 33.2228 32.5264 33.1652 32.6225 33.1073L32.8531 32.2999L31.9689 32.0501L31.8728 32.3961L32.3341 32.5307L32.2571 32.7806C32.2571 32.7806 32.1033 32.8383 32.0072 32.8383C31.911 32.8383 31.8151 32.8383 31.7381 32.8191C31.5652 32.7615 31.4497 32.6653 31.3729 32.5307C31.2959 32.3769 31.2959 32.1847 31.3729 31.9347C31.4305 31.704 31.5267 31.5502 31.6805 31.4733C31.8151 31.3964 31.9689 31.3772 32.161 31.4156C32.2765 31.4541 32.3726 31.5118 32.4303 31.5887C32.4879 31.6656 32.5264 31.7617 32.5264 31.877L32.9492 31.9155C32.9492 31.7232 32.9107 31.5502 32.7955 31.3964C32.6802 31.2426 32.507 31.1465 32.2571 31.0696C32.065 31.0119 31.8919 31.0119 31.7381 31.0311C31.5458 31.0696 31.3729 31.1657 31.2383 31.3003C31.1036 31.4349 31.0075 31.6079 30.9498 31.8194C30.8922 32.0116 30.8922 32.2039 30.9113 32.3961C30.9498 32.5883 31.0268 32.7421 31.1613 32.8768" fill="#11567C"/>
<path d="M28.7759 32.108C28.9105 32.3386 29.122 32.4924 29.4295 32.5694C29.7371 32.6462 29.987 32.627 30.2178 32.4733C30.4486 32.3386 30.6024 32.108 30.6792 31.7811C30.7753 31.4543 30.7562 31.1659 30.6215 30.9353C30.4869 30.7046 30.2755 30.5507 29.987 30.4739C29.8141 30.4354 29.6603 30.4162 29.5257 30.4354C29.4104 30.4354 29.3142 30.4931 29.2181 30.5507C29.122 30.6084 29.0258 30.6853 28.949 30.7814C28.8529 30.916 28.7759 31.0698 28.7183 31.2813C28.6415 31.6081 28.6606 31.8773 28.7953 32.108M29.1413 31.3774C29.199 31.1467 29.2951 30.9737 29.4295 30.8968C29.5642 30.8007 29.718 30.7814 29.8911 30.8391C30.064 30.8776 30.1793 30.9737 30.2563 31.1275C30.3331 31.2621 30.3331 31.4543 30.2563 31.685C30.1987 31.9157 30.1025 32.0887 29.9679 32.1657C29.8332 32.2618 29.6795 32.281 29.5257 32.2425C29.3719 32.2041 29.2375 32.108 29.1605 31.9542C29.0835 31.8004 29.0835 31.6273 29.1413 31.3966" fill="#11567C"/>
<path d="M33.1229 33.6083L33.4305 33.2046L34.2379 33.4545L34.2764 33.9543L34.7186 34.0888L34.5649 31.8395L34.142 31.705L32.7192 33.4545L33.1423 33.5889L33.1229 33.6083ZM34.1803 32.2625L34.2188 33.0891L33.6804 32.9161L34.1997 32.2625H34.1803Z" fill="#11567C"/>
<path d="M37.7774 35.3193C38.0658 35.4346 38.3349 35.4346 38.5657 35.3193C38.7962 35.204 38.9885 34.9924 39.1038 34.6656C39.2193 34.3387 39.2384 34.0697 39.1232 33.8197C39.0077 33.5698 38.8156 33.3967 38.5272 33.2814C38.3734 33.2237 38.2196 33.2046 38.0658 33.2046C37.9503 33.2046 37.8542 33.2429 37.7389 33.2814C37.6236 33.339 37.5275 33.3967 37.4505 33.4737C37.3352 33.5889 37.239 33.7427 37.1623 33.935C37.0468 34.2426 37.0276 34.531 37.1429 34.7618C37.239 35.0117 37.4505 35.1846 37.7389 35.2999M37.6236 34.0888C37.7004 33.8582 37.8159 33.7236 37.9697 33.6466C38.1041 33.5698 38.2579 33.5698 38.431 33.6466C38.5848 33.7044 38.7001 33.8197 38.7577 33.9544C38.8156 34.1082 38.7962 34.2811 38.7194 34.5119C38.6424 34.7424 38.5078 34.8962 38.3734 34.9732C38.2196 35.05 38.085 35.05 37.912 34.9924C37.7389 34.9347 37.6427 34.8194 37.5851 34.6656C37.5275 34.5119 37.5466 34.3196 37.6236 34.1082" fill="#11567C"/>
<path d="M36.0467 34.5703C36.1814 34.5703 36.2967 34.5703 36.3928 34.5126C36.5081 34.455 36.6236 34.3589 36.7197 34.2434C36.7965 34.1474 36.8735 34.0128 36.9311 33.8397C36.9888 33.6476 37.0273 33.4936 37.0273 33.3398C37.0273 33.2054 37.0079 33.0707 36.9503 32.9554C36.8926 32.8399 36.8159 32.744 36.7197 32.667C36.6427 32.6094 36.5274 32.5517 36.3543 32.4941L35.6239 32.2249L34.9126 34.2051L35.6624 34.4741C35.8162 34.5318 35.9314 34.5511 36.0276 34.5511M35.9123 32.7247L36.0852 32.7823C36.239 32.8399 36.3543 32.8784 36.4122 32.9169C36.4889 32.9554 36.5274 33.0131 36.5659 33.0707C36.6042 33.1284 36.6042 33.2054 36.6042 33.3015C36.6042 33.3977 36.5659 33.5129 36.5274 33.6667C36.4698 33.8205 36.4122 33.9358 36.3543 34.0128C36.2967 34.0896 36.239 34.1474 36.1814 34.1666C36.1237 34.1857 36.0661 34.2051 35.9891 34.1857C35.9314 34.1857 35.8544 34.1666 35.7392 34.1089L35.4316 33.9934L35.9123 32.6862V32.7247Z" fill="#11567C"/>
<path d="M49.9627 41.7585L50.3664 41.4509L51.0583 41.9123L50.943 42.4121L51.3276 42.6621L51.789 40.4512L51.4237 40.2013L49.5781 41.4894L49.9433 41.7393L49.9627 41.7585ZM51.3468 40.7588L51.1545 41.5662L50.674 41.2395L51.3468 40.7588Z" fill="#11567C"/>
<path d="M48.3456 40.7009L48.8069 39.9511L48.8839 39.9894C48.8839 39.9894 49.0184 40.0855 49.0569 40.124C49.0954 40.1625 49.1145 40.201 49.1145 40.2587C49.1145 40.3163 49.1339 40.451 49.1339 40.6433V41.2007L49.5761 41.4698V40.9891C49.5761 40.797 49.5761 40.6624 49.5567 40.5663C49.5567 40.4893 49.4991 40.3933 49.4606 40.2972C49.6337 40.374 49.7875 40.3933 49.9219 40.3548C50.0566 40.3163 50.1527 40.2202 50.2488 40.0855C50.3065 39.9894 50.345 39.8741 50.345 39.7588C50.345 39.6435 50.3065 39.5474 50.2488 39.4513C50.1718 39.3743 50.0566 39.259 49.8643 39.1437L49.1145 38.6821L47.9995 40.4701L48.3647 40.7009H48.3456ZM49.2683 39.2205L49.5567 39.3936C49.7105 39.4895 49.7875 39.5474 49.826 39.5665C49.8836 39.605 49.9028 39.6627 49.9219 39.7203C49.9219 39.778 49.9219 39.8356 49.8836 39.8935C49.8451 39.9511 49.8066 39.9894 49.7681 40.0088C49.7105 40.0088 49.672 40.0279 49.6144 40.0088C49.5567 40.0088 49.4414 39.9318 49.2683 39.8356L48.9992 39.6627L49.2876 39.2013L49.2683 39.2205Z" fill="#11567C"/>
<path d="M27.5872 32.051L28.7598 30.1477L28.3176 30.0516L27.491 31.4743L27.2796 29.8401L26.8374 29.744L27.145 31.9549L27.5872 32.051Z" fill="#11567C"/>
<path d="M51.7076 42.7994C51.7461 42.9917 51.8808 43.1455 52.0922 43.2993C52.246 43.4145 52.3806 43.4722 52.5151 43.5107C52.6497 43.5492 52.765 43.53 52.8805 43.4915C52.9958 43.453 53.0919 43.376 53.1687 43.2801C53.2457 43.1646 53.2842 43.0685 53.3033 42.9532C53.3033 42.8379 53.3033 42.7418 53.2457 42.6456C53.188 42.5495 53.111 42.4148 52.9573 42.2611C52.8226 42.1073 52.7458 41.992 52.7265 41.915C52.7265 41.8573 52.7265 41.8189 52.7458 41.7806C52.7843 41.7421 52.8226 41.7227 52.8805 41.7227C52.9573 41.7227 53.0534 41.7612 53.1687 41.8382C53.2648 41.915 53.3225 41.9726 53.3418 42.0496C53.361 42.1266 53.3418 42.2034 53.3033 42.2996L53.6494 42.5303C53.7647 42.3763 53.784 42.2034 53.7455 42.0305C53.707 41.8573 53.5724 41.7036 53.361 41.5498C53.2263 41.4536 53.111 41.396 52.9764 41.3575C52.8611 41.3384 52.7458 41.3384 52.6305 41.3575C52.5344 41.396 52.4383 41.4536 52.3806 41.5498C52.2845 41.6844 52.246 41.8382 52.2845 42.0111C52.3036 42.1264 52.3998 42.2804 52.5536 42.4533C52.6688 42.588 52.7458 42.6841 52.765 42.7224C52.8035 42.7803 52.842 42.8379 52.842 42.8956C52.842 42.9341 52.842 42.9723 52.8035 43.0302C52.765 43.0878 52.6882 43.1261 52.592 43.1261C52.4959 43.1261 52.3998 43.107 52.2845 43.0108C52.1883 42.9341 52.1113 42.8571 52.0922 42.7609C52.0728 42.6648 52.0922 42.5495 52.1498 42.4148L51.7846 42.2034C51.6691 42.4148 51.6308 42.6071 51.6691 42.7803" fill="#11567C"/>
<path d="M54.3318 42.3176L53.0762 43.9954L53.4148 44.2488L54.6704 42.5712L54.3318 42.3176Z" fill="#11567C"/>
<path d="M54.9244 45.4125L55.1358 45.1241L54.2899 44.4896L55.3281 43.1055L54.9821 42.8556L53.7324 44.5281L54.9244 45.4125Z" fill="#11567C"/>
<path d="M9.62814 28.1468C9.62814 28.1468 9.4359 27.9931 9.32055 27.9546C9.22443 27.9354 9.08985 27.9161 8.91682 27.9161H8.14783L8.10938 30.0117H8.91682C9.07062 30.0117 9.2052 30.0117 9.30132 29.9924C9.4359 29.954 9.53202 29.8963 9.60891 29.8194C9.70505 29.7233 9.78194 29.6079 9.83961 29.4541C9.87806 29.3388 9.91652 29.185 9.91652 29.012C9.91652 28.8197 9.91652 28.6467 9.85884 28.5121C9.8204 28.3775 9.74349 28.2622 9.66659 28.1661M9.39744 29.358C9.39744 29.358 9.32055 29.5118 9.28209 29.5695C9.24363 29.6079 9.18597 29.6464 9.10908 29.6464C9.05139 29.6464 8.9745 29.6464 8.85915 29.6464H8.55154V28.243H8.7438C8.91682 28.243 9.03217 28.243 9.08985 28.2622C9.16674 28.2622 9.22443 28.3199 9.28209 28.3583C9.33978 28.416 9.37821 28.4737 9.39744 28.5698C9.41667 28.6467 9.4359 28.7813 9.4359 28.9351C9.4359 29.0889 9.4359 29.2234 9.37821 29.3196" fill="#11567C"/>
<path d="M12.6696 28.4364L12.9964 30.109L13.4193 30.1282L13.9 28.4941L13.8231 30.1474L14.2268 30.1667L14.3229 28.0712L13.6885 28.0327L13.2463 29.4361L12.9387 27.9943L12.3043 27.9558L12.189 30.0705L12.5927 30.0898L12.6696 28.4364Z" fill="#11567C"/>
<path d="M28.5499 11.0001C17.1687 11.0001 7.34474 17.6712 2.75 27.3221C22.1094 25.4765 38.8928 29.0907 56.9066 42.9326C57.041 41.8176 57.118 40.7026 57.118 39.5491C57.118 23.7847 44.3335 11.0001 28.5499 11.0001ZM38.3161 30.9363L37.3356 30.4365L36.3744 30.9555L36.5473 29.8597L35.7592 29.0907L36.8548 28.9177L37.3356 27.918L37.8354 28.8985L38.9313 29.0523L38.143 29.8213L38.3353 30.8979L38.3161 30.9363Z" fill="#11567C"/>
<path d="M1.17272 31.4938C0.422947 34.0507 0 36.7614 0 39.5683C0 55.3327 12.7846 68.1172 28.549 68.1172C41.6219 68.1172 52.6184 59.3313 56.0213 47.3542C40.3338 34.5121 21.3973 28.7446 1.17272 31.4938ZM4.8639 34.2045L5.36375 33.224L5.84437 34.2237L6.94018 34.3775L6.15196 35.1466L6.3442 36.2422L5.36375 35.7232L4.38328 36.2231L4.57552 35.1466L3.7873 34.3775L4.88313 34.2237L4.8639 34.2045ZM5.59445 50.2766L4.78701 49.8729L3.99877 50.2957L4.13335 49.4113L3.47971 48.7962L4.36405 48.6615L4.74855 47.8541L5.15226 48.6615L6.03661 48.777L5.40219 49.4113L5.55599 50.2957L5.59445 50.2766ZM8.6512 47.9887L7.72841 47.508L6.8056 48.0079L6.97863 46.989L6.22886 46.2778L7.26702 46.124L7.70918 45.1819L8.17058 46.1046L9.20872 46.2393L8.47817 46.9699L8.67043 47.9887H8.6512ZM29.2026 62.7535L28.7796 62.5419L28.3567 62.7727L28.4143 62.292L28.0683 61.9652L28.5296 61.8882L28.7219 61.4462L28.9527 61.8691L29.4334 61.9267L29.1065 62.2728L29.2026 62.7342V62.7535ZM29.5872 54.1408L28.6643 53.66L27.7416 54.1599L27.9145 53.1217L27.1647 52.3913L28.2029 52.2375L28.6643 51.2954L29.1256 52.2375L30.1638 52.3719L29.414 53.1025L29.6063 54.1408H29.5872ZM43.5443 62.5227L42.8715 62.196L42.2179 62.5612L42.3332 61.8306L41.7948 61.3116L42.5255 61.1963L42.8331 60.5233L43.1791 61.1963L43.9289 61.2922L43.4097 61.8306L43.5443 62.5612V62.5227ZM49.0042 55.698L48.2544 55.2942L47.4855 55.6786L47.6393 54.8329L47.0433 54.2369L47.8892 54.1214L48.2738 53.3525L48.639 54.1214L49.4849 54.256L48.8696 54.852L49.0042 55.698ZM52.3685 49.3922L52.6761 48.7385L53.003 49.373L53.7337 49.4689L53.2144 49.9882L53.3491 50.6994L52.6954 50.3727L52.061 50.7186L52.1762 50.0073L51.6381 49.5074L52.3494 49.3922H52.3685ZM50.8307 52.0067L50.2347 52.5836L50.3691 53.4101L49.6387 53.0064L48.8889 53.391L49.0427 52.5836L48.4658 51.9876L49.2926 51.8914L49.6772 51.1608L50.0233 51.9106L50.8498 52.0452L50.8307 52.0067ZM48.043 48.9115L48.4852 47.9696L48.9657 48.8923L50.0039 49.0269L49.2735 49.7574L49.4655 50.7764L48.5428 50.2957L47.6201 50.7956L47.7739 49.7574L47.0242 49.0461L48.043 48.8732V48.9115ZM45.313 55.4095L45.6014 54.775L45.9283 55.3904L46.6204 55.4672L46.1206 55.967L46.255 56.6592L45.6207 56.3516L45.0054 56.6977L45.1015 56.0055L44.5825 55.5248L45.2747 55.4095H45.313ZM42.487 55.4095L42.8139 54.7367L43.1406 55.4095L43.8713 55.5248L43.3329 56.044L43.4482 56.7744L42.7946 56.4284L42.1409 56.7744L42.2756 56.044L41.7563 55.5248L42.487 55.4287V55.4095ZM42.5255 58.0434L42.9292 57.236L43.3138 58.0434L44.198 58.1779L43.5443 58.7932L43.679 59.6774L42.8907 59.2546L42.0833 59.6583L42.2562 58.7738L41.6219 58.1396L42.5061 58.0241L42.5255 58.0434ZM39.1418 56.044L39.4687 55.371L39.7954 56.044L40.5261 56.1402L40.0071 56.6592L40.1415 57.3898L39.4879 57.0437L38.8342 57.3898L38.9495 56.6592L38.4114 56.1402L39.1418 56.0247V56.044ZM36.8542 57.9856L37.2385 58.7353L38.0845 58.8315L37.4885 59.4275L37.6422 60.2543L36.8733 59.8697L36.1236 60.2734L36.2582 59.4275L35.6428 58.8508L36.4888 58.7162L36.8542 57.9473V57.9856ZM34.9316 37.3189L35.2776 36.6268L35.6237 37.3189L36.3926 37.4342L35.8351 37.9726L35.9698 38.7415L35.2776 38.3763L34.5855 38.7415L34.7201 37.9726L34.1626 37.4342L34.9316 37.3189ZM34.2011 55.3134L34.5279 54.6406L34.8548 55.3134L35.5852 55.4287L35.0471 55.9479L35.1623 56.6783L34.5087 56.3322L33.8551 56.6783L33.9895 55.9479L33.4705 55.4287L34.2011 55.3327V55.3134ZM31.3943 45.6241L31.798 46.4315L32.7016 46.5468L32.048 47.1813L32.2209 48.0849L31.4135 47.6618L30.606 48.104L30.7598 47.2005L30.1062 46.5662L31.0097 46.4315L31.4135 45.6048L31.3943 45.6241ZM28.4143 44.0093L28.7989 43.2017L29.2026 44.0093L30.1062 44.1246L29.4717 44.7589L29.6448 45.6433L28.8374 45.2396L28.0491 45.6626L28.1838 44.7782L27.5301 44.1631L28.4143 44.0284V44.0093ZM26.7225 48.5271L26.9724 48.0464L27.2032 48.5462L27.7416 48.6232L27.3379 48.9884L27.4146 49.5268L26.9341 49.2575L26.4534 49.5074L26.5496 48.9691L26.165 48.5847L26.7034 48.5077L26.7225 48.5271ZM24.5117 46.8353L24.8577 46.1431L25.2038 46.8353L25.9727 46.9505L25.4152 47.4889L25.5499 48.2578L24.8577 47.8926L24.1656 48.2578L24.3002 47.4889L23.7428 46.9505L24.5117 46.8353ZM17.0525 40.2028L17.437 39.376L17.8599 40.1834L18.7635 40.2795L18.1291 40.9332L18.3021 41.8176L17.4754 41.4139L16.6872 41.8561L16.8218 40.9523L16.1489 40.3372L17.0525 40.1834V40.2028ZM16.1681 54.7559L16.6103 53.8523L17.0717 54.7559L18.0714 54.8905L17.3601 55.6018L17.5331 56.6015L16.6295 56.1402L15.7452 56.6207L15.899 55.621L15.1684 54.9288L16.1681 54.775V54.7559ZM13.0729 48.8923L13.4382 48.104L13.8227 48.8732L14.6878 48.9884L14.0726 49.6036L14.2264 50.4495L13.4574 50.0649L12.6884 50.488L12.823 49.6421L12.1886 49.0461L13.0345 48.9115L13.0729 48.8923ZM12.1309 51.9299L12.4577 51.2569L12.7846 51.9299L13.5343 52.0452L12.996 52.5642L13.1306 53.314L12.4577 52.9679L11.7848 53.314L11.9194 52.5642L11.3811 52.0452L12.1309 51.9299ZM11.1504 44.6051L10.7467 44.9896L10.8428 45.5471L10.343 45.2781L9.84315 45.528L9.93927 44.9705L9.53553 44.5859L10.0931 44.5089L10.343 44.0093L10.5929 44.5089L11.1504 44.5859V44.6051Z" fill="#11567C"/>
<path d="M16.6268 30.2823C16.7614 30.2439 16.8575 30.2054 16.9344 30.1285C17.0305 30.0324 17.1267 29.9171 17.1844 29.7825C17.242 29.6671 17.2612 29.5133 17.2805 29.3403C17.2805 29.1481 17.2805 28.975 17.242 28.8405C17.2036 28.7059 17.1459 28.5905 17.069 28.4944C16.9921 28.3983 16.8767 28.3214 16.7614 28.283C16.6653 28.2445 16.5307 28.2253 16.3577 28.2253L15.5887 28.1676L15.4541 30.2631L16.2423 30.3208C16.3961 30.3208 16.5307 30.3208 16.6268 30.3016M15.8963 29.9363L15.9924 28.5521H16.1847C16.3577 28.5713 16.473 28.5905 16.5307 28.6098C16.6076 28.629 16.6653 28.6675 16.723 28.7251C16.7806 28.7828 16.7999 28.8405 16.8383 28.9366C16.8575 29.0327 16.8767 29.1481 16.8383 29.3019C16.8383 29.4557 16.7999 29.5902 16.7614 29.6864C16.723 29.7825 16.6845 29.8402 16.646 29.8786C16.5884 29.9171 16.5307 29.9363 16.473 29.9555C16.4153 29.9555 16.3385 29.9555 16.2231 29.9555H15.9155L15.8963 29.9363Z" fill="#11567C"/>
<path d="M4.55321 27.9948C4.3802 27.9948 4.22639 28.0332 4.11104 28.0909C4.01492 28.1293 3.9188 28.2062 3.84189 28.2831C3.76499 28.3792 3.70733 28.4754 3.64965 28.5715C3.59198 28.7253 3.57275 28.8983 3.57275 29.1098C3.57275 29.4366 3.6881 29.7058 3.88034 29.8788C4.07261 30.0518 4.32251 30.1479 4.63012 30.1287C4.93771 30.1287 5.18764 30.0134 5.36067 29.8211C5.53368 29.6289 5.6106 29.3597 5.6106 29.0137C5.6106 28.6676 5.49523 28.3985 5.30299 28.2254C5.11074 28.0332 4.86082 27.9563 4.55321 27.9755M5.05306 29.6096C4.95694 29.7442 4.82236 29.8019 4.64935 29.8019C4.47632 29.8019 4.34174 29.7442 4.22639 29.6289C4.11104 29.5135 4.05338 29.3405 4.03415 29.0906C4.03415 28.8599 4.07261 28.6676 4.16873 28.5523C4.26485 28.4369 4.39942 28.36 4.59166 28.36C4.7647 28.36 4.89928 28.3985 5.01462 28.5138C5.12997 28.6292 5.18764 28.8022 5.18764 29.0521C5.18764 29.302 5.14918 29.4751 5.05306 29.6096Z" fill="#11567C"/>
<path d="M7.37967 29.2633C7.37967 29.2633 7.2451 29.148 7.14898 29.0903C7.34122 29.0518 7.47579 28.9942 7.55271 28.8788C7.64883 28.7827 7.68728 28.6481 7.68728 28.4751C7.68728 28.3597 7.64883 28.2444 7.59114 28.1483C7.53348 28.0522 7.43736 27.9945 7.34122 27.956C7.2451 27.9176 7.07208 27.8983 6.84139 27.9176H5.95703L5.99549 30.0323H6.41843V29.148H6.49534C6.59146 29.148 6.66835 29.148 6.70681 29.148C6.74524 29.148 6.80293 29.1864 6.84139 29.2249C6.87982 29.2633 6.95674 29.3594 7.07208 29.5325L7.37967 29.9746H7.87953L7.61037 29.5517C7.49502 29.3979 7.41813 29.2826 7.36045 29.2249M6.70681 28.8212H6.3992V28.3021H6.72604C6.89905 28.3021 6.99517 28.3021 7.03363 28.3021C7.11052 28.3021 7.14898 28.3405 7.18743 28.379C7.22587 28.4174 7.2451 28.4751 7.2451 28.552C7.2451 28.6097 7.2451 28.6674 7.20666 28.7058C7.1682 28.7442 7.12975 28.7827 7.09131 28.8019C7.03363 28.8019 6.91828 28.8211 6.70681 28.8404" fill="#11567C"/>
<path d="M11.8211 28.3029V27.9569L10.2638 27.9376L10.2446 30.0331L11.8403 30.0524V29.7063L10.6676 29.6871L10.6868 29.1103L11.7249 29.1296L11.7442 28.7643H10.6868V28.2837L11.8211 28.3029Z" fill="#11567C"/>
<path d="M18.4721 30.5519C18.7796 30.5711 19.0296 30.4943 19.241 30.3212C19.4333 30.1482 19.5486 29.8983 19.5871 29.5522C19.6063 29.2062 19.5486 28.937 19.3756 28.7256C19.2026 28.5141 18.9719 28.3987 18.6643 28.3795C18.4913 28.3795 18.3375 28.3795 18.2029 28.418C18.1068 28.4564 18.0107 28.5141 17.9145 28.591C17.8184 28.6679 17.7607 28.764 17.703 28.8601C17.6262 28.9947 17.5877 29.1677 17.5685 29.3792C17.5493 29.706 17.6069 29.9752 17.78 30.1867C17.953 30.3981 18.1837 30.5135 18.4913 30.5327M17.9722 29.4177C17.9914 29.1677 18.0683 28.9947 18.1837 28.8986C18.299 28.7832 18.4528 28.7448 18.6258 28.764C18.7989 28.764 18.9334 28.8409 19.0296 28.9755C19.1257 29.1101 19.1641 29.2831 19.1449 29.533C19.1257 29.7829 19.0488 29.956 18.9334 30.0713C18.8181 30.1867 18.6643 30.2251 18.5105 30.2251C18.3375 30.2251 18.2029 30.129 18.1068 30.0136C18.0107 29.8791 17.9722 29.706 17.9914 29.4561" fill="#11567C"/>
<path d="M20.9341 30.4156C20.9341 30.4156 20.7611 30.4732 20.6265 30.454C20.4919 30.454 20.3958 30.3963 20.3381 30.3194C20.2612 30.2425 20.242 30.1272 20.2228 29.9926H19.7998C19.7998 30.2041 19.8575 30.3963 19.9728 30.5501C20.1074 30.6847 20.2997 30.7808 20.5496 30.8193C20.7226 30.8385 20.8956 30.8193 21.011 30.8193C21.1456 30.7808 21.2417 30.7231 21.3185 30.627C21.3955 30.5309 21.4532 30.4156 21.4532 30.3002C21.4532 30.1656 21.4532 30.0503 21.4147 29.9541C21.3762 29.858 21.2994 29.7811 21.2224 29.7042C21.1263 29.6466 20.9918 29.5697 20.7803 29.4927C20.588 29.4159 20.4535 29.3582 20.415 29.3005C20.3765 29.262 20.3573 29.2236 20.3766 29.1659C20.3766 29.1083 20.415 29.0698 20.4535 29.0506C20.5304 29.0121 20.6265 28.9929 20.7418 29.0121C20.8572 29.0121 20.9533 29.0698 20.9917 29.1275C21.0494 29.1852 21.0687 29.262 21.0687 29.3774L21.4917 29.4159C21.5108 29.2236 21.4723 29.0698 21.357 28.9352C21.2417 28.8007 21.0494 28.7238 20.7803 28.6853C20.6265 28.6661 20.4727 28.6853 20.3573 28.6853C20.242 28.7238 20.1459 28.7814 20.069 28.8583C19.9921 28.9352 19.9536 29.0313 19.9344 29.1467C19.9152 29.3197 19.9536 29.4543 20.069 29.5889C20.1459 29.685 20.2997 29.7811 20.5111 29.858C20.6842 29.9349 20.7995 29.9734 20.838 29.9926C20.9149 30.0311 20.9533 30.0695 20.9725 30.1079C20.9917 30.1464 21.011 30.1849 20.9917 30.2425C20.9917 30.3194 20.9341 30.3771 20.8572 30.4348" fill="#11567C"/>
<path d="M25.6974 31.6096C25.8319 31.6096 25.928 31.5519 26.0241 31.4943C26.1394 31.4174 26.2356 31.3212 26.3126 31.1674C26.3894 31.0521 26.4279 30.9175 26.4664 30.7445C26.5049 30.5523 26.5049 30.3792 26.4855 30.2446C26.4664 30.1101 26.4279 29.9755 26.3511 29.8794C26.2741 29.764 26.1973 29.6871 26.0818 29.6294C26.005 29.591 25.8704 29.5525 25.6974 29.5141L24.9283 29.3795L24.5439 31.4366L25.332 31.5904C25.4858 31.6288 25.6204 31.6288 25.7166 31.6096M25.2744 29.8025L25.4667 29.8409C25.6396 29.8794 25.7551 29.8986 25.8127 29.9178C25.8895 29.9563 25.9474 29.9947 25.9856 30.0524C26.0241 30.1101 26.0626 30.187 26.0626 30.2831C26.0626 30.3792 26.0626 30.4946 26.0435 30.6484C26.005 30.8022 25.9665 30.9367 25.928 31.0136C25.8895 31.0905 25.8319 31.1674 25.7742 31.1867C25.7166 31.2251 25.6589 31.2443 25.5819 31.2443C25.5243 31.2443 25.4475 31.2443 25.332 31.2251L25.0244 31.1674L25.2937 29.8025H25.2744Z" fill="#11567C"/>
<path d="M22.9348 30.6664L23.7616 30.8009L23.8769 31.3008L24.3382 31.3777L23.8192 29.1668L23.377 29.1091L22.2427 31.0509L22.6849 31.1277L22.9348 30.6856V30.6664ZM23.5117 29.609L23.6846 30.4164L23.1271 30.3203L23.5308 29.5898L23.5117 29.609Z" fill="#11567C"/>
<path d="M127.822 35.4717C127.822 35.4717 131.417 31.6075 131.417 26.0323C131.417 15.7662 120.689 11.1138 120.689 11.1138H100.311V68.2309H127.283C127.283 68.2309 140.914 63.9054 140.914 51.7551C140.914 39.6051 127.802 35.4717 127.802 35.4717" fill="#11567C"/>
<path d="M50.3506 68.2309H98.7203L74.5355 11.1138L50.3506 68.2309Z" fill="#11567C"/>
<path d="M154.95 42.4508H154.027V67.1548H154.95V42.4508Z" fill="#E4051F"/>
<path d="M186.829 64.2536C186.156 64.7534 185.445 65.1957 184.676 65.5609C183.907 65.9261 183.08 66.1954 182.215 66.4068C181.331 66.6182 180.351 66.7144 179.274 66.7144C177.563 66.7144 175.986 66.4068 174.545 65.7723C173.103 65.1378 171.853 64.2727 170.796 63.1963C169.738 62.1195 168.912 60.8123 168.316 59.3321C167.72 57.8517 167.412 56.256 167.412 54.545C167.412 52.834 167.72 51.2768 168.316 49.7964C168.912 48.3162 169.738 47.0089 170.796 45.8937C171.853 44.7787 173.122 43.8943 174.583 43.26C176.044 42.6255 177.64 42.2988 179.37 42.2988C180.447 42.2988 181.427 42.3948 182.292 42.5679C183.157 42.7408 183.965 43.0101 184.695 43.3368C185.445 43.6637 186.118 44.0481 186.752 44.5097C187.387 44.971 187.983 45.49 188.579 46.0475L186.752 48.0086C185.733 47.0666 184.657 46.2783 183.503 45.6823C182.35 45.0672 180.946 44.7787 179.332 44.7787C178.024 44.7787 176.813 45.0287 175.698 45.5285C174.583 46.0284 173.622 46.7205 172.795 47.5856C171.968 48.47 171.334 49.4888 170.873 50.6808C170.411 51.8728 170.181 53.1416 170.181 54.5065C170.181 55.8714 170.411 57.1595 170.873 58.3515C171.334 59.5435 171.968 60.5815 172.795 61.4659C173.622 62.3503 174.583 63.0425 175.698 63.5423C176.813 64.0422 178.024 64.2921 179.332 64.2921C180.946 64.2921 182.35 64.0037 183.523 63.4077C184.695 62.8117 185.849 61.9658 186.964 60.8893L188.713 62.6194C188.098 63.2539 187.464 63.8114 186.81 64.3304L186.829 64.2536Z" fill="#00577F"/>
<path d="M215.613 66.2909H212.75L209.981 60.0427H197.119L194.313 66.2909H191.583L202.348 42.4905H204.848L215.613 66.2909ZM203.56 45.624L198.157 57.6781H208.923L203.56 45.624Z" fill="#00577F"/>
<path d="M243.182 66.2909H240.319L237.549 60.0427H224.687L221.882 66.2909H219.15L229.917 42.4905H232.417L243.182 66.2909ZM231.128 45.624L225.725 57.6781H236.492L231.128 45.624Z" fill="#00577F"/>
<path d="M265.419 54.5053C264.919 55.5435 264.247 56.4085 263.381 57.1007C262.517 57.7926 261.498 58.3118 260.343 58.677C259.191 59.0422 257.94 59.196 256.615 59.196H252.673V66.2901H247.483V42.6626H257.134C258.557 42.6626 259.824 42.8549 260.939 43.2586C262.056 43.6623 262.998 44.2007 263.766 44.9313C264.536 45.6426 265.131 46.5076 265.555 47.5073C265.976 48.507 266.169 49.622 266.169 50.8334V50.9102C266.169 52.2751 265.918 53.4862 265.419 54.5244V54.5053ZM260.901 50.9293C260.901 49.7567 260.518 48.8722 259.767 48.2571C259.018 47.642 257.98 47.3535 256.672 47.3535H252.654V54.582H256.768C258.076 54.582 259.095 54.236 259.805 53.5441C260.537 52.8519 260.882 52.006 260.882 50.9872V50.9102L260.901 50.9293Z" fill="#00577F"/>
<path d="M270.263 66.2901V42.6626H275.455V66.2901H270.263Z" fill="#00577F"/>
</g>
<text opacity="0.2" fill="#212121" style="white-space: pre" xml:space="preserve" font-family="Poppins" font-size="66.0714" letter-spacing="0em"><tspan x="318" y="72.625">+</tspan></text>
<path d="M411.364 75.572C411.895 75.5929 412.424 75.4943 412.912 75.2836C413.399 75.0729 413.834 74.7554 414.183 74.3545C414.894 73.5399 415.25 72.2943 415.25 70.6178V32.0163H425.851L426.001 70.9177C426.048 75.2443 424.877 78.6437 422.489 81.1442C420.101 83.6353 416.973 84.8809 413.106 84.8809C411.031 84.8759 408.97 84.5407 407 83.8878L409.06 75.113C409.792 75.4115 410.574 75.5673 411.364 75.572ZM426.085 15.0002V25.4514H415.1V15.0002H426.085Z" fill="#212121"/>
<path d="M544.595 34.2861L536.926 57.2965L529.256 34.2861H522.991V45.0463L532.28 67.9247C531.25 71.0151 529.405 72.5696 526.764 72.5696C525.973 72.5754 525.183 72.4842 524.414 72.2981L522.663 80.3049C524.948 80.8387 526.808 81.1072 528.244 81.1104C530.964 81.1679 533.602 80.179 535.614 78.3478C537.656 76.513 539.507 73.4413 541.168 69.1328L554.56 34.2861H544.595Z" fill="#02A378"/>
<path d="M439.896 32.0186V54.9813C439.896 57.6223 440.476 59.5888 441.656 60.8531C442.827 62.1266 444.684 62.7634 447.228 62.7634C449.776 62.7634 451.633 62.1266 452.801 60.8531C453.971 59.5795 454.555 57.6223 454.552 54.9813V43.0503L465.153 32.4493V55.8895C465.153 61.0309 463.589 64.9454 460.461 67.6331C457.332 70.3302 452.946 71.6787 447.303 71.6787C441.712 71.6787 437.414 70.3551 434.408 67.708C431.402 65.0672 429.9 61.1246 429.903 55.8802V31.9999H439.896V32.0186Z" fill="#212121"/>
<path d="M495.826 53.0658C494.76 51.5375 493.314 50.314 491.63 49.5167C489.59 48.6017 487.471 47.8745 485.3 47.3442C482.809 46.6793 481.054 46.03 480.036 45.3964C479.56 45.1267 479.166 44.7321 478.897 44.2552C478.628 43.7784 478.494 43.2372 478.51 42.6899C478.506 42.2197 478.628 41.757 478.861 41.349C479.095 40.941 479.433 40.6022 479.84 40.3673C480.86 39.7489 482.038 39.4431 483.23 39.4877C485.112 39.5017 486.985 39.7567 488.802 40.2464C489.298 40.3775 489.776 40.5179 490.254 40.6677V38.3537L483.136 31.2363C478.501 31.2552 474.755 32.3478 471.898 34.514C469.023 36.7052 467.59 39.749 467.59 43.6727C467.59 49.6757 471.099 53.5902 478.117 55.4162C480.917 56.1749 482.949 56.8678 484.223 57.4764C485.496 58.085 486.133 58.9748 486.133 60.1454C486.133 61.1101 485.627 61.8966 484.607 62.5148C483.585 63.1234 482.143 63.4327 480.261 63.4327C478.377 63.4146 476.503 63.1469 474.689 62.6366C472.817 62.1244 471.003 61.4215 469.275 60.539L466.458 68.2462C468.65 69.2863 470.936 70.1172 473.285 70.7279C475.559 71.3459 477.904 71.667 480.261 71.6832C485.347 71.6832 489.492 70.6157 492.698 68.4805C495.901 66.3454 497.502 63.2675 497.502 59.2469C497.502 56.6994 496.943 54.639 495.826 53.0658Z" fill="#212121"/>
<path d="M511.792 31.7316C511.792 29.9442 512.176 28.6225 512.953 27.7796C513.326 27.3646 513.785 27.0357 514.297 26.8157C514.81 26.5957 515.364 26.4898 515.922 26.5054C516.244 26.5089 516.566 26.5307 516.886 26.5709V24.2772L511.352 18.7426C508.842 19.2201 506.791 20.166 505.218 21.6082C502.877 23.7621 501.703 27.1334 501.697 31.7223V34.3363H496.115V42.3888H501.622V70.5301H511.698V42.3981H519.968V34.3445H511.774V31.7316H511.792Z" fill="#02A378"/>
</svg>
