<svg width="743" height="133" viewBox="0 0 743 133" fill="none" xmlns="http://www.w3.org/2000/svg">
<text opacity="0.2" fill="#212121" style="white-space: pre" xml:space="preserve" font-family="Poppins" font-size="66.0714" letter-spacing="0em"><tspan x="556" y="97.625">+</tspan></text>
<path d="M404.07 63.0696H403.196V84.5012H404.07V63.0696Z" fill="#B02625"/>
<path d="M425.51 86.0305C419.345 86.0305 414.797 81.1785 414.797 75.0131C414.797 68.8477 419.312 63.9351 425.599 63.9351C429.474 63.9351 431.793 65.3093 433.929 67.3239L432.279 69.0955C430.479 67.3847 428.465 66.1647 425.566 66.1647C420.836 66.1647 417.298 69.9789 417.298 74.9524C417.298 79.9258 420.869 83.8008 425.566 83.8008C428.497 83.8008 430.418 82.6696 432.461 80.7205L434.046 82.277C431.816 84.5347 429.376 86.0305 425.501 86.0305" fill="#005894"/>
<path d="M458.16 85.6613H455.566L453.065 80.0147H441.44L438.907 85.6613H436.434L446.166 64.1455H448.424L458.16 85.6613ZM447.264 66.9548L442.38 77.8506H452.116L447.264 66.9548Z" fill="#005894"/>
<path d="M482.116 85.6613H479.522L477.021 80.0147H465.396L462.863 85.6613H460.39L470.122 64.1455H472.38L482.116 85.6613ZM471.22 66.9548L466.336 77.8506H476.072L471.22 66.9548Z" fill="#005894"/>
<path d="M498.841 85.6613L494.264 78.8275H490.572V85.6613H485.874V64.2998H495.639C500.673 64.2998 503.697 66.9548 503.697 71.3486V71.4094C503.697 74.859 501.837 77.0232 499.121 78.0329L504.338 85.6613H498.845H498.841ZM498.929 71.5964C498.929 69.5818 497.527 68.5441 495.237 68.5441H490.567V74.6767H495.325C497.616 74.6767 498.925 73.4568 498.925 71.6572V71.5964H498.929Z" fill="#005894"/>
<path d="M515.533 85.9697C512.298 85.9697 509.031 84.8385 506.469 82.5528L509.246 79.2247C511.167 80.814 513.182 81.8189 515.621 81.8189C517.543 81.8189 518.702 81.057 518.702 79.8043V79.7436C518.702 78.5516 517.968 77.944 514.397 77.0278C510.092 75.9293 507.315 74.7374 507.315 70.4978V70.437C507.315 66.562 510.428 63.9958 514.794 63.9958C517.907 63.9958 520.562 64.9728 522.726 66.7116L520.286 70.2501C518.393 68.9366 516.533 68.1466 514.733 68.1466C512.934 68.1466 511.985 68.9693 511.985 70.007V70.0678C511.985 71.47 512.901 71.9281 516.594 72.877C520.927 74.0082 523.367 75.5647 523.367 79.2855V79.3462C523.367 83.5858 520.132 85.9697 515.523 85.9697" fill="#005894"/>
<mask id="mask0_41_621" style="mask-type:luminance" maskUnits="userSpaceOnUse" x="273" y="36" width="49" height="49">
<path d="M273.824 60.3909C273.824 73.6613 284.584 84.4215 297.855 84.4215C311.125 84.4215 321.885 73.6613 321.885 60.3909C321.885 47.1206 311.125 36.3604 297.855 36.3604C284.584 36.3604 273.824 47.1206 273.824 60.3909Z" fill="white"/>
</mask>
<g mask="url(#mask0_41_621)">
<path d="M289.015 14.0333L251.489 69.2517L306.707 106.778L344.234 51.5597L289.015 14.0333Z" fill="url(#paint0_radial_41_621)"/>
</g>
<path d="M282.753 64.5701L282.552 64.1448L282.341 64.5655L281.879 64.6262L282.21 64.9581L282.126 65.4209L282.542 65.2058L282.954 65.4302L282.879 64.9675L283.22 64.6449L282.757 64.5748L282.753 64.5701ZM285.468 68.2301L285.137 67.5804L284.823 68.2395L284.104 68.3516L284.632 68.8518L284.52 69.5716L285.16 69.2257L285.81 69.5576L285.674 68.8425L286.188 68.3283L285.464 68.2348L285.468 68.2301ZM284.585 70.801L284.304 70.2307L284.024 70.801L283.398 70.8945L283.851 71.3385L283.744 71.9649L284.304 71.6704L284.865 71.9649L284.758 71.3385L285.211 70.8945L284.585 70.8057V70.801ZM295.032 66.5193L294.742 65.935L294.457 66.5193L293.812 66.6128L294.279 67.0662L294.172 67.7066L294.747 67.4028L295.322 67.7066L295.21 67.0662L295.677 66.6128L295.032 66.5193ZM288.857 60.9148L288.497 60.2371L288.18 60.9335L287.422 61.0644L287.988 61.5833L287.88 62.3405L288.549 61.9619L289.236 62.2984L289.082 61.5459L289.615 60.9943L288.853 60.9102L288.857 60.9148ZM288.184 73.1755L287.801 72.4183L287.432 73.1849L286.59 73.3158L287.203 73.9047L287.067 74.7461L287.815 74.3441L288.572 74.7321L288.418 73.8954L289.021 73.2971L288.18 73.1849L288.184 73.1755ZM297.411 65.5284L298.08 65.1638L298.757 65.5097L298.617 64.7618L299.155 64.2242L298.402 64.1261L298.056 63.4483L297.729 64.1354L296.977 64.2523L297.528 64.7758L297.411 65.5284ZM302.922 59.7042L303.502 59.4004L304.081 59.7042L303.969 59.0591L304.441 58.6011L303.792 58.5076L303.502 57.9186L303.212 58.5076L302.562 58.6011L303.03 59.0591L302.918 59.7042H302.922ZM280.701 65.8976L280.308 65.117L279.929 65.907L279.065 66.0425L279.696 66.6502L279.555 67.515L280.327 67.0989L281.107 67.5009L280.948 66.6362L281.57 66.0192L280.701 65.9023V65.8976ZM309.293 74.8629L309.85 74.5731L310.401 74.8676L310.298 74.2506L310.747 73.8159L310.13 73.7224L309.859 73.1615L309.578 73.7177L308.961 73.8019L309.405 74.2413L309.298 74.8536L309.293 74.8629ZM296.827 68.3423L297.159 68.0291L296.705 67.959L296.509 67.543L296.299 67.9497L295.845 68.0104L296.168 68.3376L296.084 68.7864L296.49 68.576L296.892 68.7957L296.822 68.3423H296.827ZM278.186 68.0385L277.845 67.3654L277.517 68.0478L276.77 68.1647L277.316 68.6882L277.195 69.4361L277.859 69.0762L278.532 69.4221L278.396 68.6788L278.934 68.146L278.186 68.0478V68.0385ZM277.499 57.5821L278.321 57.152L279.139 57.5867L278.985 56.6753L279.654 56.0302L278.737 55.8946L278.331 55.0626L277.919 55.8946L277.003 56.0208L277.662 56.6706L277.503 57.5821H277.499ZM309.948 75.279L309.606 75.9521L308.859 76.0502L309.391 76.5831L309.256 77.3263L309.929 76.9851L310.593 77.345L310.471 76.5971L311.018 76.0783L310.27 75.9614L309.948 75.279ZM313.888 69.8708L314.659 69.4501L315.44 69.8474L315.276 68.9827L315.898 68.361L315.029 68.2488L314.631 67.4682L314.253 68.2628L313.388 68.3984L314.024 69.0014L313.888 69.8708ZM312.477 73.7224L312.205 73.1989L311.953 73.7364L311.369 73.8346L311.799 74.2413L311.71 74.8256L312.229 74.5404L312.757 74.8069L312.645 74.2272L313.061 73.8066L312.472 73.7318L312.477 73.7224ZM314.758 72.652L314.449 72.0023L314.122 72.6473L313.407 72.7408L313.916 73.2503L313.785 73.9608L314.43 73.6336L315.066 73.9748L314.949 73.2643L315.473 72.7689L314.758 72.6567V72.652ZM298.197 79.1773L298.01 78.8221L297.841 79.1867L297.444 79.2568L297.738 79.5279L297.682 79.9252L298.033 79.7289L298.393 79.9065L298.313 79.5139L298.594 79.2241L298.197 79.1773ZM310.172 78.5697L309.882 78.0088L309.616 78.579L308.994 78.6819L309.452 79.1119L309.359 79.7336L309.91 79.4297L310.471 79.7102L310.354 79.0932L310.794 78.6445L310.172 78.5697ZM319.039 68.7303L318.432 68.6555L318.151 68.1133L317.894 68.6648L317.291 68.7677L317.74 69.1837L317.651 69.7867L318.184 69.4875L318.731 69.7586L318.614 69.1603L319.044 68.7256L319.039 68.7303ZM315.917 70.7542L315.618 70.1232L315.3 70.7449L314.608 70.8337L315.099 71.3292L314.968 72.0163L315.594 71.7031L316.207 72.0397L316.099 71.3479L316.609 70.8664L315.917 70.7542ZM307.307 74.2553L307.026 73.6944L306.755 74.26L306.138 74.3535L306.592 74.7882L306.493 75.4052L307.045 75.106L307.601 75.3911L307.489 74.7741L307.933 74.3348L307.311 74.2506L307.307 74.2553ZM300.59 66.1828L300.244 65.4957L299.912 66.1875L299.155 66.3043L299.706 66.8325L299.585 67.5897L300.263 67.2251L300.945 67.5757L300.809 66.8232L301.352 66.2809L300.59 66.1781V66.1828ZM298.318 71.0627L297.921 70.2775L297.537 71.0721L296.668 71.2076L297.304 71.8153L297.163 72.6847L297.939 72.2687L298.725 72.6707L298.566 71.806L299.192 71.1843L298.318 71.0674V71.0627ZM303.161 73.6523L302.885 73.0914L302.609 73.6523L301.992 73.7411L302.436 74.1758L302.329 74.7882L302.88 74.4984L303.432 74.7882L303.324 74.1711L303.773 73.7364L303.156 73.6476L303.161 73.6523ZM305.161 76.527L304.834 75.8913L304.53 76.541L303.824 76.6579L304.348 77.1487L304.24 77.8545L304.867 77.5086L305.507 77.8265L305.372 77.1253L305.872 76.6158L305.161 76.527ZM306.559 51.5756L305.643 51.4541L305.227 50.6267L304.825 51.4634L303.909 51.6036L304.577 52.244L304.427 53.1602L305.245 52.7208L306.068 53.1462L305.9 52.2347L306.559 51.5803V51.5756Z" fill="white"/>
<path fill-rule="evenodd" clip-rule="evenodd" d="M276.139 50.0987C275.606 51.2205 275.162 52.3937 274.802 53.6044C291.83 51.2953 307.76 56.1425 320.97 66.9588C321.311 65.7529 321.563 64.5142 321.713 63.2381C306.554 51.5804 292.438 48.5468 276.139 50.0987Z" fill="white"/>
<path d="M291.068 51.5335C291.133 51.5008 291.218 51.4868 291.32 51.5008C291.419 51.5148 291.493 51.5429 291.535 51.5896C291.582 51.6364 291.605 51.7065 291.605 51.7953L291.961 51.828C291.975 51.6644 291.937 51.5289 291.839 51.4167C291.741 51.3045 291.582 51.2344 291.362 51.2063C291.227 51.1876 291.11 51.1923 291.012 51.2204C290.909 51.2484 290.83 51.2951 290.769 51.3699C290.708 51.44 290.671 51.5195 290.657 51.6083C290.638 51.7486 290.675 51.8701 290.769 51.9823C290.834 52.0617 290.96 52.1365 291.143 52.2113C291.283 52.2674 291.376 52.3048 291.414 52.3282C291.47 52.3562 291.512 52.3889 291.531 52.4217C291.549 52.4544 291.559 52.4918 291.554 52.5338C291.545 52.5993 291.507 52.6507 291.447 52.6928C291.381 52.7348 291.292 52.7442 291.18 52.7302C291.073 52.7161 290.988 52.6741 290.937 52.6133C290.881 52.5479 290.848 52.459 290.844 52.3422L290.493 52.3282C290.493 52.5292 290.54 52.6881 290.643 52.8049C290.745 52.9218 290.909 52.9966 291.133 53.0293C291.288 53.048 291.414 53.0433 291.526 53.0153C291.634 52.9872 291.722 52.9311 291.788 52.8517C291.858 52.7722 291.895 52.6834 291.909 52.5806C291.923 52.4684 291.909 52.3749 291.877 52.2908C291.839 52.2113 291.783 52.1412 291.708 52.0851C291.634 52.029 291.512 51.9729 291.344 51.9075C291.175 51.842 291.073 51.7906 291.035 51.7439C291.003 51.7112 290.993 51.6738 290.998 51.6317C291.002 51.585 291.026 51.5522 291.068 51.5289M289.521 50.9726C289.376 50.9586 289.25 50.9726 289.133 51.01C289.049 51.0381 288.969 51.0848 288.89 51.1502C288.815 51.2157 288.754 51.2905 288.707 51.3793C288.642 51.4961 288.605 51.6457 288.591 51.8233C288.567 52.1038 288.628 52.3282 288.768 52.5011C288.908 52.6741 289.109 52.7722 289.371 52.7909C289.628 52.8143 289.843 52.7489 290.012 52.6039C290.18 52.4544 290.273 52.2394 290.301 51.9542C290.325 51.6691 290.269 51.4354 290.124 51.2624C289.984 51.0895 289.783 50.9913 289.521 50.9679M289.759 52.3656C289.661 52.459 289.539 52.5011 289.399 52.4918C289.259 52.4777 289.147 52.417 289.063 52.3095C288.979 52.1973 288.946 52.043 288.965 51.8467C288.983 51.6457 289.039 51.4961 289.137 51.4027C289.236 51.3092 289.357 51.2671 289.507 51.2811C289.652 51.2951 289.768 51.3512 289.848 51.4587C289.927 51.5663 289.96 51.7205 289.941 51.9215C289.923 52.1272 289.867 52.2767 289.768 52.3702M284.968 51.8654L284.706 50.6454L284.173 50.6174L284.089 52.3843L284.421 52.403L284.487 51.0147L284.767 52.4217L285.108 52.4403L285.524 51.0661L285.459 52.4544L285.791 52.4684L285.875 50.7015L285.337 50.6735L284.963 51.8607L284.968 51.8654ZM277.667 50.6407C277.522 50.6454 277.396 50.6735 277.288 50.7249C277.209 50.7623 277.134 50.8184 277.068 50.8932C277.003 50.9679 276.952 51.0521 276.914 51.1409C276.863 51.2624 276.844 51.4167 276.853 51.5943C276.863 51.8748 276.952 52.0944 277.11 52.2487C277.274 52.403 277.484 52.4731 277.746 52.4637C278.008 52.4544 278.209 52.3656 278.359 52.1973C278.508 52.029 278.578 51.8046 278.564 51.5195C278.555 51.2297 278.466 51.01 278.302 50.8558C278.139 50.7015 277.929 50.6267 277.667 50.6361M278.073 51.9963C277.985 52.1038 277.872 52.1599 277.727 52.1646C277.587 52.1692 277.466 52.1225 277.368 52.0243C277.274 51.9262 277.218 51.7766 277.213 51.5756C277.204 51.3699 277.246 51.2204 277.33 51.1128C277.414 51.01 277.531 50.9539 277.681 50.9492C277.826 50.9446 277.947 50.9866 278.041 51.0848C278.134 51.183 278.181 51.3325 278.19 51.5335C278.2 51.7392 278.158 51.8935 278.073 52.001M280.037 51.7158C279.985 51.6644 279.92 51.613 279.84 51.5709C279.995 51.5476 280.111 51.4868 280.186 51.4027C280.261 51.3138 280.298 51.2063 280.298 51.0708C280.298 50.9679 280.27 50.8745 280.214 50.795C280.163 50.7155 280.093 50.6594 280.004 50.6314C279.92 50.6033 279.78 50.5893 279.593 50.594L278.84 50.608L278.877 52.3749L279.233 52.3656L279.219 51.627H279.289C279.373 51.627 279.429 51.627 279.471 51.641C279.508 51.6551 279.546 51.6784 279.579 51.7112C279.611 51.7486 279.677 51.8327 279.77 51.9682L280.037 52.3469L280.462 52.3375L280.238 51.9963C280.149 51.8607 280.079 51.7672 280.027 51.7158M279.476 51.3419H279.214L279.205 50.8978H279.485C279.63 50.8885 279.714 50.8885 279.747 50.8932C279.803 50.9025 279.85 50.9259 279.882 50.9586C279.915 50.996 279.929 51.0427 279.934 51.1035C279.934 51.1549 279.924 51.2017 279.901 51.2391C279.878 51.2764 279.845 51.2998 279.803 51.3138C279.761 51.3279 279.653 51.3372 279.48 51.3419M281.939 50.7763C281.869 50.6968 281.78 50.6407 281.673 50.608C281.598 50.5847 281.486 50.5706 281.336 50.5706L280.682 50.5613L280.658 52.3282L281.331 52.3375C281.462 52.3375 281.57 52.3282 281.649 52.3048C281.757 52.2721 281.841 52.2253 281.902 52.1692C281.986 52.0898 282.051 51.9869 282.093 51.8607C282.131 51.7579 282.149 51.6317 282.154 51.4868C282.154 51.3185 282.14 51.183 282.103 51.0661C282.065 50.9539 282.009 50.8558 281.939 50.7763ZM281.743 51.7859C281.719 51.8654 281.687 51.9215 281.649 51.9542C281.612 51.9869 281.56 52.0103 281.504 52.0243C281.458 52.0337 281.387 52.0384 281.289 52.0384H281.023L281.037 50.8651H281.196C281.341 50.8651 281.439 50.8745 281.49 50.8885C281.556 50.9025 281.612 50.9306 281.654 50.9726C281.696 51.0147 281.729 51.0708 281.752 51.1456C281.775 51.2204 281.785 51.3232 281.785 51.4587C281.785 51.5943 281.771 51.7018 281.743 51.7813M282.813 51.5803L283.701 51.5943V51.2951L282.818 51.2811V50.8885L283.776 50.9025V50.6033L282.472 50.5847L282.449 52.3515L283.795 52.3702V52.0711L282.813 52.0571V51.5756V51.5803ZM288.189 51.0614C288.118 50.9773 288.034 50.9165 287.931 50.8838C287.857 50.8558 287.745 50.8371 287.6 50.8277L286.95 50.7856L286.833 52.5479L287.501 52.5899C287.632 52.5993 287.74 52.5899 287.819 52.5759C287.927 52.5479 288.011 52.5058 288.076 52.4497C288.165 52.3749 288.231 52.2767 288.287 52.1505C288.329 52.0477 288.357 51.9262 288.366 51.7766C288.376 51.613 288.366 51.4728 288.338 51.3559C288.305 51.2391 288.259 51.1409 288.189 51.0568M288.002 51.7392C287.992 51.8748 287.974 51.9823 287.946 52.0617C287.917 52.1365 287.88 52.1926 287.843 52.2253C287.801 52.2581 287.754 52.2767 287.693 52.2908C287.646 52.3001 287.576 52.3001 287.478 52.2908L287.212 52.2721L287.291 51.1035L287.45 51.1128C287.595 51.1222 287.693 51.1362 287.74 51.1502C287.805 51.1689 287.857 51.2017 287.899 51.2437C287.941 51.2858 287.969 51.3466 287.988 51.4214C288.006 51.4961 288.011 51.6036 288.002 51.7392ZM293.489 51.5663L292.54 53.2069L292.914 53.263L293.12 52.8891L293.821 52.9966L293.915 53.4173L294.298 53.478L293.868 51.6223L293.494 51.5663H293.489ZM293.274 52.6133L293.611 52.001L293.751 52.6881L293.274 52.6133ZM314.28 60.2838C314.271 60.1903 314.224 60.1015 314.15 60.0174C314.234 60.0267 314.313 60.0174 314.383 59.9753C314.458 59.9379 314.514 59.8865 314.556 59.8117C314.594 59.7463 314.617 59.6762 314.617 59.606C314.617 59.5359 314.603 59.4705 314.575 59.4097C314.547 59.349 314.505 59.2975 314.453 59.2508C314.402 59.2041 314.313 59.148 314.192 59.0732L313.584 58.7133L312.682 60.2324L313.196 60.5409C313.392 60.6578 313.519 60.7279 313.57 60.7513C313.659 60.7886 313.738 60.8073 313.818 60.8027C313.897 60.798 313.972 60.7699 314.042 60.7232C314.112 60.6765 314.168 60.6204 314.21 60.5503C314.262 60.4614 314.285 60.3726 314.271 60.2792M313.911 60.3539C313.879 60.41 313.841 60.4427 313.79 60.4568C313.743 60.4708 313.692 60.4708 313.64 60.4521C313.607 60.4381 313.537 60.4007 313.425 60.3352L313.14 60.167L313.383 59.7603L313.631 59.9099C313.771 59.994 313.855 60.0548 313.888 60.0922C313.921 60.1296 313.939 60.1763 313.944 60.2184C313.944 60.2651 313.935 60.3072 313.907 60.3539M314.117 59.7743C314.07 59.7883 314.014 59.779 313.963 59.7556C313.93 59.7416 313.855 59.6995 313.738 59.6294L313.537 59.5079L313.748 59.1573L313.925 59.2601C314.07 59.3443 314.154 59.4004 314.182 59.4237C314.229 59.4611 314.257 59.4985 314.266 59.5453C314.276 59.592 314.266 59.6341 314.238 59.6808C314.21 59.7276 314.168 59.7603 314.122 59.7743M317.104 60.9335L315.547 62.018L315.86 62.2283L316.206 61.9759L316.795 62.3686L316.702 62.7892L317.024 63.0043L317.417 61.1392L317.104 60.9289V60.9335ZM316.865 62.0601L316.463 61.7936L317.024 61.3823L316.861 62.0647L316.865 62.0601ZM310.607 57.3063C310.574 57.2035 310.518 57.1146 310.438 57.0445C310.377 56.9884 310.284 56.9324 310.148 56.8669L309.559 56.5818L308.793 58.1757L309.396 58.4655C309.513 58.5216 309.616 58.559 309.695 58.5684C309.803 58.5824 309.901 58.5777 309.98 58.5497C310.088 58.5123 310.19 58.4468 310.284 58.3533C310.363 58.2739 310.434 58.171 310.494 58.0402C310.564 57.8906 310.611 57.7597 310.625 57.6382C310.639 57.5213 310.63 57.4091 310.597 57.3063M310.284 57.5634C310.275 57.6382 310.237 57.741 310.181 57.8625C310.12 57.9841 310.064 58.0776 310.008 58.1383C309.952 58.1991 309.901 58.2365 309.849 58.2505C309.798 58.2645 309.746 58.2645 309.686 58.2505C309.639 58.2412 309.573 58.2131 309.485 58.171L309.246 58.0542L309.756 57.0025L309.901 57.0726C310.032 57.138 310.116 57.1848 310.158 57.2175C310.214 57.2596 310.251 57.3063 310.27 57.3671C310.289 57.4232 310.298 57.4886 310.289 57.5634M311.925 57.741C311.798 57.6756 311.672 57.6335 311.555 57.6241C311.467 57.6148 311.373 57.6241 311.28 57.6569C311.186 57.6896 311.097 57.7317 311.023 57.7924C310.92 57.8766 310.822 57.9981 310.742 58.157C310.611 58.4048 310.578 58.6385 310.639 58.8535C310.7 59.0685 310.85 59.2368 311.083 59.3583C311.312 59.4798 311.532 59.5032 311.747 59.4331C311.957 59.363 312.13 59.1994 312.266 58.947C312.401 58.6946 312.434 58.4562 312.373 58.2412C312.313 58.0261 312.163 57.8579 311.934 57.7363M311.934 58.774C311.841 58.9563 311.728 59.0685 311.597 59.1199C311.467 59.1667 311.34 59.1573 311.214 59.0919C311.088 59.0264 311.008 58.9236 310.976 58.7927C310.943 58.6572 310.976 58.5029 311.065 58.3253C311.158 58.143 311.27 58.0308 311.396 57.9841C311.523 57.9373 311.654 57.9467 311.78 58.0168C311.911 58.0869 311.99 58.1851 312.023 58.3159C312.056 58.4468 312.023 58.6011 311.929 58.7787M315.557 61.5833C315.557 61.4197 315.552 61.3028 315.538 61.2327C315.524 61.1626 315.496 61.0831 315.454 61.0037C315.599 61.0644 315.725 61.0831 315.837 61.0504C315.949 61.0177 316.038 60.9476 316.108 60.8307C316.164 60.7419 316.188 60.6484 316.188 60.5549C316.188 60.4614 316.16 60.3773 316.103 60.3025C316.047 60.2324 315.94 60.1436 315.776 60.0454L315.136 59.6481L314.206 61.1486L314.51 61.3355L314.898 60.7092L314.958 60.7466C315.028 60.7886 315.075 60.826 315.103 60.8588C315.127 60.8915 315.145 60.9289 315.155 60.9756C315.164 61.0224 315.173 61.1299 315.178 61.2935L315.192 61.7562L315.557 61.9806V61.5739V61.5833ZM315.047 60.4755L315.285 60.0969L315.524 60.2418C315.645 60.3165 315.72 60.368 315.744 60.382C315.786 60.4194 315.814 60.4661 315.823 60.5129C315.832 60.5596 315.823 60.611 315.786 60.6624C315.758 60.7092 315.725 60.7372 315.683 60.7559C315.645 60.7746 315.603 60.7746 315.557 60.7653C315.515 60.7559 315.416 60.7045 315.271 60.6157L315.047 60.4755ZM318.67 63.2333C318.674 63.1445 318.656 63.0557 318.614 62.9715C318.572 62.8874 318.492 62.7799 318.375 62.6443C318.258 62.5088 318.193 62.4153 318.179 62.3545C318.17 62.3078 318.174 62.2704 318.198 62.2377C318.226 62.2003 318.258 62.1816 318.305 62.1816C318.375 62.1816 318.455 62.2096 318.539 62.2704C318.618 62.3312 318.67 62.3873 318.688 62.4527C318.707 62.5135 318.693 62.5883 318.656 62.6677L318.955 62.864C319.044 62.7285 319.072 62.5882 319.039 62.4433C319.006 62.2984 318.899 62.1629 318.716 62.032C318.604 61.9525 318.501 61.9011 318.399 61.8778C318.296 61.8544 318.202 61.8591 318.113 61.8965C318.025 61.9292 317.954 61.9853 317.903 62.0554C317.819 62.1676 317.796 62.2984 317.828 62.4387C317.852 62.5415 317.926 62.6677 318.053 62.8173C318.151 62.9341 318.216 63.0089 318.24 63.0463C318.277 63.0978 318.296 63.1445 318.3 63.1819C318.3 63.2193 318.296 63.2567 318.268 63.2894C318.23 63.3408 318.174 63.3689 318.095 63.3782C318.02 63.3829 317.936 63.3548 317.842 63.2847C317.754 63.2193 317.702 63.1492 317.679 63.065C317.66 62.9809 317.679 62.8874 317.725 62.7799L317.422 62.6023C317.323 62.7752 317.295 62.9388 317.333 63.0931C317.37 63.2473 317.478 63.3876 317.66 63.5184C317.786 63.6072 317.903 63.668 318.011 63.6914C318.118 63.7148 318.221 63.7101 318.319 63.6727C318.417 63.6353 318.497 63.5745 318.553 63.4904C318.618 63.4016 318.656 63.3081 318.66 63.2193M320.38 63.3595L320.095 63.1445L319.044 64.5468L320.039 65.29L320.217 65.0516L319.506 64.5187L320.376 63.3548L320.38 63.3595ZM319.553 62.6911L318.497 64.1074L318.782 64.3224L319.838 62.9061L319.553 62.6911ZM304.731 54.5859C304.665 54.5391 304.563 54.4924 304.427 54.4409L303.815 54.2213L303.216 55.8853L303.847 56.1143C303.974 56.1611 304.077 56.1845 304.156 56.1845C304.268 56.1845 304.362 56.1704 304.441 56.1377C304.544 56.091 304.637 56.0162 304.726 55.9087C304.796 55.8199 304.857 55.7077 304.904 55.5721C304.96 55.4179 304.988 55.2776 304.993 55.1608C304.993 55.0393 304.974 54.9317 304.932 54.8336C304.89 54.7354 304.824 54.656 304.736 54.5905M304.563 55.4272C304.516 55.5534 304.469 55.6516 304.418 55.7217C304.366 55.7871 304.32 55.8292 304.273 55.8526C304.226 55.8713 304.17 55.8806 304.114 55.8713C304.067 55.8713 303.997 55.8479 303.904 55.8152L303.651 55.7264L304.048 54.6232L304.198 54.6793C304.334 54.7308 304.427 54.7682 304.469 54.7962C304.53 54.8336 304.572 54.8757 304.595 54.9317C304.623 54.9832 304.633 55.0486 304.633 55.1281C304.633 55.2075 304.609 55.3057 304.563 55.4366M307.966 55.8292C307.839 55.7731 307.727 55.7451 307.624 55.7451C307.521 55.7451 307.428 55.7684 307.349 55.8199C307.269 55.8713 307.213 55.9367 307.176 56.0209C307.119 56.1471 307.119 56.2779 307.18 56.4135C307.222 56.507 307.32 56.6145 307.479 56.736C307.601 56.8295 307.676 56.8903 307.708 56.923C307.755 56.9697 307.783 57.0071 307.793 57.0445C307.802 57.0819 307.802 57.1193 307.783 57.1567C307.755 57.2175 307.708 57.2549 307.634 57.2782C307.559 57.3016 307.47 57.2876 307.367 57.2409C307.269 57.1988 307.199 57.138 307.162 57.0632C307.124 56.9884 307.119 56.8903 307.148 56.7781L306.816 56.6706C306.755 56.8622 306.76 57.0258 306.83 57.1707C306.9 57.3156 307.035 57.4278 307.241 57.5213C307.381 57.5821 307.507 57.6148 307.62 57.6195C307.732 57.6241 307.83 57.5914 307.919 57.5353C308.008 57.4792 308.068 57.3998 308.11 57.311C308.157 57.2081 308.171 57.1146 308.162 57.0258C308.148 56.937 308.115 56.8576 308.054 56.7828C307.998 56.708 307.895 56.6192 307.755 56.5117C307.61 56.4042 307.526 56.3247 307.503 56.2733C307.484 56.2312 307.479 56.1938 307.498 56.1517C307.517 56.1097 307.55 56.0816 307.596 56.0723C307.666 56.0583 307.751 56.0723 307.844 56.1143C307.937 56.1564 307.998 56.2032 308.026 56.2593C308.054 56.3153 308.059 56.3901 308.036 56.4789L308.368 56.6098C308.428 56.4602 308.428 56.3153 308.368 56.1798C308.302 56.0442 308.171 55.932 307.966 55.8432M297.649 52.3749L296.958 53.5669L296.789 52.1926L296.411 52.1131L296.668 53.9735L297.042 54.053L298.023 52.4497L297.654 52.3702L297.649 52.3749ZM300.73 54.0717L300.65 54.3568L301.043 54.469L300.982 54.684C300.917 54.7074 300.847 54.7261 300.767 54.7354C300.688 54.7448 300.608 54.7354 300.538 54.7167C300.393 54.6747 300.29 54.5905 300.23 54.4643C300.169 54.3381 300.169 54.1745 300.225 53.9735C300.276 53.7865 300.36 53.6557 300.477 53.5856C300.594 53.5154 300.725 53.5014 300.875 53.5435C300.973 53.5715 301.048 53.6183 301.104 53.6884C301.155 53.7538 301.183 53.8333 301.183 53.9268L301.543 53.9595C301.552 53.7959 301.51 53.651 301.417 53.5295C301.323 53.4079 301.169 53.3144 300.959 53.2584C300.795 53.2116 300.655 53.2023 300.529 53.2303C300.365 53.263 300.225 53.3378 300.113 53.4547C300.001 53.5715 299.916 53.7211 299.87 53.8941C299.823 54.0577 299.814 54.2166 299.842 54.3755C299.87 54.5344 299.94 54.6653 300.047 54.7822C300.159 54.8944 300.304 54.9738 300.482 55.0252C300.622 55.0673 300.767 55.0767 300.917 55.0626C301.066 55.0486 301.188 55.0159 301.281 54.9691L301.473 54.2914L300.734 54.081L300.73 54.0717ZM299.056 52.7255C298.916 52.6881 298.79 52.6787 298.668 52.6974C298.58 52.7115 298.491 52.7395 298.407 52.7909C298.322 52.8423 298.248 52.9078 298.187 52.9826C298.103 53.0854 298.037 53.2256 297.995 53.3986C297.925 53.6697 297.944 53.9034 298.051 54.0997C298.159 54.296 298.341 54.4269 298.598 54.4924C298.851 54.5578 299.07 54.5344 299.262 54.4176C299.454 54.3007 299.585 54.1044 299.659 53.8286C299.734 53.5482 299.715 53.3144 299.603 53.1181C299.496 52.9218 299.313 52.7909 299.061 52.7255M299.299 53.7258C299.248 53.9221 299.164 54.0623 299.052 54.1371C298.935 54.2119 298.809 54.2306 298.673 54.1979C298.537 54.1605 298.435 54.081 298.374 53.9595C298.313 53.838 298.304 53.679 298.355 53.4827C298.407 53.2864 298.491 53.1508 298.603 53.0761C298.715 53.0013 298.841 52.9826 298.986 53.02C299.126 53.0574 299.229 53.1368 299.29 53.2537C299.351 53.3752 299.355 53.5295 299.304 53.7258M306.76 55.5441C306.671 55.3384 306.507 55.1888 306.259 55.0954C306.124 55.0439 305.998 55.0206 305.876 55.0252C305.787 55.0252 305.698 55.0533 305.605 55.0954C305.516 55.1374 305.437 55.1935 305.367 55.2636C305.273 55.3571 305.194 55.4927 305.128 55.6609C305.03 55.9227 305.021 56.1564 305.11 56.3621C305.198 56.5678 305.367 56.7173 305.61 56.8108C305.853 56.9043 306.077 56.8996 306.278 56.8061C306.479 56.708 306.633 56.5304 306.732 56.2639C306.834 55.9928 306.839 55.7591 306.75 55.5488M306.4 56.119C306.325 56.3107 306.231 56.4369 306.11 56.5023C305.988 56.5678 305.862 56.5724 305.727 56.521C305.591 56.4696 305.502 56.3808 305.451 56.2499C305.399 56.119 305.413 55.9648 305.483 55.7731C305.554 55.5815 305.652 55.4553 305.773 55.3945C305.895 55.3337 306.021 55.3244 306.161 55.3805C306.297 55.4319 306.39 55.5207 306.437 55.6469C306.484 55.7731 306.47 55.9274 306.4 56.119ZM295.999 52.23C295.943 52.1412 295.864 52.0711 295.77 52.0197C295.7 51.9823 295.593 51.9495 295.448 51.9262L294.807 51.8046L294.476 53.5388L295.135 53.665C295.265 53.6884 295.368 53.6977 295.452 53.6884C295.56 53.6744 295.653 53.6463 295.724 53.5949C295.817 53.5341 295.901 53.4406 295.967 53.3238C296.023 53.2256 296.065 53.1088 296.088 52.9639C296.121 52.8003 296.126 52.66 296.112 52.5432C296.093 52.4263 296.055 52.3188 295.999 52.23ZM295.728 52.8797C295.705 53.0153 295.672 53.1181 295.63 53.1929C295.593 53.2677 295.551 53.3144 295.509 53.3425C295.462 53.3705 295.41 53.3846 295.354 53.3892C295.308 53.3892 295.237 53.3846 295.139 53.3659L294.877 53.3144L295.097 52.1646L295.256 52.1926C295.401 52.2207 295.495 52.244 295.541 52.2627C295.602 52.2908 295.653 52.3282 295.691 52.3749C295.724 52.4217 295.747 52.4871 295.756 52.5619C295.766 52.6367 295.756 52.7442 295.733 52.8751M302.543 53.7819L301.347 55.2543L301.707 55.3711L301.968 55.0346L302.642 55.2496L302.665 55.6796L303.034 55.7965L302.899 53.8987L302.539 53.7819H302.543ZM302.165 54.7822L302.595 54.2306L302.627 54.9317L302.169 54.7822H302.165Z" fill="#055997"/>
<mask id="mask1_41_621" style="mask-type:luminance" maskUnits="userSpaceOnUse" x="358" y="36" width="35" height="49">
<path d="M358.249 36.4402V84.5013H380.952C380.952 84.5013 392.427 80.8694 392.427 70.6374C392.427 60.4053 381.386 56.9323 381.386 56.9323C381.386 56.9323 384.415 53.6837 384.415 48.986C384.415 40.3526 375.399 36.4449 375.399 36.4449H358.249V36.4402Z" fill="white"/>
</mask>
<g mask="url(#mask1_41_621)">
<path d="M392.427 36.4402H358.249V84.5013H392.427V36.4402Z" fill="url(#paint1_linear_41_621)"/>
</g>
<mask id="mask2_41_621" style="mask-type:luminance" maskUnits="userSpaceOnUse" x="359" y="60" width="33" height="24">
<path d="M359.485 64.1784V83.2635H380.744C381.37 83.0392 383.656 82.1604 385.937 80.4215C389.42 77.7665 391.186 74.4758 391.186 70.6382C391.186 66.8006 389.508 63.7016 386.194 61.0606C385.727 60.6913 385.264 60.3595 384.811 60.0603C384.792 60.065 374.111 63.5473 359.49 64.1784" fill="white"/>
</mask>
<g mask="url(#mask2_41_621)">
<path d="M391.186 60.0603H359.485V83.2635H391.186V60.0603Z" fill="url(#paint2_linear_41_621)"/>
</g>
<mask id="mask3_41_621" style="mask-type:luminance" maskUnits="userSpaceOnUse" x="316" y="36" width="41" height="49">
<path d="M316.187 84.5013H356.895L336.539 36.4402L316.187 84.5013Z" fill="white"/>
</mask>
<g mask="url(#mask3_41_621)">
<path d="M356.9 36.4402H316.187V84.5013H356.9V36.4402Z" fill="url(#paint3_linear_41_621)"/>
</g>
<mask id="mask4_41_621" style="mask-type:luminance" maskUnits="userSpaceOnUse" x="318" y="64" width="37" height="20">
<path d="M318.235 83.2583H354.849L347.034 64.1778C347.034 64.1778 342.775 64.3414 336.652 64.3414C330.529 64.3414 326.13 64.0095 326.13 64.0095L318.235 83.2536V83.2583Z" fill="white"/>
</mask>
<g mask="url(#mask4_41_621)">
<path d="M354.849 64.0095H318.235V83.2536H354.849V64.0095Z" fill="url(#paint4_linear_41_621)"/>
</g>
<path d="M292.177 98.2579L290.938 95.0186C290.919 94.9858 290.901 94.9718 290.877 94.9718H290.106C290.064 94.9718 290.045 94.9905 290.045 95.0326V98.2392C290.045 98.2766 290.031 98.314 290.003 98.3373C289.975 98.3654 289.938 98.3794 289.9 98.3794H288.465C288.423 98.3794 288.39 98.3654 288.362 98.3373C288.334 98.3093 288.32 98.2766 288.32 98.2392V90.2882C288.32 90.2508 288.334 90.2181 288.362 90.19C288.39 90.162 288.428 90.1479 288.465 90.1479H291.457C291.938 90.1479 292.368 90.2508 292.742 90.4611C293.116 90.6668 293.406 90.9613 293.612 91.3352C293.817 91.7092 293.92 92.1439 293.92 92.6253C293.92 93.1068 293.803 93.5649 293.57 93.9341C293.336 94.3081 293.013 94.5839 292.593 94.7615C292.56 94.7755 292.551 94.8036 292.569 94.8456L293.967 98.2158C293.967 98.2158 293.981 98.2532 293.981 98.2766C293.981 98.3467 293.934 98.3841 293.845 98.3841H292.35C292.261 98.3841 292.205 98.3467 292.177 98.2672M290.045 91.6344V93.6303C290.045 93.6677 290.064 93.6911 290.106 93.6911H291.172C291.475 93.6911 291.719 93.5976 291.905 93.4013C292.092 93.2096 292.186 92.9572 292.186 92.644C292.186 92.3168 292.092 92.0551 291.905 91.8634C291.719 91.6718 291.471 91.5736 291.172 91.5736H290.106C290.064 91.5736 290.045 91.5923 290.045 91.6344Z" fill="#3D3D3B"/>
<path d="M294.649 98.3323C294.621 98.3043 294.607 98.2716 294.607 98.2342V90.2972C294.607 90.2598 294.621 90.2224 294.649 90.199C294.678 90.171 294.715 90.157 294.752 90.157H296.187C296.229 90.157 296.262 90.171 296.29 90.199C296.318 90.2271 296.332 90.2598 296.332 90.2972V98.2342C296.332 98.2716 296.318 98.309 296.29 98.3323C296.262 98.3604 296.225 98.3744 296.187 98.3744H294.752C294.71 98.3744 294.678 98.3604 294.649 98.3323Z" fill="#3D3D3B"/>
<path d="M298.459 98.15C298.029 97.9304 297.697 97.6219 297.459 97.2199C297.22 96.8226 297.104 96.3551 297.104 95.8222V92.6998C297.104 92.1763 297.22 91.7135 297.459 91.3162C297.697 90.9189 298.029 90.6057 298.459 90.386C298.889 90.1663 299.385 90.0588 299.95 90.0588C300.516 90.0588 301.011 90.1663 301.446 90.386C301.881 90.6057 302.213 90.9142 302.451 91.3162C302.689 91.7135 302.806 92.1763 302.806 92.6998V95.8222C302.806 96.3551 302.689 96.8226 302.451 97.2199C302.213 97.6172 301.881 97.9304 301.446 98.15C301.011 98.3697 300.516 98.4772 299.95 98.4772C299.385 98.4772 298.889 98.3697 298.459 98.15ZM300.768 96.7337C300.974 96.5187 301.077 96.2383 301.077 95.8924V92.6531C301.077 92.3025 300.974 92.0174 300.768 91.8023C300.563 91.5873 300.291 91.4798 299.945 91.4798C299.6 91.4798 299.343 91.5873 299.137 91.8023C298.931 92.0174 298.833 92.3025 298.833 92.6531V95.8924C298.833 96.2383 298.936 96.5187 299.137 96.7337C299.343 96.9488 299.609 97.0563 299.945 97.0563C300.282 97.0563 300.563 96.9488 300.768 96.7337Z" fill="#3D3D3B"/>
<path d="M306.863 98.15C306.438 97.9397 306.111 97.6405 305.877 97.2526C305.643 96.8646 305.526 96.4159 305.526 95.9064V92.6063C305.526 92.0968 305.643 91.6528 305.877 91.2695C306.111 90.8862 306.438 90.587 306.863 90.3767C307.289 90.1664 307.779 90.0588 308.336 90.0588C308.892 90.0588 309.373 90.1617 309.799 90.372C310.229 90.5777 310.561 90.8675 310.79 91.2414C311.023 91.6154 311.14 92.0361 311.14 92.5035V92.7606C311.14 92.798 311.126 92.8354 311.098 92.8587C311.07 92.8868 311.033 92.9008 310.995 92.9008H309.56C309.518 92.9008 309.485 92.8868 309.457 92.8587C309.429 92.8307 309.415 92.798 309.415 92.7606V92.5128C309.415 92.2137 309.317 91.9706 309.121 91.7743C308.925 91.578 308.663 91.4798 308.336 91.4798C308.008 91.4798 307.747 91.5827 307.546 91.7837C307.345 91.9893 307.247 92.2511 307.247 92.583V95.9438C307.247 96.271 307.349 96.5374 307.56 96.7431C307.77 96.9488 308.041 97.0469 308.373 97.0469C308.705 97.0469 308.948 96.9581 309.14 96.7758C309.331 96.5982 309.429 96.3504 309.429 96.0373V95.3081C309.429 95.2707 309.411 95.2473 309.369 95.2473H308.41C308.368 95.2473 308.336 95.2333 308.308 95.2052C308.28 95.1772 308.265 95.1445 308.265 95.1071V94.0367C308.265 93.9993 308.28 93.9666 308.308 93.9385C308.336 93.9105 308.368 93.8964 308.41 93.8964H310.995C311.037 93.8964 311.07 93.9105 311.098 93.9385C311.126 93.9666 311.14 93.9993 311.14 94.0367V95.9017C311.14 96.687 310.883 97.3087 310.374 97.7714C309.864 98.2342 309.182 98.4632 308.331 98.4632C307.775 98.4632 307.284 98.3557 306.859 98.1454" fill="#3D3D3B"/>
<path d="M315.725 98.2579L314.487 95.0186C314.468 94.9858 314.449 94.9718 314.426 94.9718H313.655C313.613 94.9718 313.594 94.9905 313.594 95.0326V98.2392C313.594 98.2766 313.58 98.314 313.552 98.3373C313.524 98.3654 313.491 98.3794 313.449 98.3794H312.014C311.972 98.3794 311.939 98.3654 311.911 98.3373C311.883 98.3093 311.869 98.2766 311.869 98.2392V90.2882C311.869 90.2508 311.883 90.2181 311.911 90.19C311.939 90.162 311.972 90.1479 312.014 90.1479H315.006C315.487 90.1479 315.917 90.2508 316.291 90.4611C316.665 90.6668 316.955 90.9613 317.16 91.3352C317.366 91.7092 317.464 92.1439 317.464 92.6253C317.464 93.1068 317.347 93.5649 317.114 93.9341C316.88 94.3081 316.557 94.5839 316.141 94.7615C316.109 94.7755 316.099 94.8036 316.118 94.8456L317.516 98.2158C317.516 98.2158 317.53 98.2532 317.53 98.2766C317.53 98.3467 317.483 98.3841 317.394 98.3841H315.898C315.81 98.3841 315.749 98.3467 315.725 98.2672M313.589 91.6344V93.6303C313.589 93.6677 313.608 93.6911 313.65 93.6911H314.716C315.02 93.6911 315.263 93.5976 315.45 93.4013C315.637 93.2096 315.73 92.9572 315.73 92.644C315.73 92.3168 315.637 92.0551 315.45 91.8634C315.263 91.6718 315.015 91.5736 314.716 91.5736H313.65C313.608 91.5736 313.589 91.5923 313.589 91.6344Z" fill="#3D3D3B"/>
<path d="M322.7 98.2578L322.419 97.1079C322.41 97.0752 322.391 97.0612 322.358 97.0612H320.068C320.035 97.0612 320.017 97.0752 320.007 97.1079L319.727 98.2578C319.703 98.3373 319.647 98.3747 319.554 98.3747H318.072C317.965 98.3747 317.927 98.3233 317.951 98.2204L320.157 90.2694C320.18 90.19 320.236 90.1526 320.33 90.1526H322.106C322.195 90.1526 322.256 90.19 322.279 90.2694L324.499 98.2204L324.513 98.2672C324.513 98.3373 324.466 98.3747 324.378 98.3747H322.868C322.784 98.3747 322.732 98.3373 322.709 98.2578M320.358 95.7617C320.358 95.7617 320.391 95.7804 320.405 95.7804H322.022C322.022 95.7804 322.055 95.7758 322.069 95.7617C322.083 95.7477 322.087 95.7337 322.083 95.7103L321.26 92.3729C321.251 92.3402 321.241 92.3261 321.223 92.3308C321.209 92.3308 321.194 92.3495 321.185 92.3729L320.339 95.7103C320.33 95.7337 320.339 95.7524 320.353 95.7617" fill="#3D3D3B"/>
<path d="M325.13 98.3323C325.102 98.3043 325.088 98.2716 325.088 98.2342V90.2972C325.088 90.2598 325.102 90.2224 325.13 90.199C325.159 90.171 325.196 90.157 325.233 90.157H326.682C326.762 90.157 326.823 90.1897 326.855 90.2645L329.206 94.9481C329.22 94.9715 329.239 94.9809 329.253 94.9762C329.267 94.9762 329.277 94.9528 329.277 94.9248L329.263 90.2972C329.263 90.2598 329.277 90.2224 329.305 90.199C329.333 90.171 329.365 90.157 329.407 90.157H330.828C330.87 90.157 330.903 90.171 330.931 90.199C330.959 90.2271 330.973 90.2598 330.973 90.2972V98.2342C330.973 98.2716 330.959 98.309 330.931 98.3323C330.903 98.3604 330.866 98.3744 330.828 98.3744H329.37C329.295 98.3744 329.239 98.337 329.197 98.2669L326.846 93.5458C326.827 93.5225 326.813 93.5131 326.795 93.5178C326.776 93.5225 326.771 93.5412 326.771 93.5692L326.795 98.2295C326.795 98.2669 326.78 98.3043 326.752 98.3277C326.724 98.3557 326.687 98.3697 326.65 98.3697H325.229C325.187 98.3697 325.154 98.3557 325.126 98.3277" fill="#3D3D3B"/>
<path d="M331.913 98.3323C331.885 98.3043 331.871 98.2716 331.871 98.2342V90.2972C331.871 90.2598 331.885 90.2224 331.913 90.199C331.941 90.171 331.973 90.157 332.016 90.157H334.652C335.199 90.157 335.685 90.2551 336.106 90.4515C336.526 90.6478 336.853 90.9236 337.078 91.2835C337.307 91.6434 337.419 92.0641 337.419 92.5409V95.9952C337.419 96.472 337.307 96.8926 337.078 97.2526C336.849 97.6125 336.526 97.8929 336.106 98.0846C335.685 98.2809 335.199 98.3791 334.652 98.3791H332.016C331.973 98.3791 331.941 98.3651 331.913 98.337M333.656 96.9534L334.661 96.9394C334.965 96.9394 335.208 96.8366 335.395 96.6262C335.582 96.4205 335.68 96.1448 335.689 95.7989V92.7232C335.689 92.3726 335.596 92.0921 335.409 91.8818C335.222 91.6761 334.974 91.5686 334.661 91.5686H333.656C333.614 91.5686 333.595 91.5873 333.595 91.6294V96.8926C333.595 96.93 333.614 96.9534 333.656 96.9534Z" fill="#3D3D3B"/>
<path d="M343.37 91.5312C343.342 91.5592 343.304 91.5733 343.267 91.5733H339.981C339.939 91.5733 339.92 91.592 339.92 91.634V93.4664C339.92 93.5037 339.939 93.5271 339.981 93.5271H342.028C342.07 93.5271 342.103 93.5411 342.131 93.5692C342.159 93.5972 342.173 93.63 342.173 93.6673V94.8079C342.173 94.8453 342.159 94.8827 342.131 94.906C342.103 94.9294 342.066 94.9481 342.028 94.9481H339.981C339.939 94.9481 339.92 94.9668 339.92 95.0089V96.8973C339.92 96.9347 339.939 96.958 339.981 96.958H343.267C343.309 96.958 343.342 96.9721 343.37 97.0001C343.398 97.0282 343.412 97.0609 343.412 97.0983V98.2388C343.412 98.2762 343.398 98.3136 343.37 98.337C343.342 98.365 343.304 98.379 343.267 98.379H338.34C338.298 98.379 338.265 98.365 338.237 98.337C338.209 98.3089 338.195 98.2762 338.195 98.2388V90.3019C338.195 90.2645 338.209 90.2317 338.237 90.2037C338.265 90.1756 338.298 90.1616 338.34 90.1616H343.267C343.309 90.1616 343.342 90.1756 343.37 90.2037C343.398 90.2317 343.412 90.2645 343.412 90.3019V91.4424C343.412 91.4798 343.398 91.5172 343.37 91.5405" fill="#3D3D3B"/>
<path d="M346.216 98.3323C346.188 98.3043 346.174 98.2716 346.174 98.2342V90.2972C346.174 90.2598 346.188 90.2224 346.216 90.199C346.244 90.171 346.277 90.157 346.319 90.157H348.956C349.502 90.157 349.989 90.2551 350.409 90.4515C350.83 90.6478 351.157 90.9236 351.381 91.2835C351.611 91.6434 351.723 92.0641 351.723 92.5409V95.9952C351.723 96.472 351.611 96.8926 351.381 97.2526C351.152 97.6125 350.83 97.8929 350.409 98.0846C349.989 98.2809 349.502 98.3791 348.956 98.3791H346.319C346.277 98.3791 346.244 98.3651 346.216 98.337M347.96 96.9534L348.965 96.9394C349.269 96.9394 349.512 96.8366 349.699 96.6262C349.886 96.4205 349.984 96.1448 349.993 95.7989V92.7232C349.993 92.3726 349.9 92.0921 349.713 91.8818C349.526 91.6761 349.273 91.5686 348.965 91.5686H347.96C347.918 91.5686 347.899 91.5873 347.899 91.6294V96.8926C347.899 96.93 347.918 96.9534 347.96 96.9534Z" fill="#3D3D3B"/>
<path d="M353.718 98.15C353.288 97.9304 352.956 97.6219 352.718 97.2199C352.48 96.8226 352.363 96.3551 352.363 95.8222V92.6998C352.363 92.1763 352.48 91.7135 352.718 91.3162C352.956 90.9189 353.288 90.6057 353.718 90.386C354.148 90.1663 354.644 90.0588 355.209 90.0588C355.775 90.0588 356.27 90.1663 356.705 90.386C357.14 90.6057 357.472 90.9142 357.71 91.3162C357.949 91.7135 358.065 92.1763 358.065 92.6998V95.8222C358.065 96.3551 357.949 96.8226 357.71 97.2199C357.472 97.6172 357.14 97.9304 356.705 98.15C356.27 98.3697 355.775 98.4772 355.209 98.4772C354.644 98.4772 354.148 98.3697 353.718 98.15ZM356.027 96.7337C356.233 96.5187 356.336 96.2383 356.336 95.8924V92.6531C356.336 92.3025 356.233 92.0174 356.027 91.8023C355.822 91.5873 355.551 91.4798 355.205 91.4798C354.859 91.4798 354.602 91.5873 354.396 91.8023C354.19 92.0174 354.088 92.3025 354.088 92.6531V95.8924C354.088 96.2383 354.19 96.5187 354.396 96.7337C354.602 96.9488 354.868 97.0563 355.205 97.0563C355.541 97.0563 355.822 96.9488 356.027 96.7337Z" fill="#3D3D3B"/>
<path d="M362.038 98.1781C361.618 97.9864 361.29 97.7153 361.061 97.3694C360.832 97.0235 360.72 96.6216 360.72 96.1681V95.8503C360.72 95.8129 360.734 95.7802 360.762 95.7521C360.79 95.7241 360.823 95.7101 360.865 95.7101H362.277C362.319 95.7101 362.352 95.7241 362.38 95.7521C362.408 95.7802 362.422 95.8129 362.422 95.8503V96.084C362.422 96.3598 362.529 96.5888 362.74 96.7711C362.95 96.9534 363.23 97.0469 363.572 97.0469C363.889 97.0469 364.132 96.9674 364.301 96.8132C364.469 96.6589 364.553 96.458 364.553 96.2149C364.553 96.0373 364.502 95.8783 364.394 95.7521C364.287 95.6213 364.137 95.4997 363.945 95.3875C363.754 95.2754 363.455 95.1211 363.057 94.9248C362.567 94.6911 362.165 94.4714 361.856 94.2657C361.548 94.06 361.281 93.7983 361.061 93.4804C360.842 93.1579 360.73 92.7699 360.73 92.3165C360.73 91.6294 360.973 91.0778 361.463 90.6712C361.954 90.2645 362.599 90.0588 363.399 90.0588C363.945 90.0588 364.432 90.157 364.857 90.358C365.282 90.559 365.614 90.8394 365.848 91.1994C366.086 91.5593 366.203 91.9753 366.203 92.4427V92.6764C366.203 92.7138 366.189 92.7466 366.161 92.7746C366.133 92.8026 366.096 92.8167 366.058 92.8167H364.647C364.605 92.8167 364.572 92.8026 364.544 92.7746C364.516 92.7466 364.502 92.7138 364.502 92.6764V92.4661C364.502 92.1856 364.399 91.9473 364.193 91.7603C363.988 91.5733 363.716 91.4798 363.371 91.4798C363.076 91.4798 362.847 91.5546 362.679 91.6995C362.51 91.8444 362.426 92.0454 362.426 92.3025C362.426 92.4848 362.473 92.6391 362.576 92.7699C362.674 92.9008 362.824 93.0317 363.029 93.1532C363.235 93.2748 363.539 93.4337 363.95 93.63L364.221 93.7702C364.693 94.0273 365.063 94.2517 365.329 94.434C365.596 94.6163 365.815 94.85 365.997 95.1258C366.18 95.4016 366.269 95.7428 366.269 96.1401C366.269 96.8459 366.016 97.4068 365.507 97.8322C365.002 98.2529 364.329 98.4679 363.497 98.4679C362.941 98.4679 362.454 98.3744 362.034 98.1781" fill="#3D3D3B"/>
<path d="M368.213 98.1407C367.788 97.921 367.461 97.6125 367.227 97.2198C366.993 96.8272 366.876 96.3691 366.876 95.8503V90.2972C366.876 90.2598 366.89 90.2224 366.919 90.199C366.947 90.171 366.979 90.157 367.021 90.157H368.456C368.498 90.157 368.531 90.171 368.559 90.199C368.587 90.2271 368.601 90.2598 368.601 90.2972V95.9344C368.601 96.271 368.699 96.5421 368.896 96.7431C369.092 96.9487 369.354 97.0469 369.681 97.0469C370.008 97.0469 370.27 96.9441 370.466 96.7431C370.663 96.5374 370.761 96.271 370.761 95.9344V90.2972C370.761 90.2598 370.775 90.2224 370.803 90.199C370.831 90.171 370.864 90.157 370.906 90.157H372.341C372.383 90.157 372.415 90.171 372.444 90.199C372.472 90.2271 372.486 90.2598 372.486 90.2972V95.8503C372.486 96.3644 372.369 96.8225 372.135 97.2198C371.901 97.6172 371.574 97.921 371.149 98.1407C370.723 98.3604 370.233 98.4679 369.676 98.4679C369.12 98.4679 368.629 98.3604 368.204 98.1407" fill="#3D3D3B"/>
<path d="M373.401 98.3323C373.373 98.3043 373.359 98.2716 373.359 98.2342V90.2972C373.359 90.2598 373.373 90.2224 373.401 90.199C373.43 90.171 373.467 90.157 373.504 90.157H374.939C374.981 90.157 375.014 90.171 375.042 90.199C375.07 90.2271 375.084 90.2598 375.084 90.2972V96.8973C375.084 96.9347 375.103 96.9581 375.145 96.9581H378.431C378.473 96.9581 378.506 96.9721 378.534 97.0002C378.562 97.0282 378.576 97.0609 378.576 97.0983V98.2388C378.576 98.2762 378.562 98.3136 378.534 98.337C378.506 98.3651 378.473 98.3791 378.431 98.3791H373.504C373.462 98.3791 373.43 98.3651 373.401 98.337" fill="#3D3D3B"/>
<path d="M55.6621 67.5196V47.8268C55.6621 38.4688 58.7752 30.8217 65.0014 24.8947C71.2696 18.9209 79.1879 15.9387 88.7608 15.9387C97.8243 15.9387 105.425 18.9256 111.567 24.8947C117.709 30.8684 120.78 38.6184 120.78 48.1446V67.0755C120.78 76.8589 117.816 84.8239 111.885 90.9612C105.995 97.1032 98.0159 100.174 87.9335 100.174C78.6597 100.174 70.9517 97.2294 64.8097 91.3445C58.7097 85.4175 55.6621 77.4759 55.6621 67.5196ZM73.0084 48.7803V66.5661C73.0084 71.647 74.406 75.7978 77.2013 79.0184C79.9965 82.1969 83.5957 83.7815 87.9989 83.7815C92.7854 83.7815 96.5529 82.2156 99.306 79.0791C102.059 75.9006 103.433 71.7312 103.433 66.5661V48.7803C103.433 44.293 102.012 40.4367 99.1752 37.2161C96.3799 33.9535 92.7994 32.3268 88.4383 32.3268C83.6939 32.3268 79.9264 33.9161 77.1312 37.0899C74.378 40.2684 73.0038 44.1621 73.0038 48.7803H73.0084Z" fill="#055997"/>
<path d="M137.953 67.7863C135.863 67.7863 134.045 67.4404 132.503 66.7486C130.96 66.0568 129.782 65.0986 128.969 63.8786C128.155 62.654 127.744 61.247 127.744 59.6531C127.744 58.1993 128.09 56.8812 128.782 55.6939C129.474 54.5067 130.605 53.5484 132.185 52.8239C133.76 52.0994 135.877 51.7348 138.537 51.7348H148.157V54.5534H138.64C135.948 54.5534 134.078 55.0302 133.031 55.9884C131.984 56.9466 131.46 58.1339 131.46 59.5502C131.46 61.1442 132.082 62.4202 133.321 63.3785C134.559 64.3367 136.298 64.8135 138.528 64.8135C140.757 64.8135 142.487 64.3274 144.029 63.3504C145.572 62.3782 146.694 60.9665 147.404 59.1249L148.255 61.7284C147.544 63.5701 146.315 65.0425 144.562 66.141C142.809 67.2394 140.603 67.7863 137.943 67.7863H137.953ZM147.573 67.5199V61.3545L147.414 60.3449V50.0333C147.414 47.6588 146.75 45.8358 145.422 44.5597C144.095 43.2837 142.118 42.6433 139.495 42.6433C137.686 42.6433 135.971 42.9471 134.34 43.5454C132.708 44.1484 131.329 44.9477 130.193 45.9387L128.492 43.1201C129.908 41.9141 131.61 40.9839 133.596 40.3295C135.583 39.6751 137.672 39.3479 139.869 39.3479C143.483 39.3479 146.273 40.2454 148.241 42.0309C150.209 43.8212 151.19 46.5416 151.19 50.1923V67.5199H147.577H147.573Z" fill="#055997"/>
<path d="M158.791 67.5199V39.6143H162.404V47.2708L161.82 45.8358C162.703 43.8165 164.124 42.2319 166.074 41.0774C168.023 39.9275 170.341 39.3479 173.038 39.3479C175.305 39.3479 177.301 39.7826 179.017 40.652C180.737 41.5214 182.083 42.8396 183.055 44.6112C184.028 46.3827 184.518 48.617 184.518 51.3094V67.5199H180.746V51.6787C180.746 48.7386 180.012 46.5136 178.54 45.0085C177.068 43.5034 175.006 42.7508 172.346 42.7508C170.36 42.7508 168.635 43.1481 167.163 43.9474C165.69 44.742 164.559 45.8966 163.76 47.4017C162.96 48.9068 162.563 50.7251 162.563 52.8519V67.5246H158.791V67.5199Z" fill="#055997"/>
<path d="M203.44 67.7863C200.747 67.7863 198.326 67.174 196.185 65.954C194.04 64.7293 192.348 63.0466 191.109 60.9058C189.87 58.7603 189.249 56.3063 189.249 53.5437C189.249 50.7812 189.87 48.2805 191.109 46.1537C192.348 44.0269 194.03 42.3628 196.157 41.1569C198.284 39.9509 200.71 39.3479 203.44 39.3479C206.17 39.3479 208.656 39.9509 210.802 41.1569C212.947 42.3628 214.63 44.0269 215.85 46.1537C217.075 48.2805 217.682 50.7438 217.682 53.5437C217.682 56.3437 217.07 58.7603 215.85 60.9058C214.625 63.0513 212.933 64.734 210.774 65.954C208.609 67.1787 206.165 67.7863 203.44 67.7863ZM203.44 64.4349C205.459 64.4349 207.249 63.9815 208.806 63.0793C210.362 62.1772 211.596 60.9011 212.498 59.2511C213.401 57.6057 213.854 55.6986 213.854 53.5391C213.854 51.3795 213.401 49.4304 212.498 47.799C211.596 46.1677 210.362 44.901 208.806 43.9988C207.245 43.0967 205.473 42.6433 203.491 42.6433C201.509 42.6433 199.733 43.0967 198.176 43.9988C196.615 44.901 195.377 46.1677 194.456 47.799C193.535 49.4304 193.072 51.3422 193.072 53.5391C193.072 55.736 193.53 57.6057 194.456 59.2511C195.377 60.8964 196.615 62.1725 198.176 63.0793C199.733 63.9815 201.491 64.4349 203.44 64.4349Z" fill="#055997"/>
<path d="M230.228 67.7863C227.924 67.7863 225.746 67.4591 223.689 66.8047C221.632 66.1503 220.02 65.3276 218.851 64.332L220.553 61.3545C221.688 62.2052 223.137 62.939 224.909 63.5607C226.681 64.1824 228.541 64.4909 230.49 64.4909C233.15 64.4909 235.062 64.0749 236.23 63.2429C237.399 62.4109 237.983 61.303 237.983 59.9195C237.983 58.8911 237.656 58.0871 237.001 57.5028C236.347 56.9186 235.487 56.4745 234.421 56.1753C233.36 55.8762 232.168 55.6191 230.859 55.4041C229.546 55.1891 228.246 54.946 226.952 54.6609C225.657 54.3804 224.479 53.9597 223.418 53.4128C222.357 52.8659 221.497 52.1087 220.838 51.1551C220.183 50.1969 219.856 48.9208 219.856 47.3269C219.856 45.733 220.281 44.4382 221.132 43.2322C221.983 42.0262 223.231 41.0774 224.881 40.3902C226.526 39.6984 228.541 39.3525 230.915 39.3525C232.724 39.3525 234.529 39.5909 236.338 40.0724C238.147 40.5492 239.633 41.1802 240.802 41.9608L239.152 44.9897C237.913 44.139 236.581 43.5267 235.164 43.1574C233.748 42.7835 232.327 42.6012 230.911 42.6012C228.396 42.6012 226.545 43.0359 225.358 43.9053C224.17 44.7747 223.577 45.8825 223.577 47.2287C223.577 48.2898 223.904 49.1265 224.558 49.7295C225.213 50.3325 226.082 50.7999 227.162 51.1364C228.242 51.473 229.429 51.7488 230.724 51.9591C232.019 52.1741 233.309 52.4312 234.603 52.7304C235.898 53.0295 237.086 53.4409 238.165 53.955C239.245 54.4692 240.114 55.1937 240.769 56.1333C241.423 57.0728 241.75 58.3021 241.75 59.826C241.75 61.4573 241.297 62.8643 240.395 64.0515C239.493 65.2388 238.179 66.1596 236.464 66.814C234.744 67.4684 232.664 67.7956 230.219 67.7956L230.228 67.7863Z" fill="#055997"/>
<path d="M137.911 98.4821C136.032 98.4821 134.293 98.1877 132.694 97.594C131.096 97.0004 129.708 96.159 128.534 95.0606C127.361 93.9621 126.45 92.6673 125.8 91.1669C125.15 89.6664 124.828 88.0117 124.828 86.2028C124.828 84.3938 125.15 82.7344 125.8 81.234C126.45 79.7335 127.361 78.4388 128.534 77.3403C129.708 76.2465 131.096 75.4005 132.694 74.8068C134.293 74.2132 136.032 73.9187 137.911 73.9187C140.215 73.9187 142.258 74.3207 144.034 75.1247C145.811 75.9287 147.283 77.0926 148.447 78.6164L143.445 83.0803C142.754 82.2062 141.987 81.5331 141.146 81.0517C140.304 80.5702 139.36 80.3318 138.308 80.3318C137.481 80.3318 136.733 80.4674 136.06 80.7338C135.387 81.0003 134.812 81.3929 134.33 81.9071C133.849 82.4212 133.475 83.0429 133.209 83.7675C132.942 84.4966 132.807 85.3053 132.807 86.2028C132.807 87.1002 132.942 87.9089 133.209 88.6334C133.475 89.3626 133.849 89.9796 134.33 90.4938C134.812 91.0079 135.387 91.4006 136.06 91.667C136.733 91.9381 137.481 92.069 138.308 92.069C139.36 92.069 140.304 91.8306 141.146 91.3492C141.982 90.8677 142.749 90.1899 143.445 89.3205L148.447 93.7845C147.283 95.2849 145.811 96.4395 144.034 97.2575C142.253 98.0755 140.215 98.4821 137.911 98.4821Z" fill="#055997"/>
<path d="M145.932 97.9446L156.202 74.4563H163.989L174.258 97.9446H166.069L158.487 78.2144H161.572L153.991 97.9446H145.937H145.932ZM152.037 93.85L154.051 88.1427H164.858L166.873 93.85H152.041H152.037Z" fill="#055997"/>
<path d="M172.473 97.9446L182.742 74.4563H190.529L200.799 97.9446H192.61L185.028 78.2144H188.113L180.531 97.9446H172.477H172.473ZM178.582 93.85L180.597 88.1427H191.404L193.418 93.85H178.587H178.582Z" fill="#055997"/>
<path d="M200.392 97.9446V74.4563H211.363C214.967 74.4563 217.706 75.2509 219.585 76.8402C221.464 78.4295 222.403 80.589 222.403 83.3188C222.403 85.1324 221.969 86.6936 221.095 87.9977C220.22 89.3065 218.986 90.3068 217.388 91.0033C215.789 91.6951 213.891 92.0457 211.699 92.0457H204.786L208.31 88.7924V97.954H200.392V97.9446ZM208.31 89.6571L204.786 86.0673H211.194C212.293 86.0673 213.102 85.8195 213.625 85.3287C214.149 84.8379 214.415 84.1648 214.415 83.3141C214.415 82.4634 214.153 81.7949 213.625 81.2995C213.102 80.8087 212.288 80.5609 211.194 80.5609H204.786L208.31 76.9711V89.6571ZM214.452 97.9446L208.68 89.386H217.07L222.908 97.9446H214.452Z" fill="#055997"/>
<path d="M232.472 98.4821C230.504 98.4821 228.602 98.2577 226.77 97.809C224.937 97.3603 223.423 96.7807 222.24 96.0655L224.792 90.2927C225.91 90.9425 227.158 91.4613 228.532 91.8539C229.906 92.2466 231.243 92.4429 232.542 92.4429C233.304 92.4429 233.903 92.3915 234.337 92.2933C234.772 92.1905 235.095 92.0456 235.296 91.8586C235.497 91.667 235.599 91.4379 235.599 91.1715C235.599 90.7461 235.366 90.4096 234.894 90.1665C234.421 89.9188 233.804 89.7131 233.033 89.5449C232.262 89.3766 231.416 89.1989 230.5 89.0073C229.584 88.8203 228.658 88.5679 227.733 88.2547C226.802 87.9416 225.956 87.5255 225.18 87.0114C224.409 86.4972 223.787 85.8194 223.32 84.9827C222.848 84.1414 222.614 83.099 222.614 81.8463C222.614 80.3926 223.021 79.0651 223.839 77.8684C224.657 76.6718 225.872 75.7183 227.494 74.9984C229.116 74.2833 231.135 73.9233 233.552 73.9233C235.141 73.9233 236.707 74.0916 238.25 74.4282C239.792 74.7647 241.18 75.2789 242.41 75.9707L240.026 81.7107C238.862 81.1311 237.74 80.6917 236.656 80.4019C235.571 80.1121 234.515 79.9672 233.487 79.9672C232.725 79.9672 232.122 80.0326 231.673 80.1682C231.224 80.3038 230.906 80.4814 230.715 80.7058C230.523 80.9301 230.43 81.1732 230.43 81.4443C230.43 81.8463 230.663 82.1641 231.135 82.4025C231.608 82.6362 232.225 82.8326 232.996 82.9915C233.767 83.1504 234.618 83.314 235.548 83.4963C236.478 83.6739 237.399 83.9217 238.315 84.2348C239.231 84.548 240.077 84.964 240.849 85.4782C241.62 85.9924 242.242 86.6655 242.709 87.4928C243.176 88.3202 243.415 89.3485 243.415 90.5825C243.415 92.0129 243.008 93.3264 242.19 94.523C241.372 95.7196 240.161 96.6825 238.549 97.407C236.936 98.1362 234.912 98.4961 232.477 98.4961L232.472 98.4821Z" fill="#055997"/>
<path d="M6.62402 85.1786C6.62402 90.3577 7.76923 95.0788 10.0456 99.3511C11.0038 79.9715 25.4801 63.2982 45.4067 60.2786C48.7955 59.7645 52.3714 59.6476 55.835 59.914C55.9893 59.8205 57.6487 58.8062 58.0553 58.3809C62.3744 53.8234 64.6274 48.5882 64.6274 42.6799C64.6274 35.3132 62.1921 29.0216 57.3215 23.8144C52.4508 18.5652 46.2481 15.9382 38.7084 15.9382C31.1688 15.9382 24.5219 18.626 19.7775 24.0061C15.0752 29.3862 12.724 35.6124 12.724 42.6846C12.724 48.3872 14.8414 53.6178 19.0717 58.3855C19.469 58.8296 21.306 59.9281 21.306 59.9281C21.306 59.9281 19.7915 60.6012 19.0717 61.0312C10.7468 66.028 6.62402 74.6988 6.62402 85.1833V85.1786ZM31.7203 35.374C33.6274 33.3406 35.8898 32.3263 38.5168 32.3263C41.1437 32.3263 43.5977 33.3406 45.5048 35.374C47.454 37.3652 48.4263 39.7772 48.4263 42.6145C48.4263 45.4518 47.4727 48.0133 45.5656 50.0466C43.6585 52.0799 41.4148 53.0942 38.8299 53.0942C36.0347 53.0942 33.6835 52.0799 31.7764 50.0466C29.8693 48.0133 28.9158 45.5359 28.9158 42.6145C28.9158 39.693 29.8459 37.3652 31.711 35.374H31.7203Z" fill="#03933F"/>
<path d="M45.2388 71.7637C46.613 72.4742 47.8891 73.4277 49.0624 74.6337C51.9417 77.5551 53.3814 81.0515 53.3814 85.1182C53.3814 89.1848 51.9417 92.8681 49.0624 95.7896C46.4681 98.4633 43.3738 99.9076 39.7886 100.137C40.3635 103.666 41.4012 107.181 42.9344 110.602C43.7477 112.421 44.6826 114.15 45.7109 115.791C51.4416 114.538 56.5833 111.752 61.1314 107.415C67.5259 101.273 70.7231 93.8638 70.7231 85.1789C70.7231 74.6618 66.5443 65.9909 58.0511 61.0268C57.3125 60.5968 55.8167 59.9237 55.8167 59.9237C55.8167 59.9237 55.8261 59.919 55.8401 59.9097C55.8354 59.9143 55.8214 59.919 55.8167 59.9237C51.4977 63.2097 47.9359 67.2483 45.2341 71.7637H45.2388Z" fill="#FFD405"/>
<path d="M47.1831 72.9834C47.1831 72.9834 47.2295 73.0159 47.2527 73.0344C47.2295 73.0159 47.2063 73.002 47.1831 72.9834Z" fill="#DA271E"/>
<path d="M48.5435 96.2988C48.7164 96.1352 48.8894 95.9669 49.0576 95.7893C48.8894 95.9623 48.7164 96.1352 48.5435 96.2988Z" fill="#DA271E"/>
<path d="M53.7505 112.818C53.5167 112.944 53.283 113.065 53.0493 113.182C53.283 113.065 53.5214 112.944 53.7505 112.818Z" fill="#DA271E"/>
<path d="M57.1255 110.724C57.261 110.63 57.3919 110.537 57.5275 110.438C57.3966 110.537 57.261 110.63 57.1255 110.724Z" fill="#DA271E"/>
<path d="M55.8355 59.9141L55.8213 59.9236C55.8213 59.9236 55.8308 59.9236 55.8355 59.9141Z" fill="#DA271E"/>
<path d="M55.9009 111.551C56.0692 111.443 56.2328 111.331 56.401 111.224C56.2374 111.336 56.0692 111.443 55.9009 111.551Z" fill="#DA271E"/>
<path d="M54.2881 112.519C54.5919 112.35 54.8911 112.173 55.1856 111.99C54.8864 112.173 54.5872 112.346 54.2881 112.519Z" fill="#DA271E"/>
<path d="M45.7106 115.79C44.6822 114.15 43.7474 112.42 42.9341 110.602C41.4009 107.185 40.3632 103.67 39.7883 100.136C39.4517 100.16 39.1152 100.174 38.7693 100.174C34.5343 100.174 30.9959 98.6919 28.1586 95.7284C25.3634 92.7228 23.9658 89.2498 23.9658 85.3094C23.9658 81.1586 25.3821 77.6248 28.224 74.6987C31.1034 71.7352 34.6185 70.2535 38.7693 70.2535C41.1298 70.2535 43.2846 70.7583 45.2338 71.7679C47.9356 67.2526 51.4974 63.214 55.8164 59.9279C55.8164 59.9279 55.8258 59.9233 55.8304 59.9186C52.3715 59.6522 48.791 59.769 45.4021 60.2832C25.4755 63.3028 10.9992 79.976 10.041 99.3556C11.5789 102.249 13.6309 104.941 16.2158 107.419C22.6523 113.519 30.0657 116.566 38.4514 116.566C42.49 116.566 46.2715 115.903 49.81 114.599C48.4778 115.089 47.1129 115.487 45.7106 115.795V115.79Z" fill="#DA271E"/>
<path d="M58.8919 109.382C58.7938 109.462 58.6956 109.546 58.5928 109.625C58.6909 109.546 58.7891 109.462 58.8919 109.382Z" fill="#DA271E"/>
<path d="M47.4819 97.2145C47.5848 97.135 47.6829 97.0509 47.7811 96.9714C47.6829 97.0556 47.5848 97.135 47.4819 97.2145Z" fill="#DA271E"/>
<path d="M44.6826 98.9303C44.7387 98.9069 44.7901 98.8835 44.8462 98.8555C44.7948 98.8788 44.7387 98.9069 44.6826 98.9303Z" fill="#DA271E"/>
<path d="M46.9307 97.6263C47.0242 97.5609 47.1176 97.4908 47.2064 97.4207C47.113 97.4908 47.0242 97.5562 46.9307 97.6263Z" fill="#DA271E"/>
<path d="M46.3745 98.0003C46.4586 97.9442 46.5475 97.8881 46.6316 97.832C46.5475 97.8881 46.4586 97.9489 46.3745 98.0003Z" fill="#DA271E"/>
<path d="M45.8135 98.346C45.8929 98.2993 45.9724 98.2526 46.0472 98.2058C45.9677 98.2526 45.8929 98.2993 45.8135 98.346Z" fill="#DA271E"/>
<path d="M633.342 93.385C633.748 93.401 634.153 93.3255 634.527 93.1641C634.901 93.0028 635.233 92.7596 635.5 92.4527C636.045 91.8288 636.318 90.8749 636.318 89.5911V60.0305H644.436L644.551 89.8208C644.587 93.134 643.69 95.7372 641.862 97.6521C640.033 99.5598 637.638 100.514 634.676 100.514C633.087 100.51 631.508 100.253 630 99.7531L631.578 93.0334C632.138 93.2621 632.737 93.3814 633.342 93.385ZM644.615 46.9998V55.0031H636.203V46.9998H644.615Z" fill="#212121"/>
<path d="M735.37 61.7688L729.496 79.3899L723.623 61.7688H718.825V70.0088L725.939 87.5289C725.15 89.8954 723.737 91.0859 721.715 91.0859C721.109 91.0903 720.504 91.0205 719.915 90.878L718.574 97.0095C720.324 97.4183 721.748 97.6239 722.848 97.6263C724.931 97.6704 726.951 96.9131 728.492 95.5107C730.055 94.1057 731.473 91.7534 732.745 88.454L743 61.7688H735.37Z" fill="#02A378"/>
<path d="M655.191 60.0327V77.6173C655.191 79.6397 655.636 81.1456 656.539 82.1138C657.436 83.0891 658.858 83.5767 660.806 83.5767C662.757 83.5767 664.179 83.0891 665.073 82.1138C665.97 81.1385 666.417 79.6397 666.415 77.6173V68.4806L674.533 60.3625V78.3128C674.533 82.2499 673.335 85.2476 670.94 87.3058C668.544 89.3713 665.185 90.404 660.864 90.404C656.582 90.404 653.291 89.3904 650.989 87.3632C648.686 85.3409 647.537 82.3217 647.539 78.3056V60.0183H655.191V60.0327Z" fill="#212121"/>
<path d="M698.022 76.1502C697.206 74.9797 696.098 74.0428 694.809 73.4322C693.247 72.7315 691.624 72.1747 689.961 71.7686C688.053 71.2594 686.71 70.7622 685.93 70.277C685.565 70.0704 685.264 69.7683 685.058 69.4031C684.852 69.0379 684.749 68.6235 684.761 68.2044C684.759 67.8443 684.852 67.49 685.03 67.1775C685.209 66.8651 685.468 66.6057 685.78 66.4257C686.561 65.9522 687.463 65.718 688.376 65.7522C689.817 65.7629 691.251 65.9582 692.643 66.3332C693.023 66.4336 693.389 66.5411 693.754 66.6558V64.8837L688.304 59.4333C684.754 59.4478 681.886 60.2845 679.698 61.9433C677.497 63.6214 676.399 65.9523 676.399 68.957C676.399 73.554 679.086 76.5517 684.46 77.9501C686.605 78.5311 688.161 79.0617 689.136 79.5277C690.111 79.9938 690.599 80.6751 690.599 81.5716C690.599 82.3104 690.212 82.9127 689.43 83.3861C688.648 83.8522 687.544 84.089 686.102 84.089C684.659 84.0751 683.225 83.8701 681.835 83.4793C680.402 83.0871 679.013 82.5489 677.689 81.873L675.532 87.7751C677.211 88.5716 678.961 89.2079 680.76 89.6756C682.502 90.1488 684.298 90.3947 686.103 90.4072C689.997 90.4072 693.171 89.5896 695.626 87.9546C698.079 86.3195 699.305 83.9625 699.305 80.8835C699.305 78.9327 698.877 77.3549 698.022 76.1502Z" fill="#212121"/>
<path d="M710.249 59.8124C710.249 58.4435 710.543 57.4315 711.138 56.7859C711.424 56.4682 711.775 56.2163 712.167 56.0478C712.56 55.8793 712.984 55.7982 713.411 55.8102C713.658 55.8128 713.905 55.8296 714.15 55.8603V54.1039L709.912 49.8655C707.99 50.2312 706.419 50.9556 705.214 52.06C703.421 53.7094 702.523 56.2911 702.518 59.8052V61.807H698.244V67.9735H702.461V89.5238H710.177V67.9807H716.51V61.8133H710.235V59.8124H710.249Z" fill="#02A378"/>
<defs>
<radialGradient id="paint0_radial_41_621" cx="0" cy="0" r="1" gradientUnits="userSpaceOnUse" gradientTransform="translate(291.431 56.1048) rotate(34.2) scale(31.9652 31.9652)">
<stop stop-color="#77C2E6"/>
<stop offset="0.03" stop-color="#71BADD"/>
<stop offset="0.3" stop-color="#4681A1"/>
<stop offset="0.53" stop-color="#285875"/>
<stop offset="0.71" stop-color="#153F5A"/>
<stop offset="0.81" stop-color="#0E3651"/>
<stop offset="1" stop-color="#0E3651"/>
</radialGradient>
<linearGradient id="paint1_linear_41_621" x1="374.55" y1="85.7615" x2="374.55" y2="37.4732" gradientUnits="userSpaceOnUse">
<stop stop-color="#911918"/>
<stop offset="0.3" stop-color="#A01919"/>
<stop offset="0.89" stop-color="#C81A1C"/>
<stop offset="1" stop-color="#D11B1D"/>
</linearGradient>
<linearGradient id="paint2_linear_41_621" x1="375.679" y1="82.6797" x2="375.679" y2="59.6183" gradientUnits="userSpaceOnUse">
<stop stop-color="#DC371A"/>
<stop offset="1" stop-color="#B41F1E"/>
</linearGradient>
<linearGradient id="paint3_linear_41_621" x1="335.655" y1="85.7615" x2="335.655" y2="37.4732" gradientUnits="userSpaceOnUse">
<stop stop-color="#911918"/>
<stop offset="0.3" stop-color="#A01919"/>
<stop offset="0.89" stop-color="#C81A1C"/>
<stop offset="1" stop-color="#D11B1D"/>
</linearGradient>
<linearGradient id="paint4_linear_41_621" x1="337.62" y1="62.7636" x2="337.62" y2="81.8952" gradientUnits="userSpaceOnUse">
<stop stop-color="#B41F1E"/>
<stop offset="1" stop-color="#DC371A"/>
</linearGradient>
</defs>
</svg>
