<svg width="1080" height="1080" viewBox="0 0 1080 1080" fill="none" xmlns="http://www.w3.org/2000/svg">
<g clip-path="url(#clip0_46_502)">
<rect width="1080" height="1080" fill="#FAFAFA"/>
<rect x="146" y="415" width="548" height="120" rx="13.3263" fill="#E7E8EC"/>
<rect x="146" y="546" width="273" height="120" rx="13.3263" fill="#E7E8EC"/>
<rect x="707" y="415" width="226" height="120" rx="13.3263" fill="#E7E8EC"/>
<rect x="432" y="546" width="306" height="120" rx="13.3263" fill="#E7E8EC"/>
<rect x="751" y="546" width="182" height="120" rx="13.3263" fill="#E7E8EC"/>
<path opacity="0.2" d="M501.6 141.64H488.82V154.6H483.72V141.64H471V137.02H483.72V124H488.82V137.02H501.6V141.64Z" fill="#212121"/>
<path d="M270.933 168.476C271.534 168.5 272.131 168.389 272.683 168.15C273.234 167.912 273.726 167.553 274.12 167.1C274.925 166.179 275.327 164.771 275.327 162.876V119.237H287.311L287.481 163.215C287.534 168.106 286.21 171.949 283.511 174.776C280.811 177.592 277.275 179 272.903 179C270.557 178.994 268.227 178.615 266 177.877L268.329 167.957C269.156 168.295 270.04 168.471 270.933 168.476ZM287.576 100V111.815H275.158V100H287.576Z" fill="#212121"/>
<path d="M421.551 121.8L412.881 147.813L404.21 121.8H397.127V133.964L407.629 159.828C406.465 163.322 404.379 165.079 401.394 165.079C400.498 165.086 399.606 164.983 398.736 164.772L396.756 173.824C399.339 174.428 401.443 174.731 403.066 174.735C406.141 174.8 409.124 173.682 411.398 171.612C413.706 169.537 415.799 166.065 417.676 161.194L432.816 121.8H421.551Z" fill="#02A378"/>
<path d="M303.188 119.239V145.198C303.188 148.184 303.845 150.407 305.179 151.836C306.502 153.276 308.602 153.996 311.478 153.996C314.358 153.996 316.458 153.276 317.777 151.836C319.101 150.396 319.761 148.184 319.757 145.198V131.71L331.741 119.726V146.225C331.741 152.037 329.973 156.462 326.437 159.501C322.901 162.55 317.942 164.074 311.563 164.074C305.242 164.074 300.383 162.578 296.984 159.585C293.586 156.6 291.888 152.143 291.892 146.214V119.218H303.188V119.239Z" fill="#212121"/>
<path d="M366.417 143.033C365.213 141.305 363.578 139.922 361.674 139.02C359.368 137.986 356.973 137.164 354.517 136.564C351.701 135.813 349.718 135.079 348.567 134.362C348.029 134.057 347.583 133.611 347.279 133.072C346.975 132.533 346.824 131.921 346.842 131.303C346.838 130.771 346.975 130.248 347.239 129.787C347.503 129.326 347.885 128.943 348.345 128.677C349.498 127.978 350.83 127.632 352.177 127.683C354.305 127.699 356.422 127.987 358.477 128.54C359.038 128.689 359.578 128.847 360.118 129.017V126.401L352.072 118.354C346.831 118.376 342.596 119.611 339.367 122.06C336.117 124.537 334.497 127.978 334.497 132.414C334.497 139.2 338.464 143.625 346.397 145.69C349.563 146.548 351.86 147.331 353.3 148.019C354.74 148.707 355.459 149.713 355.459 151.036C355.459 152.127 354.888 153.016 353.734 153.715C352.579 154.403 350.949 154.752 348.821 154.752C346.691 154.732 344.573 154.429 342.522 153.852C340.406 153.273 338.355 152.479 336.401 151.481L333.216 160.194C335.695 161.37 338.279 162.309 340.934 163C343.506 163.698 346.157 164.061 348.822 164.08C354.57 164.08 359.257 162.873 362.881 160.459C366.502 158.045 368.312 154.566 368.312 150.02C368.312 147.14 367.68 144.811 366.417 143.033Z" fill="#212121"/>
<path d="M384.467 118.912C384.467 116.891 384.901 115.397 385.78 114.444C386.202 113.975 386.72 113.603 387.299 113.354C387.879 113.106 388.506 112.986 389.136 113.004C389.501 113.007 389.865 113.032 390.226 113.078V110.485L383.969 104.228C381.132 104.767 378.814 105.837 377.035 107.467C374.388 109.902 373.062 113.714 373.055 118.901V121.856H366.745V130.96H372.97V162.773H384.361V130.97H393.71V121.866H384.446V118.912H384.467Z" fill="#02A378"/>
<mask id="mask0_46_502" style="mask-type:luminance" maskUnits="userSpaceOnUse" x="539" y="101" width="276" height="77">
<path d="M814.455 101H539V177.573H814.455V101Z" fill="white"/>
</mask>
<g mask="url(#mask0_46_502)">
<path d="M615.322 166.961C615.284 166.865 615.226 166.807 615.13 166.807H612.746C612.65 166.807 612.573 166.865 612.554 166.961L609.267 177.246C609.267 177.246 609.267 177.362 609.267 177.4C609.305 177.439 609.343 177.458 609.401 177.458H611.324C611.42 177.458 611.497 177.4 611.516 177.304L611.958 175.804C611.958 175.804 611.996 175.747 612.035 175.747H615.784C615.784 175.747 615.841 175.766 615.861 175.804L616.322 177.304C616.36 177.4 616.418 177.458 616.514 177.458H618.437C618.552 177.458 618.61 177.419 618.61 177.323C618.61 177.285 618.61 177.266 618.61 177.246L615.322 166.961ZM615.245 174.093H612.573C612.573 174.093 612.496 174.055 612.515 173.997L613.861 169.479C613.861 169.479 613.881 169.441 613.9 169.422C613.919 169.422 613.938 169.422 613.938 169.479L615.303 173.997C615.303 173.997 615.303 174.093 615.245 174.093Z" fill="#11567C"/>
<path d="M602.827 167.211C602.327 166.942 601.731 166.807 601.059 166.807H596.771C596.771 166.807 596.675 166.807 596.637 166.865C596.598 166.903 596.579 166.942 596.579 167V177.304C596.579 177.304 596.579 177.4 596.637 177.439C596.675 177.477 596.714 177.496 596.771 177.496H598.559C598.559 177.496 598.656 177.496 598.694 177.439C598.732 177.4 598.751 177.362 598.751 177.304V173.421C598.751 173.421 598.771 173.344 598.828 173.344H600.982C601.654 173.344 602.27 173.209 602.789 172.94C603.308 172.671 603.711 172.286 604 171.806C604.288 171.325 604.442 170.748 604.442 170.114C604.442 169.479 604.307 168.883 604.019 168.384C603.731 167.884 603.346 167.499 602.846 167.211M601.866 171.19C601.578 171.46 601.212 171.594 600.732 171.594H598.809C598.809 171.594 598.732 171.575 598.732 171.517V168.711C598.732 168.711 598.751 168.634 598.809 168.634H600.732C601.193 168.634 601.578 168.768 601.866 169.037C602.154 169.307 602.289 169.672 602.289 170.114C602.289 170.556 602.154 170.902 601.866 171.171" fill="#11567C"/>
<path d="M607.708 166.807H605.92C605.92 166.807 605.824 166.807 605.785 166.865C605.747 166.903 605.728 166.942 605.728 167V177.285C605.728 177.285 605.728 177.381 605.785 177.419C605.824 177.458 605.862 177.477 605.92 177.477H607.708C607.708 177.477 607.804 177.477 607.842 177.419C607.881 177.381 607.9 177.342 607.9 177.285V167C607.9 167 607.9 166.903 607.842 166.865C607.804 166.826 607.765 166.807 607.708 166.807Z" fill="#11567C"/>
<path d="M627.353 166.807H625.565C625.565 166.807 625.469 166.807 625.43 166.865C625.392 166.903 625.373 166.942 625.373 167V173.959C625.373 174.497 625.2 174.939 624.873 175.266C624.546 175.593 624.104 175.766 623.566 175.766C623.027 175.766 622.585 175.593 622.258 175.266C621.931 174.939 621.758 174.497 621.758 173.959V167C621.758 167 621.758 166.903 621.701 166.865C621.662 166.826 621.624 166.807 621.566 166.807H619.778C619.778 166.807 619.682 166.807 619.644 166.865C619.605 166.903 619.586 166.942 619.586 167V173.94C619.586 174.651 619.759 175.305 620.086 175.843C620.413 176.4 620.874 176.823 621.47 177.131C622.066 177.439 622.758 177.592 623.527 177.592C624.296 177.592 624.988 177.439 625.584 177.131C626.18 176.823 626.642 176.4 626.968 175.843C627.295 175.285 627.468 174.651 627.468 173.94V167C627.468 167 627.468 166.903 627.41 166.865C627.372 166.826 627.334 166.807 627.276 166.807" fill="#11567C"/>
<path d="M631.992 163.98H630.454C630.339 163.98 630.262 164.019 630.223 164.115L629.416 165.653C629.416 165.653 629.378 165.768 629.416 165.806C629.435 165.845 629.474 165.864 629.551 165.864H630.819C630.819 165.864 630.973 165.826 631.031 165.749L632.107 164.211C632.107 164.211 632.146 164.095 632.127 164.057C632.107 164.019 632.05 163.98 631.973 163.98" fill="#11567C"/>
<path d="M631.279 166.807H629.491C629.491 166.807 629.395 166.807 629.356 166.865C629.318 166.903 629.299 166.942 629.299 167V177.285C629.299 177.285 629.299 177.381 629.356 177.419C629.395 177.458 629.433 177.477 629.491 177.477H631.279C631.279 177.477 631.375 177.477 631.414 177.419C631.452 177.381 631.471 177.342 631.471 177.285V167C631.471 167 631.471 166.903 631.414 166.865C631.375 166.826 631.337 166.807 631.279 166.807Z" fill="#11567C"/>
<path d="M595.902 132.972C595.729 134.471 595.421 135.933 595.017 137.355C595.421 135.933 595.709 134.471 595.902 132.972Z" fill="#11567C"/>
<path d="M581.642 127.414C581.777 127.414 581.892 127.414 581.988 127.394C582.123 127.356 582.238 127.279 582.354 127.164C582.45 127.068 582.527 126.952 582.604 126.798C582.681 126.625 582.738 126.452 582.757 126.318C582.757 126.183 582.757 126.049 582.719 125.933C582.681 125.818 582.623 125.703 582.527 125.626C582.45 125.568 582.334 125.491 582.181 125.414L581.489 125.068L580.585 126.952L581.296 127.298C581.431 127.375 581.565 127.414 581.661 127.433M581.7 125.549L581.873 125.626C582.027 125.703 582.123 125.76 582.181 125.799C582.238 125.856 582.296 125.914 582.315 125.972C582.334 126.029 582.354 126.125 582.315 126.202C582.315 126.299 582.257 126.414 582.2 126.549C582.123 126.702 582.065 126.798 581.988 126.875C581.911 126.952 581.854 126.991 581.796 127.01C581.738 127.01 581.681 127.01 581.604 127.01C581.546 127.01 581.469 126.971 581.354 126.914L581.065 126.779L581.661 125.529L581.7 125.549Z" fill="#11567C"/>
<path d="M578.213 125.147C578.137 125.378 578.156 125.57 578.213 125.743C578.29 125.916 578.463 126.051 578.694 126.166C578.867 126.243 579.002 126.282 579.136 126.282C579.271 126.282 579.386 126.243 579.482 126.185C579.578 126.109 579.655 126.032 579.713 125.916C579.771 125.801 579.79 125.686 579.771 125.57C579.771 125.455 579.713 125.359 579.636 125.282C579.559 125.205 579.444 125.09 579.271 124.955C579.098 124.821 579.002 124.744 578.963 124.667C578.944 124.609 578.944 124.571 578.963 124.532C578.982 124.475 579.021 124.455 579.078 124.436C579.155 124.436 579.252 124.436 579.367 124.475C579.482 124.532 579.54 124.59 579.578 124.647C579.617 124.724 579.617 124.801 579.578 124.917L579.982 125.071C580.059 124.897 580.059 124.724 579.982 124.571C579.905 124.417 579.751 124.282 579.501 124.167C579.348 124.109 579.213 124.071 579.098 124.071C578.982 124.071 578.867 124.09 578.771 124.167C578.675 124.225 578.617 124.302 578.559 124.398C578.483 124.552 578.502 124.705 578.559 124.859C578.617 124.974 578.733 125.109 578.905 125.243C579.04 125.359 579.136 125.436 579.175 125.455C579.232 125.513 579.271 125.551 579.271 125.609C579.271 125.647 579.271 125.705 579.271 125.743C579.232 125.82 579.175 125.859 579.098 125.897C579.002 125.916 578.905 125.897 578.771 125.859C578.656 125.801 578.579 125.743 578.521 125.647C578.483 125.551 578.463 125.436 578.521 125.301L578.117 125.167L578.213 125.147Z" fill="#11567C"/>
<path d="M582.731 127.761C582.808 128.011 582.981 128.223 583.25 128.357C583.519 128.511 583.788 128.53 584.038 128.453C584.288 128.377 584.5 128.184 584.654 127.877C584.807 127.569 584.846 127.3 584.788 127.031C584.711 126.781 584.538 126.569 584.269 126.435C584.115 126.358 583.981 126.3 583.827 126.3C583.731 126.3 583.615 126.3 583.5 126.339C583.385 126.377 583.289 126.435 583.192 126.492C583.077 126.589 582.962 126.742 582.866 126.916C582.712 127.204 582.673 127.492 582.75 127.742M583.25 127.127C583.366 126.916 583.5 126.781 583.654 126.723C583.808 126.666 583.962 126.685 584.115 126.762C584.269 126.839 584.365 126.954 584.404 127.108C584.442 127.262 584.404 127.454 584.288 127.665C584.173 127.877 584.038 128.011 583.885 128.069C583.731 128.127 583.577 128.107 583.423 128.031C583.269 127.954 583.173 127.838 583.135 127.665C583.096 127.511 583.135 127.319 583.231 127.108" fill="#11567C"/>
<path d="M586.229 130.009C586.325 130.047 586.421 130.086 586.517 130.066C586.613 130.066 586.69 130.028 586.786 129.97C586.863 129.913 586.94 129.855 586.979 129.759C587.036 129.663 587.075 129.547 587.056 129.432C587.056 129.317 586.998 129.22 586.902 129.124C586.998 129.124 587.094 129.124 587.19 129.067C587.286 129.028 587.344 128.951 587.402 128.874C587.44 128.798 587.478 128.721 587.478 128.624C587.478 128.548 587.478 128.471 587.44 128.394C587.402 128.317 587.363 128.259 587.286 128.202C587.228 128.144 587.113 128.086 586.979 127.99L586.248 127.567L585.171 129.374L585.787 129.74C586.017 129.874 586.171 129.951 586.229 129.99M586.44 128.105L586.652 128.221C586.825 128.317 586.921 128.394 586.959 128.413C587.017 128.452 587.056 128.509 587.056 128.567C587.056 128.624 587.056 128.682 587.017 128.721C586.979 128.778 586.94 128.817 586.882 128.836C586.825 128.836 586.767 128.836 586.69 128.817C586.652 128.817 586.556 128.74 586.421 128.663L586.19 128.528L586.44 128.105ZM585.998 128.836L586.287 129.009C586.46 129.105 586.556 129.182 586.594 129.22C586.632 129.259 586.652 129.317 586.652 129.374C586.652 129.432 586.652 129.49 586.613 129.528C586.575 129.586 586.537 129.624 586.479 129.644C586.421 129.644 586.363 129.644 586.306 129.644C586.267 129.644 586.19 129.586 586.056 129.509L585.71 129.317L585.998 128.836Z" fill="#11567C"/>
<path d="M570.161 122.896C570.296 123.031 570.469 123.127 570.68 123.184C570.853 123.223 571.027 123.242 571.199 123.223C571.373 123.223 571.526 123.165 571.623 123.107L571.853 122.3L570.969 122.05L570.873 122.396L571.334 122.531L571.257 122.781C571.257 122.781 571.103 122.838 571.007 122.838C570.911 122.838 570.815 122.838 570.738 122.819C570.565 122.761 570.45 122.665 570.373 122.531C570.296 122.377 570.296 122.185 570.373 121.935C570.431 121.704 570.527 121.55 570.68 121.473C570.815 121.396 570.969 121.377 571.161 121.416C571.276 121.454 571.373 121.512 571.43 121.589C571.488 121.666 571.526 121.762 571.526 121.877L571.949 121.915C571.949 121.723 571.911 121.55 571.795 121.396C571.68 121.243 571.507 121.146 571.257 121.07C571.065 121.012 570.892 121.012 570.738 121.031C570.546 121.07 570.373 121.166 570.238 121.3C570.104 121.435 570.007 121.608 569.95 121.819C569.892 122.012 569.892 122.204 569.911 122.396C569.95 122.588 570.027 122.742 570.161 122.877" fill="#11567C"/>
<path d="M567.776 122.108C567.911 122.339 568.122 122.492 568.43 122.569C568.737 122.646 568.987 122.627 569.218 122.473C569.449 122.339 569.602 122.108 569.679 121.781C569.775 121.454 569.756 121.166 569.622 120.935C569.487 120.705 569.275 120.551 568.987 120.474C568.814 120.435 568.66 120.416 568.526 120.435C568.41 120.435 568.314 120.493 568.218 120.551C568.122 120.608 568.026 120.685 567.949 120.781C567.853 120.916 567.776 121.07 567.718 121.281C567.641 121.608 567.661 121.877 567.795 122.108M568.141 121.377C568.199 121.147 568.295 120.974 568.43 120.897C568.564 120.801 568.718 120.781 568.891 120.839C569.064 120.878 569.179 120.974 569.256 121.128C569.333 121.262 569.333 121.454 569.256 121.685C569.199 121.916 569.103 122.089 568.968 122.166C568.833 122.262 568.679 122.281 568.526 122.243C568.372 122.204 568.237 122.108 568.16 121.954C568.083 121.8 568.083 121.627 568.141 121.397" fill="#11567C"/>
<path d="M572.123 123.608L572.431 123.205L573.238 123.454L573.276 123.954L573.719 124.089L573.565 121.84L573.142 121.705L571.719 123.454L572.142 123.589L572.123 123.608ZM573.18 122.262L573.219 123.089L572.68 122.916L573.2 122.262H573.18Z" fill="#11567C"/>
<path d="M576.777 125.319C577.066 125.435 577.335 125.435 577.566 125.319C577.796 125.204 577.989 124.992 578.104 124.666C578.219 124.339 578.238 124.07 578.123 123.82C578.008 123.57 577.816 123.397 577.527 123.281C577.373 123.224 577.22 123.205 577.066 123.205C576.95 123.205 576.854 123.243 576.739 123.281C576.624 123.339 576.527 123.397 576.45 123.474C576.335 123.589 576.239 123.743 576.162 123.935C576.047 124.243 576.028 124.531 576.143 124.762C576.239 125.012 576.45 125.185 576.739 125.3M576.624 124.089C576.7 123.858 576.816 123.724 576.97 123.647C577.104 123.57 577.258 123.57 577.431 123.647C577.585 123.704 577.7 123.82 577.758 123.954C577.816 124.108 577.796 124.281 577.719 124.512C577.642 124.742 577.508 124.896 577.373 124.973C577.22 125.05 577.085 125.05 576.912 124.992C576.739 124.935 576.643 124.819 576.585 124.666C576.527 124.512 576.547 124.32 576.624 124.108" fill="#11567C"/>
<path d="M575.047 124.57C575.181 124.57 575.297 124.57 575.393 124.513C575.508 124.455 575.624 124.359 575.72 124.243C575.797 124.147 575.874 124.013 575.931 123.84C575.989 123.648 576.027 123.494 576.027 123.34C576.027 123.205 576.008 123.071 575.95 122.955C575.893 122.84 575.816 122.744 575.72 122.667C575.643 122.609 575.527 122.552 575.354 122.494L574.624 122.225L573.913 124.205L574.662 124.474C574.816 124.532 574.931 124.551 575.028 124.551M574.912 122.725L575.085 122.782C575.239 122.84 575.354 122.878 575.412 122.917C575.489 122.955 575.527 123.013 575.566 123.071C575.604 123.128 575.604 123.205 575.604 123.302C575.604 123.398 575.566 123.513 575.527 123.667C575.47 123.821 575.412 123.936 575.354 124.013C575.297 124.09 575.239 124.147 575.181 124.167C575.124 124.186 575.066 124.205 574.989 124.186C574.931 124.186 574.854 124.167 574.739 124.109L574.432 123.993L574.912 122.686V122.725Z" fill="#11567C"/>
<path d="M588.963 131.758L589.366 131.451L590.058 131.912L589.943 132.412L590.328 132.662L590.789 130.451L590.424 130.201L588.578 131.489L588.943 131.739L588.963 131.758ZM590.347 130.759L590.154 131.566L589.674 131.239L590.347 130.759Z" fill="#11567C"/>
<path d="M587.346 130.701L587.807 129.951L587.884 129.989C587.884 129.989 588.018 130.086 588.057 130.124C588.095 130.163 588.114 130.201 588.114 130.259C588.114 130.316 588.134 130.451 588.134 130.643V131.201L588.576 131.47V130.989C588.576 130.797 588.576 130.662 588.557 130.566C588.557 130.489 588.499 130.393 588.461 130.297C588.634 130.374 588.787 130.393 588.922 130.355C589.057 130.316 589.153 130.22 589.249 130.086C589.306 129.989 589.345 129.874 589.345 129.759C589.345 129.644 589.306 129.547 589.249 129.451C589.172 129.374 589.057 129.259 588.864 129.144L588.114 128.682L587 130.47L587.365 130.701H587.346ZM588.268 129.22L588.557 129.394C588.71 129.49 588.787 129.547 588.826 129.567C588.884 129.605 588.903 129.663 588.922 129.72C588.922 129.778 588.922 129.836 588.884 129.893C588.845 129.951 588.807 129.989 588.768 130.009C588.71 130.009 588.672 130.028 588.614 130.009C588.557 130.009 588.441 129.932 588.268 129.836L587.999 129.663L588.288 129.201L588.268 129.22Z" fill="#11567C"/>
<path d="M566.587 122.051L567.76 120.148L567.318 120.052L566.491 121.474L566.28 119.84L565.837 119.744L566.145 121.955L566.587 122.051Z" fill="#11567C"/>
<path d="M590.708 132.799C590.746 132.992 590.881 133.145 591.092 133.299C591.246 133.415 591.381 133.472 591.515 133.511C591.65 133.549 591.765 133.53 591.88 133.492C591.996 133.453 592.092 133.376 592.169 133.28C592.246 133.165 592.284 133.068 592.303 132.953C592.303 132.838 592.303 132.742 592.246 132.646C592.188 132.549 592.111 132.415 591.957 132.261C591.823 132.107 591.746 131.992 591.726 131.915C591.726 131.857 591.726 131.819 591.746 131.781C591.784 131.742 591.823 131.723 591.88 131.723C591.957 131.723 592.053 131.761 592.169 131.838C592.265 131.915 592.322 131.973 592.342 132.05C592.361 132.127 592.342 132.203 592.303 132.3L592.649 132.53C592.765 132.376 592.784 132.203 592.746 132.03C592.707 131.857 592.572 131.704 592.361 131.55C592.226 131.454 592.111 131.396 591.976 131.357C591.861 131.338 591.746 131.338 591.631 131.357C591.534 131.396 591.438 131.454 591.381 131.55C591.284 131.684 591.246 131.838 591.284 132.011C591.304 132.126 591.4 132.28 591.554 132.453C591.669 132.588 591.746 132.684 591.765 132.722C591.803 132.78 591.842 132.838 591.842 132.896C591.842 132.934 591.842 132.972 591.803 133.03C591.765 133.088 591.688 133.126 591.592 133.126C591.496 133.126 591.4 133.107 591.284 133.011C591.188 132.934 591.111 132.857 591.092 132.761C591.073 132.665 591.092 132.549 591.15 132.415L590.785 132.203C590.669 132.415 590.631 132.607 590.669 132.78" fill="#11567C"/>
<path d="M593.332 132.318L592.076 133.995L592.415 134.249L593.67 132.571L593.332 132.318Z" fill="#11567C"/>
<path d="M593.924 135.412L594.136 135.124L593.29 134.49L594.328 133.106L593.982 132.856L592.732 134.528L593.924 135.412Z" fill="#11567C"/>
<path d="M548.628 118.147C548.628 118.147 548.436 117.993 548.321 117.955C548.224 117.935 548.09 117.916 547.917 117.916H547.148L547.109 120.012H547.917C548.071 120.012 548.205 120.012 548.301 119.992C548.436 119.954 548.532 119.896 548.609 119.819C548.705 119.723 548.782 119.608 548.84 119.454C548.878 119.339 548.917 119.185 548.917 119.012C548.917 118.82 548.917 118.647 548.859 118.512C548.82 118.378 548.743 118.262 548.667 118.166M548.397 119.358C548.397 119.358 548.321 119.512 548.282 119.569C548.244 119.608 548.186 119.646 548.109 119.646C548.051 119.646 547.975 119.646 547.859 119.646H547.552V118.243H547.744C547.917 118.243 548.032 118.243 548.09 118.262C548.167 118.262 548.224 118.32 548.282 118.358C548.34 118.416 548.378 118.474 548.397 118.57C548.417 118.647 548.436 118.781 548.436 118.935C548.436 119.089 548.436 119.223 548.378 119.32" fill="#11567C"/>
<path d="M551.67 118.436L551.996 120.109L552.419 120.128L552.9 118.494L552.823 120.147L553.227 120.167L553.323 118.071L552.688 118.033L552.246 119.436L551.939 117.994L551.304 117.956L551.189 120.071L551.593 120.09L551.67 118.436Z" fill="#11567C"/>
<path d="M567.55 101C556.169 101 546.345 107.671 541.75 117.322C561.109 115.476 577.893 119.091 595.907 132.933C596.041 131.818 596.118 130.703 596.118 129.549C596.118 113.785 583.333 101 567.55 101ZM577.316 120.936L576.336 120.436L575.374 120.956L575.547 119.86L574.759 119.091L575.855 118.918L576.336 117.918L576.835 118.898L577.931 119.052L577.143 119.821L577.335 120.898L577.316 120.936Z" fill="#11567C"/>
<path d="M540.173 121.494C539.423 124.051 539 126.761 539 129.568C539 145.333 551.785 158.117 567.549 158.117C580.622 158.117 591.618 149.331 595.021 137.354C579.334 124.512 560.397 118.745 540.173 121.494ZM543.864 124.205L544.364 123.224L544.844 124.224L545.94 124.377L545.152 125.147L545.344 126.242L544.364 125.723L543.383 126.223L543.576 125.147L542.787 124.377L543.883 124.224L543.864 124.205ZM544.594 140.277L543.787 139.873L542.999 140.296L543.133 139.411L542.48 138.796L543.364 138.662L543.749 137.854L544.152 138.662L545.037 138.777L544.402 139.411L544.556 140.296L544.594 140.277ZM547.651 137.989L546.728 137.508L545.806 138.008L545.979 136.989L545.229 136.278L546.267 136.124L546.709 135.182L547.171 136.105L548.209 136.239L547.478 136.97L547.67 137.989H547.651ZM568.203 152.754L567.78 152.542L567.357 152.773L567.414 152.292L567.068 151.965L567.53 151.888L567.722 151.446L567.953 151.869L568.433 151.927L568.106 152.273L568.203 152.734V152.754ZM568.587 144.141L567.664 143.66L566.742 144.16L566.914 143.122L566.165 142.391L567.203 142.237L567.664 141.295L568.126 142.237L569.164 142.372L568.414 143.103L568.606 144.141H568.587ZM582.544 152.523L581.872 152.196L581.218 152.561L581.333 151.831L580.795 151.312L581.525 151.196L581.833 150.523L582.179 151.196L582.929 151.292L582.41 151.831L582.544 152.561V152.523ZM588.004 145.698L587.254 145.294L586.486 145.679L586.639 144.833L586.043 144.237L586.889 144.121L587.274 143.352L587.639 144.121L588.485 144.256L587.87 144.852L588.004 145.698ZM591.369 139.392L591.676 138.739L592.003 139.373L592.734 139.469L592.214 139.988L592.349 140.699L591.695 140.373L591.061 140.719L591.176 140.007L590.638 139.507L591.349 139.392H591.369ZM589.831 142.007L589.235 142.584L589.369 143.41L588.639 143.006L587.889 143.391L588.043 142.584L587.466 141.988L588.293 141.891L588.677 141.161L589.023 141.911L589.85 142.045L589.831 142.007ZM587.043 138.911L587.485 137.97L587.966 138.892L589.004 139.027L588.273 139.757L588.466 140.776L587.543 140.296L586.62 140.796L586.774 139.757L586.024 139.046L587.043 138.873V138.911ZM584.313 145.41L584.601 144.775L584.928 145.39L585.62 145.467L585.121 145.967L585.255 146.659L584.621 146.352L584.005 146.698L584.102 146.006L583.583 145.525L584.275 145.41H584.313ZM581.487 145.41L581.814 144.737L582.141 145.41L582.871 145.525L582.333 146.044L582.448 146.774L581.795 146.428L581.141 146.774L581.276 146.044L580.756 145.525L581.487 145.429V145.41ZM581.525 148.043L581.929 147.236L582.314 148.043L583.198 148.178L582.544 148.793L582.679 149.677L581.891 149.255L581.083 149.658L581.256 148.774L580.622 148.14L581.506 148.024L581.525 148.043ZM578.142 146.044L578.469 145.371L578.795 146.044L579.526 146.14L579.007 146.659L579.142 147.39L578.488 147.044L577.834 147.39L577.95 146.659L577.411 146.14L578.142 146.025V146.044ZM575.854 147.986L576.239 148.735L577.084 148.831L576.488 149.427L576.642 150.254L575.873 149.87L575.124 150.273L575.258 149.427L574.643 148.851L575.489 148.716L575.854 147.947V147.986ZM573.932 127.319L574.278 126.627L574.624 127.319L575.393 127.434L574.835 127.973L574.97 128.741L574.278 128.376L573.585 128.741L573.72 127.973L573.163 127.434L573.932 127.319ZM573.201 145.313L573.528 144.641L573.855 145.313L574.585 145.429L574.047 145.948L574.162 146.678L573.509 146.332L572.855 146.678L572.99 145.948L572.471 145.429L573.201 145.333V145.313ZM570.394 135.624L570.798 136.432L571.702 136.547L571.048 137.181L571.221 138.085L570.413 137.662L569.606 138.104L569.76 137.2L569.106 136.566L570.01 136.432L570.413 135.605L570.394 135.624ZM567.414 134.009L567.799 133.202L568.203 134.009L569.106 134.125L568.472 134.759L568.645 135.643L567.837 135.24L567.049 135.663L567.184 134.778L566.53 134.163L567.414 134.028V134.009ZM565.723 138.527L565.972 138.046L566.203 138.546L566.742 138.623L566.338 138.988L566.415 139.527L565.934 139.258L565.453 139.507L565.55 138.969L565.165 138.585L565.703 138.508L565.723 138.527ZM563.512 136.835L563.858 136.143L564.204 136.835L564.973 136.951L564.415 137.489L564.55 138.258L563.858 137.893L563.166 138.258L563.3 137.489L562.743 136.951L563.512 136.835ZM556.052 130.203L556.437 129.376L556.86 130.183L557.763 130.28L557.129 130.933L557.302 131.818L556.475 131.414L555.687 131.856L555.822 130.952L555.149 130.337L556.052 130.183V130.203ZM555.168 144.756L555.61 143.852L556.072 144.756L557.071 144.891L556.36 145.602L556.533 146.602L555.63 146.14L554.745 146.621L554.899 145.621L554.168 144.929L555.168 144.775V144.756ZM552.073 138.892L552.438 138.104L552.823 138.873L553.688 138.988L553.073 139.604L553.226 140.45L552.457 140.065L551.688 140.488L551.823 139.642L551.189 139.046L552.034 138.911L552.073 138.892ZM551.131 141.93L551.458 141.257L551.785 141.93L552.534 142.045L551.996 142.564L552.131 143.314L551.458 142.968L550.785 143.314L550.919 142.564L550.381 142.045L551.131 141.93ZM550.15 134.605L549.747 134.99L549.843 135.547L549.343 135.278L548.843 135.528L548.939 134.97L548.536 134.586L549.093 134.509L549.343 134.009L549.593 134.509L550.15 134.586V134.605Z" fill="#11567C"/>
<path d="M555.627 120.282C555.761 120.244 555.858 120.205 555.934 120.129C556.031 120.032 556.127 119.917 556.184 119.782C556.242 119.667 556.261 119.513 556.28 119.34C556.28 119.148 556.28 118.975 556.242 118.84C556.204 118.706 556.146 118.591 556.069 118.494C555.992 118.398 555.877 118.321 555.761 118.283C555.665 118.244 555.531 118.225 555.358 118.225L554.589 118.168L554.454 120.263L555.242 120.321C555.396 120.321 555.531 120.321 555.627 120.302M554.896 119.936L554.992 118.552H555.185C555.358 118.571 555.473 118.591 555.531 118.61C555.608 118.629 555.665 118.667 555.723 118.725C555.781 118.783 555.8 118.84 555.838 118.937C555.858 119.033 555.877 119.148 555.838 119.302C555.838 119.456 555.8 119.59 555.761 119.686C555.723 119.782 555.685 119.84 555.646 119.879C555.588 119.917 555.531 119.936 555.473 119.956C555.415 119.956 555.338 119.956 555.223 119.956H554.916L554.896 119.936Z" fill="#11567C"/>
<path d="M543.553 117.995C543.38 117.995 543.226 118.033 543.111 118.091C543.015 118.129 542.919 118.206 542.842 118.283C542.765 118.379 542.707 118.475 542.65 118.571C542.592 118.725 542.573 118.898 542.573 119.11C542.573 119.437 542.688 119.706 542.88 119.879C543.073 120.052 543.323 120.148 543.63 120.129C543.938 120.129 544.188 120.013 544.361 119.821C544.534 119.629 544.611 119.36 544.611 119.014C544.611 118.668 544.495 118.398 544.303 118.225C544.111 118.033 543.861 117.956 543.553 117.976M544.053 119.61C543.957 119.744 543.822 119.802 543.649 119.802C543.476 119.802 543.342 119.744 543.226 119.629C543.111 119.514 543.053 119.34 543.034 119.091C543.034 118.86 543.073 118.668 543.169 118.552C543.265 118.437 543.399 118.36 543.592 118.36C543.765 118.36 543.899 118.398 544.015 118.514C544.13 118.629 544.188 118.802 544.188 119.052C544.188 119.302 544.149 119.475 544.053 119.61Z" fill="#11567C"/>
<path d="M546.38 119.263C546.38 119.263 546.245 119.148 546.149 119.09C546.341 119.052 546.476 118.994 546.553 118.879C546.649 118.783 546.687 118.648 546.687 118.475C546.687 118.36 546.649 118.244 546.591 118.148C546.533 118.052 546.437 117.994 546.341 117.956C546.245 117.918 546.072 117.898 545.841 117.918H544.957L544.995 120.032H545.418V119.148H545.495C545.591 119.148 545.668 119.148 545.707 119.148C545.745 119.148 545.803 119.186 545.841 119.225C545.88 119.263 545.957 119.359 546.072 119.532L546.38 119.975H546.88L546.61 119.552C546.495 119.398 546.418 119.283 546.36 119.225M545.707 118.821H545.399V118.302H545.726C545.899 118.302 545.995 118.302 546.034 118.302C546.111 118.302 546.149 118.341 546.187 118.379C546.226 118.417 546.245 118.475 546.245 118.552C546.245 118.61 546.245 118.667 546.207 118.706C546.168 118.744 546.13 118.783 546.091 118.802C546.034 118.802 545.918 118.821 545.707 118.84" fill="#11567C"/>
<path d="M550.821 118.303V117.957L549.264 117.938L549.245 120.033L550.84 120.052V119.706L549.668 119.687L549.687 119.11L550.725 119.13L550.744 118.764H549.687V118.284L550.821 118.303Z" fill="#11567C"/>
<path d="M557.472 120.552C557.78 120.571 558.03 120.494 558.241 120.321C558.433 120.148 558.549 119.898 558.587 119.552C558.606 119.206 558.549 118.937 558.376 118.726C558.203 118.514 557.972 118.399 557.664 118.38C557.491 118.38 557.337 118.38 557.203 118.418C557.107 118.456 557.011 118.514 556.915 118.591C556.818 118.668 556.761 118.764 556.703 118.86C556.626 118.995 556.588 119.168 556.568 119.379C556.549 119.706 556.607 119.975 556.78 120.187C556.953 120.398 557.184 120.513 557.491 120.533M556.972 119.418C556.991 119.168 557.068 118.995 557.184 118.899C557.299 118.783 557.453 118.745 557.626 118.764C557.799 118.764 557.933 118.841 558.03 118.975C558.126 119.11 558.164 119.283 558.145 119.533C558.126 119.783 558.049 119.956 557.933 120.071C557.818 120.187 557.664 120.225 557.51 120.225C557.337 120.225 557.203 120.129 557.107 120.014C557.011 119.879 556.972 119.706 556.991 119.456" fill="#11567C"/>
<path d="M559.934 120.416C559.934 120.416 559.761 120.473 559.626 120.454C559.492 120.454 559.396 120.396 559.338 120.319C559.261 120.243 559.242 120.127 559.223 119.993H558.8C558.8 120.204 558.857 120.396 558.973 120.55C559.107 120.685 559.3 120.781 559.55 120.819C559.723 120.838 559.896 120.819 560.011 120.819C560.146 120.781 560.242 120.723 560.319 120.627C560.396 120.531 560.453 120.416 560.453 120.3C560.453 120.166 560.453 120.05 560.415 119.954C560.376 119.858 560.299 119.781 560.222 119.704C560.126 119.647 559.992 119.57 559.78 119.493C559.588 119.416 559.453 119.358 559.415 119.301C559.377 119.262 559.357 119.224 559.377 119.166C559.377 119.108 559.415 119.07 559.453 119.051C559.53 119.012 559.626 118.993 559.742 119.012C559.857 119.012 559.953 119.07 559.992 119.127C560.049 119.185 560.069 119.262 560.069 119.377L560.492 119.416C560.511 119.224 560.472 119.07 560.357 118.935C560.242 118.801 560.049 118.724 559.78 118.685C559.626 118.666 559.473 118.685 559.357 118.685C559.242 118.724 559.146 118.781 559.069 118.858C558.992 118.935 558.954 119.031 558.934 119.147C558.915 119.32 558.954 119.454 559.069 119.589C559.146 119.685 559.3 119.781 559.511 119.858C559.684 119.935 559.8 119.973 559.838 119.993C559.915 120.031 559.953 120.069 559.973 120.108C559.992 120.146 560.011 120.185 559.992 120.243C559.992 120.319 559.934 120.377 559.857 120.435" fill="#11567C"/>
<path d="M564.697 121.61C564.832 121.61 564.928 121.552 565.024 121.494C565.139 121.417 565.236 121.321 565.313 121.167C565.389 121.052 565.428 120.918 565.466 120.744C565.505 120.552 565.505 120.379 565.485 120.245C565.466 120.11 565.428 119.975 565.351 119.879C565.274 119.764 565.197 119.687 565.082 119.629C565.005 119.591 564.87 119.553 564.697 119.514L563.928 119.38L563.544 121.437L564.332 121.59C564.486 121.629 564.62 121.629 564.717 121.61M564.274 119.802L564.467 119.841C564.64 119.879 564.755 119.899 564.813 119.918C564.89 119.956 564.947 119.995 564.986 120.052C565.024 120.11 565.063 120.187 565.063 120.283C565.063 120.379 565.063 120.495 565.044 120.648C565.005 120.802 564.967 120.937 564.928 121.014C564.89 121.091 564.832 121.167 564.774 121.187C564.717 121.225 564.659 121.244 564.582 121.244C564.524 121.244 564.448 121.244 564.332 121.225L564.024 121.167L564.294 119.802H564.274Z" fill="#11567C"/>
<path d="M561.935 120.666L562.762 120.801L562.877 121.301L563.338 121.378L562.819 119.167L562.377 119.109L561.243 121.051L561.685 121.128L561.935 120.686V120.666ZM562.512 119.609L562.685 120.416L562.127 120.32L562.531 119.59L562.512 119.609Z" fill="#11567C"/>
<path d="M666.822 125.472C666.822 125.472 670.417 121.608 670.417 116.032C670.417 105.766 659.689 101.114 659.689 101.114H639.311V158.231H666.283C666.283 158.231 679.914 153.905 679.914 141.755C679.914 129.605 666.802 125.472 666.802 125.472" fill="#11567C"/>
<path d="M589.351 158.231H637.72L613.536 101.114L589.351 158.231Z" fill="#11567C"/>
<path d="M693.95 132.451H693.027V157.155H693.95V132.451Z" fill="#E4051F"/>
<path d="M725.829 154.254C725.156 154.753 724.445 155.196 723.676 155.561C722.907 155.926 722.08 156.195 721.215 156.407C720.331 156.618 719.351 156.714 718.274 156.714C716.563 156.714 714.986 156.407 713.545 155.772C712.103 155.138 710.853 154.273 709.796 153.196C708.738 152.12 707.912 150.812 707.316 149.332C706.72 147.852 706.412 146.256 706.412 144.545C706.412 142.834 706.72 141.277 707.316 139.796C707.912 138.316 708.738 137.009 709.796 135.894C710.853 134.779 712.122 133.894 713.583 133.26C715.044 132.626 716.64 132.299 718.37 132.299C719.447 132.299 720.427 132.395 721.292 132.568C722.157 132.741 722.965 133.01 723.695 133.337C724.445 133.664 725.118 134.048 725.752 134.51C726.387 134.971 726.983 135.49 727.579 136.048L725.752 138.009C724.733 137.067 723.657 136.278 722.503 135.682C721.35 135.067 719.946 134.779 718.332 134.779C717.024 134.779 715.813 135.029 714.698 135.529C713.583 136.028 712.622 136.72 711.795 137.586C710.968 138.47 710.334 139.489 709.873 140.681C709.411 141.873 709.181 143.142 709.181 144.506C709.181 145.871 709.411 147.16 709.873 148.352C710.334 149.544 710.968 150.581 711.795 151.466C712.622 152.35 713.583 153.042 714.698 153.542C715.813 154.042 717.024 154.292 718.332 154.292C719.946 154.292 721.35 154.004 722.523 153.408C723.695 152.812 724.849 151.966 725.964 150.889L727.713 152.619C727.098 153.254 726.464 153.811 725.81 154.33L725.829 154.254Z" fill="#00577F"/>
<path d="M754.613 156.291H751.75L748.981 150.043H736.119L733.313 156.291H730.583L741.348 132.49H743.848L754.613 156.291ZM742.56 135.624L737.157 147.678H747.923L742.56 135.624Z" fill="#00577F"/>
<path d="M782.182 156.291H779.319L776.549 150.043H763.687L760.882 156.291H758.15L768.917 132.49H771.417L782.182 156.291ZM770.128 135.624L764.725 147.678H775.492L770.128 135.624Z" fill="#00577F"/>
<path d="M804.419 144.505C803.919 145.543 803.247 146.409 802.381 147.101C801.517 147.793 800.498 148.312 799.343 148.677C798.191 149.042 796.94 149.196 795.615 149.196H791.673V156.29H786.483V132.663H796.134C797.557 132.663 798.824 132.855 799.939 133.259C801.056 133.662 801.998 134.201 802.766 134.931C803.536 135.643 804.131 136.508 804.555 137.507C804.976 138.507 805.169 139.622 805.169 140.833V140.91C805.169 142.275 804.918 143.486 804.419 144.524V144.505ZM799.901 140.929C799.901 139.757 799.518 138.872 798.767 138.257C798.018 137.642 796.98 137.354 795.672 137.354H791.654V144.582H795.768C797.076 144.582 798.095 144.236 798.805 143.544C799.537 142.852 799.882 142.006 799.882 140.987V140.91L799.901 140.929Z" fill="#00577F"/>
<path d="M809.263 156.29V132.663H814.455V156.29H809.263Z" fill="#00577F"/>
</g>
<rect x="201" y="706" width="678" height="174" rx="11.3263" stroke="url(#paint0_linear_46_502)" stroke-width="4"/>
<g aria-label="Oferta protegida do Modelo 3">
<text fill="#01A379" style="white-space: pre" xml:space="preserve" font-family="Poppins" font-size="32" font-weight="bold" letter-spacing="0em"><tspan x="598.671" y="770.816">*</tspan></text>
<text fill="#01A379" style="white-space: pre" xml:space="preserve" font-family="Poppins" font-size="28" font-weight="bold" letter-spacing="0em"><tspan x="622.122" y="770.816">no primeiro mês</tspan></text>
<text fill="#212121" style="white-space: pre" xml:space="preserve" font-family="Poppins" font-size="28" letter-spacing="0em"><tspan x="221.048" y="770.816">Tudo isso por</tspan></text>
<text fill="#01A379" style="white-space: pre" xml:space="preserve" font-family="Poppins" font-size="48" font-weight="bold" letter-spacing="0em"><tspan x="413.562" y="770.816">R$19,90</tspan></text>
<text fill="#212121" style="white-space: pre" xml:space="preserve" font-family="Poppins" font-size="28" letter-spacing="0em"><tspan x="307.344" y="828.656">E depois,</tspan><tspan x="647.895" y="828.656">contínuo</tspan></text>
<text fill="#01A379" style="white-space: pre" xml:space="preserve" font-family="Poppins" font-size="48" font-weight="bold" letter-spacing="0em"><tspan x="437.35" y="828.656">30% OFF</tspan></text>
<text fill="#606762" style="white-space: pre" xml:space="preserve" font-family="Poppins" font-size="11" letter-spacing="0em" text-anchor="middle"><tspan x="540" y="861">*Válido no primeiro mês para assinantes no plano degustação.</tspan></text>
</g>
<text fill="#212121" style="white-space: pre" xml:space="preserve" font-family="Poppins" font-size="30" font-weight="600" letter-spacing="0em"><tspan x="166" y="466">IA jur&#xed;dica completa treinada por </tspan><tspan x="166" y="505">50 mil advogados todos os dias</tspan></text>
<text fill="#212121" style="white-space: pre" xml:space="preserve" font-family="Poppins" font-size="30" letter-spacing="0em"><tspan x="166" y="597">C&#xe1;lculos </tspan></text>
<text fill="#212121" style="white-space: pre" xml:space="preserve" font-family="Poppins" font-size="30" font-weight="600" letter-spacing="0em"><tspan x="166" y="636">automatizados</tspan></text>
<text fill="#212121" style="white-space: pre" xml:space="preserve" font-family="Poppins" font-size="30" letter-spacing="0em"><tspan x="738" y="466">Consultas </tspan><tspan x="738" y="505">Legais</tspan></text>
<text fill="#212121" style="white-space: pre" xml:space="preserve" font-family="Poppins" font-size="30" letter-spacing="0em"><tspan x="561.98" y="597"> solu&#xe7;&#xf5;es </tspan><tspan x="452" y="636">integradas</tspan></text>
<text fill="#212121" style="white-space: pre" xml:space="preserve" font-family="Poppins" font-size="30" font-weight="600" letter-spacing="0em"><tspan x="452" y="597">+ de 20</tspan></text>
<text fill="#212121" style="white-space: pre" xml:space="preserve" font-family="Poppins" font-size="30" font-weight="600" letter-spacing="0em"><tspan x="770" y="597">Plano </tspan><tspan x="770" y="636">exclusivo</tspan></text>
<rect x="360" y="899" width="361" height="84" rx="42" fill="#01A379"/>
<text fill="#FAFAFA" style="white-space: pre" xml:space="preserve" font-family="Poppins" font-size="30" font-weight="bold" letter-spacing="0em"><tspan x="419.035" y="951">Come&#xe7;ar agora</tspan></text>
<circle cx="1085.5" cy="-6.5" r="217.5" stroke="url(#paint7_linear_46_502)" stroke-width="50"/>
<circle cx="-4" cy="1118" r="270" fill="#01A077"/>
<text fill="#212121" style="white-space: pre" xml:space="preserve" font-family="Poppins" font-size="50" font-weight="bold" letter-spacing="0em"><tspan x="236.032" y="306">Advocacia do PI livre de&#x2028;</tspan><tspan x="160.568" y="371">tarefas manuais e repetitivas</tspan></text>
</g>
<defs>
<linearGradient id="paint0_linear_46_502" x1="199" y1="793" x2="881" y2="793" gradientUnits="userSpaceOnUse">
<stop stop-color="#12A67A"/>
<stop offset="1" stop-color="#75D9B5"/>
</linearGradient>
<linearGradient id="paint1_linear_46_502" x1="907" y1="891" x2="907" y2="858" gradientUnits="userSpaceOnUse">
<stop stop-color="#01AB7D"/>
<stop offset="1" stop-color="#008F69"/>
</linearGradient>
<linearGradient id="paint2_linear_46_502" x1="166" y1="747" x2="166" y2="714" gradientUnits="userSpaceOnUse">
<stop stop-color="#01AB7D"/>
<stop offset="1" stop-color="#008F69"/>
</linearGradient>
<linearGradient id="paint3_linear_46_502" x1="885" y1="916" x2="885" y2="896" gradientUnits="userSpaceOnUse">
<stop stop-color="#01AB7D"/>
<stop offset="1" stop-color="#008F69"/>
</linearGradient>
<linearGradient id="paint4_linear_46_502" x1="895" y1="714" x2="895" y2="694" gradientUnits="userSpaceOnUse">
<stop stop-color="#01AB7D"/>
<stop offset="1" stop-color="#008F69"/>
</linearGradient>
<linearGradient id="paint5_linear_46_502" x1="221" y1="921" x2="221" y2="901" gradientUnits="userSpaceOnUse">
<stop stop-color="#01AB7D"/>
<stop offset="1" stop-color="#008F69"/>
</linearGradient>
<linearGradient id="paint6_linear_46_502" x1="185" y1="714" x2="185" y2="694" gradientUnits="userSpaceOnUse">
<stop stop-color="#01AB7D"/>
<stop offset="1" stop-color="#008F69"/>
</linearGradient>
<linearGradient id="paint7_linear_46_502" x1="843" y1="-6.5" x2="1328" y2="-6.5" gradientUnits="userSpaceOnUse">
<stop stop-color="#12A67A"/>
<stop offset="1" stop-color="#75D9B5"/>
</linearGradient>
<clipPath id="clip0_46_502">
<rect width="1080" height="1080" fill="white"/>
</clipPath>
</defs>
</svg>
