<svg width="1080" height="1920" viewBox="0 0 1080 1920" fill="none" xmlns="http://www.w3.org/2000/svg">
<g clip-path="url(#clip0_69_3)">
<rect width="1080" height="1920" fill="#FAFAFA"/>
<rect x="159" y="709" width="548" height="120" rx="13.3263" fill="#E7E8EC"/>
<rect x="159" y="840" width="273" height="120" rx="13.3263" fill="#E7E8EC"/>
<rect x="720" y="709" width="226" height="120" rx="13.3263" fill="#E7E8EC"/>
<rect x="445" y="840" width="306" height="120" rx="13.3263" fill="#E7E8EC"/>
<rect x="764" y="840" width="182" height="120" rx="13.3263" fill="#E7E8EC"/>
<path opacity="0.2" d="M514.6 437.64H501.82V450.6H496.72V437.64H484V433.02H496.72V420H501.82V433.02H514.6V437.64Z" fill="#212121"/>
<path d="M283.933 464.476C284.534 464.5 285.131 464.389 285.683 464.15C286.234 463.912 286.726 463.553 287.12 463.1C287.925 462.179 288.327 460.771 288.327 458.876V415.237H300.311L300.481 459.215C300.534 464.106 299.21 467.949 296.511 470.776C293.811 473.592 290.275 475 285.903 475C283.557 474.994 281.227 474.615 279 473.877L281.329 463.957C282.156 464.295 283.04 464.471 283.933 464.476ZM300.576 396V407.815H288.158V396H300.576Z" fill="#212121"/>
<path d="M434.551 417.8L425.881 443.813L417.21 417.8H410.127V429.964L420.629 455.828C419.465 459.322 417.379 461.079 414.394 461.079C413.498 461.086 412.606 460.983 411.736 460.772L409.756 469.824C412.339 470.428 414.443 470.731 416.066 470.735C419.141 470.8 422.124 469.682 424.398 467.611C426.706 465.537 428.799 462.065 430.676 457.194L445.816 417.8H434.551Z" fill="#02A378"/>
<path d="M316.188 415.239V441.198C316.188 444.184 316.845 446.407 318.179 447.836C319.502 449.276 321.602 449.996 324.478 449.996C327.358 449.996 329.458 449.276 330.777 447.836C332.101 446.396 332.761 444.184 332.757 441.198V427.71L344.741 415.726V442.225C344.741 448.037 342.973 452.462 339.437 455.501C335.901 458.55 330.942 460.075 324.563 460.075C318.242 460.075 313.383 458.578 309.984 455.586C306.586 452.6 304.888 448.143 304.892 442.214V415.218H316.188V415.239Z" fill="#212121"/>
<path d="M379.417 439.033C378.213 437.305 376.578 435.922 374.674 435.02C372.368 433.986 369.973 433.164 367.517 432.564C364.701 431.813 362.718 431.079 361.567 430.362C361.029 430.057 360.583 429.611 360.279 429.072C359.975 428.533 359.824 427.921 359.842 427.303C359.838 426.771 359.975 426.248 360.239 425.787C360.503 425.326 360.885 424.943 361.345 424.677C362.498 423.978 363.83 423.632 365.177 423.683C367.305 423.698 369.422 423.987 371.477 424.54C372.038 424.689 372.578 424.847 373.118 425.017V422.401L365.072 414.354C359.831 414.376 355.596 415.611 352.367 418.06C349.117 420.537 347.497 423.978 347.497 428.414C347.497 435.2 351.464 439.625 359.397 441.69C362.563 442.548 364.86 443.331 366.3 444.019C367.74 444.707 368.459 445.713 368.459 447.036C368.459 448.127 367.888 449.016 366.734 449.715C365.579 450.403 363.949 450.752 361.821 450.752C359.691 450.732 357.573 450.429 355.522 449.852C353.406 449.273 351.355 448.479 349.401 447.481L346.216 456.194C348.695 457.37 351.279 458.309 353.934 459C356.506 459.698 359.157 460.061 361.822 460.08C367.57 460.08 372.257 458.873 375.881 456.459C379.502 454.045 381.312 450.566 381.312 446.02C381.312 443.14 380.68 440.811 379.417 439.033Z" fill="#212121"/>
<path d="M397.467 414.912C397.467 412.891 397.901 411.397 398.78 410.444C399.202 409.975 399.72 409.603 400.299 409.354C400.879 409.106 401.506 408.986 402.136 409.004C402.501 409.007 402.865 409.032 403.226 409.078V406.485L396.969 400.228C394.132 400.767 391.814 401.837 390.035 403.467C387.388 405.902 386.062 409.714 386.055 414.901V417.856H379.745V426.96H385.97V458.773H397.361V426.97H406.71V417.866H397.446V414.912H397.467Z" fill="#02A378"/>
<mask id="mask0_69_3" style="mask-type:luminance" maskUnits="userSpaceOnUse" x="552" y="397" width="276" height="77">
<path d="M827.455 397H552V473.573H827.455V397Z" fill="white"/>
</mask>
<g mask="url(#mask0_69_3)">
<path d="M628.322 462.961C628.284 462.865 628.226 462.807 628.13 462.807H625.746C625.65 462.807 625.573 462.865 625.554 462.961L622.267 473.246C622.267 473.246 622.267 473.362 622.267 473.4C622.305 473.439 622.343 473.458 622.401 473.458H624.324C624.42 473.458 624.497 473.4 624.516 473.304L624.958 471.804C624.958 471.804 624.996 471.747 625.035 471.747H628.784C628.784 471.747 628.841 471.766 628.861 471.804L629.322 473.304C629.36 473.4 629.418 473.458 629.514 473.458H631.437C631.552 473.458 631.61 473.419 631.61 473.323C631.61 473.285 631.61 473.266 631.61 473.246L628.322 462.961ZM628.245 470.093H625.573C625.573 470.093 625.496 470.055 625.515 469.997L626.861 465.48C626.861 465.48 626.881 465.441 626.9 465.422C626.919 465.422 626.938 465.422 626.938 465.48L628.303 469.997C628.303 469.997 628.303 470.093 628.245 470.093Z" fill="#11567C"/>
<path d="M615.827 463.211C615.327 462.942 614.731 462.807 614.059 462.807H609.771C609.771 462.807 609.675 462.807 609.637 462.865C609.598 462.903 609.579 462.942 609.579 463V473.304C609.579 473.304 609.579 473.4 609.637 473.439C609.675 473.477 609.714 473.496 609.771 473.496H611.559C611.559 473.496 611.656 473.496 611.694 473.439C611.732 473.4 611.751 473.362 611.751 473.304V469.421C611.751 469.421 611.771 469.344 611.828 469.344H613.982C614.654 469.344 615.27 469.209 615.789 468.94C616.308 468.671 616.711 468.286 617 467.806C617.288 467.325 617.442 466.748 617.442 466.114C617.442 465.479 617.307 464.884 617.019 464.384C616.731 463.884 616.346 463.499 615.846 463.211M614.866 467.19C614.578 467.46 614.212 467.594 613.732 467.594H611.809C611.809 467.594 611.732 467.575 611.732 467.517V464.711C611.732 464.711 611.751 464.634 611.809 464.634H613.732C614.193 464.634 614.578 464.768 614.866 465.037C615.154 465.307 615.289 465.672 615.289 466.114C615.289 466.556 615.154 466.902 614.866 467.171" fill="#11567C"/>
<path d="M620.708 462.807H618.92C618.92 462.807 618.824 462.807 618.785 462.865C618.747 462.903 618.728 462.942 618.728 463V473.285C618.728 473.285 618.728 473.381 618.785 473.419C618.824 473.458 618.862 473.477 618.92 473.477H620.708C620.708 473.477 620.804 473.477 620.842 473.419C620.881 473.381 620.9 473.342 620.9 473.285V463C620.9 463 620.9 462.903 620.842 462.865C620.804 462.826 620.765 462.807 620.708 462.807Z" fill="#11567C"/>
<path d="M640.353 462.807H638.565C638.565 462.807 638.469 462.807 638.43 462.865C638.392 462.903 638.373 462.942 638.373 463V469.959C638.373 470.497 638.2 470.939 637.873 471.266C637.546 471.593 637.104 471.766 636.566 471.766C636.027 471.766 635.585 471.593 635.258 471.266C634.931 470.939 634.758 470.497 634.758 469.959V463C634.758 463 634.758 462.903 634.701 462.865C634.662 462.826 634.624 462.807 634.566 462.807H632.778C632.778 462.807 632.682 462.807 632.644 462.865C632.605 462.903 632.586 462.942 632.586 463V469.94C632.586 470.651 632.759 471.305 633.086 471.843C633.413 472.4 633.874 472.823 634.47 473.131C635.066 473.439 635.758 473.592 636.527 473.592C637.296 473.592 637.988 473.439 638.584 473.131C639.18 472.823 639.642 472.4 639.968 471.843C640.295 471.285 640.468 470.651 640.468 469.94V463C640.468 463 640.468 462.903 640.41 462.865C640.372 462.826 640.334 462.807 640.276 462.807" fill="#11567C"/>
<path d="M644.992 459.98H643.454C643.339 459.98 643.262 460.019 643.223 460.115L642.416 461.653C642.416 461.653 642.378 461.768 642.416 461.806C642.435 461.845 642.474 461.864 642.551 461.864H643.819C643.819 461.864 643.973 461.826 644.031 461.749L645.107 460.211C645.107 460.211 645.146 460.095 645.127 460.057C645.107 460.019 645.05 459.98 644.973 459.98" fill="#11567C"/>
<path d="M644.279 462.807H642.491C642.491 462.807 642.395 462.807 642.356 462.865C642.318 462.903 642.299 462.942 642.299 463V473.285C642.299 473.285 642.299 473.381 642.356 473.419C642.395 473.458 642.433 473.477 642.491 473.477H644.279C644.279 473.477 644.375 473.477 644.414 473.419C644.452 473.381 644.471 473.342 644.471 473.285V463C644.471 463 644.471 462.903 644.414 462.865C644.375 462.826 644.337 462.807 644.279 462.807Z" fill="#11567C"/>
<path d="M608.902 428.972C608.729 430.472 608.421 431.933 608.017 433.355C608.421 431.933 608.709 430.472 608.902 428.972Z" fill="#11567C"/>
<path d="M594.642 423.414C594.777 423.414 594.892 423.414 594.988 423.394C595.123 423.356 595.238 423.279 595.354 423.164C595.45 423.068 595.527 422.952 595.604 422.798C595.681 422.625 595.738 422.452 595.757 422.318C595.757 422.183 595.757 422.049 595.719 421.933C595.681 421.818 595.623 421.703 595.527 421.626C595.45 421.568 595.334 421.491 595.181 421.414L594.489 421.068L593.585 422.952L594.296 423.298C594.431 423.375 594.565 423.414 594.661 423.433M594.7 421.549L594.873 421.626C595.027 421.703 595.123 421.76 595.181 421.799C595.238 421.856 595.296 421.914 595.315 421.972C595.334 422.029 595.354 422.125 595.315 422.202C595.315 422.299 595.257 422.414 595.2 422.549C595.123 422.702 595.065 422.798 594.988 422.875C594.911 422.952 594.854 422.991 594.796 423.01C594.738 423.01 594.681 423.01 594.604 423.01C594.546 423.01 594.469 422.971 594.354 422.914L594.065 422.779L594.661 421.529L594.7 421.549Z" fill="#11567C"/>
<path d="M591.213 421.147C591.137 421.378 591.156 421.57 591.213 421.743C591.29 421.916 591.463 422.051 591.694 422.166C591.867 422.243 592.002 422.282 592.136 422.282C592.271 422.282 592.386 422.243 592.482 422.185C592.578 422.109 592.655 422.032 592.713 421.916C592.771 421.801 592.79 421.686 592.771 421.57C592.771 421.455 592.713 421.359 592.636 421.282C592.559 421.205 592.444 421.09 592.271 420.955C592.098 420.821 592.002 420.744 591.963 420.667C591.944 420.609 591.944 420.571 591.963 420.532C591.982 420.475 592.021 420.455 592.078 420.436C592.155 420.436 592.252 420.436 592.367 420.475C592.482 420.532 592.54 420.59 592.578 420.647C592.617 420.724 592.617 420.801 592.578 420.917L592.982 421.071C593.059 420.897 593.059 420.724 592.982 420.571C592.905 420.417 592.751 420.282 592.501 420.167C592.348 420.109 592.213 420.071 592.098 420.071C591.982 420.071 591.867 420.09 591.771 420.167C591.675 420.225 591.617 420.302 591.559 420.398C591.483 420.552 591.502 420.705 591.559 420.859C591.617 420.974 591.733 421.109 591.905 421.243C592.04 421.359 592.136 421.436 592.175 421.455C592.232 421.513 592.271 421.551 592.271 421.609C592.271 421.647 592.271 421.705 592.271 421.743C592.232 421.82 592.175 421.859 592.098 421.897C592.002 421.916 591.905 421.897 591.771 421.859C591.656 421.801 591.579 421.743 591.521 421.647C591.483 421.551 591.463 421.436 591.521 421.301L591.117 421.167L591.213 421.147Z" fill="#11567C"/>
<path d="M595.731 423.761C595.808 424.011 595.981 424.223 596.25 424.357C596.519 424.511 596.788 424.53 597.038 424.453C597.288 424.377 597.5 424.184 597.654 423.877C597.807 423.569 597.846 423.3 597.788 423.031C597.711 422.781 597.538 422.569 597.269 422.435C597.115 422.358 596.981 422.3 596.827 422.3C596.731 422.3 596.615 422.3 596.5 422.339C596.385 422.377 596.289 422.435 596.192 422.492C596.077 422.589 595.962 422.742 595.866 422.916C595.712 423.204 595.673 423.492 595.75 423.742M596.25 423.127C596.366 422.916 596.5 422.781 596.654 422.723C596.808 422.666 596.962 422.685 597.115 422.762C597.269 422.839 597.365 422.954 597.404 423.108C597.442 423.262 597.404 423.454 597.288 423.665C597.173 423.877 597.038 424.011 596.885 424.069C596.731 424.127 596.577 424.107 596.423 424.031C596.269 423.954 596.173 423.838 596.135 423.665C596.096 423.511 596.135 423.319 596.231 423.108" fill="#11567C"/>
<path d="M599.229 426.009C599.325 426.047 599.421 426.086 599.517 426.066C599.613 426.066 599.69 426.028 599.786 425.97C599.863 425.913 599.94 425.855 599.979 425.759C600.036 425.663 600.075 425.547 600.056 425.432C600.056 425.317 599.998 425.22 599.902 425.124C599.998 425.124 600.094 425.124 600.19 425.067C600.286 425.028 600.344 424.951 600.402 424.874C600.44 424.798 600.478 424.721 600.478 424.624C600.478 424.548 600.478 424.471 600.44 424.394C600.402 424.317 600.363 424.259 600.286 424.202C600.228 424.144 600.113 424.086 599.979 423.99L599.248 423.567L598.171 425.374L598.787 425.74C599.017 425.874 599.171 425.951 599.229 425.99M599.44 424.105L599.652 424.221C599.825 424.317 599.921 424.394 599.959 424.413C600.017 424.452 600.056 424.509 600.056 424.567C600.056 424.624 600.056 424.682 600.017 424.721C599.979 424.778 599.94 424.817 599.882 424.836C599.825 424.836 599.767 424.836 599.69 424.817C599.652 424.817 599.556 424.74 599.421 424.663L599.19 424.528L599.44 424.105ZM598.998 424.836L599.287 425.009C599.46 425.105 599.556 425.182 599.594 425.22C599.632 425.259 599.652 425.317 599.652 425.374C599.652 425.432 599.652 425.49 599.613 425.528C599.575 425.586 599.537 425.624 599.479 425.644C599.421 425.644 599.363 425.644 599.306 425.644C599.267 425.644 599.19 425.586 599.056 425.509L598.71 425.317L598.998 424.836Z" fill="#11567C"/>
<path d="M583.161 418.896C583.296 419.031 583.469 419.127 583.68 419.184C583.853 419.223 584.027 419.242 584.199 419.223C584.373 419.223 584.526 419.165 584.623 419.107L584.853 418.3L583.969 418.05L583.873 418.396L584.334 418.531L584.257 418.781C584.257 418.781 584.103 418.838 584.007 418.838C583.911 418.838 583.815 418.838 583.738 418.819C583.565 418.762 583.45 418.665 583.373 418.531C583.296 418.377 583.296 418.185 583.373 417.935C583.431 417.704 583.527 417.55 583.68 417.473C583.815 417.396 583.969 417.377 584.161 417.416C584.276 417.454 584.373 417.512 584.43 417.589C584.488 417.666 584.526 417.762 584.526 417.877L584.949 417.916C584.949 417.723 584.911 417.55 584.795 417.396C584.68 417.243 584.507 417.147 584.257 417.07C584.065 417.012 583.892 417.012 583.738 417.031C583.546 417.07 583.373 417.166 583.238 417.3C583.104 417.435 583.007 417.608 582.95 417.819C582.892 418.012 582.892 418.204 582.911 418.396C582.95 418.588 583.027 418.742 583.161 418.877" fill="#11567C"/>
<path d="M580.776 418.108C580.911 418.339 581.122 418.492 581.43 418.569C581.737 418.646 581.987 418.627 582.218 418.473C582.449 418.339 582.602 418.108 582.679 417.781C582.775 417.454 582.756 417.166 582.622 416.935C582.487 416.705 582.275 416.551 581.987 416.474C581.814 416.435 581.66 416.416 581.526 416.435C581.41 416.435 581.314 416.493 581.218 416.551C581.122 416.608 581.026 416.685 580.949 416.782C580.853 416.916 580.776 417.07 580.718 417.281C580.641 417.608 580.661 417.877 580.795 418.108M581.141 417.377C581.199 417.147 581.295 416.974 581.43 416.897C581.564 416.801 581.718 416.782 581.891 416.839C582.064 416.878 582.179 416.974 582.256 417.128C582.333 417.262 582.333 417.454 582.256 417.685C582.199 417.916 582.103 418.089 581.968 418.166C581.833 418.262 581.679 418.281 581.526 418.243C581.372 418.204 581.237 418.108 581.16 417.954C581.083 417.8 581.083 417.627 581.141 417.397" fill="#11567C"/>
<path d="M585.123 419.608L585.431 419.205L586.238 419.454L586.276 419.954L586.719 420.089L586.565 417.84L586.142 417.705L584.719 419.454L585.142 419.589L585.123 419.608ZM586.18 418.262L586.219 419.089L585.68 418.916L586.2 418.262H586.18Z" fill="#11567C"/>
<path d="M589.777 421.319C590.066 421.435 590.335 421.435 590.566 421.319C590.796 421.204 590.989 420.992 591.104 420.666C591.219 420.339 591.238 420.07 591.123 419.82C591.008 419.57 590.816 419.397 590.527 419.281C590.373 419.224 590.22 419.205 590.066 419.205C589.95 419.205 589.854 419.243 589.739 419.281C589.624 419.339 589.527 419.397 589.45 419.474C589.335 419.589 589.239 419.743 589.162 419.935C589.047 420.243 589.028 420.531 589.143 420.762C589.239 421.012 589.45 421.185 589.739 421.3M589.624 420.089C589.7 419.858 589.816 419.724 589.97 419.647C590.104 419.57 590.258 419.57 590.431 419.647C590.585 419.705 590.7 419.82 590.758 419.954C590.816 420.108 590.796 420.281 590.719 420.512C590.642 420.742 590.508 420.896 590.373 420.973C590.22 421.05 590.085 421.05 589.912 420.992C589.739 420.935 589.643 420.819 589.585 420.666C589.527 420.512 589.547 420.32 589.624 420.108" fill="#11567C"/>
<path d="M588.047 420.57C588.181 420.57 588.297 420.57 588.393 420.513C588.508 420.455 588.624 420.359 588.72 420.243C588.797 420.147 588.874 420.013 588.931 419.84C588.989 419.648 589.027 419.494 589.027 419.34C589.027 419.205 589.008 419.071 588.95 418.955C588.893 418.84 588.816 418.744 588.72 418.667C588.643 418.609 588.527 418.552 588.354 418.494L587.624 418.225L586.913 420.205L587.662 420.474C587.816 420.532 587.931 420.551 588.028 420.551M587.912 418.725L588.085 418.782C588.239 418.84 588.354 418.878 588.412 418.917C588.489 418.955 588.527 419.013 588.566 419.071C588.604 419.128 588.604 419.205 588.604 419.301C588.604 419.398 588.566 419.513 588.527 419.667C588.47 419.82 588.412 419.936 588.354 420.013C588.297 420.09 588.239 420.147 588.181 420.167C588.124 420.186 588.066 420.205 587.989 420.186C587.931 420.186 587.854 420.167 587.739 420.109L587.432 419.993L587.912 418.686V418.725Z" fill="#11567C"/>
<path d="M601.963 427.758L602.366 427.451L603.058 427.912L602.943 428.412L603.328 428.662L603.789 426.451L603.424 426.201L601.578 427.489L601.943 427.739L601.963 427.758ZM603.347 426.759L603.154 427.566L602.674 427.239L603.347 426.759Z" fill="#11567C"/>
<path d="M600.346 426.701L600.807 425.951L600.884 425.989C600.884 425.989 601.018 426.086 601.057 426.124C601.095 426.163 601.114 426.201 601.114 426.259C601.114 426.316 601.134 426.451 601.134 426.643V427.201L601.576 427.47V426.989C601.576 426.797 601.576 426.662 601.557 426.566C601.557 426.489 601.499 426.393 601.461 426.297C601.634 426.374 601.787 426.393 601.922 426.355C602.057 426.316 602.153 426.22 602.249 426.086C602.306 425.989 602.345 425.874 602.345 425.759C602.345 425.644 602.306 425.547 602.249 425.451C602.172 425.374 602.057 425.259 601.864 425.144L601.114 424.682L600 426.47L600.365 426.701H600.346ZM601.268 425.22L601.557 425.394C601.71 425.49 601.787 425.547 601.826 425.567C601.884 425.605 601.903 425.663 601.922 425.72C601.922 425.778 601.922 425.836 601.884 425.893C601.845 425.951 601.807 425.989 601.768 426.009C601.71 426.009 601.672 426.028 601.614 426.009C601.557 426.009 601.441 425.932 601.268 425.836L600.999 425.663L601.288 425.201L601.268 425.22Z" fill="#11567C"/>
<path d="M579.587 418.051L580.76 416.148L580.318 416.052L579.491 417.474L579.28 415.84L578.837 415.744L579.145 417.955L579.587 418.051Z" fill="#11567C"/>
<path d="M603.708 428.799C603.746 428.992 603.881 429.146 604.092 429.299C604.246 429.415 604.381 429.472 604.515 429.511C604.65 429.549 604.765 429.53 604.88 429.492C604.996 429.453 605.092 429.376 605.169 429.28C605.246 429.165 605.284 429.069 605.303 428.953C605.303 428.838 605.303 428.742 605.246 428.646C605.188 428.55 605.111 428.415 604.957 428.261C604.823 428.107 604.746 427.992 604.726 427.915C604.726 427.857 604.726 427.819 604.746 427.781C604.784 427.742 604.823 427.723 604.88 427.723C604.957 427.723 605.053 427.761 605.169 427.838C605.265 427.915 605.322 427.973 605.342 428.05C605.361 428.127 605.342 428.203 605.303 428.3L605.649 428.53C605.765 428.376 605.784 428.203 605.746 428.031C605.707 427.857 605.572 427.704 605.361 427.55C605.226 427.454 605.111 427.396 604.976 427.358C604.861 427.338 604.746 427.338 604.631 427.358C604.534 427.396 604.438 427.454 604.381 427.55C604.284 427.684 604.246 427.838 604.284 428.011C604.304 428.126 604.4 428.28 604.554 428.453C604.669 428.588 604.746 428.684 604.765 428.722C604.803 428.78 604.842 428.838 604.842 428.896C604.842 428.934 604.842 428.972 604.803 429.03C604.765 429.088 604.688 429.126 604.592 429.126C604.496 429.126 604.4 429.107 604.284 429.011C604.188 428.934 604.111 428.857 604.092 428.761C604.073 428.665 604.092 428.55 604.15 428.415L603.785 428.203C603.669 428.415 603.631 428.607 603.669 428.78" fill="#11567C"/>
<path d="M606.332 428.318L605.076 429.995L605.415 430.249L606.67 428.571L606.332 428.318Z" fill="#11567C"/>
<path d="M606.924 431.413L607.136 431.124L606.29 430.49L607.328 429.106L606.982 428.856L605.732 430.528L606.924 431.413Z" fill="#11567C"/>
<path d="M561.628 414.147C561.628 414.147 561.436 413.993 561.321 413.955C561.224 413.935 561.09 413.916 560.917 413.916H560.148L560.109 416.012H560.917C561.071 416.012 561.205 416.012 561.301 415.992C561.436 415.954 561.532 415.896 561.609 415.819C561.705 415.723 561.782 415.608 561.84 415.454C561.878 415.339 561.917 415.185 561.917 415.012C561.917 414.82 561.917 414.647 561.859 414.512C561.82 414.378 561.743 414.262 561.667 414.166M561.397 415.358C561.397 415.358 561.321 415.512 561.282 415.569C561.244 415.608 561.186 415.646 561.109 415.646C561.051 415.646 560.975 415.646 560.859 415.646H560.552V414.243H560.744C560.917 414.243 561.032 414.243 561.09 414.262C561.167 414.262 561.224 414.32 561.282 414.358C561.34 414.416 561.378 414.474 561.397 414.57C561.417 414.647 561.436 414.781 561.436 414.935C561.436 415.089 561.436 415.223 561.378 415.32" fill="#11567C"/>
<path d="M564.67 414.436L564.996 416.109L565.419 416.128L565.9 414.494L565.823 416.147L566.227 416.167L566.323 414.071L565.688 414.033L565.246 415.436L564.939 413.994L564.304 413.956L564.189 416.071L564.593 416.09L564.67 414.436Z" fill="#11567C"/>
<path d="M580.55 397C569.169 397 559.345 403.671 554.75 413.322C574.109 411.477 590.893 415.091 608.907 428.933C609.041 427.818 609.118 426.703 609.118 425.549C609.118 409.785 596.333 397 580.55 397ZM590.316 416.936L589.336 416.437L588.374 416.956L588.547 415.86L587.759 415.091L588.855 414.918L589.336 413.918L589.835 414.899L590.931 415.052L590.143 415.821L590.335 416.898L590.316 416.936Z" fill="#11567C"/>
<path d="M553.173 417.494C552.423 420.051 552 422.761 552 425.568C552 441.333 564.785 454.117 580.549 454.117C593.622 454.117 604.618 445.331 608.021 433.354C592.334 420.512 573.397 414.745 553.173 417.494ZM556.864 420.205L557.364 419.224L557.844 420.224L558.94 420.377L558.152 421.147L558.344 422.242L557.364 421.723L556.383 422.223L556.576 421.147L555.787 420.377L556.883 420.224L556.864 420.205ZM557.594 436.277L556.787 435.873L555.999 436.296L556.133 435.411L555.48 434.796L556.364 434.662L556.749 433.854L557.152 434.662L558.037 434.777L557.402 435.411L557.556 436.296L557.594 436.277ZM560.651 433.989L559.728 433.508L558.806 434.008L558.979 432.989L558.229 432.278L559.267 432.124L559.709 431.182L560.171 432.105L561.209 432.239L560.478 432.97L560.67 433.989H560.651ZM581.203 448.754L580.78 448.542L580.357 448.773L580.414 448.292L580.068 447.965L580.53 447.888L580.722 447.446L580.953 447.869L581.433 447.927L581.106 448.273L581.203 448.734V448.754ZM581.587 440.141L580.664 439.66L579.742 440.16L579.914 439.122L579.165 438.391L580.203 438.237L580.664 437.295L581.126 438.237L582.164 438.372L581.414 439.103L581.606 440.141H581.587ZM595.544 448.523L594.872 448.196L594.218 448.561L594.333 447.831L593.795 447.312L594.525 447.196L594.833 446.523L595.179 447.196L595.929 447.292L595.41 447.831L595.544 448.561V448.523ZM601.004 441.698L600.254 441.294L599.486 441.679L599.639 440.833L599.043 440.237L599.889 440.121L600.274 439.352L600.639 440.121L601.485 440.256L600.87 440.852L601.004 441.698ZM604.369 435.392L604.676 434.739L605.003 435.373L605.734 435.469L605.214 435.988L605.349 436.699L604.695 436.373L604.061 436.719L604.176 436.007L603.638 435.507L604.349 435.392H604.369ZM602.831 438.007L602.235 438.584L602.369 439.41L601.639 439.006L600.889 439.391L601.043 438.584L600.466 437.988L601.293 437.891L601.677 437.161L602.023 437.911L602.85 438.045L602.831 438.007ZM600.043 434.911L600.485 433.97L600.966 434.892L602.004 435.027L601.273 435.757L601.466 436.776L600.543 436.296L599.62 436.796L599.774 435.757L599.024 435.046L600.043 434.873V434.911ZM597.313 441.41L597.601 440.775L597.928 441.39L598.62 441.467L598.121 441.967L598.255 442.659L597.621 442.352L597.005 442.698L597.102 442.006L596.583 441.525L597.275 441.41H597.313ZM594.487 441.41L594.814 440.737L595.141 441.41L595.871 441.525L595.333 442.044L595.448 442.774L594.795 442.428L594.141 442.774L594.276 442.044L593.756 441.525L594.487 441.429V441.41ZM594.525 444.043L594.929 443.236L595.314 444.043L596.198 444.178L595.544 444.793L595.679 445.677L594.891 445.255L594.083 445.658L594.256 444.774L593.622 444.14L594.506 444.024L594.525 444.043ZM591.142 442.044L591.469 441.371L591.795 442.044L592.526 442.14L592.007 442.659L592.142 443.39L591.488 443.044L590.834 443.39L590.95 442.659L590.411 442.14L591.142 442.025V442.044ZM588.854 443.986L589.239 444.735L590.084 444.831L589.488 445.427L589.642 446.254L588.873 445.87L588.124 446.273L588.258 445.427L587.643 444.851L588.489 444.716L588.854 443.947V443.986ZM586.932 423.319L587.278 422.627L587.624 423.319L588.393 423.434L587.835 423.973L587.97 424.741L587.278 424.376L586.585 424.741L586.72 423.973L586.163 423.434L586.932 423.319ZM586.201 441.313L586.528 440.641L586.855 441.313L587.585 441.429L587.047 441.948L587.162 442.678L586.509 442.332L585.855 442.678L585.99 441.948L585.471 441.429L586.201 441.333V441.313ZM583.394 431.624L583.798 432.432L584.702 432.547L584.048 433.181L584.221 434.085L583.413 433.662L582.606 434.104L582.76 433.2L582.106 432.566L583.01 432.432L583.413 431.605L583.394 431.624ZM580.414 430.009L580.799 429.202L581.203 430.009L582.106 430.125L581.472 430.759L581.645 431.643L580.837 431.24L580.049 431.663L580.184 430.778L579.53 430.163L580.414 430.028V430.009ZM578.723 434.527L578.972 434.046L579.203 434.546L579.742 434.623L579.338 434.988L579.415 435.527L578.934 435.258L578.453 435.507L578.55 434.969L578.165 434.585L578.703 434.508L578.723 434.527ZM576.512 432.835L576.858 432.143L577.204 432.835L577.973 432.951L577.415 433.489L577.55 434.258L576.858 433.893L576.166 434.258L576.3 433.489L575.743 432.951L576.512 432.835ZM569.052 426.203L569.437 425.376L569.86 426.183L570.763 426.28L570.129 426.933L570.302 427.818L569.475 427.414L568.687 427.856L568.822 426.952L568.149 426.337L569.052 426.183V426.203ZM568.168 440.756L568.61 439.852L569.072 440.756L570.071 440.891L569.36 441.602L569.533 442.602L568.63 442.14L567.745 442.621L567.899 441.621L567.168 440.929L568.168 440.775V440.756ZM565.073 434.892L565.438 434.104L565.823 434.873L566.688 434.988L566.073 435.604L566.226 436.45L565.457 436.065L564.688 436.488L564.823 435.642L564.189 435.046L565.034 434.911L565.073 434.892ZM564.131 437.93L564.458 437.257L564.785 437.93L565.534 438.045L564.996 438.564L565.131 439.314L564.458 438.968L563.785 439.314L563.919 438.564L563.381 438.045L564.131 437.93ZM563.15 430.605L562.747 430.99L562.843 431.547L562.343 431.278L561.843 431.528L561.939 430.97L561.536 430.586L562.093 430.509L562.343 430.009L562.593 430.509L563.15 430.586V430.605Z" fill="#11567C"/>
<path d="M568.627 416.282C568.761 416.244 568.858 416.206 568.934 416.129C569.031 416.032 569.127 415.917 569.184 415.783C569.242 415.667 569.261 415.513 569.28 415.34C569.28 415.148 569.28 414.975 569.242 414.841C569.204 414.706 569.146 414.591 569.069 414.494C568.992 414.398 568.877 414.321 568.761 414.283C568.665 414.245 568.531 414.225 568.358 414.225L567.589 414.168L567.454 416.263L568.242 416.321C568.396 416.321 568.531 416.321 568.627 416.302M567.896 415.936L567.992 414.552H568.185C568.358 414.571 568.473 414.591 568.531 414.61C568.608 414.629 568.665 414.668 568.723 414.725C568.781 414.783 568.8 414.841 568.838 414.937C568.858 415.033 568.877 415.148 568.838 415.302C568.838 415.456 568.8 415.59 568.761 415.686C568.723 415.783 568.685 415.84 568.646 415.879C568.588 415.917 568.531 415.936 568.473 415.956C568.415 415.956 568.338 415.956 568.223 415.956H567.916L567.896 415.936Z" fill="#11567C"/>
<path d="M556.553 413.995C556.38 413.995 556.226 414.033 556.111 414.091C556.015 414.129 555.919 414.206 555.842 414.283C555.765 414.379 555.707 414.475 555.65 414.571C555.592 414.725 555.573 414.898 555.573 415.11C555.573 415.437 555.688 415.706 555.88 415.879C556.073 416.052 556.323 416.148 556.63 416.129C556.938 416.129 557.188 416.013 557.361 415.821C557.534 415.629 557.611 415.36 557.611 415.014C557.611 414.668 557.495 414.398 557.303 414.225C557.111 414.033 556.861 413.956 556.553 413.975M557.053 415.61C556.957 415.744 556.822 415.802 556.649 415.802C556.476 415.802 556.342 415.744 556.226 415.629C556.111 415.513 556.053 415.34 556.034 415.09C556.034 414.86 556.073 414.668 556.169 414.552C556.265 414.437 556.399 414.36 556.592 414.36C556.765 414.36 556.899 414.398 557.015 414.514C557.13 414.629 557.188 414.802 557.188 415.052C557.188 415.302 557.149 415.475 557.053 415.61Z" fill="#11567C"/>
<path d="M559.38 415.263C559.38 415.263 559.245 415.148 559.149 415.09C559.341 415.052 559.476 414.994 559.553 414.879C559.649 414.783 559.687 414.648 559.687 414.475C559.687 414.36 559.649 414.244 559.591 414.148C559.533 414.052 559.437 413.995 559.341 413.956C559.245 413.918 559.072 413.898 558.841 413.918H557.957L557.995 416.032H558.418V415.148H558.495C558.591 415.148 558.668 415.148 558.707 415.148C558.745 415.148 558.803 415.186 558.841 415.225C558.88 415.263 558.957 415.36 559.072 415.533L559.38 415.975H559.88L559.61 415.552C559.495 415.398 559.418 415.283 559.36 415.225M558.707 414.821H558.399V414.302H558.726C558.899 414.302 558.995 414.302 559.034 414.302C559.111 414.302 559.149 414.341 559.187 414.379C559.226 414.417 559.245 414.475 559.245 414.552C559.245 414.61 559.245 414.667 559.207 414.706C559.168 414.744 559.13 414.783 559.091 414.802C559.034 414.802 558.918 414.821 558.707 414.84" fill="#11567C"/>
<path d="M563.821 414.303V413.957L562.264 413.938L562.245 416.033L563.84 416.052V415.706L562.668 415.687L562.687 415.11L563.725 415.13L563.744 414.764H562.687V414.284L563.821 414.303Z" fill="#11567C"/>
<path d="M570.472 416.552C570.78 416.571 571.03 416.494 571.241 416.321C571.433 416.148 571.549 415.898 571.587 415.552C571.606 415.206 571.549 414.937 571.376 414.726C571.203 414.514 570.972 414.399 570.664 414.379C570.491 414.379 570.337 414.379 570.203 414.418C570.107 414.456 570.011 414.514 569.915 414.591C569.818 414.668 569.761 414.764 569.703 414.86C569.626 414.995 569.588 415.168 569.568 415.379C569.549 415.706 569.607 415.975 569.78 416.187C569.953 416.398 570.184 416.513 570.491 416.533M569.972 415.418C569.991 415.168 570.068 414.995 570.184 414.899C570.299 414.783 570.453 414.745 570.626 414.764C570.799 414.764 570.933 414.841 571.03 414.975C571.126 415.11 571.164 415.283 571.145 415.533C571.126 415.783 571.049 415.956 570.933 416.071C570.818 416.187 570.664 416.225 570.51 416.225C570.337 416.225 570.203 416.129 570.107 416.014C570.011 415.879 569.972 415.706 569.991 415.456" fill="#11567C"/>
<path d="M572.934 416.416C572.934 416.416 572.761 416.473 572.626 416.454C572.492 416.454 572.396 416.396 572.338 416.319C572.261 416.243 572.242 416.127 572.223 415.993H571.8C571.8 416.204 571.857 416.396 571.973 416.55C572.107 416.685 572.3 416.781 572.55 416.819C572.723 416.838 572.896 416.819 573.011 416.819C573.146 416.781 573.242 416.723 573.319 416.627C573.396 416.531 573.453 416.416 573.453 416.3C573.453 416.166 573.453 416.05 573.415 415.954C573.376 415.858 573.299 415.781 573.222 415.704C573.126 415.647 572.992 415.57 572.78 415.493C572.588 415.416 572.453 415.358 572.415 415.301C572.377 415.262 572.357 415.224 572.377 415.166C572.377 415.108 572.415 415.07 572.453 415.051C572.53 415.012 572.626 414.993 572.742 415.012C572.857 415.012 572.953 415.07 572.992 415.127C573.049 415.185 573.069 415.262 573.069 415.377L573.492 415.416C573.511 415.224 573.472 415.07 573.357 414.935C573.242 414.801 573.049 414.724 572.78 414.685C572.626 414.666 572.473 414.685 572.357 414.685C572.242 414.724 572.146 414.781 572.069 414.858C571.992 414.935 571.954 415.031 571.934 415.147C571.915 415.32 571.954 415.454 572.069 415.589C572.146 415.685 572.3 415.781 572.511 415.858C572.684 415.935 572.8 415.973 572.838 415.993C572.915 416.031 572.953 416.069 572.973 416.108C572.992 416.146 573.011 416.185 572.992 416.243C572.992 416.319 572.934 416.377 572.857 416.435" fill="#11567C"/>
<path d="M577.697 417.61C577.832 417.61 577.928 417.552 578.024 417.494C578.139 417.417 578.236 417.321 578.313 417.167C578.389 417.052 578.428 416.918 578.466 416.744C578.505 416.552 578.505 416.379 578.485 416.245C578.466 416.11 578.428 415.975 578.351 415.879C578.274 415.764 578.197 415.687 578.082 415.629C578.005 415.591 577.87 415.553 577.697 415.514L576.928 415.38L576.544 417.437L577.332 417.59C577.486 417.629 577.62 417.629 577.717 417.61M577.274 415.802L577.467 415.841C577.64 415.879 577.755 415.899 577.813 415.918C577.89 415.956 577.947 415.995 577.986 416.052C578.024 416.11 578.063 416.187 578.063 416.283C578.063 416.379 578.063 416.495 578.044 416.648C578.005 416.802 577.967 416.937 577.928 417.014C577.89 417.091 577.832 417.167 577.774 417.187C577.717 417.225 577.659 417.244 577.582 417.244C577.524 417.244 577.448 417.244 577.332 417.225L577.024 417.167L577.294 415.802H577.274Z" fill="#11567C"/>
<path d="M574.935 416.666L575.762 416.801L575.877 417.301L576.338 417.378L575.819 415.167L575.377 415.109L574.243 417.051L574.685 417.128L574.935 416.686V416.666ZM575.512 415.609L575.685 416.416L575.127 416.32L575.531 415.59L575.512 415.609Z" fill="#11567C"/>
<path d="M679.822 421.472C679.822 421.472 683.417 417.608 683.417 412.032C683.417 401.766 672.689 397.114 672.689 397.114H652.311V454.231H679.283C679.283 454.231 692.914 449.905 692.914 437.755C692.914 425.605 679.802 421.472 679.802 421.472" fill="#11567C"/>
<path d="M602.351 454.231H650.72L626.536 397.114L602.351 454.231Z" fill="#11567C"/>
<path d="M706.95 428.451H706.027V453.155H706.95V428.451Z" fill="#E4051F"/>
<path d="M738.829 450.254C738.156 450.753 737.445 451.196 736.676 451.561C735.907 451.926 735.08 452.195 734.215 452.407C733.331 452.618 732.351 452.714 731.274 452.714C729.563 452.714 727.986 452.407 726.545 451.772C725.103 451.138 723.853 450.273 722.796 449.196C721.738 448.12 720.912 446.812 720.316 445.332C719.72 443.852 719.412 442.256 719.412 440.545C719.412 438.834 719.72 437.277 720.316 435.796C720.912 434.316 721.738 433.009 722.796 431.894C723.853 430.779 725.122 429.894 726.583 429.26C728.044 428.626 729.64 428.299 731.37 428.299C732.447 428.299 733.427 428.395 734.292 428.568C735.157 428.741 735.965 429.01 736.695 429.337C737.445 429.664 738.118 430.048 738.752 430.51C739.387 430.971 739.983 431.49 740.579 432.048L738.752 434.009C737.733 433.067 736.657 432.278 735.503 431.682C734.35 431.067 732.946 430.779 731.332 430.779C730.024 430.779 728.813 431.029 727.698 431.529C726.583 432.028 725.622 432.72 724.795 433.586C723.968 434.47 723.334 435.489 722.873 436.681C722.411 437.873 722.181 439.142 722.181 440.506C722.181 441.871 722.411 443.16 722.873 444.352C723.334 445.544 723.968 446.581 724.795 447.466C725.622 448.35 726.583 449.042 727.698 449.542C728.813 450.042 730.024 450.292 731.332 450.292C732.946 450.292 734.35 450.004 735.523 449.408C736.695 448.812 737.849 447.966 738.964 446.889L740.713 448.619C740.098 449.254 739.464 449.811 738.81 450.33L738.829 450.254Z" fill="#00577F"/>
<path d="M767.613 452.291H764.75L761.981 446.043H749.119L746.313 452.291H743.583L754.348 428.49H756.848L767.613 452.291ZM755.56 431.624L750.157 443.678H760.923L755.56 431.624Z" fill="#00577F"/>
<path d="M795.182 452.291H792.319L789.549 446.043H776.687L773.882 452.291H771.15L781.917 428.49H784.417L795.182 452.291ZM783.128 431.624L777.725 443.678H788.492L783.128 431.624Z" fill="#00577F"/>
<path d="M817.419 440.505C816.919 441.544 816.247 442.409 815.381 443.101C814.517 443.793 813.498 444.312 812.343 444.677C811.191 445.042 809.94 445.196 808.615 445.196H804.673V452.29H799.483V428.663H809.134C810.557 428.663 811.824 428.855 812.939 429.259C814.056 429.662 814.998 430.201 815.766 430.931C816.536 431.643 817.131 432.508 817.555 433.507C817.976 434.507 818.169 435.622 818.169 436.833V436.91C818.169 438.275 817.918 439.486 817.419 440.524V440.505ZM812.901 436.929C812.901 435.757 812.518 434.872 811.767 434.257C811.018 433.642 809.98 433.354 808.672 433.354H804.654V440.582H808.768C810.076 440.582 811.095 440.236 811.805 439.544C812.537 438.852 812.882 438.006 812.882 436.987V436.91L812.901 436.929Z" fill="#00577F"/>
<path d="M822.263 452.29V428.663H827.455V452.29H822.263Z" fill="#00577F"/>
</g>
<rect x="214" y="1002" width="678" height="174" rx="11.3263" stroke="url(#paint0_linear_69_3)" stroke-width="4"/>
<g aria-label="Oferta protegida do Modelo 3">
<text fill="#01A379" style="white-space: pre" xml:space="preserve" font-family="Poppins" font-size="32" font-weight="bold" letter-spacing="0em"><tspan x="611.671" y="1066.816">*</tspan></text>
<text fill="#01A379" style="white-space: pre" xml:space="preserve" font-family="Poppins" font-size="28" font-weight="bold" letter-spacing="0em"><tspan x="635.122" y="1066.816">no primeiro mês</tspan></text>
<text fill="#212121" style="white-space: pre" xml:space="preserve" font-family="Poppins" font-size="28" letter-spacing="0em"><tspan x="234.048" y="1066.816">Tudo isso por</tspan></text>
<text fill="#01A379" style="white-space: pre" xml:space="preserve" font-family="Poppins" font-size="48" font-weight="bold" letter-spacing="0em"><tspan x="426.562" y="1066.816">R$19,90</tspan></text>
<text fill="#212121" style="white-space: pre" xml:space="preserve" font-family="Poppins" font-size="28" letter-spacing="0em"><tspan x="320.344" y="1124.656">E depois,</tspan><tspan x="660.895" y="1124.656">contínuo</tspan></text>
<text fill="#01A379" style="white-space: pre" xml:space="preserve" font-family="Poppins" font-size="48" font-weight="bold" letter-spacing="0em"><tspan x="450.35" y="1124.656">30% OFF</tspan></text>
<text fill="#606762" style="white-space: pre" xml:space="preserve" font-family="Poppins" font-size="11" letter-spacing="0em" text-anchor="middle"><tspan x="553" y="1157">*Válido no primeiro mês para assinantes no plano degustação.</tspan></text>
</g>
<text fill="#212121" style="white-space: pre" xml:space="preserve" font-family="Poppins" font-size="30" font-weight="600" letter-spacing="0em"><tspan x="179" y="760">IA jur&#xed;dica completa treinada por </tspan><tspan x="179" y="799">50 mil advogados todos os dias</tspan></text>
<text fill="#212121" style="white-space: pre" xml:space="preserve" font-family="Poppins" font-size="30" letter-spacing="0em"><tspan x="179" y="891">C&#xe1;lculos </tspan></text>
<text fill="#212121" style="white-space: pre" xml:space="preserve" font-family="Poppins" font-size="30" font-weight="600" letter-spacing="0em"><tspan x="179" y="930">automatizados</tspan></text>
<text fill="#212121" style="white-space: pre" xml:space="preserve" font-family="Poppins" font-size="30" letter-spacing="0em"><tspan x="751" y="760">Consultas </tspan><tspan x="751" y="799">Legais</tspan></text>
<text fill="#212121" style="white-space: pre" xml:space="preserve" font-family="Poppins" font-size="30" letter-spacing="0em"><tspan x="574.98" y="891"> solu&#xe7;&#xf5;es </tspan><tspan x="465" y="930">integradas</tspan></text>
<text fill="#212121" style="white-space: pre" xml:space="preserve" font-family="Poppins" font-size="30" font-weight="600" letter-spacing="0em"><tspan x="465" y="891">+ de 20</tspan></text>
<text fill="#212121" style="white-space: pre" xml:space="preserve" font-family="Poppins" font-size="30" font-weight="600" letter-spacing="0em"><tspan x="783" y="891">Plano </tspan><tspan x="783" y="930">exclusivo</tspan></text>
<rect x="373" y="1195" width="361" height="84" rx="42" fill="#01A379"/>
<text fill="#FAFAFA" style="white-space: pre" xml:space="preserve" font-family="Poppins" font-size="30" font-weight="bold" letter-spacing="0em"><tspan x="432.035" y="1247">Come&#xe7;ar agora</tspan></text>
<path d="M1080 -172C1229.63 -172 1351 -50.4851 1351 99.5C1351 249.485 1229.63 371 1080 371C930.371 371 809 249.485 809 99.5C809 -50.4851 930.371 -172 1080 -172Z" stroke="url(#paint7_linear_69_3)" stroke-width="50"/>
<circle cx="14.5" cy="1763.5" r="378.5" fill="#01A077"/>
<text fill="#212121" style="white-space: pre" xml:space="preserve" font-family="Poppins" font-size="50" font-weight="bold" letter-spacing="0em"><tspan x="236.032" y="602">Advocacia do PI livre de&#x2028;</tspan><tspan x="160.568" y="667">tarefas manuais e repetitivas</tspan></text>
</g>
<defs>
<linearGradient id="paint0_linear_69_3" x1="212" y1="1089" x2="894" y2="1089" gradientUnits="userSpaceOnUse">
<stop stop-color="#12A67A"/>
<stop offset="1" stop-color="#75D9B5"/>
</linearGradient>
<linearGradient id="paint1_linear_69_3" x1="920" y1="1187" x2="920" y2="1154" gradientUnits="userSpaceOnUse">
<stop stop-color="#01AB7D"/>
<stop offset="1" stop-color="#008F69"/>
</linearGradient>
<linearGradient id="paint2_linear_69_3" x1="179" y1="1043" x2="179" y2="1010" gradientUnits="userSpaceOnUse">
<stop stop-color="#01AB7D"/>
<stop offset="1" stop-color="#008F69"/>
</linearGradient>
<linearGradient id="paint3_linear_69_3" x1="898" y1="1212" x2="898" y2="1192" gradientUnits="userSpaceOnUse">
<stop stop-color="#01AB7D"/>
<stop offset="1" stop-color="#008F69"/>
</linearGradient>
<linearGradient id="paint4_linear_69_3" x1="908" y1="1010" x2="908" y2="990" gradientUnits="userSpaceOnUse">
<stop stop-color="#01AB7D"/>
<stop offset="1" stop-color="#008F69"/>
</linearGradient>
<linearGradient id="paint5_linear_69_3" x1="234" y1="1217" x2="234" y2="1197" gradientUnits="userSpaceOnUse">
<stop stop-color="#01AB7D"/>
<stop offset="1" stop-color="#008F69"/>
</linearGradient>
<linearGradient id="paint6_linear_69_3" x1="198" y1="1010" x2="198" y2="990" gradientUnits="userSpaceOnUse">
<stop stop-color="#01AB7D"/>
<stop offset="1" stop-color="#008F69"/>
</linearGradient>
<linearGradient id="paint7_linear_69_3" x1="784" y1="99.5" x2="1376" y2="99.5" gradientUnits="userSpaceOnUse">
<stop stop-color="#12A67A"/>
<stop offset="1" stop-color="#75D9B5"/>
</linearGradient>
<clipPath id="clip0_69_3">
<rect width="1080" height="1920" fill="white"/>
</clipPath>
</defs>
</svg>
