<svg width="1080" height="1080" viewBox="0 0 1080 1080" fill="none" xmlns="http://www.w3.org/2000/svg">
<g clip-path="url(#clip0_128_97)">
<rect width="1080" height="1080" fill="#FAFAFA"/>
<circle cx="1080" cy="-25" r="322" fill="#01A077"/>
<rect x="100" y="592" width="396" height="218" rx="13.3263" fill="#E7E8EC"/>
<text fill="#212121" style="white-space: pre" xml:space="preserve" font-family="Poppins" font-size="60" font-weight="bold" letter-spacing="0em"><tspan x="100" y="316">Advogado, voc&#xea; ainda </tspan><tspan x="100" y="394">faz tudo no manual?</tspan></text>
<text fill="#212121" style="white-space: pre" xml:space="preserve" font-family="Poppins" font-size="35" letter-spacing="0em"><tspan x="100" y="460.75">Quem perde tempo no operacional </tspan><tspan x="100" y="505.75">costuma deixar dinheiro na mesa.</tspan></text>
<text fill="#212121" style="white-space: pre" xml:space="preserve" font-family="Poppins" font-size="30" letter-spacing="0em"><tspan x="117" y="691">IA jur&#xed;dica treinada com </tspan><tspan x="117" y="730">mais de 350 milh&#xf5;es de </tspan><tspan x="117" y="769">processos reais</tspan></text>
<text fill="#212121" style="white-space: pre" xml:space="preserve" font-family="Poppins" font-size="30" font-weight="600" letter-spacing="0em"><tspan x="117" y="652">S&#xf3; na Jusfy: &#10;</tspan></text>
<rect x="100" y="854" width="361" height="84" rx="42" fill="#01A379"/>
<text fill="#FAFAFA" style="white-space: pre" xml:space="preserve" font-family="Poppins" font-size="30" font-weight="bold" letter-spacing="0em"><tspan x="147.858" y="906">Aproveitar agora</tspan></text>
<path d="M492.686 812.806L496.548 823.105L507.169 826.85C508.277 827.24 508.277 828.76 507.169 829.15L496.548 832.895L492.686 843.194C492.283 844.269 490.717 844.269 490.314 843.194L486.452 832.895L475.831 829.15C474.723 828.76 474.723 827.24 475.831 826.85L486.452 823.105L490.314 812.806C490.717 811.731 492.283 811.731 492.686 812.806Z" fill="url(#paint0_linear_128_97)"/>
<path d="M897.806 555.314L908.105 551.452L911.85 540.831C912.24 539.723 913.76 539.723 914.15 540.831L917.895 551.452L928.194 555.314C929.269 555.717 929.269 557.283 928.194 557.686L917.895 561.548L914.15 572.169C913.76 573.277 912.24 573.277 911.85 572.169L908.105 561.548L897.806 557.686C896.731 557.283 896.731 555.717 897.806 555.314Z" fill="url(#paint1_linear_128_97)"/>
<path d="M520.719 834.503L523.06 840.94L529.497 843.281C530.168 843.525 530.168 844.475 529.497 844.719L523.06 847.06L520.719 853.496C520.475 854.168 519.525 854.168 519.281 853.496L516.94 847.06L510.504 844.719C509.832 844.475 509.832 843.525 510.504 843.281L516.94 840.94L519.281 834.503C519.525 833.832 520.475 833.832 520.719 834.503Z" fill="url(#paint2_linear_128_97)"/>
<path d="M540.503 569.281L546.94 566.94L549.281 560.503C549.525 559.832 550.475 559.832 550.719 560.503L553.06 566.94L559.496 569.281C560.168 569.525 560.168 570.475 559.496 570.719L553.06 573.06L550.719 579.496C550.475 580.168 549.525 580.168 549.281 579.496L546.94 573.06L540.503 570.719C539.832 570.475 539.832 569.525 540.503 569.281Z" fill="url(#paint3_linear_128_97)"/>
<path d="M948.503 843.281L954.94 840.94L957.281 834.503C957.525 833.832 958.475 833.832 958.719 834.503L961.06 840.94L967.496 843.281C968.168 843.525 968.168 844.475 967.496 844.719L961.06 847.06L958.719 853.496C958.475 854.168 957.525 854.168 957.281 853.496L954.94 847.06L948.503 844.719C947.832 844.475 947.832 843.525 948.503 843.281Z" fill="url(#paint4_linear_128_97)"/>
<path d="M938.503 575.281L944.94 572.94L947.281 566.503C947.525 565.832 948.475 565.832 948.719 566.503L951.06 572.94L957.496 575.281C958.168 575.525 958.168 576.475 957.496 576.719L951.06 579.06L948.719 585.496C948.475 586.168 947.525 586.168 947.281 585.496L944.94 579.06L938.503 576.719C937.832 576.475 937.832 575.525 938.503 575.281Z" fill="url(#paint5_linear_128_97)"/>
<circle cx="1002" cy="1230" r="266" stroke="url(#paint6_linear_128_97)" stroke-width="50"/>
<rect x="509" y="594" width="482" height="214" rx="11.3263" stroke="url(#paint7_linear_128_97)" stroke-width="4"/>
<text opacity="0.9" fill="#212121" style="white-space: pre" xml:space="preserve" font-family="Poppins" font-size="23.8273" letter-spacing="0em"><tspan x="531.607" y="716.84">para advogados da OAB/PI e depois</tspan></text>
<text fill="#02A378" style="white-space: pre" xml:space="preserve" font-family="Poppins" font-size="25" font-weight="bold" letter-spacing="0em"><tspan x="756.393" y="671">no primeiro m&#xea;s </tspan></text>
<text fill="#02A378" style="white-space: pre" xml:space="preserve" font-family="Poppins" font-size="50" font-weight="bold" letter-spacing="0em"><tspan x="531.607" y="671">R$19,90</tspan><tspan x="745.797" y="671"> </tspan></text>
<text fill="#02A378" style="white-space: pre" xml:space="preserve" font-family="Poppins" font-size="40" font-weight="bold" letter-spacing="0em"><tspan x="724.43" y="671">*</tspan></text>
<text fill="#02A378" style="white-space: pre" xml:space="preserve" font-family="Poppins" font-size="30" font-weight="bold" letter-spacing="0em"><tspan x="742.594" y="773.5"> </tspan></text>
<text fill="#02A378" style="white-space: pre" xml:space="preserve" font-family="Poppins" font-size="25" font-weight="bold" letter-spacing="0em"><tspan x="748.951" y="773.5">cont&#xed;nuo</tspan></text>
<text fill="#02A378" style="white-space: pre" xml:space="preserve" font-family="Poppins" font-size="50" font-weight="bold" letter-spacing="0em"><tspan x="531.607" y="773.5">30% OFF</tspan></text>
<text fill="#606762" style="white-space: pre" xml:space="preserve" font-family="Poppins" font-size="11" letter-spacing="0em" text-anchor="middle"><tspan x="750" y="798">*Válido no primeiro mês para assinantes no plano degustação.</tspan></text>
<path opacity="0.2" d="M335.6 141.64H322.82V154.6H317.72V141.64H305V137.02H317.72V124H322.82V137.02H335.6V141.64Z" fill="#212121"/>
<path d="M104.933 168.476C105.534 168.5 106.131 168.389 106.683 168.15C107.234 167.912 107.726 167.553 108.12 167.1C108.925 166.179 109.327 164.771 109.327 162.876V119.237H121.311L121.481 163.215C121.534 168.106 120.21 171.949 117.511 174.776C114.811 177.592 111.275 179 106.903 179C104.557 178.994 102.227 178.615 100 177.877L102.329 167.957C103.156 168.295 104.04 168.471 104.933 168.476ZM121.576 100V111.815H109.158V100H121.576Z" fill="#212121"/>
<path d="M255.551 121.8L246.881 147.813L238.21 121.8H231.127V133.964L241.629 159.828C240.465 163.322 238.379 165.079 235.394 165.079C234.498 165.086 233.606 164.983 232.736 164.772L230.756 173.824C233.339 174.428 235.443 174.731 237.066 174.735C240.141 174.8 243.124 173.682 245.398 171.612C247.706 169.537 249.799 166.065 251.676 161.194L266.816 121.8H255.551Z" fill="#02A378"/>
<path d="M137.188 119.239V145.198C137.188 148.184 137.845 150.407 139.179 151.836C140.502 153.276 142.602 153.996 145.478 153.996C148.358 153.996 150.458 153.276 151.777 151.836C153.101 150.396 153.761 148.184 153.757 145.198V131.71L165.741 119.726V146.225C165.741 152.037 163.973 156.462 160.437 159.501C156.901 162.55 151.942 164.074 145.563 164.074C139.242 164.074 134.383 162.578 130.984 159.585C127.586 156.6 125.888 152.143 125.892 146.214V119.218H137.188V119.239Z" fill="#212121"/>
<path d="M200.417 143.033C199.213 141.305 197.578 139.922 195.674 139.02C193.368 137.986 190.973 137.164 188.517 136.564C185.701 135.813 183.718 135.079 182.567 134.362C182.029 134.057 181.583 133.611 181.279 133.072C180.975 132.533 180.824 131.921 180.842 131.303C180.838 130.771 180.975 130.248 181.239 129.787C181.503 129.326 181.885 128.943 182.345 128.677C183.498 127.978 184.83 127.632 186.177 127.683C188.305 127.699 190.422 127.987 192.477 128.54C193.038 128.689 193.578 128.847 194.118 129.017V126.401L186.072 118.354C180.831 118.376 176.596 119.611 173.367 122.06C170.117 124.537 168.497 127.978 168.497 132.414C168.497 139.2 172.464 143.625 180.397 145.69C183.563 146.548 185.86 147.331 187.3 148.019C188.74 148.707 189.459 149.713 189.459 151.036C189.459 152.127 188.888 153.016 187.734 153.715C186.579 154.403 184.949 154.752 182.821 154.752C180.691 154.732 178.573 154.429 176.522 153.852C174.406 153.273 172.355 152.479 170.401 151.481L167.216 160.194C169.695 161.37 172.279 162.309 174.934 163C177.506 163.698 180.157 164.061 182.822 164.08C188.57 164.08 193.257 162.873 196.881 160.459C200.502 158.045 202.312 154.566 202.312 150.02C202.312 147.14 201.68 144.811 200.417 143.033Z" fill="#212121"/>
<path d="M218.467 118.912C218.467 116.891 218.901 115.397 219.78 114.444C220.202 113.975 220.72 113.603 221.299 113.354C221.879 113.106 222.506 112.986 223.136 113.004C223.501 113.007 223.865 113.032 224.226 113.078V110.485L217.969 104.228C215.132 104.767 212.814 105.837 211.035 107.467C208.388 109.902 207.062 113.714 207.055 118.901V121.856H200.745V130.96H206.97V162.773H218.361V130.97H227.71V121.866H218.446V118.912H218.467Z" fill="#02A378"/>
<mask id="mask0_128_97" style="mask-type:luminance" maskUnits="userSpaceOnUse" x="373" y="101" width="276" height="77">
<path d="M648.455 101H373V177.573H648.455V101Z" fill="white"/>
</mask>
<g mask="url(#mask0_128_97)">
<path d="M449.322 166.961C449.284 166.865 449.226 166.807 449.13 166.807H446.746C446.65 166.807 446.573 166.865 446.554 166.961L443.267 177.246C443.267 177.246 443.267 177.362 443.267 177.4C443.305 177.439 443.343 177.458 443.401 177.458H445.324C445.42 177.458 445.497 177.4 445.516 177.304L445.958 175.804C445.958 175.804 445.996 175.747 446.035 175.747H449.784C449.784 175.747 449.841 175.766 449.861 175.804L450.322 177.304C450.36 177.4 450.418 177.458 450.514 177.458H452.437C452.552 177.458 452.61 177.419 452.61 177.323C452.61 177.285 452.61 177.266 452.61 177.246L449.322 166.961ZM449.245 174.093H446.573C446.573 174.093 446.496 174.055 446.515 173.997L447.861 169.479C447.861 169.479 447.881 169.441 447.9 169.422C447.919 169.422 447.938 169.422 447.938 169.479L449.303 173.997C449.303 173.997 449.303 174.093 449.245 174.093Z" fill="#11567C"/>
<path d="M436.827 167.211C436.327 166.942 435.731 166.807 435.059 166.807H430.771C430.771 166.807 430.675 166.807 430.637 166.865C430.598 166.903 430.579 166.942 430.579 167V177.304C430.579 177.304 430.579 177.4 430.637 177.439C430.675 177.477 430.714 177.496 430.771 177.496H432.559C432.559 177.496 432.656 177.496 432.694 177.439C432.732 177.4 432.751 177.362 432.751 177.304V173.421C432.751 173.421 432.771 173.344 432.828 173.344H434.982C435.654 173.344 436.27 173.209 436.789 172.94C437.308 172.671 437.711 172.286 438 171.806C438.288 171.325 438.442 170.748 438.442 170.114C438.442 169.479 438.307 168.883 438.019 168.384C437.731 167.884 437.346 167.499 436.846 167.211M435.866 171.19C435.578 171.46 435.212 171.594 434.732 171.594H432.809C432.809 171.594 432.732 171.575 432.732 171.517V168.711C432.732 168.711 432.751 168.634 432.809 168.634H434.732C435.193 168.634 435.578 168.768 435.866 169.037C436.154 169.307 436.289 169.672 436.289 170.114C436.289 170.556 436.154 170.902 435.866 171.171" fill="#11567C"/>
<path d="M441.708 166.807H439.92C439.92 166.807 439.824 166.807 439.785 166.865C439.747 166.903 439.728 166.942 439.728 167V177.285C439.728 177.285 439.728 177.381 439.785 177.419C439.824 177.458 439.862 177.477 439.92 177.477H441.708C441.708 177.477 441.804 177.477 441.842 177.419C441.881 177.381 441.9 177.342 441.9 177.285V167C441.9 167 441.9 166.903 441.842 166.865C441.804 166.826 441.765 166.807 441.708 166.807Z" fill="#11567C"/>
<path d="M461.353 166.807H459.565C459.565 166.807 459.469 166.807 459.43 166.865C459.392 166.903 459.373 166.942 459.373 167V173.959C459.373 174.497 459.2 174.939 458.873 175.266C458.546 175.593 458.104 175.766 457.566 175.766C457.027 175.766 456.585 175.593 456.258 175.266C455.931 174.939 455.758 174.497 455.758 173.959V167C455.758 167 455.758 166.903 455.701 166.865C455.662 166.826 455.624 166.807 455.566 166.807H453.778C453.778 166.807 453.682 166.807 453.644 166.865C453.605 166.903 453.586 166.942 453.586 167V173.94C453.586 174.651 453.759 175.305 454.086 175.843C454.413 176.4 454.874 176.823 455.47 177.131C456.066 177.439 456.758 177.592 457.527 177.592C458.296 177.592 458.988 177.439 459.584 177.131C460.18 176.823 460.642 176.4 460.968 175.843C461.295 175.285 461.468 174.651 461.468 173.94V167C461.468 167 461.468 166.903 461.41 166.865C461.372 166.826 461.334 166.807 461.276 166.807" fill="#11567C"/>
<path d="M465.992 163.98H464.454C464.339 163.98 464.262 164.019 464.223 164.115L463.416 165.653C463.416 165.653 463.378 165.768 463.416 165.806C463.435 165.845 463.474 165.864 463.551 165.864H464.819C464.819 165.864 464.973 165.826 465.031 165.749L466.107 164.211C466.107 164.211 466.146 164.095 466.127 164.057C466.107 164.019 466.05 163.98 465.973 163.98" fill="#11567C"/>
<path d="M465.279 166.807H463.491C463.491 166.807 463.395 166.807 463.356 166.865C463.318 166.903 463.299 166.942 463.299 167V177.285C463.299 177.285 463.299 177.381 463.356 177.419C463.395 177.458 463.433 177.477 463.491 177.477H465.279C465.279 177.477 465.375 177.477 465.414 177.419C465.452 177.381 465.471 177.342 465.471 177.285V167C465.471 167 465.471 166.903 465.414 166.865C465.375 166.826 465.337 166.807 465.279 166.807Z" fill="#11567C"/>
<path d="M429.902 132.972C429.729 134.471 429.421 135.933 429.017 137.355C429.421 135.933 429.709 134.471 429.902 132.972Z" fill="#11567C"/>
<path d="M415.642 127.414C415.777 127.414 415.892 127.414 415.988 127.394C416.123 127.356 416.238 127.279 416.354 127.164C416.45 127.068 416.527 126.952 416.604 126.798C416.681 126.625 416.738 126.452 416.757 126.318C416.757 126.183 416.757 126.049 416.719 125.933C416.681 125.818 416.623 125.703 416.527 125.626C416.45 125.568 416.334 125.491 416.181 125.414L415.489 125.068L414.585 126.952L415.296 127.298C415.431 127.375 415.565 127.414 415.661 127.433M415.7 125.549L415.873 125.626C416.027 125.703 416.123 125.76 416.181 125.799C416.238 125.856 416.296 125.914 416.315 125.972C416.334 126.029 416.354 126.125 416.315 126.202C416.315 126.299 416.257 126.414 416.2 126.549C416.123 126.702 416.065 126.798 415.988 126.875C415.911 126.952 415.854 126.991 415.796 127.01C415.738 127.01 415.681 127.01 415.604 127.01C415.546 127.01 415.469 126.971 415.354 126.914L415.065 126.779L415.661 125.529L415.7 125.549Z" fill="#11567C"/>
<path d="M412.213 125.147C412.137 125.378 412.156 125.57 412.213 125.743C412.29 125.916 412.463 126.051 412.694 126.166C412.867 126.243 413.002 126.282 413.136 126.282C413.271 126.282 413.386 126.243 413.482 126.185C413.578 126.109 413.655 126.032 413.713 125.916C413.771 125.801 413.79 125.686 413.771 125.57C413.771 125.455 413.713 125.359 413.636 125.282C413.559 125.205 413.444 125.09 413.271 124.955C413.098 124.821 413.002 124.744 412.963 124.667C412.944 124.609 412.944 124.571 412.963 124.532C412.982 124.475 413.021 124.455 413.078 124.436C413.155 124.436 413.252 124.436 413.367 124.475C413.482 124.532 413.54 124.59 413.578 124.647C413.617 124.724 413.617 124.801 413.578 124.917L413.982 125.071C414.059 124.897 414.059 124.724 413.982 124.571C413.905 124.417 413.751 124.282 413.501 124.167C413.348 124.109 413.213 124.071 413.098 124.071C412.982 124.071 412.867 124.09 412.771 124.167C412.675 124.225 412.617 124.302 412.559 124.398C412.483 124.552 412.502 124.705 412.559 124.859C412.617 124.974 412.733 125.109 412.905 125.243C413.04 125.359 413.136 125.436 413.175 125.455C413.232 125.513 413.271 125.551 413.271 125.609C413.271 125.647 413.271 125.705 413.271 125.743C413.232 125.82 413.175 125.859 413.098 125.897C413.002 125.916 412.905 125.897 412.771 125.859C412.656 125.801 412.579 125.743 412.521 125.647C412.483 125.551 412.463 125.436 412.521 125.301L412.117 125.167L412.213 125.147Z" fill="#11567C"/>
<path d="M416.731 127.761C416.808 128.011 416.981 128.223 417.25 128.357C417.519 128.511 417.788 128.53 418.038 128.453C418.288 128.377 418.5 128.184 418.654 127.877C418.807 127.569 418.846 127.3 418.788 127.031C418.711 126.781 418.538 126.569 418.269 126.435C418.115 126.358 417.981 126.3 417.827 126.3C417.731 126.3 417.615 126.3 417.5 126.339C417.385 126.377 417.289 126.435 417.192 126.492C417.077 126.589 416.962 126.742 416.866 126.916C416.712 127.204 416.673 127.492 416.75 127.742M417.25 127.127C417.366 126.916 417.5 126.781 417.654 126.723C417.808 126.666 417.962 126.685 418.115 126.762C418.269 126.839 418.365 126.954 418.404 127.108C418.442 127.262 418.404 127.454 418.288 127.665C418.173 127.877 418.038 128.011 417.885 128.069C417.731 128.127 417.577 128.107 417.423 128.031C417.269 127.954 417.173 127.838 417.135 127.665C417.096 127.511 417.135 127.319 417.231 127.108" fill="#11567C"/>
<path d="M420.229 130.009C420.325 130.047 420.421 130.086 420.517 130.066C420.613 130.066 420.69 130.028 420.786 129.97C420.863 129.913 420.94 129.855 420.979 129.759C421.036 129.663 421.075 129.547 421.056 129.432C421.056 129.317 420.998 129.22 420.902 129.124C420.998 129.124 421.094 129.124 421.19 129.067C421.286 129.028 421.344 128.951 421.402 128.874C421.44 128.798 421.478 128.721 421.478 128.624C421.478 128.548 421.478 128.471 421.44 128.394C421.402 128.317 421.363 128.259 421.286 128.202C421.228 128.144 421.113 128.086 420.979 127.99L420.248 127.567L419.171 129.374L419.787 129.74C420.017 129.874 420.171 129.951 420.229 129.99M420.44 128.105L420.652 128.221C420.825 128.317 420.921 128.394 420.959 128.413C421.017 128.452 421.056 128.509 421.056 128.567C421.056 128.624 421.056 128.682 421.017 128.721C420.979 128.778 420.94 128.817 420.882 128.836C420.825 128.836 420.767 128.836 420.69 128.817C420.652 128.817 420.556 128.74 420.421 128.663L420.19 128.528L420.44 128.105ZM419.998 128.836L420.287 129.009C420.46 129.105 420.556 129.182 420.594 129.22C420.632 129.259 420.652 129.317 420.652 129.374C420.652 129.432 420.652 129.49 420.613 129.528C420.575 129.586 420.537 129.624 420.479 129.644C420.421 129.644 420.363 129.644 420.306 129.644C420.267 129.644 420.19 129.586 420.056 129.509L419.71 129.317L419.998 128.836Z" fill="#11567C"/>
<path d="M404.161 122.896C404.296 123.031 404.469 123.127 404.68 123.184C404.853 123.223 405.027 123.242 405.199 123.223C405.373 123.223 405.526 123.165 405.623 123.107L405.853 122.3L404.969 122.05L404.873 122.396L405.334 122.531L405.257 122.781C405.257 122.781 405.103 122.838 405.007 122.838C404.911 122.838 404.815 122.838 404.738 122.819C404.565 122.761 404.45 122.665 404.373 122.531C404.296 122.377 404.296 122.185 404.373 121.935C404.431 121.704 404.527 121.55 404.68 121.473C404.815 121.396 404.969 121.377 405.161 121.416C405.276 121.454 405.373 121.512 405.43 121.589C405.488 121.666 405.526 121.762 405.526 121.877L405.949 121.915C405.949 121.723 405.911 121.55 405.795 121.396C405.68 121.243 405.507 121.146 405.257 121.07C405.065 121.012 404.892 121.012 404.738 121.031C404.546 121.07 404.373 121.166 404.238 121.3C404.104 121.435 404.007 121.608 403.95 121.819C403.892 122.012 403.892 122.204 403.911 122.396C403.95 122.588 404.027 122.742 404.161 122.877" fill="#11567C"/>
<path d="M401.776 122.108C401.911 122.339 402.122 122.492 402.43 122.569C402.737 122.646 402.987 122.627 403.218 122.473C403.449 122.339 403.602 122.108 403.679 121.781C403.775 121.454 403.756 121.166 403.622 120.935C403.487 120.705 403.275 120.551 402.987 120.474C402.814 120.435 402.66 120.416 402.526 120.435C402.41 120.435 402.314 120.493 402.218 120.551C402.122 120.608 402.026 120.685 401.949 120.781C401.853 120.916 401.776 121.07 401.718 121.281C401.641 121.608 401.661 121.877 401.795 122.108M402.141 121.377C402.199 121.147 402.295 120.974 402.43 120.897C402.564 120.801 402.718 120.781 402.891 120.839C403.064 120.878 403.179 120.974 403.256 121.128C403.333 121.262 403.333 121.454 403.256 121.685C403.199 121.916 403.103 122.089 402.968 122.166C402.833 122.262 402.679 122.281 402.526 122.243C402.372 122.204 402.237 122.108 402.16 121.954C402.083 121.8 402.083 121.627 402.141 121.397" fill="#11567C"/>
<path d="M406.123 123.608L406.431 123.205L407.238 123.454L407.276 123.954L407.719 124.089L407.565 121.84L407.142 121.705L405.719 123.454L406.142 123.589L406.123 123.608ZM407.18 122.262L407.219 123.089L406.68 122.916L407.2 122.262H407.18Z" fill="#11567C"/>
<path d="M410.777 125.319C411.066 125.435 411.335 125.435 411.566 125.319C411.796 125.204 411.989 124.992 412.104 124.666C412.219 124.339 412.238 124.07 412.123 123.82C412.008 123.57 411.816 123.397 411.527 123.281C411.373 123.224 411.22 123.205 411.066 123.205C410.95 123.205 410.854 123.243 410.739 123.281C410.624 123.339 410.527 123.397 410.45 123.474C410.335 123.589 410.239 123.743 410.162 123.935C410.047 124.243 410.028 124.531 410.143 124.762C410.239 125.012 410.45 125.185 410.739 125.3M410.624 124.089C410.7 123.858 410.816 123.724 410.97 123.647C411.104 123.57 411.258 123.57 411.431 123.647C411.585 123.704 411.7 123.82 411.758 123.954C411.816 124.108 411.796 124.281 411.719 124.512C411.642 124.742 411.508 124.896 411.373 124.973C411.22 125.05 411.085 125.05 410.912 124.992C410.739 124.935 410.643 124.819 410.585 124.666C410.527 124.512 410.547 124.32 410.624 124.108" fill="#11567C"/>
<path d="M409.047 124.57C409.181 124.57 409.297 124.57 409.393 124.513C409.508 124.455 409.624 124.359 409.72 124.243C409.797 124.147 409.874 124.013 409.931 123.84C409.989 123.648 410.027 123.494 410.027 123.34C410.027 123.205 410.008 123.071 409.95 122.955C409.893 122.84 409.816 122.744 409.72 122.667C409.643 122.609 409.527 122.552 409.354 122.494L408.624 122.225L407.913 124.205L408.662 124.474C408.816 124.532 408.931 124.551 409.028 124.551M408.912 122.725L409.085 122.782C409.239 122.84 409.354 122.878 409.412 122.917C409.489 122.955 409.527 123.013 409.566 123.071C409.604 123.128 409.604 123.205 409.604 123.302C409.604 123.398 409.566 123.513 409.527 123.667C409.47 123.821 409.412 123.936 409.354 124.013C409.297 124.09 409.239 124.147 409.181 124.167C409.124 124.186 409.066 124.205 408.989 124.186C408.931 124.186 408.854 124.167 408.739 124.109L408.432 123.993L408.912 122.686V122.725Z" fill="#11567C"/>
<path d="M422.963 131.758L423.366 131.451L424.058 131.912L423.943 132.412L424.328 132.662L424.789 130.451L424.424 130.201L422.578 131.489L422.943 131.739L422.963 131.758ZM424.347 130.759L424.154 131.566L423.674 131.239L424.347 130.759Z" fill="#11567C"/>
<path d="M421.346 130.701L421.807 129.951L421.884 129.989C421.884 129.989 422.018 130.086 422.057 130.124C422.095 130.163 422.114 130.201 422.114 130.259C422.114 130.316 422.134 130.451 422.134 130.643V131.201L422.576 131.47V130.989C422.576 130.797 422.576 130.662 422.557 130.566C422.557 130.489 422.499 130.393 422.461 130.297C422.634 130.374 422.787 130.393 422.922 130.355C423.057 130.316 423.153 130.22 423.249 130.086C423.306 129.989 423.345 129.874 423.345 129.759C423.345 129.644 423.306 129.547 423.249 129.451C423.172 129.374 423.057 129.259 422.864 129.144L422.114 128.682L421 130.47L421.365 130.701H421.346ZM422.268 129.22L422.557 129.394C422.71 129.49 422.787 129.547 422.826 129.567C422.884 129.605 422.903 129.663 422.922 129.72C422.922 129.778 422.922 129.836 422.884 129.893C422.845 129.951 422.807 129.989 422.768 130.009C422.71 130.009 422.672 130.028 422.614 130.009C422.557 130.009 422.441 129.932 422.268 129.836L421.999 129.663L422.288 129.201L422.268 129.22Z" fill="#11567C"/>
<path d="M400.587 122.051L401.76 120.148L401.318 120.052L400.491 121.474L400.28 119.84L399.837 119.744L400.145 121.955L400.587 122.051Z" fill="#11567C"/>
<path d="M424.708 132.799C424.746 132.992 424.881 133.145 425.092 133.299C425.246 133.415 425.381 133.472 425.515 133.511C425.65 133.549 425.765 133.53 425.88 133.492C425.996 133.453 426.092 133.376 426.169 133.28C426.246 133.165 426.284 133.068 426.303 132.953C426.303 132.838 426.303 132.742 426.246 132.646C426.188 132.549 426.111 132.415 425.957 132.261C425.823 132.107 425.746 131.992 425.726 131.915C425.726 131.857 425.726 131.819 425.746 131.781C425.784 131.742 425.823 131.723 425.88 131.723C425.957 131.723 426.053 131.761 426.169 131.838C426.265 131.915 426.322 131.973 426.342 132.05C426.361 132.127 426.342 132.203 426.303 132.3L426.649 132.53C426.765 132.376 426.784 132.203 426.746 132.03C426.707 131.857 426.572 131.704 426.361 131.55C426.226 131.454 426.111 131.396 425.976 131.357C425.861 131.338 425.746 131.338 425.631 131.357C425.534 131.396 425.438 131.454 425.381 131.55C425.284 131.684 425.246 131.838 425.284 132.011C425.304 132.126 425.4 132.28 425.554 132.453C425.669 132.588 425.746 132.684 425.765 132.722C425.803 132.78 425.842 132.838 425.842 132.896C425.842 132.934 425.842 132.972 425.803 133.03C425.765 133.088 425.688 133.126 425.592 133.126C425.496 133.126 425.4 133.107 425.284 133.011C425.188 132.934 425.111 132.857 425.092 132.761C425.073 132.665 425.092 132.549 425.15 132.415L424.785 132.203C424.669 132.415 424.631 132.607 424.669 132.78" fill="#11567C"/>
<path d="M427.332 132.318L426.076 133.995L426.415 134.249L427.67 132.571L427.332 132.318Z" fill="#11567C"/>
<path d="M427.924 135.412L428.136 135.124L427.29 134.49L428.328 133.106L427.982 132.856L426.732 134.528L427.924 135.412Z" fill="#11567C"/>
<path d="M382.628 118.147C382.628 118.147 382.436 117.993 382.321 117.955C382.224 117.935 382.09 117.916 381.917 117.916H381.148L381.109 120.012H381.917C382.071 120.012 382.205 120.012 382.301 119.992C382.436 119.954 382.532 119.896 382.609 119.819C382.705 119.723 382.782 119.608 382.84 119.454C382.878 119.339 382.917 119.185 382.917 119.012C382.917 118.82 382.917 118.647 382.859 118.512C382.82 118.378 382.743 118.262 382.667 118.166M382.397 119.358C382.397 119.358 382.321 119.512 382.282 119.569C382.244 119.608 382.186 119.646 382.109 119.646C382.051 119.646 381.975 119.646 381.859 119.646H381.552V118.243H381.744C381.917 118.243 382.032 118.243 382.09 118.262C382.167 118.262 382.224 118.32 382.282 118.358C382.34 118.416 382.378 118.474 382.397 118.57C382.417 118.647 382.436 118.781 382.436 118.935C382.436 119.089 382.436 119.223 382.378 119.32" fill="#11567C"/>
<path d="M385.67 118.436L385.996 120.109L386.419 120.128L386.9 118.494L386.823 120.147L387.227 120.167L387.323 118.071L386.688 118.033L386.246 119.436L385.939 117.994L385.304 117.956L385.189 120.071L385.593 120.09L385.67 118.436Z" fill="#11567C"/>
<path d="M401.55 101C390.169 101 380.345 107.671 375.75 117.322C395.109 115.476 411.893 119.091 429.907 132.933C430.041 131.818 430.118 130.703 430.118 129.549C430.118 113.785 417.333 101 401.55 101ZM411.316 120.936L410.336 120.436L409.374 120.956L409.547 119.86L408.759 119.091L409.855 118.918L410.336 117.918L410.835 118.898L411.931 119.052L411.143 119.821L411.335 120.898L411.316 120.936Z" fill="#11567C"/>
<path d="M374.173 121.494C373.423 124.051 373 126.761 373 129.568C373 145.333 385.785 158.117 401.549 158.117C414.622 158.117 425.618 149.331 429.021 137.354C413.334 124.512 394.397 118.745 374.173 121.494ZM377.864 124.205L378.364 123.224L378.844 124.224L379.94 124.377L379.152 125.147L379.344 126.242L378.364 125.723L377.383 126.223L377.576 125.147L376.787 124.377L377.883 124.224L377.864 124.205ZM378.594 140.277L377.787 139.873L376.999 140.296L377.133 139.411L376.48 138.796L377.364 138.662L377.749 137.854L378.152 138.662L379.037 138.777L378.402 139.411L378.556 140.296L378.594 140.277ZM381.651 137.989L380.728 137.508L379.806 138.008L379.979 136.989L379.229 136.278L380.267 136.124L380.709 135.182L381.171 136.105L382.209 136.239L381.478 136.97L381.67 137.989H381.651ZM402.203 152.754L401.78 152.542L401.357 152.773L401.414 152.292L401.068 151.965L401.53 151.888L401.722 151.446L401.953 151.869L402.433 151.927L402.106 152.273L402.203 152.734V152.754ZM402.587 144.141L401.664 143.66L400.742 144.16L400.914 143.122L400.165 142.391L401.203 142.237L401.664 141.295L402.126 142.237L403.164 142.372L402.414 143.103L402.606 144.141H402.587ZM416.544 152.523L415.872 152.196L415.218 152.561L415.333 151.831L414.795 151.312L415.525 151.196L415.833 150.523L416.179 151.196L416.929 151.292L416.41 151.831L416.544 152.561V152.523ZM422.004 145.698L421.254 145.294L420.486 145.679L420.639 144.833L420.043 144.237L420.889 144.121L421.274 143.352L421.639 144.121L422.485 144.256L421.87 144.852L422.004 145.698ZM425.369 139.392L425.676 138.739L426.003 139.373L426.734 139.469L426.214 139.988L426.349 140.699L425.695 140.373L425.061 140.719L425.176 140.007L424.638 139.507L425.349 139.392H425.369ZM423.831 142.007L423.235 142.584L423.369 143.41L422.639 143.006L421.889 143.391L422.043 142.584L421.466 141.988L422.293 141.891L422.677 141.161L423.023 141.911L423.85 142.045L423.831 142.007ZM421.043 138.911L421.485 137.97L421.966 138.892L423.004 139.027L422.273 139.757L422.466 140.776L421.543 140.296L420.62 140.796L420.774 139.757L420.024 139.046L421.043 138.873V138.911ZM418.313 145.41L418.601 144.775L418.928 145.39L419.62 145.467L419.121 145.967L419.255 146.659L418.621 146.352L418.005 146.698L418.102 146.006L417.583 145.525L418.275 145.41H418.313ZM415.487 145.41L415.814 144.737L416.141 145.41L416.871 145.525L416.333 146.044L416.448 146.774L415.795 146.428L415.141 146.774L415.276 146.044L414.756 145.525L415.487 145.429V145.41ZM415.525 148.043L415.929 147.236L416.314 148.043L417.198 148.178L416.544 148.793L416.679 149.677L415.891 149.255L415.083 149.658L415.256 148.774L414.622 148.14L415.506 148.024L415.525 148.043ZM412.142 146.044L412.469 145.371L412.795 146.044L413.526 146.14L413.007 146.659L413.142 147.39L412.488 147.044L411.834 147.39L411.95 146.659L411.411 146.14L412.142 146.025V146.044ZM409.854 147.986L410.239 148.735L411.084 148.831L410.488 149.427L410.642 150.254L409.873 149.87L409.124 150.273L409.258 149.427L408.643 148.851L409.489 148.716L409.854 147.947V147.986ZM407.932 127.319L408.278 126.627L408.624 127.319L409.393 127.434L408.835 127.973L408.97 128.741L408.278 128.376L407.585 128.741L407.72 127.973L407.163 127.434L407.932 127.319ZM407.201 145.313L407.528 144.641L407.855 145.313L408.585 145.429L408.047 145.948L408.162 146.678L407.509 146.332L406.855 146.678L406.99 145.948L406.471 145.429L407.201 145.333V145.313ZM404.394 135.624L404.798 136.432L405.702 136.547L405.048 137.181L405.221 138.085L404.413 137.662L403.606 138.104L403.76 137.2L403.106 136.566L404.01 136.432L404.413 135.605L404.394 135.624ZM401.414 134.009L401.799 133.202L402.203 134.009L403.106 134.125L402.472 134.759L402.645 135.643L401.837 135.24L401.049 135.663L401.184 134.778L400.53 134.163L401.414 134.028V134.009ZM399.723 138.527L399.972 138.046L400.203 138.546L400.742 138.623L400.338 138.988L400.415 139.527L399.934 139.258L399.453 139.507L399.55 138.969L399.165 138.585L399.703 138.508L399.723 138.527ZM397.512 136.835L397.858 136.143L398.204 136.835L398.973 136.951L398.415 137.489L398.55 138.258L397.858 137.893L397.166 138.258L397.3 137.489L396.743 136.951L397.512 136.835ZM390.052 130.203L390.437 129.376L390.86 130.183L391.763 130.28L391.129 130.933L391.302 131.818L390.475 131.414L389.687 131.856L389.822 130.952L389.149 130.337L390.052 130.183V130.203ZM389.168 144.756L389.61 143.852L390.072 144.756L391.071 144.891L390.36 145.602L390.533 146.602L389.63 146.14L388.745 146.621L388.899 145.621L388.168 144.929L389.168 144.775V144.756ZM386.073 138.892L386.438 138.104L386.823 138.873L387.688 138.988L387.073 139.604L387.226 140.45L386.457 140.065L385.688 140.488L385.823 139.642L385.189 139.046L386.034 138.911L386.073 138.892ZM385.131 141.93L385.458 141.257L385.785 141.93L386.534 142.045L385.996 142.564L386.131 143.314L385.458 142.968L384.785 143.314L384.919 142.564L384.381 142.045L385.131 141.93ZM384.15 134.605L383.747 134.99L383.843 135.547L383.343 135.278L382.843 135.528L382.939 134.97L382.536 134.586L383.093 134.509L383.343 134.009L383.593 134.509L384.15 134.586V134.605Z" fill="#11567C"/>
<path d="M389.627 120.282C389.761 120.244 389.858 120.205 389.934 120.129C390.031 120.032 390.127 119.917 390.184 119.782C390.242 119.667 390.261 119.513 390.28 119.34C390.28 119.148 390.28 118.975 390.242 118.84C390.204 118.706 390.146 118.591 390.069 118.494C389.992 118.398 389.877 118.321 389.761 118.283C389.665 118.244 389.531 118.225 389.358 118.225L388.589 118.168L388.454 120.263L389.242 120.321C389.396 120.321 389.531 120.321 389.627 120.302M388.896 119.936L388.992 118.552H389.185C389.358 118.571 389.473 118.591 389.531 118.61C389.608 118.629 389.665 118.667 389.723 118.725C389.781 118.783 389.8 118.84 389.838 118.937C389.858 119.033 389.877 119.148 389.838 119.302C389.838 119.456 389.8 119.59 389.761 119.686C389.723 119.782 389.685 119.84 389.646 119.879C389.588 119.917 389.531 119.936 389.473 119.956C389.415 119.956 389.338 119.956 389.223 119.956H388.916L388.896 119.936Z" fill="#11567C"/>
<path d="M377.553 117.995C377.38 117.995 377.226 118.033 377.111 118.091C377.015 118.129 376.919 118.206 376.842 118.283C376.765 118.379 376.707 118.475 376.65 118.571C376.592 118.725 376.573 118.898 376.573 119.11C376.573 119.437 376.688 119.706 376.88 119.879C377.073 120.052 377.323 120.148 377.63 120.129C377.938 120.129 378.188 120.013 378.361 119.821C378.534 119.629 378.611 119.36 378.611 119.014C378.611 118.668 378.495 118.398 378.303 118.225C378.111 118.033 377.861 117.956 377.553 117.976M378.053 119.61C377.957 119.744 377.822 119.802 377.649 119.802C377.476 119.802 377.342 119.744 377.226 119.629C377.111 119.514 377.053 119.34 377.034 119.091C377.034 118.86 377.073 118.668 377.169 118.552C377.265 118.437 377.399 118.36 377.592 118.36C377.765 118.36 377.899 118.398 378.015 118.514C378.13 118.629 378.188 118.802 378.188 119.052C378.188 119.302 378.149 119.475 378.053 119.61Z" fill="#11567C"/>
<path d="M380.38 119.263C380.38 119.263 380.245 119.148 380.149 119.09C380.341 119.052 380.476 118.994 380.553 118.879C380.649 118.783 380.687 118.648 380.687 118.475C380.687 118.36 380.649 118.244 380.591 118.148C380.533 118.052 380.437 117.994 380.341 117.956C380.245 117.918 380.072 117.898 379.841 117.918H378.957L378.995 120.032H379.418V119.148H379.495C379.591 119.148 379.668 119.148 379.707 119.148C379.745 119.148 379.803 119.186 379.841 119.225C379.88 119.263 379.957 119.359 380.072 119.532L380.38 119.975H380.88L380.61 119.552C380.495 119.398 380.418 119.283 380.36 119.225M379.707 118.821H379.399V118.302H379.726C379.899 118.302 379.995 118.302 380.034 118.302C380.111 118.302 380.149 118.341 380.187 118.379C380.226 118.417 380.245 118.475 380.245 118.552C380.245 118.61 380.245 118.667 380.207 118.706C380.168 118.744 380.13 118.783 380.091 118.802C380.034 118.802 379.918 118.821 379.707 118.84" fill="#11567C"/>
<path d="M384.821 118.303V117.957L383.264 117.938L383.245 120.033L384.84 120.052V119.706L383.668 119.687L383.687 119.11L384.725 119.13L384.744 118.764H383.687V118.284L384.821 118.303Z" fill="#11567C"/>
<path d="M391.472 120.552C391.78 120.571 392.03 120.494 392.241 120.321C392.433 120.148 392.549 119.898 392.587 119.552C392.606 119.206 392.549 118.937 392.376 118.726C392.203 118.514 391.972 118.399 391.664 118.38C391.491 118.38 391.337 118.38 391.203 118.418C391.107 118.456 391.011 118.514 390.915 118.591C390.818 118.668 390.761 118.764 390.703 118.86C390.626 118.995 390.588 119.168 390.568 119.379C390.549 119.706 390.607 119.975 390.78 120.187C390.953 120.398 391.184 120.513 391.491 120.533M390.972 119.418C390.991 119.168 391.068 118.995 391.184 118.899C391.299 118.783 391.453 118.745 391.626 118.764C391.799 118.764 391.933 118.841 392.03 118.975C392.126 119.11 392.164 119.283 392.145 119.533C392.126 119.783 392.049 119.956 391.933 120.071C391.818 120.187 391.664 120.225 391.51 120.225C391.337 120.225 391.203 120.129 391.107 120.014C391.011 119.879 390.972 119.706 390.991 119.456" fill="#11567C"/>
<path d="M393.934 120.416C393.934 120.416 393.761 120.473 393.626 120.454C393.492 120.454 393.396 120.396 393.338 120.319C393.261 120.243 393.242 120.127 393.223 119.993H392.8C392.8 120.204 392.857 120.396 392.973 120.55C393.107 120.685 393.3 120.781 393.55 120.819C393.723 120.838 393.896 120.819 394.011 120.819C394.146 120.781 394.242 120.723 394.319 120.627C394.396 120.531 394.453 120.416 394.453 120.3C394.453 120.166 394.453 120.05 394.415 119.954C394.376 119.858 394.299 119.781 394.222 119.704C394.126 119.647 393.992 119.57 393.78 119.493C393.588 119.416 393.453 119.358 393.415 119.301C393.377 119.262 393.357 119.224 393.377 119.166C393.377 119.108 393.415 119.07 393.453 119.051C393.53 119.012 393.626 118.993 393.742 119.012C393.857 119.012 393.953 119.07 393.992 119.127C394.049 119.185 394.069 119.262 394.069 119.377L394.492 119.416C394.511 119.224 394.472 119.07 394.357 118.935C394.242 118.801 394.049 118.724 393.78 118.685C393.626 118.666 393.473 118.685 393.357 118.685C393.242 118.724 393.146 118.781 393.069 118.858C392.992 118.935 392.954 119.031 392.934 119.147C392.915 119.32 392.954 119.454 393.069 119.589C393.146 119.685 393.3 119.781 393.511 119.858C393.684 119.935 393.8 119.973 393.838 119.993C393.915 120.031 393.953 120.069 393.973 120.108C393.992 120.146 394.011 120.185 393.992 120.243C393.992 120.319 393.934 120.377 393.857 120.435" fill="#11567C"/>
<path d="M398.697 121.61C398.832 121.61 398.928 121.552 399.024 121.494C399.139 121.417 399.236 121.321 399.313 121.167C399.389 121.052 399.428 120.918 399.466 120.744C399.505 120.552 399.505 120.379 399.485 120.245C399.466 120.11 399.428 119.975 399.351 119.879C399.274 119.764 399.197 119.687 399.082 119.629C399.005 119.591 398.87 119.553 398.697 119.514L397.928 119.38L397.544 121.437L398.332 121.59C398.486 121.629 398.62 121.629 398.717 121.61M398.274 119.802L398.467 119.841C398.64 119.879 398.755 119.899 398.813 119.918C398.89 119.956 398.947 119.995 398.986 120.052C399.024 120.11 399.063 120.187 399.063 120.283C399.063 120.379 399.063 120.495 399.044 120.648C399.005 120.802 398.967 120.937 398.928 121.014C398.89 121.091 398.832 121.167 398.774 121.187C398.717 121.225 398.659 121.244 398.582 121.244C398.524 121.244 398.448 121.244 398.332 121.225L398.024 121.167L398.294 119.802H398.274Z" fill="#11567C"/>
<path d="M395.935 120.666L396.762 120.801L396.877 121.301L397.338 121.378L396.819 119.167L396.377 119.109L395.243 121.051L395.685 121.128L395.935 120.686V120.666ZM396.512 119.609L396.685 120.416L396.127 120.32L396.531 119.59L396.512 119.609Z" fill="#11567C"/>
<path d="M500.822 125.472C500.822 125.472 504.417 121.608 504.417 116.032C504.417 105.766 493.689 101.114 493.689 101.114H473.311V158.231H500.283C500.283 158.231 513.914 153.905 513.914 141.755C513.914 129.605 500.802 125.472 500.802 125.472" fill="#11567C"/>
<path d="M423.351 158.231H471.72L447.536 101.114L423.351 158.231Z" fill="#11567C"/>
<path d="M527.95 132.451H527.027V157.155H527.95V132.451Z" fill="#E4051F"/>
<path d="M559.829 154.254C559.156 154.753 558.445 155.196 557.676 155.561C556.907 155.926 556.08 156.195 555.215 156.407C554.331 156.618 553.351 156.714 552.274 156.714C550.563 156.714 548.986 156.407 547.545 155.772C546.103 155.138 544.853 154.273 543.796 153.196C542.738 152.12 541.912 150.812 541.316 149.332C540.72 147.852 540.412 146.256 540.412 144.545C540.412 142.834 540.72 141.277 541.316 139.796C541.912 138.316 542.738 137.009 543.796 135.894C544.853 134.779 546.122 133.894 547.583 133.26C549.044 132.626 550.64 132.299 552.37 132.299C553.447 132.299 554.427 132.395 555.292 132.568C556.157 132.741 556.965 133.01 557.695 133.337C558.445 133.664 559.118 134.048 559.752 134.51C560.387 134.971 560.983 135.49 561.579 136.048L559.752 138.009C558.733 137.067 557.657 136.278 556.503 135.682C555.35 135.067 553.946 134.779 552.332 134.779C551.024 134.779 549.813 135.029 548.698 135.529C547.583 136.028 546.622 136.72 545.795 137.586C544.968 138.47 544.334 139.489 543.873 140.681C543.411 141.873 543.181 143.142 543.181 144.506C543.181 145.871 543.411 147.16 543.873 148.352C544.334 149.544 544.968 150.581 545.795 151.466C546.622 152.35 547.583 153.042 548.698 153.542C549.813 154.042 551.024 154.292 552.332 154.292C553.946 154.292 555.35 154.004 556.523 153.408C557.695 152.812 558.849 151.966 559.964 150.889L561.713 152.619C561.098 153.254 560.464 153.811 559.81 154.33L559.829 154.254Z" fill="#00577F"/>
<path d="M588.613 156.291H585.75L582.981 150.043H570.119L567.313 156.291H564.583L575.348 132.49H577.848L588.613 156.291ZM576.56 135.624L571.157 147.678H581.923L576.56 135.624Z" fill="#00577F"/>
<path d="M616.182 156.291H613.319L610.549 150.043H597.687L594.882 156.291H592.15L602.917 132.49H605.417L616.182 156.291ZM604.128 135.624L598.725 147.678H609.492L604.128 135.624Z" fill="#00577F"/>
<path d="M638.419 144.505C637.919 145.543 637.247 146.409 636.381 147.101C635.517 147.793 634.498 148.312 633.343 148.677C632.191 149.042 630.94 149.196 629.615 149.196H625.673V156.29H620.483V132.663H630.134C631.557 132.663 632.824 132.855 633.939 133.259C635.056 133.662 635.998 134.201 636.766 134.931C637.536 135.643 638.131 136.508 638.555 137.507C638.976 138.507 639.169 139.622 639.169 140.833V140.91C639.169 142.275 638.918 143.486 638.419 144.524V144.505ZM633.901 140.929C633.901 139.757 633.518 138.872 632.767 138.257C632.018 137.642 630.98 137.354 629.672 137.354H625.654V144.582H629.768C631.076 144.582 632.095 144.236 632.805 143.544C633.537 142.852 633.882 142.006 633.882 140.987V140.91L633.901 140.929Z" fill="#00577F"/>
<path d="M643.263 156.29V132.663H648.455V156.29H643.263Z" fill="#00577F"/>
</g>
</g>
<defs>
<linearGradient id="paint0_linear_128_97" x1="508" y1="828" x2="475" y2="828" gradientUnits="userSpaceOnUse">
<stop stop-color="#01AB7D"/>
<stop offset="1" stop-color="#008F69"/>
</linearGradient>
<linearGradient id="paint1_linear_128_97" x1="913" y1="540" x2="913" y2="573" gradientUnits="userSpaceOnUse">
<stop stop-color="#01AB7D"/>
<stop offset="1" stop-color="#008F69"/>
</linearGradient>
<linearGradient id="paint2_linear_128_97" x1="530" y1="844" x2="510" y2="844" gradientUnits="userSpaceOnUse">
<stop stop-color="#01AB7D"/>
<stop offset="1" stop-color="#008F69"/>
</linearGradient>
<linearGradient id="paint3_linear_128_97" x1="550" y1="560" x2="550" y2="580" gradientUnits="userSpaceOnUse">
<stop stop-color="#01AB7D"/>
<stop offset="1" stop-color="#008F69"/>
</linearGradient>
<linearGradient id="paint4_linear_128_97" x1="958" y1="834" x2="958" y2="854" gradientUnits="userSpaceOnUse">
<stop stop-color="#01AB7D"/>
<stop offset="1" stop-color="#008F69"/>
</linearGradient>
<linearGradient id="paint5_linear_128_97" x1="948" y1="566" x2="948" y2="586" gradientUnits="userSpaceOnUse">
<stop stop-color="#01AB7D"/>
<stop offset="1" stop-color="#008F69"/>
</linearGradient>
<linearGradient id="paint6_linear_128_97" x1="711" y1="1230" x2="1293" y2="1230" gradientUnits="userSpaceOnUse">
<stop stop-color="#12A67A"/>
<stop offset="1" stop-color="#75D9B5"/>
</linearGradient>
<linearGradient id="paint7_linear_128_97" x1="507" y1="701" x2="993" y2="701" gradientUnits="userSpaceOnUse">
<stop stop-color="#12A67A"/>
<stop offset="1" stop-color="#75D9B5"/>
</linearGradient>
<clipPath id="clip0_128_97">
<rect width="1080" height="1080" fill="white"/>
</clipPath>
</defs>
</svg>
