<svg width="1080" height="1920" viewBox="0 0 1080 1920" fill="none" xmlns="http://www.w3.org/2000/svg">
<g clip-path="url(#clip0_69_2)">
<rect width="1080" height="1920" fill="#FAFAFA"/>
<path opacity="0.2" d="M335.6 433.64H322.82V446.6H317.72V433.64H305V429.02H317.72V416H322.82V429.02H335.6V433.64Z" fill="#212121"/>
<circle cx="1035" cy="85" r="322" fill="#01A077"/>
<rect x="100" y="926" width="396" height="218" rx="13.3263" fill="#E7E8EC"/>
<path d="M104.933 460.476C105.534 460.5 106.131 460.389 106.683 460.15C107.234 459.912 107.726 459.553 108.12 459.1C108.925 458.179 109.327 456.771 109.327 454.876V411.237H121.311L121.481 455.215C121.534 460.106 120.21 463.949 117.511 466.776C114.811 469.592 111.275 471 106.903 471C104.557 470.994 102.227 470.615 100 469.877L102.329 459.957C103.156 460.295 104.04 460.471 104.933 460.476ZM121.576 392V403.815H109.158V392H121.576Z" fill="#212121"/>
<path d="M255.551 413.8L246.881 439.813L238.21 413.8H231.127V425.964L241.629 451.828C240.465 455.322 238.379 457.079 235.394 457.079C234.498 457.086 233.606 456.983 232.736 456.772L230.756 465.824C233.339 466.428 235.443 466.731 237.066 466.735C240.141 466.8 243.124 465.682 245.398 463.611C247.706 461.537 249.799 458.065 251.676 453.194L266.816 413.8H255.551Z" fill="#02A378"/>
<path d="M137.188 411.239V437.198C137.188 440.184 137.845 442.407 139.179 443.836C140.502 445.276 142.602 445.996 145.478 445.996C148.358 445.996 150.458 445.276 151.777 443.836C153.101 442.396 153.761 440.184 153.757 437.198V423.71L165.741 411.726V438.225C165.741 444.037 163.973 448.462 160.437 451.501C156.901 454.55 151.942 456.075 145.563 456.075C139.242 456.075 134.383 454.578 130.984 451.586C127.586 448.6 125.888 444.143 125.892 438.214V411.218H137.188V411.239Z" fill="#212121"/>
<path d="M200.417 435.033C199.213 433.305 197.578 431.922 195.674 431.02C193.368 429.986 190.973 429.164 188.517 428.564C185.701 427.813 183.718 427.079 182.567 426.362C182.029 426.057 181.583 425.611 181.279 425.072C180.975 424.533 180.824 423.921 180.842 423.303C180.838 422.771 180.975 422.248 181.239 421.787C181.503 421.326 181.885 420.943 182.345 420.677C183.498 419.978 184.83 419.632 186.177 419.683C188.305 419.698 190.422 419.987 192.477 420.54C193.038 420.689 193.578 420.847 194.118 421.017V418.401L186.072 410.354C180.831 410.376 176.596 411.611 173.367 414.06C170.117 416.537 168.497 419.978 168.497 424.414C168.497 431.2 172.464 435.625 180.397 437.69C183.563 438.548 185.86 439.331 187.3 440.019C188.74 440.707 189.459 441.713 189.459 443.036C189.459 444.127 188.888 445.016 187.734 445.715C186.579 446.403 184.949 446.752 182.821 446.752C180.691 446.732 178.573 446.429 176.522 445.852C174.406 445.273 172.355 444.479 170.401 443.481L167.216 452.194C169.695 453.37 172.279 454.309 174.934 455C177.506 455.698 180.157 456.061 182.822 456.08C188.57 456.08 193.257 454.873 196.881 452.459C200.502 450.045 202.312 446.566 202.312 442.02C202.312 439.14 201.68 436.811 200.417 435.033Z" fill="#212121"/>
<path d="M218.467 410.912C218.467 408.891 218.901 407.397 219.78 406.444C220.202 405.975 220.72 405.603 221.299 405.354C221.879 405.106 222.506 404.986 223.136 405.004C223.501 405.007 223.865 405.032 224.226 405.078V402.485L217.969 396.228C215.132 396.767 212.814 397.837 211.035 399.467C208.388 401.902 207.062 405.714 207.055 410.901V413.856H200.745V422.96H206.97V454.773H218.361V422.97H227.71V413.866H218.446V410.912H218.467Z" fill="#02A378"/>
<mask id="mask0_69_2" style="mask-type:luminance" maskUnits="userSpaceOnUse" x="373" y="393" width="276" height="77">
<path d="M648.455 393H373V469.573H648.455V393Z" fill="white"/>
</mask>
<g mask="url(#mask0_69_2)">
<path d="M449.322 458.961C449.284 458.865 449.226 458.807 449.13 458.807H446.746C446.65 458.807 446.573 458.865 446.554 458.961L443.267 469.246C443.267 469.246 443.267 469.362 443.267 469.4C443.305 469.439 443.343 469.458 443.401 469.458H445.324C445.42 469.458 445.497 469.4 445.516 469.304L445.958 467.804C445.958 467.804 445.996 467.747 446.035 467.747H449.784C449.784 467.747 449.841 467.766 449.861 467.804L450.322 469.304C450.36 469.4 450.418 469.458 450.514 469.458H452.437C452.552 469.458 452.61 469.419 452.61 469.323C452.61 469.285 452.61 469.266 452.61 469.246L449.322 458.961ZM449.245 466.093H446.573C446.573 466.093 446.496 466.055 446.515 465.997L447.861 461.48C447.861 461.48 447.881 461.441 447.9 461.422C447.919 461.422 447.938 461.422 447.938 461.48L449.303 465.997C449.303 465.997 449.303 466.093 449.245 466.093Z" fill="#11567C"/>
<path d="M436.827 459.211C436.327 458.942 435.731 458.807 435.059 458.807H430.771C430.771 458.807 430.675 458.807 430.637 458.865C430.598 458.903 430.579 458.942 430.579 459V469.304C430.579 469.304 430.579 469.4 430.637 469.439C430.675 469.477 430.714 469.496 430.771 469.496H432.559C432.559 469.496 432.656 469.496 432.694 469.439C432.732 469.4 432.751 469.362 432.751 469.304V465.421C432.751 465.421 432.771 465.344 432.828 465.344H434.982C435.654 465.344 436.27 465.209 436.789 464.94C437.308 464.671 437.711 464.286 438 463.806C438.288 463.325 438.442 462.748 438.442 462.114C438.442 461.479 438.307 460.884 438.019 460.384C437.731 459.884 437.346 459.499 436.846 459.211M435.866 463.19C435.578 463.46 435.212 463.594 434.732 463.594H432.809C432.809 463.594 432.732 463.575 432.732 463.517V460.711C432.732 460.711 432.751 460.634 432.809 460.634H434.732C435.193 460.634 435.578 460.768 435.866 461.037C436.154 461.307 436.289 461.672 436.289 462.114C436.289 462.556 436.154 462.902 435.866 463.171" fill="#11567C"/>
<path d="M441.708 458.807H439.92C439.92 458.807 439.824 458.807 439.785 458.865C439.747 458.903 439.728 458.942 439.728 459V469.285C439.728 469.285 439.728 469.381 439.785 469.419C439.824 469.458 439.862 469.477 439.92 469.477H441.708C441.708 469.477 441.804 469.477 441.842 469.419C441.881 469.381 441.9 469.342 441.9 469.285V459C441.9 459 441.9 458.903 441.842 458.865C441.804 458.826 441.765 458.807 441.708 458.807Z" fill="#11567C"/>
<path d="M461.353 458.807H459.565C459.565 458.807 459.469 458.807 459.43 458.865C459.392 458.903 459.373 458.942 459.373 459V465.959C459.373 466.497 459.2 466.939 458.873 467.266C458.546 467.593 458.104 467.766 457.566 467.766C457.027 467.766 456.585 467.593 456.258 467.266C455.931 466.939 455.758 466.497 455.758 465.959V459C455.758 459 455.758 458.903 455.701 458.865C455.662 458.826 455.624 458.807 455.566 458.807H453.778C453.778 458.807 453.682 458.807 453.644 458.865C453.605 458.903 453.586 458.942 453.586 459V465.94C453.586 466.651 453.759 467.305 454.086 467.843C454.413 468.4 454.874 468.823 455.47 469.131C456.066 469.439 456.758 469.592 457.527 469.592C458.296 469.592 458.988 469.439 459.584 469.131C460.18 468.823 460.642 468.4 460.968 467.843C461.295 467.285 461.468 466.651 461.468 465.94V459C461.468 459 461.468 458.903 461.41 458.865C461.372 458.826 461.334 458.807 461.276 458.807" fill="#11567C"/>
<path d="M465.992 455.98H464.454C464.339 455.98 464.262 456.019 464.223 456.115L463.416 457.653C463.416 457.653 463.378 457.768 463.416 457.806C463.435 457.845 463.474 457.864 463.551 457.864H464.819C464.819 457.864 464.973 457.826 465.031 457.749L466.107 456.211C466.107 456.211 466.146 456.095 466.127 456.057C466.107 456.019 466.05 455.98 465.973 455.98" fill="#11567C"/>
<path d="M465.279 458.807H463.491C463.491 458.807 463.395 458.807 463.356 458.865C463.318 458.903 463.299 458.942 463.299 459V469.285C463.299 469.285 463.299 469.381 463.356 469.419C463.395 469.458 463.433 469.477 463.491 469.477H465.279C465.279 469.477 465.375 469.477 465.414 469.419C465.452 469.381 465.471 469.342 465.471 469.285V459C465.471 459 465.471 458.903 465.414 458.865C465.375 458.826 465.337 458.807 465.279 458.807Z" fill="#11567C"/>
<path d="M429.902 424.972C429.729 426.472 429.421 427.933 429.017 429.355C429.421 427.933 429.709 426.472 429.902 424.972Z" fill="#11567C"/>
<path d="M415.642 419.414C415.777 419.414 415.892 419.414 415.988 419.394C416.123 419.356 416.238 419.279 416.354 419.164C416.45 419.068 416.527 418.952 416.604 418.798C416.681 418.625 416.738 418.452 416.757 418.318C416.757 418.183 416.757 418.049 416.719 417.933C416.681 417.818 416.623 417.703 416.527 417.626C416.45 417.568 416.334 417.491 416.181 417.414L415.489 417.068L414.585 418.952L415.296 419.298C415.431 419.375 415.565 419.414 415.661 419.433M415.7 417.549L415.873 417.626C416.027 417.703 416.123 417.76 416.181 417.799C416.238 417.856 416.296 417.914 416.315 417.972C416.334 418.029 416.354 418.125 416.315 418.202C416.315 418.299 416.257 418.414 416.2 418.549C416.123 418.702 416.065 418.798 415.988 418.875C415.911 418.952 415.854 418.991 415.796 419.01C415.738 419.01 415.681 419.01 415.604 419.01C415.546 419.01 415.469 418.971 415.354 418.914L415.065 418.779L415.661 417.529L415.7 417.549Z" fill="#11567C"/>
<path d="M412.213 417.147C412.137 417.378 412.156 417.57 412.213 417.743C412.29 417.916 412.463 418.051 412.694 418.166C412.867 418.243 413.002 418.282 413.136 418.282C413.271 418.282 413.386 418.243 413.482 418.185C413.578 418.109 413.655 418.032 413.713 417.916C413.771 417.801 413.79 417.686 413.771 417.57C413.771 417.455 413.713 417.359 413.636 417.282C413.559 417.205 413.444 417.09 413.271 416.955C413.098 416.821 413.002 416.744 412.963 416.667C412.944 416.609 412.944 416.571 412.963 416.532C412.982 416.475 413.021 416.455 413.078 416.436C413.155 416.436 413.252 416.436 413.367 416.475C413.482 416.532 413.54 416.59 413.578 416.647C413.617 416.724 413.617 416.801 413.578 416.917L413.982 417.071C414.059 416.897 414.059 416.724 413.982 416.571C413.905 416.417 413.751 416.282 413.501 416.167C413.348 416.109 413.213 416.071 413.098 416.071C412.982 416.071 412.867 416.09 412.771 416.167C412.675 416.225 412.617 416.302 412.559 416.398C412.483 416.552 412.502 416.705 412.559 416.859C412.617 416.974 412.733 417.109 412.905 417.243C413.04 417.359 413.136 417.436 413.175 417.455C413.232 417.513 413.271 417.551 413.271 417.609C413.271 417.647 413.271 417.705 413.271 417.743C413.232 417.82 413.175 417.859 413.098 417.897C413.002 417.916 412.905 417.897 412.771 417.859C412.656 417.801 412.579 417.743 412.521 417.647C412.483 417.551 412.463 417.436 412.521 417.301L412.117 417.167L412.213 417.147Z" fill="#11567C"/>
<path d="M416.731 419.761C416.808 420.011 416.981 420.223 417.25 420.357C417.519 420.511 417.788 420.53 418.038 420.453C418.288 420.377 418.5 420.184 418.654 419.877C418.807 419.569 418.846 419.3 418.788 419.031C418.711 418.781 418.538 418.569 418.269 418.435C418.115 418.358 417.981 418.3 417.827 418.3C417.731 418.3 417.615 418.3 417.5 418.339C417.385 418.377 417.289 418.435 417.192 418.492C417.077 418.589 416.962 418.742 416.866 418.916C416.712 419.204 416.673 419.492 416.75 419.742M417.25 419.127C417.366 418.916 417.5 418.781 417.654 418.723C417.808 418.666 417.962 418.685 418.115 418.762C418.269 418.839 418.365 418.954 418.404 419.108C418.442 419.262 418.404 419.454 418.288 419.665C418.173 419.877 418.038 420.011 417.885 420.069C417.731 420.127 417.577 420.107 417.423 420.031C417.269 419.954 417.173 419.838 417.135 419.665C417.096 419.511 417.135 419.319 417.231 419.108" fill="#11567C"/>
<path d="M420.229 422.009C420.325 422.047 420.421 422.086 420.517 422.066C420.613 422.066 420.69 422.028 420.786 421.97C420.863 421.913 420.94 421.855 420.979 421.759C421.036 421.663 421.075 421.547 421.056 421.432C421.056 421.317 420.998 421.22 420.902 421.124C420.998 421.124 421.094 421.124 421.19 421.067C421.286 421.028 421.344 420.951 421.402 420.874C421.44 420.798 421.478 420.721 421.478 420.624C421.478 420.548 421.478 420.471 421.44 420.394C421.402 420.317 421.363 420.259 421.286 420.202C421.228 420.144 421.113 420.086 420.979 419.99L420.248 419.567L419.171 421.374L419.787 421.74C420.017 421.874 420.171 421.951 420.229 421.99M420.44 420.105L420.652 420.221C420.825 420.317 420.921 420.394 420.959 420.413C421.017 420.452 421.056 420.509 421.056 420.567C421.056 420.624 421.056 420.682 421.017 420.721C420.979 420.778 420.94 420.817 420.882 420.836C420.825 420.836 420.767 420.836 420.69 420.817C420.652 420.817 420.556 420.74 420.421 420.663L420.19 420.528L420.44 420.105ZM419.998 420.836L420.287 421.009C420.46 421.105 420.556 421.182 420.594 421.22C420.632 421.259 420.652 421.317 420.652 421.374C420.652 421.432 420.652 421.49 420.613 421.528C420.575 421.586 420.537 421.624 420.479 421.644C420.421 421.644 420.363 421.644 420.306 421.644C420.267 421.644 420.19 421.586 420.056 421.509L419.71 421.317L419.998 420.836Z" fill="#11567C"/>
<path d="M404.161 414.896C404.296 415.031 404.469 415.127 404.68 415.184C404.853 415.223 405.027 415.242 405.199 415.223C405.373 415.223 405.526 415.165 405.623 415.107L405.853 414.3L404.969 414.05L404.873 414.396L405.334 414.531L405.257 414.781C405.257 414.781 405.103 414.838 405.007 414.838C404.911 414.838 404.815 414.838 404.738 414.819C404.565 414.762 404.45 414.665 404.373 414.531C404.296 414.377 404.296 414.185 404.373 413.935C404.431 413.704 404.527 413.55 404.68 413.473C404.815 413.396 404.969 413.377 405.161 413.416C405.276 413.454 405.373 413.512 405.43 413.589C405.488 413.666 405.526 413.762 405.526 413.877L405.949 413.916C405.949 413.723 405.911 413.55 405.795 413.396C405.68 413.243 405.507 413.147 405.257 413.07C405.065 413.012 404.892 413.012 404.738 413.031C404.546 413.07 404.373 413.166 404.238 413.3C404.104 413.435 404.007 413.608 403.95 413.819C403.892 414.012 403.892 414.204 403.911 414.396C403.95 414.588 404.027 414.742 404.161 414.877" fill="#11567C"/>
<path d="M401.776 414.108C401.911 414.339 402.122 414.492 402.43 414.569C402.737 414.646 402.987 414.627 403.218 414.473C403.449 414.339 403.602 414.108 403.679 413.781C403.775 413.454 403.756 413.166 403.622 412.935C403.487 412.705 403.275 412.551 402.987 412.474C402.814 412.435 402.66 412.416 402.526 412.435C402.41 412.435 402.314 412.493 402.218 412.551C402.122 412.608 402.026 412.685 401.949 412.782C401.853 412.916 401.776 413.07 401.718 413.281C401.641 413.608 401.661 413.877 401.795 414.108M402.141 413.377C402.199 413.147 402.295 412.974 402.43 412.897C402.564 412.801 402.718 412.782 402.891 412.839C403.064 412.878 403.179 412.974 403.256 413.128C403.333 413.262 403.333 413.454 403.256 413.685C403.199 413.916 403.103 414.089 402.968 414.166C402.833 414.262 402.679 414.281 402.526 414.243C402.372 414.204 402.237 414.108 402.16 413.954C402.083 413.8 402.083 413.627 402.141 413.397" fill="#11567C"/>
<path d="M406.123 415.608L406.431 415.205L407.238 415.454L407.276 415.954L407.719 416.089L407.565 413.84L407.142 413.705L405.719 415.454L406.142 415.589L406.123 415.608ZM407.18 414.262L407.219 415.089L406.68 414.916L407.2 414.262H407.18Z" fill="#11567C"/>
<path d="M410.777 417.319C411.066 417.435 411.335 417.435 411.566 417.319C411.796 417.204 411.989 416.992 412.104 416.666C412.219 416.339 412.238 416.07 412.123 415.82C412.008 415.57 411.816 415.397 411.527 415.281C411.373 415.224 411.22 415.205 411.066 415.205C410.95 415.205 410.854 415.243 410.739 415.281C410.624 415.339 410.527 415.397 410.45 415.474C410.335 415.589 410.239 415.743 410.162 415.935C410.047 416.243 410.028 416.531 410.143 416.762C410.239 417.012 410.45 417.185 410.739 417.3M410.624 416.089C410.7 415.858 410.816 415.724 410.97 415.647C411.104 415.57 411.258 415.57 411.431 415.647C411.585 415.705 411.7 415.82 411.758 415.954C411.816 416.108 411.796 416.281 411.719 416.512C411.642 416.742 411.508 416.896 411.373 416.973C411.22 417.05 411.085 417.05 410.912 416.992C410.739 416.935 410.643 416.819 410.585 416.666C410.527 416.512 410.547 416.32 410.624 416.108" fill="#11567C"/>
<path d="M409.047 416.57C409.181 416.57 409.297 416.57 409.393 416.513C409.508 416.455 409.624 416.359 409.72 416.243C409.797 416.147 409.874 416.013 409.931 415.84C409.989 415.648 410.027 415.494 410.027 415.34C410.027 415.205 410.008 415.071 409.95 414.955C409.893 414.84 409.816 414.744 409.72 414.667C409.643 414.609 409.527 414.552 409.354 414.494L408.624 414.225L407.913 416.205L408.662 416.474C408.816 416.532 408.931 416.551 409.028 416.551M408.912 414.725L409.085 414.782C409.239 414.84 409.354 414.878 409.412 414.917C409.489 414.955 409.527 415.013 409.566 415.071C409.604 415.128 409.604 415.205 409.604 415.301C409.604 415.398 409.566 415.513 409.527 415.667C409.47 415.82 409.412 415.936 409.354 416.013C409.297 416.09 409.239 416.147 409.181 416.167C409.124 416.186 409.066 416.205 408.989 416.186C408.931 416.186 408.854 416.167 408.739 416.109L408.432 415.993L408.912 414.686V414.725Z" fill="#11567C"/>
<path d="M422.963 423.758L423.366 423.451L424.058 423.912L423.943 424.412L424.328 424.662L424.789 422.451L424.424 422.201L422.578 423.489L422.943 423.739L422.963 423.758ZM424.347 422.759L424.154 423.566L423.674 423.239L424.347 422.759Z" fill="#11567C"/>
<path d="M421.346 422.701L421.807 421.951L421.884 421.989C421.884 421.989 422.018 422.086 422.057 422.124C422.095 422.163 422.114 422.201 422.114 422.259C422.114 422.316 422.134 422.451 422.134 422.643V423.201L422.576 423.47V422.989C422.576 422.797 422.576 422.662 422.557 422.566C422.557 422.489 422.499 422.393 422.461 422.297C422.634 422.374 422.787 422.393 422.922 422.355C423.057 422.316 423.153 422.22 423.249 422.086C423.306 421.989 423.345 421.874 423.345 421.759C423.345 421.644 423.306 421.547 423.249 421.451C423.172 421.374 423.057 421.259 422.864 421.144L422.114 420.682L421 422.47L421.365 422.701H421.346ZM422.268 421.22L422.557 421.394C422.71 421.49 422.787 421.547 422.826 421.567C422.884 421.605 422.903 421.663 422.922 421.72C422.922 421.778 422.922 421.836 422.884 421.893C422.845 421.951 422.807 421.989 422.768 422.009C422.71 422.009 422.672 422.028 422.614 422.009C422.557 422.009 422.441 421.932 422.268 421.836L421.999 421.663L422.288 421.201L422.268 421.22Z" fill="#11567C"/>
<path d="M400.587 414.051L401.76 412.148L401.318 412.052L400.491 413.474L400.28 411.84L399.837 411.744L400.145 413.955L400.587 414.051Z" fill="#11567C"/>
<path d="M424.708 424.799C424.746 424.992 424.881 425.146 425.092 425.299C425.246 425.415 425.381 425.472 425.515 425.511C425.65 425.549 425.765 425.53 425.88 425.492C425.996 425.453 426.092 425.376 426.169 425.28C426.246 425.165 426.284 425.069 426.303 424.953C426.303 424.838 426.303 424.742 426.246 424.646C426.188 424.55 426.111 424.415 425.957 424.261C425.823 424.107 425.746 423.992 425.726 423.915C425.726 423.857 425.726 423.819 425.746 423.781C425.784 423.742 425.823 423.723 425.88 423.723C425.957 423.723 426.053 423.761 426.169 423.838C426.265 423.915 426.322 423.973 426.342 424.05C426.361 424.127 426.342 424.203 426.303 424.3L426.649 424.53C426.765 424.376 426.784 424.203 426.746 424.031C426.707 423.857 426.572 423.704 426.361 423.55C426.226 423.454 426.111 423.396 425.976 423.358C425.861 423.338 425.746 423.338 425.631 423.358C425.534 423.396 425.438 423.454 425.381 423.55C425.284 423.684 425.246 423.838 425.284 424.011C425.304 424.126 425.4 424.28 425.554 424.453C425.669 424.588 425.746 424.684 425.765 424.722C425.803 424.78 425.842 424.838 425.842 424.896C425.842 424.934 425.842 424.972 425.803 425.03C425.765 425.088 425.688 425.126 425.592 425.126C425.496 425.126 425.4 425.107 425.284 425.011C425.188 424.934 425.111 424.857 425.092 424.761C425.073 424.665 425.092 424.55 425.15 424.415L424.785 424.203C424.669 424.415 424.631 424.607 424.669 424.78" fill="#11567C"/>
<path d="M427.332 424.318L426.076 425.995L426.415 426.249L427.67 424.571L427.332 424.318Z" fill="#11567C"/>
<path d="M427.924 427.413L428.136 427.124L427.29 426.49L428.328 425.106L427.982 424.856L426.732 426.528L427.924 427.413Z" fill="#11567C"/>
<path d="M382.628 410.147C382.628 410.147 382.436 409.993 382.321 409.955C382.224 409.935 382.09 409.916 381.917 409.916H381.148L381.109 412.012H381.917C382.071 412.012 382.205 412.012 382.301 411.992C382.436 411.954 382.532 411.896 382.609 411.819C382.705 411.723 382.782 411.608 382.84 411.454C382.878 411.339 382.917 411.185 382.917 411.012C382.917 410.82 382.917 410.647 382.859 410.512C382.82 410.378 382.743 410.262 382.667 410.166M382.397 411.358C382.397 411.358 382.321 411.512 382.282 411.569C382.244 411.608 382.186 411.646 382.109 411.646C382.051 411.646 381.975 411.646 381.859 411.646H381.552V410.243H381.744C381.917 410.243 382.032 410.243 382.09 410.262C382.167 410.262 382.224 410.32 382.282 410.358C382.34 410.416 382.378 410.474 382.397 410.57C382.417 410.647 382.436 410.781 382.436 410.935C382.436 411.089 382.436 411.223 382.378 411.32" fill="#11567C"/>
<path d="M385.67 410.436L385.996 412.109L386.419 412.128L386.9 410.494L386.823 412.147L387.227 412.167L387.323 410.071L386.688 410.033L386.246 411.436L385.939 409.994L385.304 409.956L385.189 412.071L385.593 412.09L385.67 410.436Z" fill="#11567C"/>
<path d="M401.55 393C390.169 393 380.345 399.671 375.75 409.322C395.109 407.477 411.893 411.091 429.907 424.933C430.041 423.818 430.118 422.703 430.118 421.549C430.118 405.785 417.333 393 401.55 393ZM411.316 412.936L410.336 412.437L409.374 412.956L409.547 411.86L408.759 411.091L409.855 410.918L410.336 409.918L410.835 410.899L411.931 411.052L411.143 411.821L411.335 412.898L411.316 412.936Z" fill="#11567C"/>
<path d="M374.173 413.494C373.423 416.051 373 418.761 373 421.568C373 437.333 385.785 450.117 401.549 450.117C414.622 450.117 425.618 441.331 429.021 429.354C413.334 416.512 394.397 410.745 374.173 413.494ZM377.864 416.205L378.364 415.224L378.844 416.224L379.94 416.377L379.152 417.147L379.344 418.242L378.364 417.723L377.383 418.223L377.576 417.147L376.787 416.377L377.883 416.224L377.864 416.205ZM378.594 432.277L377.787 431.873L376.999 432.296L377.133 431.411L376.48 430.796L377.364 430.662L377.749 429.854L378.152 430.662L379.037 430.777L378.402 431.411L378.556 432.296L378.594 432.277ZM381.651 429.989L380.728 429.508L379.806 430.008L379.979 428.989L379.229 428.278L380.267 428.124L380.709 427.182L381.171 428.105L382.209 428.239L381.478 428.97L381.67 429.989H381.651ZM402.203 444.754L401.78 444.542L401.357 444.773L401.414 444.292L401.068 443.965L401.53 443.888L401.722 443.446L401.953 443.869L402.433 443.927L402.106 444.273L402.203 444.734V444.754ZM402.587 436.141L401.664 435.66L400.742 436.16L400.914 435.122L400.165 434.391L401.203 434.237L401.664 433.295L402.126 434.237L403.164 434.372L402.414 435.103L402.606 436.141H402.587ZM416.544 444.523L415.872 444.196L415.218 444.561L415.333 443.831L414.795 443.312L415.525 443.196L415.833 442.523L416.179 443.196L416.929 443.292L416.41 443.831L416.544 444.561V444.523ZM422.004 437.698L421.254 437.294L420.486 437.679L420.639 436.833L420.043 436.237L420.889 436.121L421.274 435.352L421.639 436.121L422.485 436.256L421.87 436.852L422.004 437.698ZM425.369 431.392L425.676 430.739L426.003 431.373L426.734 431.469L426.214 431.988L426.349 432.699L425.695 432.373L425.061 432.719L425.176 432.007L424.638 431.507L425.349 431.392H425.369ZM423.831 434.007L423.235 434.584L423.369 435.41L422.639 435.006L421.889 435.391L422.043 434.584L421.466 433.988L422.293 433.891L422.677 433.161L423.023 433.911L423.85 434.045L423.831 434.007ZM421.043 430.911L421.485 429.97L421.966 430.892L423.004 431.027L422.273 431.757L422.466 432.776L421.543 432.296L420.62 432.796L420.774 431.757L420.024 431.046L421.043 430.873V430.911ZM418.313 437.41L418.601 436.775L418.928 437.39L419.62 437.467L419.121 437.967L419.255 438.659L418.621 438.352L418.005 438.698L418.102 438.006L417.583 437.525L418.275 437.41H418.313ZM415.487 437.41L415.814 436.737L416.141 437.41L416.871 437.525L416.333 438.044L416.448 438.774L415.795 438.428L415.141 438.774L415.276 438.044L414.756 437.525L415.487 437.429V437.41ZM415.525 440.043L415.929 439.236L416.314 440.043L417.198 440.178L416.544 440.793L416.679 441.677L415.891 441.255L415.083 441.658L415.256 440.774L414.622 440.14L415.506 440.024L415.525 440.043ZM412.142 438.044L412.469 437.371L412.795 438.044L413.526 438.14L413.007 438.659L413.142 439.39L412.488 439.044L411.834 439.39L411.95 438.659L411.411 438.14L412.142 438.025V438.044ZM409.854 439.986L410.239 440.735L411.084 440.831L410.488 441.427L410.642 442.254L409.873 441.87L409.124 442.273L409.258 441.427L408.643 440.851L409.489 440.716L409.854 439.947V439.986ZM407.932 419.319L408.278 418.627L408.624 419.319L409.393 419.434L408.835 419.973L408.97 420.741L408.278 420.376L407.585 420.741L407.72 419.973L407.163 419.434L407.932 419.319ZM407.201 437.313L407.528 436.641L407.855 437.313L408.585 437.429L408.047 437.948L408.162 438.678L407.509 438.332L406.855 438.678L406.99 437.948L406.471 437.429L407.201 437.333V437.313ZM404.394 427.624L404.798 428.432L405.702 428.547L405.048 429.181L405.221 430.085L404.413 429.662L403.606 430.104L403.76 429.2L403.106 428.566L404.01 428.432L404.413 427.605L404.394 427.624ZM401.414 426.009L401.799 425.202L402.203 426.009L403.106 426.125L402.472 426.759L402.645 427.643L401.837 427.24L401.049 427.663L401.184 426.778L400.53 426.163L401.414 426.028V426.009ZM399.723 430.527L399.972 430.046L400.203 430.546L400.742 430.623L400.338 430.988L400.415 431.527L399.934 431.258L399.453 431.507L399.55 430.969L399.165 430.585L399.703 430.508L399.723 430.527ZM397.512 428.835L397.858 428.143L398.204 428.835L398.973 428.951L398.415 429.489L398.55 430.258L397.858 429.893L397.166 430.258L397.3 429.489L396.743 428.951L397.512 428.835ZM390.052 422.203L390.437 421.376L390.86 422.183L391.763 422.28L391.129 422.933L391.302 423.818L390.475 423.414L389.687 423.856L389.822 422.952L389.149 422.337L390.052 422.183V422.203ZM389.168 436.756L389.61 435.852L390.072 436.756L391.071 436.891L390.36 437.602L390.533 438.602L389.63 438.14L388.745 438.621L388.899 437.621L388.168 436.929L389.168 436.775V436.756ZM386.073 430.892L386.438 430.104L386.823 430.873L387.688 430.988L387.073 431.604L387.226 432.45L386.457 432.065L385.688 432.488L385.823 431.642L385.189 431.046L386.034 430.911L386.073 430.892ZM385.131 433.93L385.458 433.257L385.785 433.93L386.534 434.045L385.996 434.564L386.131 435.314L385.458 434.968L384.785 435.314L384.919 434.564L384.381 434.045L385.131 433.93ZM384.15 426.605L383.747 426.99L383.843 427.547L383.343 427.278L382.843 427.528L382.939 426.97L382.536 426.586L383.093 426.509L383.343 426.009L383.593 426.509L384.15 426.586V426.605Z" fill="#11567C"/>
<path d="M389.627 412.282C389.761 412.244 389.858 412.206 389.934 412.129C390.031 412.032 390.127 411.917 390.184 411.783C390.242 411.667 390.261 411.513 390.28 411.34C390.28 411.148 390.28 410.975 390.242 410.841C390.204 410.706 390.146 410.591 390.069 410.494C389.992 410.398 389.877 410.321 389.761 410.283C389.665 410.245 389.531 410.225 389.358 410.225L388.589 410.168L388.454 412.263L389.242 412.321C389.396 412.321 389.531 412.321 389.627 412.302M388.896 411.936L388.992 410.552H389.185C389.358 410.571 389.473 410.591 389.531 410.61C389.608 410.629 389.665 410.668 389.723 410.725C389.781 410.783 389.8 410.841 389.838 410.937C389.858 411.033 389.877 411.148 389.838 411.302C389.838 411.456 389.8 411.59 389.761 411.686C389.723 411.783 389.685 411.84 389.646 411.879C389.588 411.917 389.531 411.936 389.473 411.956C389.415 411.956 389.338 411.956 389.223 411.956H388.916L388.896 411.936Z" fill="#11567C"/>
<path d="M377.553 409.995C377.38 409.995 377.226 410.033 377.111 410.091C377.015 410.129 376.919 410.206 376.842 410.283C376.765 410.379 376.707 410.475 376.65 410.571C376.592 410.725 376.573 410.898 376.573 411.11C376.573 411.437 376.688 411.706 376.88 411.879C377.073 412.052 377.323 412.148 377.63 412.129C377.938 412.129 378.188 412.013 378.361 411.821C378.534 411.629 378.611 411.36 378.611 411.014C378.611 410.668 378.495 410.398 378.303 410.225C378.111 410.033 377.861 409.956 377.553 409.975M378.053 411.61C377.957 411.744 377.822 411.802 377.649 411.802C377.476 411.802 377.342 411.744 377.226 411.629C377.111 411.513 377.053 411.34 377.034 411.09C377.034 410.86 377.073 410.668 377.169 410.552C377.265 410.437 377.399 410.36 377.592 410.36C377.765 410.36 377.899 410.398 378.015 410.514C378.13 410.629 378.188 410.802 378.188 411.052C378.188 411.302 378.149 411.475 378.053 411.61Z" fill="#11567C"/>
<path d="M380.38 411.263C380.38 411.263 380.245 411.148 380.149 411.09C380.341 411.052 380.476 410.994 380.553 410.879C380.649 410.783 380.687 410.648 380.687 410.475C380.687 410.36 380.649 410.244 380.591 410.148C380.533 410.052 380.437 409.995 380.341 409.956C380.245 409.918 380.072 409.898 379.841 409.918H378.957L378.995 412.032H379.418V411.148H379.495C379.591 411.148 379.668 411.148 379.707 411.148C379.745 411.148 379.803 411.186 379.841 411.225C379.88 411.263 379.957 411.36 380.072 411.533L380.38 411.975H380.88L380.61 411.552C380.495 411.398 380.418 411.283 380.36 411.225M379.707 410.821H379.399V410.302H379.726C379.899 410.302 379.995 410.302 380.034 410.302C380.111 410.302 380.149 410.341 380.187 410.379C380.226 410.417 380.245 410.475 380.245 410.552C380.245 410.61 380.245 410.667 380.207 410.706C380.168 410.744 380.13 410.783 380.091 410.802C380.034 410.802 379.918 410.821 379.707 410.84" fill="#11567C"/>
<path d="M384.821 410.303V409.957L383.264 409.938L383.245 412.033L384.84 412.052V411.706L383.668 411.687L383.687 411.11L384.725 411.13L384.744 410.764H383.687V410.284L384.821 410.303Z" fill="#11567C"/>
<path d="M391.472 412.552C391.78 412.571 392.03 412.494 392.241 412.321C392.433 412.148 392.549 411.898 392.587 411.552C392.606 411.206 392.549 410.937 392.376 410.726C392.203 410.514 391.972 410.399 391.664 410.379C391.491 410.379 391.337 410.379 391.203 410.418C391.107 410.456 391.011 410.514 390.915 410.591C390.818 410.668 390.761 410.764 390.703 410.86C390.626 410.995 390.588 411.168 390.568 411.379C390.549 411.706 390.607 411.975 390.78 412.187C390.953 412.398 391.184 412.513 391.491 412.533M390.972 411.418C390.991 411.168 391.068 410.995 391.184 410.899C391.299 410.783 391.453 410.745 391.626 410.764C391.799 410.764 391.933 410.841 392.03 410.975C392.126 411.11 392.164 411.283 392.145 411.533C392.126 411.783 392.049 411.956 391.933 412.071C391.818 412.187 391.664 412.225 391.51 412.225C391.337 412.225 391.203 412.129 391.107 412.014C391.011 411.879 390.972 411.706 390.991 411.456" fill="#11567C"/>
<path d="M393.934 412.416C393.934 412.416 393.761 412.473 393.626 412.454C393.492 412.454 393.396 412.396 393.338 412.319C393.261 412.243 393.242 412.127 393.223 411.993H392.8C392.8 412.204 392.857 412.396 392.973 412.55C393.107 412.685 393.3 412.781 393.55 412.819C393.723 412.838 393.896 412.819 394.011 412.819C394.146 412.781 394.242 412.723 394.319 412.627C394.396 412.531 394.453 412.416 394.453 412.3C394.453 412.166 394.453 412.05 394.415 411.954C394.376 411.858 394.299 411.781 394.222 411.704C394.126 411.647 393.992 411.57 393.78 411.493C393.588 411.416 393.453 411.358 393.415 411.301C393.377 411.262 393.357 411.224 393.377 411.166C393.377 411.108 393.415 411.07 393.453 411.051C393.53 411.012 393.626 410.993 393.742 411.012C393.857 411.012 393.953 411.07 393.992 411.127C394.049 411.185 394.069 411.262 394.069 411.377L394.492 411.416C394.511 411.224 394.472 411.07 394.357 410.935C394.242 410.801 394.049 410.724 393.78 410.685C393.626 410.666 393.473 410.685 393.357 410.685C393.242 410.724 393.146 410.781 393.069 410.858C392.992 410.935 392.954 411.031 392.934 411.147C392.915 411.32 392.954 411.454 393.069 411.589C393.146 411.685 393.3 411.781 393.511 411.858C393.684 411.935 393.8 411.973 393.838 411.993C393.915 412.031 393.953 412.069 393.973 412.108C393.992 412.146 394.011 412.185 393.992 412.243C393.992 412.319 393.934 412.377 393.857 412.435" fill="#11567C"/>
<path d="M398.697 413.61C398.832 413.61 398.928 413.552 399.024 413.494C399.139 413.417 399.236 413.321 399.313 413.167C399.389 413.052 399.428 412.918 399.466 412.744C399.505 412.552 399.505 412.379 399.485 412.245C399.466 412.11 399.428 411.975 399.351 411.879C399.274 411.764 399.197 411.687 399.082 411.629C399.005 411.591 398.87 411.553 398.697 411.514L397.928 411.38L397.544 413.437L398.332 413.59C398.486 413.629 398.62 413.629 398.717 413.61M398.274 411.802L398.467 411.841C398.64 411.879 398.755 411.899 398.813 411.918C398.89 411.956 398.947 411.995 398.986 412.052C399.024 412.11 399.063 412.187 399.063 412.283C399.063 412.379 399.063 412.495 399.044 412.648C399.005 412.802 398.967 412.937 398.928 413.014C398.89 413.091 398.832 413.167 398.774 413.187C398.717 413.225 398.659 413.244 398.582 413.244C398.524 413.244 398.448 413.244 398.332 413.225L398.024 413.167L398.294 411.802H398.274Z" fill="#11567C"/>
<path d="M395.935 412.666L396.762 412.801L396.877 413.301L397.338 413.378L396.819 411.167L396.377 411.109L395.243 413.051L395.685 413.128L395.935 412.686V412.666ZM396.512 411.609L396.685 412.416L396.127 412.32L396.531 411.59L396.512 411.609Z" fill="#11567C"/>
<path d="M500.822 417.472C500.822 417.472 504.417 413.608 504.417 408.032C504.417 397.766 493.689 393.114 493.689 393.114H473.311V450.231H500.283C500.283 450.231 513.914 445.905 513.914 433.755C513.914 421.605 500.802 417.472 500.802 417.472" fill="#11567C"/>
<path d="M423.351 450.231H471.72L447.536 393.114L423.351 450.231Z" fill="#11567C"/>
<path d="M527.95 424.451H527.027V449.155H527.95V424.451Z" fill="#E4051F"/>
<path d="M559.829 446.254C559.156 446.753 558.445 447.196 557.676 447.561C556.907 447.926 556.08 448.195 555.215 448.407C554.331 448.618 553.351 448.714 552.274 448.714C550.563 448.714 548.986 448.407 547.545 447.772C546.103 447.138 544.853 446.273 543.796 445.196C542.738 444.12 541.912 442.812 541.316 441.332C540.72 439.852 540.412 438.256 540.412 436.545C540.412 434.834 540.72 433.277 541.316 431.796C541.912 430.316 542.738 429.009 543.796 427.894C544.853 426.779 546.122 425.894 547.583 425.26C549.044 424.626 550.64 424.299 552.37 424.299C553.447 424.299 554.427 424.395 555.292 424.568C556.157 424.741 556.965 425.01 557.695 425.337C558.445 425.664 559.118 426.048 559.752 426.51C560.387 426.971 560.983 427.49 561.579 428.048L559.752 430.009C558.733 429.067 557.657 428.278 556.503 427.682C555.35 427.067 553.946 426.779 552.332 426.779C551.024 426.779 549.813 427.029 548.698 427.529C547.583 428.028 546.622 428.72 545.795 429.586C544.968 430.47 544.334 431.489 543.873 432.681C543.411 433.873 543.181 435.142 543.181 436.506C543.181 437.871 543.411 439.16 543.873 440.352C544.334 441.544 544.968 442.581 545.795 443.466C546.622 444.35 547.583 445.042 548.698 445.542C549.813 446.042 551.024 446.292 552.332 446.292C553.946 446.292 555.35 446.004 556.523 445.408C557.695 444.812 558.849 443.966 559.964 442.889L561.713 444.619C561.098 445.254 560.464 445.811 559.81 446.33L559.829 446.254Z" fill="#00577F"/>
<path d="M588.613 448.291H585.75L582.981 442.043H570.119L567.313 448.291H564.583L575.348 424.49H577.848L588.613 448.291ZM576.56 427.624L571.157 439.678H581.923L576.56 427.624Z" fill="#00577F"/>
<path d="M616.182 448.291H613.319L610.549 442.043H597.687L594.882 448.291H592.15L602.917 424.49H605.417L616.182 448.291ZM604.128 427.624L598.725 439.678H609.492L604.128 427.624Z" fill="#00577F"/>
<path d="M638.419 436.505C637.919 437.544 637.247 438.409 636.381 439.101C635.517 439.793 634.498 440.312 633.343 440.677C632.191 441.042 630.94 441.196 629.615 441.196H625.673V448.29H620.483V424.663H630.134C631.557 424.663 632.824 424.855 633.939 425.259C635.056 425.662 635.998 426.201 636.766 426.931C637.536 427.643 638.131 428.508 638.555 429.507C638.976 430.507 639.169 431.622 639.169 432.833V432.91C639.169 434.275 638.918 435.486 638.419 436.524V436.505ZM633.901 432.929C633.901 431.757 633.518 430.872 632.767 430.257C632.018 429.642 630.98 429.354 629.672 429.354H625.654V436.582H629.768C631.076 436.582 632.095 436.236 632.805 435.544C633.537 434.852 633.882 434.006 633.882 432.987V432.91L633.901 432.929Z" fill="#00577F"/>
<path d="M643.263 448.29V424.663H648.455V448.29H643.263Z" fill="#00577F"/>
</g>
<text fill="#212121" style="white-space: pre" xml:space="preserve" font-family="Poppins" font-size="30" letter-spacing="0em"><tspan x="117" y="1025">IA jur&#xed;dica treinada com </tspan><tspan x="117" y="1064">mais de 350 milh&#xf5;es de </tspan><tspan x="117" y="1103">processos reais</tspan></text>
<text fill="#212121" style="white-space: pre" xml:space="preserve" font-family="Poppins" font-size="30" font-weight="600" letter-spacing="0em"><tspan x="117" y="986">S&#xf3; na Jusfy: &#10;</tspan></text>
<rect x="100" y="1188" width="361" height="84" rx="42" fill="#01A379"/>
<text fill="#FAFAFA" style="white-space: pre" xml:space="preserve" font-family="Poppins" font-size="30" font-weight="bold" letter-spacing="0em"><tspan x="147.858" y="1240">Aproveitar agora</tspan></text>
<path d="M492.686 1146.81L496.548 1157.1L507.169 1160.85C508.277 1161.24 508.277 1162.76 507.169 1163.15L496.548 1166.9L492.686 1177.19C492.283 1178.27 490.717 1178.27 490.314 1177.19L486.452 1166.9L475.831 1163.15C474.723 1162.76 474.723 1161.24 475.831 1160.85L486.452 1157.1L490.314 1146.81C490.717 1145.73 492.283 1145.73 492.686 1146.81Z" fill="url(#paint0_linear_69_2)"/>
<path d="M897.806 889.314L908.105 885.452L911.85 874.831C912.24 873.723 913.76 873.723 914.15 874.831L917.895 885.452L928.194 889.314C929.269 889.717 929.269 891.283 928.194 891.686L917.895 895.548L914.15 906.169C913.76 907.277 912.24 907.277 911.85 906.169L908.105 895.548L897.806 891.686C896.731 891.283 896.731 889.717 897.806 889.314Z" fill="url(#paint1_linear_69_2)"/>
<path d="M520.719 1168.5L523.06 1174.94L529.497 1177.28C530.168 1177.53 530.168 1178.47 529.497 1178.72L523.06 1181.06L520.719 1187.5C520.475 1188.17 519.525 1188.17 519.281 1187.5L516.94 1181.06L510.504 1178.72C509.832 1178.47 509.832 1177.53 510.504 1177.28L516.94 1174.94L519.281 1168.5C519.525 1167.83 520.475 1167.83 520.719 1168.5Z" fill="url(#paint2_linear_69_2)"/>
<path d="M540.503 903.281L546.94 900.94L549.281 894.503C549.525 893.832 550.475 893.832 550.719 894.503L553.06 900.94L559.496 903.281C560.168 903.525 560.168 904.475 559.496 904.719L553.06 907.06L550.719 913.496C550.475 914.168 549.525 914.168 549.281 913.496L546.94 907.06L540.503 904.719C539.832 904.475 539.832 903.525 540.503 903.281Z" fill="url(#paint3_linear_69_2)"/>
<path d="M948.503 1177.28L954.94 1174.94L957.281 1168.5C957.525 1167.83 958.475 1167.83 958.719 1168.5L961.06 1174.94L967.496 1177.28C968.168 1177.53 968.168 1178.47 967.496 1178.72L961.06 1181.06L958.719 1187.5C958.475 1188.17 957.525 1188.17 957.281 1187.5L954.94 1181.06L948.503 1178.72C947.832 1178.47 947.832 1177.53 948.503 1177.28Z" fill="url(#paint4_linear_69_2)"/>
<path d="M938.503 909.281L944.94 906.94L947.281 900.503C947.525 899.832 948.475 899.832 948.719 900.503L951.06 906.94L957.496 909.281C958.168 909.525 958.168 910.475 957.496 910.719L951.06 913.06L948.719 919.496C948.475 920.168 947.525 920.168 947.281 919.496L944.94 913.06L938.503 910.719C937.832 910.475 937.832 909.525 938.503 909.281Z" fill="url(#paint5_linear_69_2)"/>
<circle cx="980.5" cy="1846.5" r="372.5" stroke="url(#paint6_linear_69_2)" stroke-width="50"/>
<rect x="509" y="928" width="470" height="214" rx="11.3263" stroke="url(#paint7_linear_69_2)" stroke-width="4"/>
<text opacity="0.9" fill="#212121" style="white-space: pre" xml:space="preserve" font-family="Poppins" font-size="23.8273" letter-spacing="0em"><tspan x="531" y="1050.84">para advogados da OAB/PI e depois</tspan></text>
<text fill="#02A378" style="white-space: pre" xml:space="preserve" font-family="Poppins" font-size="25" font-weight="bold" letter-spacing="0em"><tspan x="755.785" y="1005">no primeiro m&#xea;s </tspan></text>
<text fill="#02A378" style="white-space: pre" xml:space="preserve" font-family="Poppins" font-size="50" font-weight="bold" letter-spacing="0em"><tspan x="531" y="1005">R$19,90</tspan><tspan x="745.189" y="1005"> </tspan></text>
<text fill="#02A378" style="white-space: pre" xml:space="preserve" font-family="Poppins" font-size="40" font-weight="bold" letter-spacing="0em"><tspan x="723.822" y="1005">*</tspan></text>
<text fill="#02A378" style="white-space: pre" xml:space="preserve" font-family="Poppins" font-size="30" font-weight="bold" letter-spacing="0em"><tspan x="741.986" y="1107.5"> </tspan></text>
<text fill="#02A378" style="white-space: pre" xml:space="preserve" font-family="Poppins" font-size="25" font-weight="bold" letter-spacing="0em"><tspan x="748.344" y="1107.5">cont&#xed;nuo</tspan></text>
<text fill="#02A378" style="white-space: pre" xml:space="preserve" font-family="Poppins" font-size="50" font-weight="bold" letter-spacing="0em"><tspan x="531" y="1107.5">30% OFF</tspan></text>
<text fill="#606762" style="white-space: pre" xml:space="preserve" font-family="Poppins" font-size="11" letter-spacing="0em" text-anchor="middle"><tspan x="744" y="1132">*Válido no primeiro mês para assinantes no plano degustação.</tspan></text>
<text fill="#212121" style="white-space: pre" xml:space="preserve" font-family="Poppins" font-size="60" font-weight="bold" letter-spacing="0em"><tspan x="100" y="638">Advogado, voc&#xea; ainda </tspan><tspan x="100" y="716">faz tudo no manual?</tspan></text>
<text fill="#212121" style="white-space: pre" xml:space="preserve" font-family="Poppins" font-size="35" letter-spacing="0em"><tspan x="100" y="782.75">Quem perde tempo no operacional </tspan><tspan x="100" y="827.75">costuma deixar dinheiro na mesa.</tspan></text>
</g>
<defs>
<linearGradient id="paint0_linear_69_2" x1="508" y1="1162" x2="475" y2="1162" gradientUnits="userSpaceOnUse">
<stop stop-color="#01AB7D"/>
<stop offset="1" stop-color="#008F69"/>
</linearGradient>
<linearGradient id="paint1_linear_69_2" x1="913" y1="874" x2="913" y2="907" gradientUnits="userSpaceOnUse">
<stop stop-color="#01AB7D"/>
<stop offset="1" stop-color="#008F69"/>
</linearGradient>
<linearGradient id="paint2_linear_69_2" x1="530" y1="1178" x2="510" y2="1178" gradientUnits="userSpaceOnUse">
<stop stop-color="#01AB7D"/>
<stop offset="1" stop-color="#008F69"/>
</linearGradient>
<linearGradient id="paint3_linear_69_2" x1="550" y1="894" x2="550" y2="914" gradientUnits="userSpaceOnUse">
<stop stop-color="#01AB7D"/>
<stop offset="1" stop-color="#008F69"/>
</linearGradient>
<linearGradient id="paint4_linear_69_2" x1="958" y1="1168" x2="958" y2="1188" gradientUnits="userSpaceOnUse">
<stop stop-color="#01AB7D"/>
<stop offset="1" stop-color="#008F69"/>
</linearGradient>
<linearGradient id="paint5_linear_69_2" x1="948" y1="900" x2="948" y2="920" gradientUnits="userSpaceOnUse">
<stop stop-color="#01AB7D"/>
<stop offset="1" stop-color="#008F69"/>
</linearGradient>
<linearGradient id="paint6_linear_69_2" x1="583" y1="1846.5" x2="1378" y2="1846.5" gradientUnits="userSpaceOnUse">
<stop stop-color="#12A67A"/>
<stop offset="1" stop-color="#75D9B5"/>
</linearGradient>
<linearGradient id="paint7_linear_69_2" x1="507" y1="1035" x2="981" y2="1035" gradientUnits="userSpaceOnUse">
<stop stop-color="#12A67A"/>
<stop offset="1" stop-color="#75D9B5"/>
</linearGradient>
<clipPath id="clip0_69_2">
<rect width="1080" height="1920" fill="white"/>
</clipPath>
</defs>
</svg>
